<svg width="4478" height="4324" viewBox="0 0 4478 4324" fill="none" xmlns="http://www.w3.org/2000/svg">
<path d="M2168.25 593.835L2413.8 823.661C2425.31 834.426 2440.33 840.647 2456.07 841.168L2792.21 852.29C2800.11 852.551 2806.45 858.891 2806.71 866.786L2817.83 1202.93C2818.35 1218.67 2824.57 1233.69 2835.34 1245.2L3065.16 1490.75C3070.56 1496.52 3070.56 1505.48 3065.16 1511.25L2835.34 1756.8C2824.57 1768.31 2818.35 1783.33 2817.83 1799.07L2806.71 2135.21C2806.45 2143.11 2800.11 2149.45 2792.21 2149.71L2456.07 2160.83C2440.33 2161.35 2425.31 2167.57 2413.8 2178.34L2168.25 2408.16C2162.48 2413.56 2153.52 2413.56 2147.75 2408.16L1902.2 2178.34C1890.69 2167.57 1875.67 2161.35 1859.93 2160.83L1523.79 2149.71C1515.89 2149.45 1509.55 2143.11 1509.29 2135.21L1498.17 1799.07C1497.65 1783.33 1491.43 1768.31 1480.66 1756.8L1250.84 1511.25C1245.44 1505.48 1245.44 1496.52 1250.84 1490.75L1480.66 1245.2C1491.43 1233.69 1497.65 1218.67 1498.17 1202.93L1509.29 866.786C1509.55 858.891 1515.89 852.551 1523.79 852.29L1859.93 841.168C1875.67 840.647 1890.69 834.426 1902.2 823.661L2147.75 593.835C2153.52 588.437 2162.48 588.437 2168.25 593.835Z" stroke="url(#paint0_linear_538_3)" stroke-width="50"/>
<path d="M437.096 1857V2161.5V2193H541.598C508.798 1816.6 595.931 1666.5 643.598 1638.5C753.198 1533.7 1045.26 1567.5 1177.6 1597.5C1043.2 1363.5 1137.93 1103 1202.1 1002C1262.5 884 1546.6 711.5 1681.1 640C1856.3 543.2 2072.43 350 2158.6 265.5V0L2133.6 96H2028.1L2107.1 165.5C2005.1 302.7 1772.6 463 1669.1 526L1242.6 795C990.598 967.4 985.931 1315.5 1015.1 1468H790.096C500.496 1467.2 434.096 1727 437.096 1857Z" fill="url(#paint1_linear_538_3)"/>
<path d="M3880.1 1857V2161.5V2193H3775.6C3808.4 1816.6 3721.26 1666.5 3673.6 1638.5C3564 1533.7 3271.93 1567.5 3139.6 1597.5C3274 1363.5 3179.26 1103 3115.1 1002C3054.7 884 2770.6 711.5 2636.1 640C2460.9 543.2 2244.76 350 2158.6 265.5V0L2183.6 96H2289.1L2210.1 165.5C2312.1 302.7 2544.6 463 2648.1 526L3074.6 795C3326.6 967.4 3331.26 1315.5 3302.1 1468H3527.1C3816.7 1467.2 3883.1 1727 3880.1 1857Z" fill="url(#paint2_linear_538_3)"/>
<path d="M1610.5 3602.5L4365 1933.5C4140.2 2016.7 3311.67 2411.17 2925.5 2598L2198 3030.5L1511.5 3438C1452.3 3476 1476.17 3540.17 1495.5 3567.5C1528.3 3628.3 1585.83 3616.17 1610.5 3602.5Z" fill="url(#paint3_linear_538_3)"/>
<path d="M2754.5 3603L0.000976562 1934C224.802 2017.2 1053.33 2411.67 1439.5 2598.5L2167 3031L2853.5 3438.5C2912.7 3476.5 2888.83 3540.67 2869.5 3568C2836.7 3628.8 2779.17 3616.67 2754.5 3603Z" fill="url(#paint4_linear_538_3)"/>
<path d="M1920.66 1218.63C1925.05 1218.63 1927.88 1217.27 1929.13 1214.55C1930.59 1211.62 1931.33 1207.02 1931.33 1200.75C1931.33 1186.12 1928.3 1174.73 1922.23 1166.57C1916.17 1158.42 1906.14 1154.35 1892.13 1154.35C1883.98 1154.35 1876.14 1156.12 1868.61 1159.68C1861.09 1163.02 1854.29 1167.72 1848.23 1173.79C1842.38 1179.64 1837.47 1186.43 1833.49 1194.17C1829.73 1201.9 1827.54 1210.06 1826.91 1218.63H1920.66ZM1994.98 1255C1985.57 1255 1978.15 1252.91 1972.72 1248.73C1967.28 1244.55 1963.1 1239.74 1960.17 1234.3C1956.83 1241.2 1951.71 1246.43 1944.81 1249.98C1937.91 1253.33 1929.76 1255 1920.35 1255H1762V1218.63H1791.16V1030.49H1826.59V1155.91C1834.12 1145.67 1843.74 1137.1 1855.44 1130.2C1867.36 1123.09 1880.84 1119.54 1895.89 1119.54C1907.18 1119.54 1917.22 1121.53 1926 1125.5C1934.98 1129.47 1942.51 1135.01 1948.57 1142.12C1954.63 1149.01 1959.23 1157.27 1962.37 1166.89C1965.5 1176.5 1967.07 1186.96 1967.07 1198.24C1967.07 1205.56 1969.48 1210.79 1974.28 1213.92C1979.09 1217.06 1986.3 1218.63 1995.92 1218.63H2007.21C2010.14 1218.63 2012.23 1219.46 2013.48 1221.13C2014.94 1222.81 2015.68 1224.79 2015.68 1227.09V1246.22C2015.68 1247.89 2014.84 1249.77 2013.17 1251.86C2011.7 1253.95 2009.72 1255 2007.21 1255H1994.98ZM2164.4 1246.22C2164.4 1247.89 2163.67 1249.77 2162.2 1251.86C2160.95 1253.95 2158.76 1255 2155.62 1255H2149.66C2142.97 1255 2136.28 1253.64 2129.59 1250.92C2123.11 1248.21 2117.78 1244.97 2113.6 1241.2C2109.84 1247.06 2105.66 1250.82 2101.06 1252.49C2096.67 1254.16 2092.17 1255 2087.58 1255H2005.42C2002.29 1255 2000.09 1254.16 1998.84 1252.49C1997.58 1250.82 1996.95 1248.94 1996.95 1246.85V1228.35C1996.95 1226.05 1997.69 1223.85 1999.15 1221.76C2000.4 1219.67 2002.49 1218.63 2005.42 1218.63H2097.92C2096.04 1215.28 2094.26 1211 2092.59 1205.77C2091.13 1200.54 2089.98 1193.12 2089.14 1183.51C2088.1 1172.85 2085.28 1165.42 2080.68 1161.24C2076.29 1156.85 2070.43 1154.66 2063.12 1154.66C2058.94 1154.66 2053.61 1155.39 2047.13 1156.85C2040.65 1158.11 2034.16 1160.3 2027.68 1163.44L2018.9 1129.26C2021.41 1128.42 2024.65 1127.38 2028.62 1126.12C2032.81 1124.87 2037.2 1123.72 2041.79 1122.67C2046.39 1121.42 2051.1 1120.38 2055.91 1119.54C2060.92 1118.7 2065.63 1118.28 2070.02 1118.28C2080.05 1118.28 2088.41 1120.06 2095.1 1123.62C2102 1127.17 2107.54 1131.77 2111.72 1137.41C2116.11 1143.06 2119.35 1149.33 2121.44 1156.23C2123.53 1162.92 2124.89 1169.5 2125.52 1175.98C2125.94 1180.16 2126.56 1184.76 2127.4 1189.78C2128.44 1194.59 2129.8 1199.19 2131.47 1203.58C2133.15 1207.76 2135.34 1211.31 2138.06 1214.24C2140.78 1217.16 2144.23 1218.63 2148.41 1218.63H2155.62C2158.96 1218.63 2161.26 1219.46 2162.52 1221.13C2163.77 1222.81 2164.4 1224.79 2164.4 1227.09V1246.22ZM2047.13 1081.28C2047.13 1076.27 2048.9 1071.98 2052.46 1068.43C2056.22 1064.87 2060.71 1063.1 2065.94 1063.1C2071.37 1063.1 2075.87 1064.87 2079.42 1068.43C2083.19 1071.98 2085.07 1076.27 2085.07 1081.28C2085.07 1086.3 2083.19 1090.59 2079.42 1094.14C2075.87 1097.69 2071.37 1099.47 2065.94 1099.47C2060.71 1099.47 2056.22 1097.69 2052.46 1094.14C2048.9 1090.59 2047.13 1086.3 2047.13 1081.28ZM2153.94 1255C2150.38 1255 2148.08 1254.16 2147.04 1252.49C2145.99 1250.82 2145.47 1248.94 2145.47 1246.85V1228.35C2145.47 1226.05 2146.2 1223.85 2147.67 1221.76C2148.92 1219.67 2151.01 1218.63 2153.94 1218.63H2184.04C2188.64 1218.63 2191.67 1217.16 2193.13 1214.24C2194.8 1211.31 2195.64 1207.34 2195.64 1202.32V1030.49H2231.7V1189.78C2231.7 1198.14 2233.58 1205.04 2237.35 1210.47C2241.32 1215.91 2248.63 1218.63 2259.3 1218.63H2270.27C2273.82 1218.63 2276.12 1219.46 2277.17 1221.13C2278.21 1222.81 2278.74 1224.79 2278.74 1227.09V1246.22C2278.74 1247.89 2278 1249.77 2276.54 1251.86C2275.29 1253.95 2273.2 1255 2270.27 1255H2258.04C2249.05 1255 2241.74 1252.91 2236.09 1248.73C2230.66 1244.34 2226.48 1239.53 2223.55 1234.3C2219.99 1241.2 2214.98 1246.43 2208.5 1249.98C2202.02 1253.33 2194.39 1255 2185.61 1255H2153.94ZM2268.46 1255C2264.91 1255 2262.61 1254.16 2261.56 1252.49C2260.52 1250.82 2260 1248.94 2260 1246.85V1228.35C2260 1226.05 2260.73 1223.85 2262.19 1221.76C2263.44 1219.67 2265.54 1218.63 2268.46 1218.63H2298.56C2303.16 1218.63 2306.19 1217.16 2307.66 1214.24C2309.33 1211.31 2310.17 1207.34 2310.17 1202.32V1130.2H2345.91V1189.78C2345.91 1198.14 2347.9 1205.04 2351.87 1210.47C2355.84 1215.91 2363.05 1218.63 2373.51 1218.63H2384.48C2388.04 1218.63 2390.34 1219.46 2391.38 1221.13C2392.43 1222.81 2392.95 1224.79 2392.95 1227.09V1246.22C2392.95 1247.89 2392.22 1249.77 2390.75 1251.86C2389.5 1253.95 2387.41 1255 2384.48 1255H2372.57C2363.37 1255 2355.95 1252.81 2350.3 1248.42C2344.87 1244.03 2340.69 1239.22 2337.76 1233.99C2334.21 1240.05 2329.19 1245.07 2322.71 1249.04C2316.44 1253.01 2308.91 1255 2300.13 1255H2268.46ZM2382.68 1255C2379.13 1255 2376.83 1254.16 2375.78 1252.49C2374.74 1250.82 2374.21 1248.94 2374.21 1246.85V1228.35C2374.21 1226.05 2374.95 1223.85 2376.41 1221.76C2377.66 1219.67 2379.75 1218.63 2382.68 1218.63H2412.78C2417.38 1218.63 2420.41 1217.16 2421.88 1214.24C2423.55 1211.31 2424.39 1207.34 2424.39 1202.32V1030.49H2460.45V1189.78C2460.45 1198.14 2462.33 1205.04 2466.09 1210.47C2470.06 1215.91 2477.38 1218.63 2488.04 1218.63H2499.01C2502.57 1218.63 2504.87 1219.46 2505.91 1221.13C2506.96 1222.81 2507.48 1224.79 2507.48 1227.09V1246.22C2507.48 1247.89 2506.75 1249.77 2505.29 1251.86C2504.03 1253.95 2501.94 1255 2499.01 1255H2486.79C2477.8 1255 2470.48 1252.91 2464.84 1248.73C2459.4 1244.34 2455.22 1239.53 2452.29 1234.3C2448.74 1241.2 2443.72 1246.43 2437.24 1249.98C2430.76 1253.33 2423.13 1255 2414.35 1255H2382.68ZM2538.6 1218.63C2533.16 1213.82 2528.56 1207.76 2524.8 1200.44C2521.04 1193.12 2519.16 1184.76 2519.16 1175.35C2519.16 1167.83 2520.41 1160.51 2522.92 1153.4C2525.43 1146.3 2529.4 1139.92 2534.83 1134.28C2540.48 1128.63 2547.59 1124.14 2556.16 1120.79C2564.73 1117.45 2574.97 1115.78 2586.89 1115.78C2591.69 1115.78 2596.92 1116.09 2602.57 1116.72C2608.21 1117.14 2614.59 1117.87 2621.69 1118.91L2617.3 1154.66C2612.08 1153.82 2607.37 1153.2 2603.19 1152.78C2599.01 1152.36 2594.83 1152.15 2590.65 1152.15C2579.36 1152.15 2570.69 1154.76 2564.62 1159.99C2558.56 1165.22 2555.53 1172.22 2555.53 1181C2555.53 1187.06 2556.89 1192.5 2559.61 1197.3C2562.53 1201.9 2566.3 1205.77 2570.89 1208.91C2575.49 1212.04 2580.82 1214.45 2586.89 1216.12C2592.95 1217.79 2599.22 1218.63 2605.7 1218.63H2633.29V1255H2497.21C2493.86 1255 2491.67 1254.16 2490.62 1252.49C2489.37 1250.82 2488.74 1248.94 2488.74 1246.85V1228.35C2488.74 1226.05 2489.47 1223.85 2490.94 1221.76C2492.19 1219.67 2494.28 1218.63 2497.21 1218.63H2538.6Z" fill="#0A6A6B"/>
<path d="M1981.12 1495.11C1983.84 1499.92 1986.45 1505.56 1988.96 1512.04C1991.47 1518.31 1993.66 1524.79 1995.54 1531.48C1997.63 1538.17 1999.2 1544.86 2000.25 1551.55C2001.5 1558.24 2002.13 1564.41 2002.13 1570.05C2002.13 1581.97 2000.14 1593.25 1996.17 1603.92C1992.41 1614.58 1986.66 1623.88 1978.92 1631.82C1971.4 1639.98 1961.99 1646.35 1950.7 1650.95C1939.41 1655.76 1926.35 1658.16 1911.51 1658.16C1895.2 1658.16 1881.4 1655.86 1870.12 1651.26C1858.83 1646.67 1849.73 1640.5 1842.83 1632.76C1835.94 1625.24 1830.92 1616.56 1827.78 1606.74C1824.65 1597.12 1823.08 1587.09 1823.08 1576.64C1823.08 1566.6 1824.75 1556.46 1828.1 1546.22C1831.44 1535.77 1836.15 1526.15 1842.21 1517.37L1872.62 1534.62C1867.82 1542.35 1864.37 1549.56 1862.28 1556.25C1860.39 1562.73 1859.45 1569.53 1859.45 1576.64C1859.45 1582.28 1860.5 1587.82 1862.59 1593.25C1864.68 1598.69 1867.92 1603.5 1872.31 1607.68C1876.7 1612.07 1882.24 1615.52 1888.93 1618.03C1895.83 1620.53 1903.88 1621.79 1913.07 1621.79C1921.64 1621.79 1929.17 1620.53 1935.65 1618.03C1942.34 1615.52 1947.98 1612.07 1952.58 1607.68C1957.18 1603.5 1960.63 1598.48 1962.93 1592.63C1965.23 1586.77 1966.38 1580.4 1966.38 1573.5C1966.38 1564.09 1964.6 1553.95 1961.05 1543.08C1957.5 1532.21 1953 1522.6 1947.57 1514.24L1981.12 1495.11ZM1892.69 1453.4C1892.69 1448.39 1894.47 1444.1 1898.02 1440.55C1901.79 1436.99 1906.28 1435.22 1911.51 1435.22C1916.94 1435.22 1921.44 1436.99 1924.99 1440.55C1928.75 1444.1 1930.63 1448.39 1930.63 1453.4C1930.63 1458.42 1928.75 1462.71 1924.99 1466.26C1921.44 1469.81 1916.94 1471.59 1911.51 1471.59C1906.28 1471.59 1901.79 1469.81 1898.02 1466.26C1894.47 1462.71 1892.69 1458.42 1892.69 1453.4ZM2043.8 1367.49H2079.23V1592H2043.8V1367.49ZM1998.96 1325.78C2004.4 1319.51 2009.73 1315.33 2014.95 1313.24C2019.97 1310.94 2024.99 1309.79 2030 1309.79C2033.14 1309.79 2037.11 1310.73 2041.92 1312.61C2046.73 1314.28 2051.75 1316.27 2056.97 1318.57C2062.41 1320.87 2067.63 1323.06 2072.65 1325.15C2077.88 1327.04 2082.58 1327.98 2086.76 1327.98C2091.36 1327.98 2095.02 1326.41 2097.74 1323.27C2100.45 1320.14 2102.54 1316.69 2104.01 1312.93L2119.06 1319.82C2115.09 1329.44 2110.7 1336.23 2105.89 1340.21C2101.08 1343.97 2094.29 1345.85 2085.51 1345.85C2080.7 1345.85 2075.89 1345.01 2071.08 1343.34C2066.48 1341.46 2061.78 1339.37 2056.97 1337.07C2052.16 1334.77 2047.46 1332.78 2042.86 1331.11C2038.26 1329.23 2033.45 1328.29 2028.44 1328.29C2025.51 1328.29 2022.48 1329.13 2019.34 1330.8C2016.21 1332.26 2013.18 1334.25 2010.25 1336.76L1998.96 1325.78ZM2122.24 1406.97C2122.24 1399.44 2124.85 1393.07 2130.07 1387.84C2135.3 1382.41 2141.78 1379.69 2149.52 1379.69C2157.25 1379.69 2163.73 1382.41 2168.96 1387.84C2174.39 1393.07 2177.11 1399.44 2177.11 1406.97C2177.11 1414.91 2174.39 1421.6 2168.96 1427.04C2163.73 1432.26 2157.25 1434.88 2149.52 1434.88C2141.78 1434.88 2135.3 1432.26 2130.07 1427.04C2124.85 1421.6 2122.24 1414.91 2122.24 1406.97ZM2131.96 1407.28C2131.96 1412.3 2133.73 1416.48 2137.29 1419.82C2140.63 1422.96 2144.71 1424.53 2149.52 1424.53C2154.32 1424.53 2158.4 1422.96 2161.74 1419.82C2165.09 1416.48 2166.76 1412.3 2166.76 1407.28C2166.76 1402.47 2165.09 1398.4 2161.74 1395.05C2158.4 1391.71 2154.32 1390.04 2149.52 1390.04C2144.71 1390.04 2140.63 1391.71 2137.29 1395.05C2133.73 1398.4 2131.96 1402.47 2131.96 1407.28ZM2213.99 1592C2207.93 1592 2202.39 1590.64 2197.37 1587.92C2192.35 1585.21 2188.28 1582.07 2185.14 1578.52V1586.98C2185.14 1596.39 2183.89 1605.17 2181.38 1613.32C2178.87 1621.48 2175.11 1628.58 2170.09 1634.65C2165.07 1640.71 2158.9 1645.41 2151.59 1648.76C2144.27 1652.31 2135.81 1654.09 2126.19 1654.09C2122.43 1654.09 2118.77 1653.88 2115.21 1653.46C2111.87 1653.25 2108.94 1652.94 2106.43 1652.52C2104.76 1652.31 2103.3 1652.1 2102.04 1651.89C2100.58 1651.68 2099.22 1651.37 2097.97 1650.95L2101.73 1615.2L2110.51 1617.09C2113.02 1617.5 2115.63 1617.82 2118.35 1618.03C2121.28 1618.44 2123.89 1618.65 2126.19 1618.65C2135.39 1618.65 2141.55 1615.73 2144.69 1609.87C2147.83 1604.02 2149.39 1595.45 2149.39 1584.16V1467.2H2185.14V1526.78C2185.14 1535.14 2187.02 1542.04 2190.78 1547.47C2194.76 1552.91 2202.18 1555.63 2213.05 1555.63H2224.02C2227.58 1555.63 2229.88 1556.46 2230.92 1558.13C2231.97 1559.81 2232.49 1561.79 2232.49 1564.09V1583.22C2232.49 1584.89 2231.86 1586.77 2230.61 1588.86C2229.35 1590.95 2227.16 1592 2224.02 1592H2213.99ZM2381.36 1555.63H2411.77C2415.12 1555.63 2417.31 1556.46 2418.36 1558.13C2419.61 1559.81 2420.24 1561.79 2420.24 1564.09V1583.22C2420.24 1584.89 2419.51 1586.77 2418.05 1588.86C2416.79 1590.95 2414.7 1592 2411.77 1592H2222.07C2218.72 1592 2216.53 1591.16 2215.48 1589.49C2214.23 1587.82 2213.6 1585.94 2213.6 1583.85V1565.35C2213.6 1563.05 2214.33 1560.85 2215.8 1558.76C2217.05 1556.67 2219.14 1555.63 2222.07 1555.63H2261.89C2260.43 1553.33 2258.65 1549.56 2256.56 1544.34C2254.68 1538.9 2253.74 1532 2253.74 1523.64C2253.74 1515.07 2255.41 1506.71 2258.75 1498.56C2262.1 1490.4 2266.8 1483.19 2272.86 1476.92C2278.93 1470.65 2286.24 1465.63 2294.81 1461.87C2303.59 1457.9 2313.21 1455.91 2323.66 1455.91C2332.44 1455.91 2340.39 1457.38 2347.49 1460.3C2354.6 1463.23 2360.66 1467.41 2365.68 1472.84C2370.7 1478.07 2374.57 1484.45 2377.28 1491.97C2380 1499.5 2381.36 1507.86 2381.36 1517.06V1555.63ZM2345.3 1555.63V1515.49C2345.3 1512.56 2344.78 1509.64 2343.73 1506.71C2342.89 1503.78 2341.43 1501.17 2339.34 1498.87C2337.25 1496.36 2334.64 1494.38 2331.5 1492.91C2328.37 1491.45 2324.5 1490.72 2319.9 1490.72C2315.93 1490.72 2312.06 1491.55 2308.3 1493.23C2304.74 1494.69 2301.5 1496.88 2298.58 1499.81C2295.86 1502.53 2293.66 1505.87 2291.99 1509.85C2290.32 1513.82 2289.48 1518.31 2289.48 1523.33C2289.48 1530.85 2290.95 1536.81 2293.87 1541.2C2296.8 1545.38 2300.04 1548.62 2303.59 1550.92C2307.57 1553.43 2312.37 1555 2318.02 1555.63H2345.3ZM2277.88 1418.28C2277.88 1413.27 2279.66 1408.98 2283.21 1405.43C2286.77 1401.87 2291.26 1400.1 2296.7 1400.1C2302.13 1400.1 2306.63 1401.87 2310.18 1405.43C2313.73 1408.98 2315.51 1413.27 2315.51 1418.28C2315.51 1423.3 2313.73 1427.59 2310.18 1431.14C2306.63 1434.69 2302.13 1436.47 2296.7 1436.47C2291.26 1436.47 2286.77 1434.69 2283.21 1431.14C2279.66 1427.59 2277.88 1423.3 2277.88 1418.28ZM2326.8 1418.28C2326.8 1413.27 2328.58 1408.98 2332.13 1405.43C2335.68 1401.87 2340.18 1400.1 2345.61 1400.1C2351.05 1400.1 2355.54 1401.87 2359.1 1405.43C2362.65 1408.98 2364.43 1413.27 2364.43 1418.28C2364.43 1423.3 2362.65 1427.59 2359.1 1431.14C2355.54 1434.69 2351.05 1436.47 2345.61 1436.47C2340.18 1436.47 2335.68 1434.69 2332.13 1431.14C2328.58 1427.59 2326.8 1423.3 2326.8 1418.28ZM2409.46 1592C2406.33 1592 2404.24 1591.16 2403.19 1589.49C2401.94 1587.82 2401.31 1585.94 2401.31 1583.85V1565.35C2401.31 1563.05 2401.94 1560.85 2403.19 1558.76C2404.45 1556.67 2406.54 1555.63 2409.46 1555.63H2446.47V1367.49H2481.9V1592H2409.46ZM2533.44 1367.49H2568.88V1592H2533.44V1367.49Z" fill="#0A6A6B"/>
<path d="M1862.53 1732.99C1866.09 1732.99 1870.37 1732.16 1875.39 1730.49C1871.63 1727.56 1868.7 1724.11 1866.61 1720.14C1864.52 1716.17 1863.47 1712.4 1863.47 1708.85C1863.47 1702.58 1865.67 1697.35 1870.06 1693.17C1874.24 1688.99 1879.15 1686.9 1884.8 1686.9C1890.65 1686.9 1895.46 1688.57 1899.22 1691.92C1902.98 1695.26 1904.86 1700.59 1904.86 1707.91C1904.86 1713.55 1903.4 1718.67 1900.47 1723.27C1897.76 1727.66 1894.2 1731.43 1889.81 1734.56C1885.63 1737.7 1881.03 1740.1 1876.02 1741.77C1871 1743.24 1866.3 1743.97 1861.91 1743.97C1856.05 1743.97 1850.51 1743.55 1845.29 1742.71C1839.85 1741.67 1834.73 1740.41 1829.92 1738.95L1832.74 1728.29C1837.34 1729.75 1841.94 1730.9 1846.54 1731.74C1851.14 1732.58 1856.47 1732.99 1862.53 1732.99ZM1873.82 1708.54C1873.82 1711.46 1874.45 1714.39 1875.7 1717.32C1877.17 1720.03 1879.88 1722.96 1883.86 1726.1C1886.99 1724 1889.6 1721.5 1891.69 1718.57C1893.78 1715.64 1894.83 1712.3 1894.83 1708.54C1894.83 1704.98 1893.78 1702.26 1891.69 1700.38C1889.81 1698.5 1887.51 1697.56 1884.8 1697.56C1881.87 1697.56 1879.26 1698.61 1876.96 1700.7C1874.87 1702.58 1873.82 1705.19 1873.82 1708.54ZM1893.7 1824.9C1889.31 1824.9 1885.23 1825.63 1881.47 1827.09C1877.71 1828.35 1874.36 1830.54 1871.43 1833.68C1868.72 1836.81 1866.52 1840.89 1864.85 1845.9C1863.18 1850.92 1862.34 1857.09 1862.34 1864.41V1892H1891.82C1903.94 1892 1912.09 1889.28 1916.27 1883.85C1920.66 1878.41 1922.86 1870.36 1922.86 1859.7C1922.86 1848.83 1920.35 1840.37 1915.33 1834.3C1910.32 1828.03 1903.11 1824.9 1893.7 1824.9ZM2006.27 1920.22C2006.27 1921.89 2005.54 1923.77 2004.07 1925.86C2002.82 1927.95 2000.73 1929 1997.8 1929H1985.89C1977.11 1929 1969.16 1926.6 1962.06 1921.79C1955.16 1916.77 1949.83 1910.92 1946.06 1904.23C1939.79 1913.01 1931.54 1919.38 1921.29 1923.36C1911.26 1927.12 1899.66 1929 1886.49 1929H1817.5C1810.81 1929 1805.79 1930.88 1802.45 1934.64C1799.31 1938.62 1797.75 1945.93 1797.75 1956.59V2033.73H1762V1947.81C1762 1929.42 1766.91 1915.52 1776.74 1906.11C1786.56 1896.7 1799.31 1892 1814.99 1892H1826.28V1861.27C1826.28 1852.28 1827.74 1843.5 1830.67 1834.93C1833.81 1826.15 1838.2 1818.42 1843.84 1811.73C1849.49 1805.04 1856.38 1799.71 1864.54 1795.73C1872.9 1791.55 1882.31 1789.46 1892.76 1789.46C1903 1789.46 1912.2 1791.24 1920.35 1794.79C1928.5 1798.14 1935.4 1802.84 1941.05 1808.9C1946.9 1814.97 1951.29 1822.28 1954.22 1830.85C1957.35 1839.42 1958.92 1848.73 1958.92 1858.76V1867.54C1958.92 1869.21 1959.13 1871.51 1959.55 1874.44C1959.97 1877.16 1961.12 1879.87 1963 1882.59C1964.88 1885.31 1967.6 1887.71 1971.15 1889.8C1974.91 1891.69 1979.93 1892.63 1986.2 1892.63H1997.8C2000.94 1892.63 2003.13 1893.46 2004.39 1895.13C2005.64 1896.81 2006.27 1898.79 2006.27 1901.09V1920.22ZM2034.93 1732.99C2038.49 1732.99 2042.77 1732.16 2047.79 1730.49C2044.03 1727.56 2041.1 1724.11 2039.01 1720.14C2036.92 1716.17 2035.87 1712.4 2035.87 1708.85C2035.87 1702.58 2038.07 1697.35 2042.46 1693.17C2046.64 1688.99 2051.55 1686.9 2057.2 1686.9C2063.05 1686.9 2067.86 1688.57 2071.62 1691.92C2075.38 1695.26 2077.26 1700.59 2077.26 1707.91C2077.26 1713.55 2075.8 1718.67 2072.87 1723.27C2070.16 1727.66 2066.6 1731.43 2062.21 1734.56C2058.03 1737.7 2053.43 1740.1 2048.42 1741.77C2043.4 1743.24 2038.7 1743.97 2034.31 1743.97C2028.45 1743.97 2022.91 1743.55 2017.69 1742.71C2012.25 1741.67 2007.13 1740.41 2002.32 1738.95L2005.14 1728.29C2009.74 1729.75 2014.34 1730.9 2018.94 1731.74C2023.54 1732.58 2028.87 1732.99 2034.93 1732.99ZM2046.22 1708.54C2046.22 1711.46 2046.85 1714.39 2048.1 1717.32C2049.57 1720.03 2052.28 1722.96 2056.26 1726.1C2059.39 1724 2062 1721.5 2064.09 1718.57C2066.19 1715.64 2067.23 1712.3 2067.23 1708.54C2067.23 1704.98 2066.19 1702.26 2064.09 1700.38C2062.21 1698.5 2059.91 1697.56 2057.2 1697.56C2054.27 1697.56 2051.66 1698.61 2049.36 1700.7C2047.27 1702.58 2046.22 1705.19 2046.22 1708.54ZM1995.93 1929C1992.37 1929 1990.08 1928.16 1989.03 1926.49C1987.98 1924.82 1987.46 1922.94 1987.46 1920.85V1902.35C1987.46 1900.05 1988.19 1897.85 1989.66 1895.76C1990.91 1893.67 1993 1892.63 1995.93 1892.63H2026.03C2030.63 1892.63 2033.66 1891.16 2035.12 1888.24C2036.8 1885.31 2037.63 1881.34 2037.63 1876.32V1804.2H2073.38V1863.78C2073.38 1872.14 2075.37 1879.04 2079.34 1884.47C2083.31 1889.91 2090.52 1892.63 2100.97 1892.63H2111.95C2115.5 1892.63 2117.8 1893.46 2118.85 1895.13C2119.89 1896.81 2120.41 1898.79 2120.41 1901.09V1920.22C2120.41 1921.89 2119.68 1923.77 2118.22 1925.86C2116.97 1927.95 2114.87 1929 2111.95 1929H2100.03C2090.83 1929 2083.41 1926.81 2077.77 1922.42C2072.33 1918.03 2068.15 1913.22 2065.23 1907.99C2061.67 1914.05 2056.66 1919.07 2050.18 1923.04C2043.9 1927.01 2036.38 1929 2027.6 1929H1995.93ZM2012.23 1968.51C2012.23 1963.49 2014.01 1959.21 2017.56 1955.65C2021.12 1952.31 2025.61 1950.64 2031.05 1950.64C2036.48 1950.64 2040.98 1952.31 2044.53 1955.65C2048.08 1959.21 2049.86 1963.49 2049.86 1968.51C2049.86 1973.74 2048.08 1978.02 2044.53 1981.37C2040.98 1984.92 2036.48 1986.7 2031.05 1986.7C2025.61 1986.7 2021.12 1984.92 2017.56 1981.37C2014.01 1978.02 2012.23 1973.74 2012.23 1968.51ZM2060.84 1968.51C2060.84 1963.49 2062.61 1959.21 2066.17 1955.65C2069.72 1952.31 2074.22 1950.64 2079.65 1950.64C2085.09 1950.64 2089.58 1952.31 2093.13 1955.65C2096.69 1959.21 2098.46 1963.49 2098.46 1968.51C2098.46 1973.74 2096.69 1978.02 2093.13 1981.37C2089.58 1984.92 2085.09 1986.7 2079.65 1986.7C2074.22 1986.7 2069.72 1984.92 2066.17 1981.37C2062.61 1978.02 2060.84 1973.74 2060.84 1968.51ZM2110.15 1929C2106.59 1929 2104.29 1928.16 2103.25 1926.49C2102.2 1924.82 2101.68 1922.94 2101.68 1920.85V1902.35C2101.68 1900.05 2102.41 1897.85 2103.88 1895.76C2105.13 1893.67 2107.22 1892.63 2110.15 1892.63H2140.25C2144.85 1892.63 2147.88 1891.16 2149.34 1888.24C2151.02 1885.31 2151.85 1881.34 2151.85 1876.32V1704.49H2187.91V1863.78C2187.91 1872.14 2189.79 1879.04 2193.56 1884.47C2197.53 1889.91 2204.84 1892.63 2215.51 1892.63H2226.48C2230.03 1892.63 2232.33 1893.46 2233.38 1895.13C2234.42 1896.81 2234.95 1898.79 2234.95 1901.09V1920.22C2234.95 1921.89 2234.22 1923.77 2232.75 1925.86C2231.5 1927.95 2229.41 1929 2226.48 1929H2214.25C2205.26 1929 2197.95 1926.91 2192.3 1922.73C2186.87 1918.34 2182.69 1913.53 2179.76 1908.3C2176.21 1915.2 2171.19 1920.43 2164.71 1923.98C2158.23 1927.33 2150.6 1929 2141.82 1929H2110.15ZM2317.18 1825.52C2310.28 1825.52 2302.96 1826.46 2295.23 1828.35C2287.49 1830.02 2281.22 1832.32 2276.41 1835.24C2277.25 1837.12 2278.82 1839.84 2281.11 1843.4C2283.41 1846.95 2286.24 1850.82 2289.58 1855C2292.93 1859.18 2296.48 1863.26 2300.24 1867.23C2304.21 1871.2 2308.19 1874.54 2312.16 1877.26C2316.76 1874.54 2321.04 1871.3 2325.01 1867.54C2329.2 1863.78 2332.75 1859.91 2335.68 1855.94C2338.6 1851.97 2340.9 1848.1 2342.57 1844.34C2344.25 1840.57 2345.08 1837.23 2345.08 1834.3C2345.08 1832.63 2344.25 1831.27 2342.57 1830.23C2340.9 1828.97 2338.71 1828.03 2335.99 1827.4C2333.27 1826.78 2330.24 1826.36 2326.9 1826.15C2323.76 1825.73 2320.52 1825.52 2317.18 1825.52ZM2224.67 1929C2221.54 1929 2219.34 1928.16 2218.09 1926.49C2216.83 1924.82 2216.21 1922.94 2216.21 1920.85V1902.35C2216.21 1900.05 2216.94 1897.85 2218.4 1895.76C2219.66 1893.67 2221.75 1892.63 2224.67 1892.63H2256.66C2261.26 1892.63 2265.33 1892.42 2268.89 1892C2272.44 1891.58 2275.47 1891.06 2277.98 1890.43C2274.22 1886.88 2270.45 1882.91 2266.69 1878.52C2262.93 1874.13 2259.48 1869.84 2256.34 1865.66C2253.21 1861.27 2250.49 1857.19 2248.19 1853.43C2245.89 1849.46 2244.32 1846.22 2243.49 1843.71L2242.23 1818.62C2246.83 1814.86 2252.06 1811.31 2257.91 1807.96C2263.76 1804.62 2269.93 1801.69 2276.41 1799.18C2283.1 1796.67 2289.89 1794.69 2296.79 1793.23C2303.69 1791.76 2310.59 1791.03 2317.49 1791.03C2328.15 1791.03 2337.35 1792.18 2345.08 1794.48C2352.82 1796.57 2359.19 1799.39 2364.21 1802.95C2369.23 1806.5 2372.99 1810.47 2375.5 1814.86C2378.01 1819.04 2379.26 1823.12 2379.26 1827.09C2379.26 1835.87 2376.96 1845.7 2372.36 1856.57C2367.76 1867.44 2358.78 1879.14 2345.4 1891.69C2349.79 1892.31 2357.1 1892.63 2367.35 1892.63H2394C2397.34 1892.63 2399.64 1893.46 2400.9 1895.13C2402.15 1896.81 2402.78 1898.79 2402.78 1901.09V1920.22C2402.78 1921.89 2402.05 1923.77 2400.58 1925.86C2399.33 1927.95 2397.13 1929 2394 1929H2366.72C2352.71 1929 2341.01 1927.54 2331.6 1924.61C2322.19 1921.68 2314.98 1918.76 2309.96 1915.83C2302.02 1920.43 2293.34 1923.77 2283.94 1925.86C2274.74 1927.95 2265.65 1929 2256.66 1929H2224.67ZM2408.59 1669.37C2420.09 1665.19 2431.17 1661.21 2441.83 1657.45C2452.49 1653.69 2463.47 1649.82 2474.76 1645.85V1660.27C2463.26 1664.45 2452.18 1668.43 2441.52 1672.19C2430.86 1675.95 2419.88 1679.82 2408.59 1683.79V1669.37ZM2392.17 1929C2389.24 1929 2387.15 1928.16 2385.9 1926.49C2384.64 1924.82 2384.01 1922.94 2384.01 1920.85V1902.35C2384.01 1900.05 2384.75 1897.85 2386.21 1895.76C2387.46 1893.67 2389.45 1892.63 2392.17 1892.63H2435.13V1804.2H2470.87V1929H2392.17ZM2408.47 1755.28C2408.47 1750.27 2410.25 1745.98 2413.8 1742.43C2417.36 1738.87 2421.85 1737.1 2427.29 1737.1C2432.72 1737.1 2437.22 1738.87 2440.77 1742.43C2444.32 1745.98 2446.1 1750.27 2446.1 1755.28C2446.1 1760.3 2444.32 1764.59 2440.77 1768.14C2437.22 1771.69 2432.72 1773.47 2427.29 1773.47C2421.85 1773.47 2417.36 1771.69 2413.8 1768.14C2410.25 1764.59 2408.47 1760.3 2408.47 1755.28ZM2457.39 1755.28C2457.39 1750.27 2459.17 1745.98 2462.72 1742.43C2466.27 1738.87 2470.77 1737.1 2476.2 1737.1C2481.64 1737.1 2486.13 1738.87 2489.69 1742.43C2493.24 1745.98 2495.02 1750.27 2495.02 1755.28C2495.02 1760.3 2493.24 1764.59 2489.69 1768.14C2486.13 1771.69 2481.64 1773.47 2476.2 1773.47C2470.77 1773.47 2466.27 1771.69 2462.72 1768.14C2459.17 1764.59 2457.39 1760.3 2457.39 1755.28Z" fill="#0A6A6B"/>
<path d="M1753.46 2477.35C1642.8 2477.35 1515.15 2380.42 1448.24 2313.54C1432.8 2298.12 1413.57 2279.73 1392.86 2286.59C1378.81 2291.25 1373.34 2305.48 1372.22 2320.65C1370.85 2339.35 1382.12 2355.98 1396.28 2368.26L1544.5 2496.77C1551.45 2502.8 1559 2508.14 1567.29 2512.16C1626.34 2540.85 1710.86 2561.18 1753.46 2565.85H1928.96C2049.76 2563.45 2105.96 2660.51 2118.96 2709.35V2846.85H2157.96V2629.35C2136.36 2528.55 1996.96 2489.68 1928.96 2483.85L1753.46 2477.35Z" fill="#0A6A6B"/>
<path d="M2562.46 2477.35C2673.13 2477.35 2800.78 2380.42 2867.69 2313.54C2883.13 2298.12 2902.36 2279.73 2923.07 2286.59C2937.12 2291.25 2942.59 2305.48 2943.71 2320.65C2945.08 2339.35 2933.81 2355.98 2919.65 2368.26L2771.43 2496.77C2764.47 2502.8 2756.93 2508.14 2748.64 2512.16C2689.59 2540.85 2605.07 2561.18 2562.46 2565.85H2386.96C2266.16 2563.45 2209.96 2660.51 2196.96 2709.35V2846.85H2157.96V2629.35C2179.56 2528.55 2318.96 2489.68 2386.96 2483.85L2562.46 2477.35Z" fill="#0A6A6B"/>
<path d="M327.297 3970.2C324.364 3973.13 321.564 3976.07 318.897 3979C316.23 3981.67 313.43 3984.47 310.497 3987.4C307.564 3984.47 304.63 3981.67 301.697 3979C299.03 3976.07 296.097 3973.27 292.897 3970.6C296.097 3967.93 299.03 3965.13 301.697 3962.2C304.364 3959 307.164 3955.93 310.097 3953C312.497 3956.2 315.164 3959.13 318.097 3961.8C321.297 3964.47 324.364 3967.27 327.297 3970.2ZM317.297 3891.4C319.164 3887.4 322.63 3884.2 327.697 3881.8C332.764 3879.13 337.43 3878.07 341.697 3878.6C350.497 3879.4 358.097 3883.13 364.497 3889.8C371.164 3896.47 376.497 3905.13 380.497 3915.8C384.764 3926.47 387.697 3938.6 389.297 3952.2C390.897 3965.53 391.03 3979.27 389.697 3993.4C388.364 4007.53 385.43 4021.53 380.897 4035.4C376.63 4049 370.63 4061.53 362.897 4073C355.164 4084.47 345.564 4094.2 334.097 4102.2C322.897 4109.93 309.697 4114.87 294.497 4117C280.097 4113.8 268.097 4107.4 258.497 4097.8C249.164 4088.2 241.697 4077 236.097 4064.2C230.497 4051.13 226.497 4037.4 224.097 4023C221.697 4008.6 220.23 3995.13 219.697 3982.6C219.164 3974.33 219.43 3966.2 220.497 3958.2C221.83 3949.93 223.564 3941.8 225.697 3933.8C229.43 3917.8 235.43 3902.6 243.697 3888.2C252.23 3873.8 263.03 3861.27 276.097 3850.6C281.43 3846.07 288.23 3841.8 296.497 3837.8C305.03 3833.8 312.897 3831.4 320.097 3830.6C326.23 3830.07 331.964 3831.93 337.297 3836.2C342.63 3840.47 346.364 3845.27 348.497 3850.6C331.43 3854.07 317.164 3861.4 305.697 3872.6C294.23 3883.53 285.164 3896.47 278.497 3911.4C271.83 3926.33 267.564 3942.2 265.697 3959C263.83 3975.53 264.23 3991 266.897 4005.4C269.564 4019.8 274.23 4032.07 280.897 4042.2C287.83 4052.33 296.63 4058.33 307.297 4060.2C318.764 4057.8 327.564 4052.47 333.697 4044.2C340.097 4035.93 344.63 4026.33 347.297 4015.4C349.964 4004.47 351.297 3993.27 351.297 3981.8C351.297 3970.07 350.764 3959.53 349.697 3950.2C349.164 3946.73 348.63 3943 348.097 3939C347.564 3934.73 346.897 3930.6 346.097 3926.6C345.297 3922.33 344.23 3918.2 342.897 3914.2C341.83 3910.2 340.497 3906.6 338.897 3903.4C337.03 3899.67 334.764 3896.73 332.097 3894.6C329.43 3892.2 325.83 3890.73 321.297 3890.2L317.297 3891.4ZM614.972 3995C612.039 3997.93 608.972 4000.73 605.772 4003.4C602.572 4006.07 599.505 4008.87 596.572 4011.8C594.439 4008.6 591.905 4005.67 588.972 4003C586.039 4000.33 583.372 3997.53 580.972 3994.6C584.439 3991.93 587.639 3989.13 590.572 3986.2C593.505 3983.27 596.705 3980.6 600.172 3978.2C603.105 3980.87 605.505 3983.8 607.372 3987C609.505 3990.2 612.039 3992.87 614.972 3995ZM659.372 4058.6C657.772 4064.73 655.105 4070.87 651.372 4077C647.905 4083.13 643.772 4088.73 638.972 4093.8C634.172 4098.87 628.705 4103.27 622.572 4107C616.705 4110.47 610.572 4112.6 604.172 4113.4C599.372 4113.93 594.439 4114.2 589.372 4114.2C584.305 4114.2 579.372 4114.2 574.572 4114.2C570.839 4114.2 566.572 4114.33 561.772 4114.6C556.972 4114.87 552.172 4115 547.372 4115C542.572 4115 537.905 4114.6 533.372 4113.8C528.839 4113.27 525.105 4112.07 522.172 4110.2C517.372 4107 513.239 4103 509.772 4098.2C506.305 4093.4 503.505 4088.07 501.372 4082.2C499.239 4076.33 497.772 4070.47 496.972 4064.6C496.439 4058.47 496.572 4052.6 497.372 4047H496.172C494.572 4048.6 491.772 4051.4 487.772 4055.4C484.039 4059.13 479.639 4063.4 474.572 4068.2C469.772 4072.73 464.572 4077.53 458.972 4082.6C453.372 4087.4 448.039 4091.93 442.972 4096.2C438.172 4100.2 433.772 4103.53 429.772 4106.2C425.772 4108.87 422.972 4110.2 421.372 4110.2C418.972 4109.93 416.439 4109.93 413.772 4110.2C411.905 4108.87 410.439 4107.4 409.372 4105.8C408.305 4103.93 408.039 4101.8 408.572 4099.4C410.972 4090.07 412.039 4080.73 411.772 4071.4C411.505 4061.8 411.105 4052.2 410.572 4042.6C410.305 4033 410.305 4023.53 410.572 4014.2C410.839 4004.6 412.572 3995.27 415.772 3986.2C422.705 3980.87 429.639 3975.53 436.572 3970.2C443.505 3964.87 450.572 3959.67 457.772 3954.6C449.772 3968.2 444.039 3982.73 440.572 3998.2C437.105 4013.4 436.039 4028.87 437.372 4044.6C438.972 4042.73 441.639 4039.8 445.372 4035.8C449.372 4031.53 453.772 4027 458.572 4022.2C463.372 4017.13 468.439 4012.07 473.772 4007C479.372 4001.93 484.705 3997.67 489.772 3994.2C495.105 3990.73 499.905 3988.47 504.172 3987.4C508.439 3986.07 511.905 3986.73 514.572 3989.4C515.905 3990.73 516.705 3991.93 516.972 3993C517.239 3994.07 517.239 3995.4 516.972 3997C516.439 4006.07 516.839 4014.87 518.172 4023.4C519.505 4031.67 520.839 4040.2 522.172 4049C522.705 4053.27 523.639 4056.87 524.972 4059.8C526.572 4062.47 529.239 4065.27 532.972 4068.2C536.705 4071.13 540.972 4073.13 545.772 4074.2C550.572 4075 555.505 4075.53 560.572 4075.8C565.905 4076.07 571.239 4076.07 576.572 4075.8C581.905 4075.27 586.839 4075 591.372 4075C597.505 4075 603.639 4075.13 609.772 4075.4C615.905 4075.4 621.772 4075 627.372 4074.2C633.239 4073.13 638.839 4071.53 644.172 4069.4C649.505 4067 654.572 4063.4 659.372 4058.6ZM795.1 4041.8C793.233 4048.73 790.967 4056.2 788.3 4064.2C785.9 4072.2 782.7 4079.8 778.7 4087C774.7 4094.2 769.767 4100.47 763.9 4105.8C758.3 4110.87 751.367 4114.2 743.1 4115.8C740.167 4116.33 737.367 4116.47 734.7 4116.2C732.3 4115.93 729.633 4115.93 726.7 4116.2C716.567 4116.73 708.033 4114.87 701.1 4110.6C694.433 4106.33 688.433 4099.93 683.1 4091.4C677.767 4083.4 674.167 4075.27 672.3 4067C670.7 4058.73 669.367 4049.93 668.3 4040.6C667.5 4033.13 666.567 4025.93 665.5 4019C664.433 4012.07 663.633 4005.27 663.1 3998.6C662.567 3991.67 662.167 3984.73 661.9 3977.8C661.9 3970.87 662.3 3963.53 663.1 3955.8C663.367 3951.53 664.433 3944.87 666.3 3935.8C668.433 3926.73 671.1 3917.67 674.3 3908.6C677.5 3899.53 681.233 3891.53 685.5 3884.6C689.767 3877.4 694.567 3873.53 699.9 3873C703.367 3873 706.033 3874.07 707.9 3876.2C710.3 3883.13 711.767 3890.73 712.3 3899C713.1 3907.27 713.367 3915.67 713.1 3924.2C712.833 3932.73 712.167 3941.27 711.1 3949.8C710.3 3958.33 709.633 3966.2 709.1 3973.4C708.3 3984.33 706.967 3995.4 705.1 4006.6C703.5 4017.8 703.633 4028.73 705.5 4039.4C706.3 4043.93 707.5 4048.47 709.1 4053C710.967 4057.27 713.233 4061.13 715.9 4064.6C718.833 4067.8 722.3 4070.47 726.3 4072.6C730.3 4074.47 734.967 4075.13 740.3 4074.6C743.233 4073.27 746.967 4071.8 751.5 4070.2C756.3 4068.33 760.967 4066.47 765.5 4064.6C770.033 4062.47 774.3 4060.33 778.3 4058.2C782.3 4056.07 785.233 4053.8 787.1 4051.4C788.433 4049.8 789.767 4048.2 791.1 4046.6C792.433 4044.73 793.767 4043.13 795.1 4041.8ZM867.819 3939.4C864.619 3941.53 861.685 3944.07 859.019 3947C856.619 3949.67 853.819 3952.07 850.619 3954.2C848.219 3951 845.685 3947.93 843.019 3945C840.352 3942.07 837.685 3939.13 835.019 3936.2C837.952 3933.53 840.752 3930.87 843.419 3928.2C846.085 3925.27 849.019 3922.73 852.219 3920.6L867.819 3939.4ZM823.819 3935.8C820.619 3938.73 817.685 3941.8 815.019 3945C812.352 3947.93 809.285 3950.73 805.819 3953.4C802.885 3951.27 800.219 3949 797.819 3946.6C795.419 3943.93 792.885 3941.4 790.219 3939C793.152 3935.53 796.219 3932.33 799.419 3929.4C802.885 3926.47 806.085 3923.4 809.019 3920.2C811.419 3922.87 813.952 3925.4 816.619 3927.8C819.285 3930.2 821.685 3932.87 823.819 3935.8ZM848.219 3975C848.219 3983.53 848.219 3992.07 848.219 4000.6C848.485 4009.13 848.885 4017.67 849.419 4026.2C850.219 4040.33 849.819 4054.87 848.219 4069.8C846.619 4084.73 844.752 4099.13 842.619 4113C836.485 4113.53 830.485 4113.67 824.619 4113.4C819.019 4113.4 813.152 4113 807.019 4112.2C807.552 4105.8 808.085 4099 808.619 4091.8C809.419 4084.33 809.952 4076.87 810.219 4069.4C810.752 4061.93 811.019 4054.6 811.019 4047.4C811.019 4039.93 810.752 4033.13 810.219 4027C809.685 4021.93 807.285 4018.2 803.019 4015.8C798.752 4013.13 794.485 4011 790.219 4009.4C800.085 4003.8 809.685 3998.07 819.019 3992.2C828.352 3986.07 838.085 3980.33 848.219 3975ZM1077.69 3995C1074.76 3997.93 1071.69 4000.73 1068.49 4003.4C1065.29 4006.07 1062.22 4008.87 1059.29 4011.8C1057.16 4008.6 1054.62 4005.67 1051.69 4003C1048.76 4000.33 1046.09 3997.53 1043.69 3994.6C1047.16 3991.93 1050.36 3989.13 1053.29 3986.2C1056.22 3983.27 1059.42 3980.6 1062.89 3978.2C1065.82 3980.87 1068.22 3983.8 1070.09 3987C1072.22 3990.2 1074.76 3992.87 1077.69 3995ZM1122.09 4058.6C1120.49 4064.73 1117.82 4070.87 1114.09 4077C1110.62 4083.13 1106.49 4088.73 1101.69 4093.8C1096.89 4098.87 1091.42 4103.27 1085.29 4107C1079.42 4110.47 1073.29 4112.6 1066.89 4113.4C1062.09 4113.93 1057.16 4114.2 1052.09 4114.2C1047.02 4114.2 1042.09 4114.2 1037.29 4114.2C1033.56 4114.2 1029.29 4114.33 1024.49 4114.6C1019.69 4114.87 1014.89 4115 1010.09 4115C1005.29 4115 1000.62 4114.6 996.091 4113.8C991.557 4113.27 987.824 4112.07 984.891 4110.2C980.091 4107 975.957 4103 972.491 4098.2C969.024 4093.4 966.224 4088.07 964.091 4082.2C961.957 4076.33 960.491 4070.47 959.691 4064.6C959.157 4058.47 959.291 4052.6 960.091 4047H958.891C957.291 4048.6 954.491 4051.4 950.491 4055.4C946.757 4059.13 942.357 4063.4 937.291 4068.2C932.491 4072.73 927.291 4077.53 921.691 4082.6C916.091 4087.4 910.757 4091.93 905.691 4096.2C900.891 4100.2 896.491 4103.53 892.491 4106.2C888.491 4108.87 885.691 4110.2 884.091 4110.2C881.691 4109.93 879.157 4109.93 876.491 4110.2C874.624 4108.87 873.157 4107.4 872.091 4105.8C871.024 4103.93 870.757 4101.8 871.291 4099.4C873.691 4090.07 874.757 4080.73 874.491 4071.4C874.224 4061.8 873.824 4052.2 873.291 4042.6C873.024 4033 873.024 4023.53 873.291 4014.2C873.557 4004.6 875.291 3995.27 878.491 3986.2C885.424 3980.87 892.357 3975.53 899.291 3970.2C906.224 3964.87 913.291 3959.67 920.491 3954.6C912.491 3968.2 906.757 3982.73 903.291 3998.2C899.824 4013.4 898.757 4028.87 900.091 4044.6C901.691 4042.73 904.357 4039.8 908.091 4035.8C912.091 4031.53 916.491 4027 921.291 4022.2C926.091 4017.13 931.157 4012.07 936.491 4007C942.091 4001.93 947.424 3997.67 952.491 3994.2C957.824 3990.73 962.624 3988.47 966.891 3987.4C971.157 3986.07 974.624 3986.73 977.291 3989.4C978.624 3990.73 979.424 3991.93 979.691 3993C979.957 3994.07 979.957 3995.4 979.691 3997C979.157 4006.07 979.557 4014.87 980.891 4023.4C982.224 4031.67 983.557 4040.2 984.891 4049C985.424 4053.27 986.357 4056.87 987.691 4059.8C989.291 4062.47 991.957 4065.27 995.691 4068.2C999.424 4071.13 1003.69 4073.13 1008.49 4074.2C1013.29 4075 1018.22 4075.53 1023.29 4075.8C1028.62 4076.07 1033.96 4076.07 1039.29 4075.8C1044.62 4075.27 1049.56 4075 1054.09 4075C1060.22 4075 1066.36 4075.13 1072.49 4075.4C1078.62 4075.4 1084.49 4075 1090.09 4074.2C1095.96 4073.13 1101.56 4071.53 1106.89 4069.4C1112.22 4067 1117.29 4063.4 1122.09 4058.6ZM1308.41 3993.4C1305.48 3996.33 1302.28 3999 1298.81 4001.4C1295.61 4003.8 1292.41 4006.33 1289.21 4009C1286.81 4006.07 1284.41 4003.27 1282.01 4000.6C1279.61 3997.67 1277.35 3994.73 1275.21 3991.8C1278.68 3989.13 1281.88 3986.47 1284.81 3983.8C1288.01 3981.13 1291.35 3978.47 1294.81 3975.8C1296.68 3979 1298.81 3981.93 1301.21 3984.6C1303.88 3987.27 1306.28 3990.2 1308.41 3993.4ZM1328.01 4058.2C1326.95 4064.33 1324.95 4070.6 1322.01 4077C1319.08 4083.13 1315.35 4088.87 1310.81 4094.2C1306.28 4099.27 1301.08 4103.67 1295.21 4107.4C1289.61 4110.87 1283.61 4112.87 1277.21 4113.4C1261.21 4114.73 1245.21 4115 1229.21 4114.2C1213.21 4113.4 1197.21 4113.13 1181.21 4113.4C1159.35 4113.93 1144.15 4104.07 1135.61 4083.8C1134.28 4080.33 1133.48 4077.27 1133.21 4074.6C1132.95 4071.93 1132.95 4068.73 1133.21 4065C1133.75 4049 1137.88 4035 1145.61 4023C1153.35 4010.73 1164.15 4000.47 1178.01 3992.2C1179.08 3991.4 1180.81 3990.47 1183.21 3989.4C1185.88 3988.07 1188.55 3986.87 1191.21 3985.8C1194.15 3984.47 1196.81 3983.4 1199.21 3982.6C1201.88 3981.53 1203.88 3981 1205.21 3981C1208.68 3981 1211.35 3982.07 1213.21 3984.2C1215.08 3986.07 1216.41 3988.6 1217.21 3991.8C1218.28 3994.73 1218.81 3997.8 1218.81 4001C1218.81 4004.2 1218.68 4007 1218.41 4009.4C1216.28 4021.93 1212.41 4034.07 1206.81 4045.8C1201.21 4057.53 1192.95 4066.87 1182.01 4073.8L1182.81 4074.6C1192.68 4074.87 1202.41 4075.13 1212.01 4075.4C1221.61 4075.4 1231.35 4075.27 1241.21 4075C1250.55 4074.73 1260.28 4074.73 1270.41 4075C1280.55 4075.27 1290.28 4074.87 1299.61 4073.8C1304.68 4073.27 1309.75 4071.53 1314.81 4068.6C1320.15 4065.4 1324.55 4061.93 1328.01 4058.2ZM1188.81 4009.4C1179.48 4014.47 1172.01 4021.8 1166.41 4031.4C1161.08 4040.73 1158.41 4050.73 1158.41 4061.4C1167.75 4056.07 1174.68 4048.6 1179.21 4039C1183.75 4029.4 1186.95 4019.53 1188.81 4009.4ZM1653.91 3908.6C1651.25 3905.4 1647.91 3902.07 1643.91 3898.6C1640.18 3895.13 1636.05 3893.13 1631.51 3892.6C1628.05 3892.33 1623.91 3891.93 1619.11 3891.4C1614.58 3890.6 1609.91 3890.33 1605.11 3890.6C1600.31 3890.6 1595.78 3891.27 1591.51 3892.6C1587.51 3893.67 1584.18 3895.8 1581.51 3899C1579.38 3901.4 1578.31 3904.6 1578.31 3908.6C1576.98 3936.07 1576.58 3963.53 1577.11 3991C1577.91 4018.2 1577.11 4045.67 1574.71 4073.4C1573.11 4091.27 1570.05 4109.27 1565.51 4127.4C1555.11 4121.27 1544.58 4115.27 1533.91 4109.4C1523.51 4103.53 1513.11 4097.53 1502.71 4091.4C1506.98 4090.07 1511.11 4088.07 1515.11 4085.4C1519.38 4082.73 1522.05 4079.13 1523.11 4074.6C1524.98 4066.6 1526.05 4056.87 1526.31 4045.4C1526.85 4033.67 1526.98 4021.53 1526.71 4009C1526.45 3996.47 1526.05 3984.07 1525.51 3971.8C1525.25 3959.53 1525.11 3949 1525.11 3940.2C1525.11 3936.47 1525.11 3932.73 1525.11 3929C1525.38 3925.27 1525.25 3921.53 1524.71 3917.8C1524.45 3914.6 1523.65 3911 1522.31 3907C1521.25 3903 1519.38 3899.93 1516.71 3897.8C1514.58 3895.93 1511.91 3894.6 1508.71 3893.8C1505.78 3893 1502.58 3892.47 1499.11 3892.2C1495.91 3891.93 1492.58 3891.8 1489.11 3891.8C1485.91 3891.8 1482.98 3891.8 1480.31 3891.8C1474.98 3891.53 1470.18 3892.73 1465.91 3895.4C1461.91 3897.8 1458.05 3900.87 1454.31 3904.6C1454.58 3896.07 1454.85 3887.4 1455.11 3878.6C1455.65 3869.8 1456.58 3861.13 1457.91 3852.6C1462.18 3848.07 1467.51 3844.33 1473.91 3841.4C1480.31 3838.47 1486.98 3836.47 1493.91 3835.4C1501.11 3834.33 1508.18 3834.2 1515.11 3835C1522.05 3835.8 1528.05 3837.8 1533.11 3841C1535.78 3842.6 1537.78 3844.73 1539.11 3847.4C1540.71 3850.07 1541.78 3853 1542.31 3856.2C1543.11 3859.4 1543.65 3862.6 1543.91 3865.8C1544.18 3869 1544.45 3871.93 1544.71 3874.6H1545.91C1546.45 3867.93 1548.45 3861.8 1551.91 3856.2C1555.38 3850.6 1559.78 3845.93 1565.11 3842.2C1570.71 3838.47 1576.71 3835.93 1583.11 3834.6C1589.78 3833.27 1596.31 3833.4 1602.71 3835C1613.38 3833.67 1621.78 3835.4 1627.91 3840.2C1634.05 3845 1638.85 3851.27 1642.31 3859C1645.78 3866.73 1648.18 3875.13 1649.51 3884.2C1651.11 3893.27 1652.58 3901.4 1653.91 3908.6ZM1862.7 4058.2C1861.64 4064.6 1859.24 4071 1855.5 4077.4C1852.04 4083.53 1847.64 4089.13 1842.3 4094.2C1836.97 4099.27 1831.1 4103.53 1824.7 4107C1818.3 4110.47 1811.77 4112.47 1805.1 4113C1800.57 4113.53 1795.77 4113.67 1790.7 4113.4C1785.9 4113.4 1781.24 4113.4 1776.7 4113.4C1772.17 4113.4 1766.84 4113.53 1760.7 4113.8C1754.57 4114.07 1748.44 4113.93 1742.3 4113.4C1736.17 4113.13 1730.3 4112.33 1724.7 4111C1719.37 4109.4 1714.97 4106.73 1711.5 4103C1709.9 4101.4 1708.44 4099.27 1707.1 4096.6C1706.04 4093.93 1705.1 4091.13 1704.3 4088.2C1703.5 4085.27 1702.7 4082.33 1701.9 4079.4C1701.1 4076.47 1700.3 4073.8 1699.5 4071.4H1698.7C1689.37 4083.4 1677.77 4093.13 1663.9 4100.6C1650.04 4107.8 1635.5 4111.53 1620.3 4111.8C1612.84 4111.8 1606.97 4109.13 1602.7 4103.8C1598.17 4098.47 1596.44 4092.2 1597.5 4085C1598.57 4079.13 1599.5 4073.53 1600.3 4068.2C1601.37 4062.6 1602.57 4056.87 1603.9 4051C1606.3 4041.4 1610.7 4033 1617.1 4025.8C1623.77 4018.33 1631.37 4011.8 1639.9 4006.2C1648.44 4000.6 1657.5 3995.93 1667.1 3992.2C1676.7 3988.2 1685.9 3984.87 1694.7 3982.2C1696.3 3985.93 1698.04 3989.67 1699.9 3993.4C1702.04 3997.13 1704.44 4000.73 1707.1 4004.2C1713.24 4000.47 1719.37 3997 1725.5 3993.8C1731.64 3990.33 1737.77 3986.73 1743.9 3983H1745.1C1742.17 3988.33 1739.37 3995 1736.7 4003C1734.04 4010.73 1732.17 4018.73 1731.1 4027C1730.3 4035.27 1730.7 4043.13 1732.3 4050.6C1733.9 4057.8 1737.5 4063.53 1743.1 4067.8C1746.57 4070.47 1750.7 4072.33 1755.5 4073.4C1760.3 4074.2 1765.24 4074.73 1770.3 4075C1775.37 4075 1780.44 4074.87 1785.5 4074.6C1790.57 4074.33 1795.24 4074.2 1799.5 4074.2C1805.37 4074.2 1811.1 4074.33 1816.7 4074.6C1822.57 4074.87 1828.17 4074.6 1833.5 4073.8C1838.84 4073 1843.9 4071.53 1848.7 4069.4C1853.5 4067 1858.17 4063.27 1862.7 4058.2ZM1698.7 4014.6C1692.3 4016.47 1685.64 4018.87 1678.7 4021.8C1672.04 4024.73 1665.64 4028.33 1659.5 4032.6C1653.37 4036.6 1647.9 4041.4 1643.1 4047C1638.57 4052.33 1635.37 4058.47 1633.5 4065.4V4065.8L1636.7 4069.4L1641.1 4070.2C1647.77 4068.07 1653.64 4065 1658.7 4061C1664.04 4056.73 1668.84 4052.07 1673.1 4047C1677.64 4041.67 1681.9 4036.2 1685.9 4030.6C1689.9 4024.73 1694.17 4019.4 1698.7 4014.6ZM1998.87 4041.8C1997 4048.73 1994.73 4056.2 1992.07 4064.2C1989.67 4072.2 1986.47 4079.8 1982.47 4087C1978.47 4094.2 1973.53 4100.47 1967.67 4105.8C1962.07 4110.87 1955.13 4114.2 1946.87 4115.8C1943.93 4116.33 1941.13 4116.47 1938.47 4116.2C1936.07 4115.93 1933.4 4115.93 1930.47 4116.2C1920.33 4116.73 1911.8 4114.87 1904.87 4110.6C1898.2 4106.33 1892.2 4099.93 1886.87 4091.4C1881.53 4083.4 1877.93 4075.27 1876.07 4067C1874.47 4058.73 1873.13 4049.93 1872.07 4040.6C1871.27 4033.13 1870.33 4025.93 1869.27 4019C1868.2 4012.07 1867.4 4005.27 1866.87 3998.6C1866.33 3991.67 1865.93 3984.73 1865.67 3977.8C1865.67 3970.87 1866.07 3963.53 1866.87 3955.8C1867.13 3951.53 1868.2 3944.87 1870.07 3935.8C1872.2 3926.73 1874.87 3917.67 1878.07 3908.6C1881.27 3899.53 1885 3891.53 1889.27 3884.6C1893.53 3877.4 1898.33 3873.53 1903.67 3873C1907.13 3873 1909.8 3874.07 1911.67 3876.2C1914.07 3883.13 1915.53 3890.73 1916.07 3899C1916.87 3907.27 1917.13 3915.67 1916.87 3924.2C1916.6 3932.73 1915.93 3941.27 1914.87 3949.8C1914.07 3958.33 1913.4 3966.2 1912.87 3973.4C1912.07 3984.33 1910.73 3995.4 1908.87 4006.6C1907.27 4017.8 1907.4 4028.73 1909.27 4039.4C1910.07 4043.93 1911.27 4048.47 1912.87 4053C1914.73 4057.27 1917 4061.13 1919.67 4064.6C1922.6 4067.8 1926.07 4070.47 1930.07 4072.6C1934.07 4074.47 1938.73 4075.13 1944.07 4074.6C1947 4073.27 1950.73 4071.8 1955.27 4070.2C1960.07 4068.33 1964.73 4066.47 1969.27 4064.6C1973.8 4062.47 1978.07 4060.33 1982.07 4058.2C1986.07 4056.07 1989 4053.8 1990.87 4051.4C1992.2 4049.8 1993.53 4048.2 1994.87 4046.6C1996.2 4044.73 1997.53 4043.13 1998.87 4041.8ZM2185.99 3993.4C2183.06 3996.33 2179.86 3999 2176.39 4001.4C2173.19 4003.8 2169.99 4006.33 2166.79 4009C2164.39 4006.07 2161.99 4003.27 2159.59 4000.6C2157.19 3997.67 2154.92 3994.73 2152.79 3991.8C2156.26 3989.13 2159.46 3986.47 2162.39 3983.8C2165.59 3981.13 2168.92 3978.47 2172.39 3975.8C2174.26 3979 2176.39 3981.93 2178.79 3984.6C2181.46 3987.27 2183.86 3990.2 2185.99 3993.4ZM2205.59 4058.2C2204.52 4064.33 2202.52 4070.6 2199.59 4077C2196.66 4083.13 2192.92 4088.87 2188.39 4094.2C2183.86 4099.27 2178.66 4103.67 2172.79 4107.4C2167.19 4110.87 2161.19 4112.87 2154.79 4113.4C2138.79 4114.73 2122.79 4115 2106.79 4114.2C2090.79 4113.4 2074.79 4113.13 2058.79 4113.4C2036.92 4113.93 2021.72 4104.07 2013.19 4083.8C2011.86 4080.33 2011.06 4077.27 2010.79 4074.6C2010.52 4071.93 2010.52 4068.73 2010.79 4065C2011.32 4049 2015.46 4035 2023.19 4023C2030.92 4010.73 2041.72 4000.47 2055.59 3992.2C2056.66 3991.4 2058.39 3990.47 2060.79 3989.4C2063.46 3988.07 2066.12 3986.87 2068.79 3985.8C2071.72 3984.47 2074.39 3983.4 2076.79 3982.6C2079.46 3981.53 2081.46 3981 2082.79 3981C2086.26 3981 2088.92 3982.07 2090.79 3984.2C2092.66 3986.07 2093.99 3988.6 2094.79 3991.8C2095.86 3994.73 2096.39 3997.8 2096.39 4001C2096.39 4004.2 2096.26 4007 2095.99 4009.4C2093.86 4021.93 2089.99 4034.07 2084.39 4045.8C2078.79 4057.53 2070.52 4066.87 2059.59 4073.8L2060.39 4074.6C2070.26 4074.87 2079.99 4075.13 2089.59 4075.4C2099.19 4075.4 2108.92 4075.27 2118.79 4075C2128.12 4074.73 2137.86 4074.73 2147.99 4075C2158.12 4075.27 2167.86 4074.87 2177.19 4073.8C2182.26 4073.27 2187.32 4071.53 2192.39 4068.6C2197.72 4065.4 2202.12 4061.93 2205.59 4058.2ZM2066.39 4009.4C2057.06 4014.47 2049.59 4021.8 2043.99 4031.4C2038.66 4040.73 2035.99 4050.73 2035.99 4061.4C2045.32 4056.07 2052.26 4048.6 2056.79 4039C2061.32 4029.4 2064.52 4019.53 2066.39 4009.4ZM2394.01 3993.4C2391.07 3996.33 2387.87 3999 2384.41 4001.4C2381.21 4003.8 2378.01 4006.33 2374.81 4009C2372.41 4006.07 2370.01 4003.27 2367.61 4000.6C2365.21 3997.67 2362.94 3994.73 2360.81 3991.8C2364.27 3989.13 2367.47 3986.47 2370.41 3983.8C2373.61 3981.13 2376.94 3978.47 2380.41 3975.8C2382.27 3979 2384.41 3981.93 2386.81 3984.6C2389.47 3987.27 2391.87 3990.2 2394.01 3993.4ZM2413.61 4058.2C2412.54 4064.33 2410.54 4070.6 2407.61 4077C2404.67 4083.13 2400.94 4088.87 2396.41 4094.2C2391.87 4099.27 2386.67 4103.67 2380.81 4107.4C2375.21 4110.87 2369.21 4112.87 2362.81 4113.4C2346.81 4114.73 2330.81 4115 2314.81 4114.2C2298.81 4113.4 2282.81 4113.13 2266.81 4113.4C2244.94 4113.93 2229.74 4104.07 2221.21 4083.8C2219.87 4080.33 2219.07 4077.27 2218.81 4074.6C2218.54 4071.93 2218.54 4068.73 2218.81 4065C2219.34 4049 2223.47 4035 2231.21 4023C2238.94 4010.73 2249.74 4000.47 2263.61 3992.2C2264.67 3991.4 2266.41 3990.47 2268.81 3989.4C2271.47 3988.07 2274.14 3986.87 2276.81 3985.8C2279.74 3984.47 2282.41 3983.4 2284.81 3982.6C2287.47 3981.53 2289.47 3981 2290.81 3981C2294.27 3981 2296.94 3982.07 2298.81 3984.2C2300.67 3986.07 2302.01 3988.6 2302.81 3991.8C2303.87 3994.73 2304.41 3997.8 2304.41 4001C2304.41 4004.2 2304.27 4007 2304.01 4009.4C2301.87 4021.93 2298.01 4034.07 2292.41 4045.8C2286.81 4057.53 2278.54 4066.87 2267.61 4073.8L2268.41 4074.6C2278.27 4074.87 2288.01 4075.13 2297.61 4075.4C2307.21 4075.4 2316.94 4075.27 2326.81 4075C2336.14 4074.73 2345.87 4074.73 2356.01 4075C2366.14 4075.27 2375.87 4074.87 2385.21 4073.8C2390.27 4073.27 2395.34 4071.53 2400.41 4068.6C2405.74 4065.4 2410.14 4061.93 2413.61 4058.2ZM2274.41 4009.4C2265.07 4014.47 2257.61 4021.8 2252.01 4031.4C2246.67 4040.73 2244.01 4050.73 2244.01 4061.4C2253.34 4056.07 2260.27 4048.6 2264.81 4039C2269.34 4029.4 2272.54 4019.53 2274.41 4009.4ZM2737.28 3993.8C2734.08 3996.73 2730.88 3999.53 2727.68 4002.2C2724.48 4004.87 2721.14 4007.4 2717.68 4009.8C2712.61 4004.47 2707.94 3999 2703.68 3993.4L2724.88 3976.6C2727.01 3979.53 2729.14 3982.47 2731.28 3985.4C2733.41 3988.07 2735.41 3990.87 2737.28 3993.8ZM2692.08 3993C2688.88 3995.93 2685.54 3998.73 2682.08 4001.4C2678.61 4004.07 2675.14 4006.87 2671.68 4009.8C2669.54 4006.87 2667.28 4004.07 2664.88 4001.4C2662.74 3998.73 2660.74 3995.8 2658.88 3992.6C2662.61 3989.93 2666.21 3987.27 2669.68 3984.6C2673.41 3981.93 2677.14 3979.13 2680.88 3976.2C2682.74 3979.13 2684.61 3981.93 2686.48 3984.6C2688.34 3987.27 2690.21 3990.07 2692.08 3993ZM2782.48 4058.6C2778.74 4069 2773.01 4078.6 2765.28 4087.4C2757.81 4095.93 2749.01 4102.47 2738.88 4107C2732.74 4109.93 2724.21 4111.93 2713.28 4113C2702.61 4114.07 2691.14 4114.6 2678.88 4114.6C2666.88 4114.87 2655.01 4114.73 2643.28 4114.2C2631.81 4113.93 2622.34 4113.93 2614.88 4114.2C2610.88 4114.2 2606.88 4113.8 2602.88 4113C2599.14 4112.2 2595.68 4110.33 2592.48 4107.4C2587.94 4103.4 2584.48 4098.87 2582.08 4093.8C2579.68 4088.73 2577.68 4083.27 2576.08 4077.4C2574.74 4071.53 2573.81 4065.67 2573.28 4059.8C2572.74 4053.93 2572.08 4048.2 2571.28 4042.6H2570.48C2566.48 4048.47 2561.68 4054.6 2556.08 4061C2550.48 4067.4 2544.61 4073.67 2538.48 4079.8C2532.34 4085.67 2525.94 4091.4 2519.28 4097C2512.88 4102.33 2506.74 4107 2500.88 4111C2499.01 4112.33 2497.01 4113 2494.88 4113C2493.01 4113 2491.28 4112.2 2489.68 4110.6C2498.74 4088.73 2500.61 4066.47 2495.28 4043.8C2493.41 4046.73 2489.54 4051.93 2483.68 4059.4C2477.81 4066.6 2471.41 4074.07 2464.48 4081.8C2457.81 4089.27 2451.28 4095.93 2444.88 4101.8C2438.48 4107.4 2433.81 4110.2 2430.88 4110.2C2429.28 4110.2 2427.14 4110.47 2424.48 4111C2424.21 4109.13 2424.34 4107 2424.88 4104.6C2425.68 4101.93 2426.48 4099.13 2427.28 4096.2C2428.08 4093 2428.88 4089.93 2429.68 4087C2430.48 4083.8 2430.88 4080.87 2430.88 4078.2C2430.88 4071.8 2430.61 4065.27 2430.08 4058.6C2429.54 4051.67 2429.28 4044.87 2429.28 4038.2C2429.28 4031.27 2429.68 4024.6 2430.48 4018.2C2431.54 4011.53 2433.54 4005.4 2436.48 3999.8C2444.48 3993.93 2452.61 3988.6 2460.88 3983.8C2469.14 3978.73 2477.41 3973.53 2485.68 3968.2C2477.41 3977.53 2469.94 3987.8 2463.28 3999C2456.61 4009.93 2452.88 4021.8 2452.08 4034.6C2455.28 4030.33 2459.94 4025 2466.08 4018.6C2472.48 4012.2 2479.28 4005.93 2486.48 3999.8C2493.68 3993.67 2500.88 3988.33 2508.08 3983.8C2515.28 3979.27 2521.54 3976.73 2526.88 3976.2C2529.54 3975.93 2531.68 3977.13 2533.28 3979.8C2533.81 3981.4 2533.94 3982.73 2533.68 3983.8C2533.41 3984.6 2532.88 3985.67 2532.08 3987C2527.54 3993.93 2524.61 4001.8 2523.28 4010.6C2522.21 4019.13 2521.68 4027.4 2521.68 4035.4C2525.41 4031.93 2529.94 4027.53 2535.28 4022.2C2540.88 4016.87 2546.61 4011.67 2552.48 4006.6C2558.61 4001.53 2564.61 3997.13 2570.48 3993.4C2576.61 3989.4 2582.21 3987 2587.28 3986.2C2590.21 3985.93 2592.61 3987 2594.48 3989.4C2595.54 3990.73 2596.08 3991.93 2596.08 3993C2596.34 3994.07 2596.21 3995.4 2595.68 3997C2594.61 4001.8 2593.94 4007.53 2593.68 4014.2C2593.68 4020.87 2594.21 4027.67 2595.28 4034.6C2596.61 4041.27 2598.48 4047.67 2600.88 4053.8C2603.54 4059.67 2606.88 4064.2 2610.88 4067.4C2616.48 4072.2 2623.41 4074.6 2631.68 4074.6C2641.81 4074.33 2651.81 4074.2 2661.68 4074.2C2671.81 4074.2 2681.94 4074.2 2692.08 4074.2C2701.68 4074.47 2711.68 4074.73 2722.08 4075C2732.48 4075.27 2742.48 4074.87 2752.08 4073.8C2757.14 4073.27 2762.48 4071.4 2768.08 4068.2C2773.94 4065 2778.74 4061.8 2782.48 4058.6ZM3110.86 4042.2C3107.93 4053.13 3104.86 4063.93 3101.66 4074.6C3098.46 4085 3092.99 4094.6 3085.26 4103.4C3080.73 4108.73 3076.19 4112.07 3071.66 4113.4C3067.13 4114.73 3061.39 4115.67 3054.46 4116.2C3051.53 4116.2 3048.06 4116.2 3044.06 4116.2C3040.33 4116.47 3036.59 4116.33 3032.86 4115.8C3029.39 4115.27 3026.19 4114.07 3023.26 4112.2C3020.33 4110.33 3018.19 4107.4 3016.86 4103.4C3016.33 4101.53 3015.93 4099.4 3015.66 4097C3015.66 4094.6 3015.39 4092.33 3014.86 4090.2C3014.33 4085.93 3014.33 4081.53 3014.86 4077H3014.06C3011.93 4082.6 3008.73 4087.93 3004.46 4093C3000.46 4097.8 2995.79 4102.07 2990.46 4105.8C2985.39 4109.53 2979.93 4112.33 2974.06 4114.2C2968.19 4116.33 2962.46 4117 2956.86 4116.2C2951.53 4115.67 2946.46 4113.67 2941.66 4110.2C2937.13 4106.73 2933.53 4101.4 2930.86 4094.2C2928.73 4088.07 2927.26 4082.2 2926.46 4076.6C2926.19 4073.67 2925.93 4070.73 2925.66 4067.8C2925.66 4064.87 2925.79 4061.93 2926.06 4059C2926.59 4048.6 2926.99 4038.2 2927.26 4027.8C2927.79 4017.13 2927.79 4006.6 2927.26 3996.2C2926.99 3985.8 2926.86 3975.4 2926.86 3965C2926.86 3954.33 2926.86 3943.8 2926.86 3933.4C2926.86 3928.33 2924.73 3924.73 2920.46 3922.6C2916.46 3920.2 2912.59 3918.2 2908.86 3916.6C2919.79 3910.73 2930.46 3904.73 2940.86 3898.6C2951.53 3892.47 2962.33 3886.33 2973.26 3880.2C2971.13 3895.13 2969.93 3910.2 2969.66 3925.4C2969.39 3940.33 2969.26 3955.4 2969.26 3970.6C2969.53 3985.53 2969.66 4000.6 2969.66 4015.8C2969.66 4030.73 2968.86 4045.67 2967.26 4060.6C2973.39 4060.6 2979.26 4059.4 2984.86 4057C2990.46 4054.6 2995.53 4051.4 3000.06 4047.4C3004.59 4043.4 3008.33 4038.73 3011.26 4033.4C3014.19 4028.07 3015.79 4022.33 3016.06 4016.2C3016.33 4005 3016.33 3993.8 3016.06 3982.6C3015.79 3971.4 3015.39 3960.07 3014.86 3948.6C3014.33 3933.67 3014.73 3918.6 3016.06 3903.4C3016.59 3899.67 3017.13 3895.93 3017.66 3892.2C3018.19 3888.47 3018.46 3884.87 3018.46 3881.4C3018.46 3876.87 3016.46 3873.13 3012.46 3870.2C3008.73 3867 3004.99 3864.6 3001.26 3863C3012.46 3857.13 3023.66 3851.53 3034.86 3846.2C3046.06 3840.87 3057.53 3835.67 3069.26 3830.6C3065.26 3856.73 3062.99 3883 3062.46 3909.4C3062.19 3935.8 3062.06 3962.2 3062.06 3988.6C3062.06 3997.13 3062.06 4005.93 3062.06 4015C3062.33 4023.8 3061.93 4032.47 3060.86 4041C3060.59 4043.67 3060.46 4045.93 3060.46 4047.8C3060.73 4049.4 3061.66 4051.27 3063.26 4053.4C3064.86 4055.8 3067.26 4057.53 3070.46 4058.6C3073.93 4059.4 3077.39 4059.67 3080.86 4059.4C3084.59 4059.13 3088.19 4058.47 3091.66 4057.4C3095.13 4056.07 3097.93 4054.47 3100.06 4052.6C3101.93 4051 3103.66 4049.4 3105.26 4047.8C3107.13 4045.93 3108.99 4044.07 3110.86 4042.2ZM3257.51 4041.8C3255.64 4048.73 3253.37 4056.2 3250.71 4064.2C3248.31 4072.2 3245.11 4079.8 3241.11 4087C3237.11 4094.2 3232.17 4100.47 3226.31 4105.8C3220.71 4110.87 3213.77 4114.2 3205.51 4115.8C3202.57 4116.33 3199.77 4116.47 3197.11 4116.2C3194.71 4115.93 3192.04 4115.93 3189.11 4116.2C3178.97 4116.73 3170.44 4114.87 3163.51 4110.6C3156.84 4106.33 3150.84 4099.93 3145.51 4091.4C3140.17 4083.4 3136.57 4075.27 3134.71 4067C3133.11 4058.73 3131.77 4049.93 3130.71 4040.6C3129.91 4033.13 3128.97 4025.93 3127.91 4019C3126.84 4012.07 3126.04 4005.27 3125.51 3998.6C3124.97 3991.67 3124.57 3984.73 3124.31 3977.8C3124.31 3970.87 3124.71 3963.53 3125.51 3955.8C3125.77 3951.53 3126.84 3944.87 3128.71 3935.8C3130.84 3926.73 3133.51 3917.67 3136.71 3908.6C3139.91 3899.53 3143.64 3891.53 3147.91 3884.6C3152.17 3877.4 3156.97 3873.53 3162.31 3873C3165.77 3873 3168.44 3874.07 3170.31 3876.2C3172.71 3883.13 3174.17 3890.73 3174.71 3899C3175.51 3907.27 3175.77 3915.67 3175.51 3924.2C3175.24 3932.73 3174.57 3941.27 3173.51 3949.8C3172.71 3958.33 3172.04 3966.2 3171.51 3973.4C3170.71 3984.33 3169.37 3995.4 3167.51 4006.6C3165.91 4017.8 3166.04 4028.73 3167.91 4039.4C3168.71 4043.93 3169.91 4048.47 3171.51 4053C3173.37 4057.27 3175.64 4061.13 3178.31 4064.6C3181.24 4067.8 3184.71 4070.47 3188.71 4072.6C3192.71 4074.47 3197.37 4075.13 3202.71 4074.6C3205.64 4073.27 3209.37 4071.8 3213.91 4070.2C3218.71 4068.33 3223.37 4066.47 3227.91 4064.6C3232.44 4062.47 3236.71 4060.33 3240.71 4058.2C3244.71 4056.07 3247.64 4053.8 3249.51 4051.4C3250.84 4049.8 3252.17 4048.2 3253.51 4046.6C3254.84 4044.73 3256.17 4043.13 3257.51 4041.8ZM3478.09 3891C3480.22 3887 3483.69 3883.67 3488.49 3881C3493.55 3878.33 3498.35 3877.4 3502.89 3878.2C3510.89 3879.53 3517.69 3883.13 3523.29 3889C3528.89 3894.87 3533.29 3902.07 3536.49 3910.6C3539.95 3918.87 3542.49 3928.07 3544.09 3938.2C3545.69 3948.33 3546.62 3958.33 3546.89 3968.2C3547.15 3978.07 3547.02 3987.53 3546.49 3996.6C3545.95 4005.4 3545.15 4012.73 3544.09 4018.6C3542.75 4026.33 3541.02 4033.93 3538.89 4041.4C3536.75 4048.87 3533.82 4056.07 3530.09 4063C3523.69 4076.33 3514.75 4088.07 3503.29 4098.2C3500.89 4100.33 3497.95 4102.47 3494.49 4104.6C3491.29 4106.73 3487.69 4108.73 3483.69 4110.6C3479.95 4112.2 3476.09 4113.4 3472.09 4114.2C3468.35 4115.27 3464.89 4115.8 3461.69 4115.8C3455.55 4115.53 3448.75 4113.67 3441.29 4110.2C3434.09 4106.47 3428.22 4102.47 3423.69 4098.2C3416.75 4091.53 3410.75 4083.53 3405.69 4074.2C3400.62 4064.6 3396.49 4054.6 3393.29 4044.2C3390.09 4033.8 3387.69 4023.27 3386.09 4012.6C3384.49 4001.67 3383.69 3991.53 3383.69 3982.2C3383.69 3971 3384.75 3959.27 3386.89 3947C3389.29 3934.73 3392.75 3922.73 3397.29 3911C3401.82 3899.27 3407.42 3888.2 3414.09 3877.8C3420.75 3867.4 3428.35 3858.33 3436.89 3850.6C3442.22 3845.8 3448.89 3841.27 3456.89 3837C3465.15 3832.73 3472.89 3830.2 3480.09 3829.4C3486.49 3828.6 3492.49 3830.47 3498.09 3835C3503.69 3839.27 3507.55 3844.33 3509.69 3850.2C3493.69 3853.13 3479.95 3860.07 3468.49 3871C3457.02 3881.67 3447.82 3894.33 3440.89 3909C3433.95 3923.67 3429.29 3939.4 3426.89 3956.2C3424.49 3972.73 3424.49 3988.33 3426.89 4003C3429.29 4017.4 3433.95 4029.93 3440.89 4040.6C3448.09 4051 3457.69 4057.27 3469.69 4059.4C3478.75 4057.53 3486.09 4053.8 3491.69 4048.2C3497.29 4042.6 3501.69 4035.53 3504.89 4027C3507.55 4020.07 3509.42 4011 3510.49 3999.8C3511.82 3988.33 3512.22 3976.6 3511.69 3964.6C3511.42 3952.6 3510.22 3941.13 3508.09 3930.2C3506.22 3919 3503.55 3910.07 3500.09 3903.4C3497.69 3898.87 3494.75 3895.4 3491.29 3893C3487.82 3890.33 3483.42 3889.67 3478.09 3891ZM3516.49 4158.6C3513.55 4162.07 3510.35 4165.27 3506.89 4168.2C3503.69 4171.13 3500.49 4174.2 3497.29 4177.4C3495.15 4174.47 3492.89 4171.67 3490.49 4169C3488.35 4166.33 3486.09 4163.67 3483.69 4161C3486.62 4157.8 3489.55 4154.73 3492.49 4151.8C3495.69 4149.13 3498.75 4146.2 3501.69 4143C3504.09 4145.67 3506.49 4148.33 3508.89 4151C3511.29 4153.67 3513.82 4156.2 3516.49 4158.6ZM3486.89 4135.8C3483.95 4139 3480.89 4141.93 3477.69 4144.6C3474.49 4147.53 3471.42 4150.47 3468.49 4153.4C3465.82 4150.47 3463.15 4147.53 3460.49 4144.6C3458.09 4141.93 3455.69 4139.13 3453.29 4136.2C3459.15 4130.33 3465.29 4124.6 3471.69 4119C3474.35 4121.93 3476.89 4124.73 3479.29 4127.4C3481.95 4130.07 3484.49 4132.87 3486.89 4135.8ZM3684.27 3914.2C3684.27 3927 3680.53 3937.27 3673.07 3945C3665.6 3952.47 3657.07 3957.53 3647.47 3960.2C3637.87 3962.87 3628.53 3963.13 3619.47 3961C3610.4 3958.6 3604.27 3954.2 3601.07 3947.8C3600 3945.67 3599.6 3943.27 3599.87 3940.6C3600.13 3937.67 3600.67 3934.73 3601.47 3931.8C3602.27 3928.6 3603.2 3925.67 3604.27 3923C3605.6 3920.33 3606.67 3917.93 3607.47 3915.8C3606.93 3922.2 3608.93 3927.67 3613.47 3932.2C3618.27 3936.73 3623.87 3938.47 3630.27 3937.4C3631.6 3937.13 3632.93 3937 3634.27 3937C3635.87 3936.73 3637.33 3936.6 3638.67 3936.6C3644.53 3937.13 3649.6 3937 3653.87 3936.2C3658.4 3935.4 3663.2 3933.27 3668.27 3929.8C3671.47 3927.67 3674.4 3925.27 3677.07 3922.6C3679.73 3919.93 3682.13 3917.13 3684.27 3914.2ZM3794.67 4058.2C3791.2 4067.8 3786.93 4076.87 3781.87 4085.4C3776.8 4093.67 3770 4100.73 3761.47 4106.6C3755.33 4110.87 3749.47 4113.27 3743.87 4113.8C3738.53 4114.33 3732.4 4114.6 3725.47 4114.6C3719.33 4114.87 3712.8 4115.27 3705.87 4115.8C3699.2 4116.33 3692.8 4115.67 3686.67 4113.8C3676.27 4110.87 3667.2 4105.53 3659.47 4097.8C3652 4089.8 3647.87 4080.2 3647.07 4069H3646.27C3643.33 4074.07 3639.87 4079.13 3635.87 4084.2C3631.87 4089.27 3627.33 4093.8 3622.27 4097.8C3617.47 4101.8 3612.27 4105.13 3606.67 4107.8C3601.07 4110.47 3595.2 4111.93 3589.07 4112.2C3584.27 4109.8 3580.53 4106.47 3577.87 4102.2C3575.47 4097.93 3573.6 4093.4 3572.27 4088.6C3571.2 4083.53 3570.53 4078.33 3570.27 4073C3570 4067.67 3569.73 4062.6 3569.47 4057.8C3568.93 4048.2 3568.8 4038.6 3569.07 4029C3569.33 4019.4 3569.07 4009.67 3568.27 3999.8C3580.27 3989.93 3592.53 3979.67 3605.07 3969C3603.73 3976.47 3602.93 3983.93 3602.67 3991.4C3602.67 3998.87 3602.67 4006.33 3602.67 4013.8C3602.93 4021.27 3603.07 4028.73 3603.07 4036.2C3603.33 4043.67 3603.07 4051.13 3602.27 4058.6C3611.07 4057.8 3618.53 4055 3624.67 4050.2C3630.8 4045.13 3635.87 4039.13 3639.87 4032.2C3643.87 4025 3647.07 4017.4 3649.47 4009.4C3652.13 4001.13 3654.4 3993.4 3656.27 3986.2C3660.53 3984.33 3664.53 3982.47 3668.27 3980.6C3672.27 3978.47 3676.4 3976.47 3680.67 3974.6C3679.33 3984.47 3679.07 3994.33 3679.87 4004.2C3680.67 4013.8 3681.07 4023.67 3681.07 4033.8C3681.33 4038.6 3681.2 4043.4 3680.67 4048.2C3680.13 4053 3680.13 4057.93 3680.67 4063C3680.67 4066.2 3681.47 4069.4 3683.07 4072.6C3685.2 4074.2 3687.2 4075.13 3689.07 4075.4C3690.93 4075.67 3693.07 4075.8 3695.47 4075.8C3706.93 4075.27 3718.4 4075.27 3729.87 4075.8C3741.6 4076.07 3753.2 4075.53 3764.67 4074.2C3770 4073.67 3775.33 4071.8 3780.67 4068.6C3786 4065.13 3790.67 4061.67 3794.67 4058.2ZM3858.03 4117.4C3853.23 4116.33 3847.76 4114.87 3841.63 4113C3835.49 4111.4 3829.63 4109.13 3824.03 4106.2C3818.69 4103.27 3814.16 4099.67 3810.43 4095.4C3806.69 4091.13 3804.83 4085.8 3804.83 4079.4C3804.83 4075.67 3804.83 4071.93 3804.83 4068.2C3805.09 4064.2 3805.23 4060.2 3805.23 4056.2C3804.96 4052.47 3804.56 4048.73 3804.03 4045C3803.76 4041 3803.63 4037.13 3803.63 4033.4C3803.89 4029.4 3804.96 4025 3806.83 4020.2C3808.69 4015.4 3810.69 4011.27 3812.83 4007.8C3820.83 3995.8 3830.96 3986.87 3843.23 3981C3855.49 3975.13 3868.69 3971.93 3882.83 3971.4C3895.09 3970.87 3905.89 3973.93 3915.23 3980.6C3924.83 3987.27 3932.16 3995.4 3937.23 4005C3942.29 4014.6 3944.69 4024.47 3944.43 4034.6C3944.43 4044.47 3940.96 4052.47 3934.03 4058.6C3930.83 4061.53 3927.09 4063.8 3922.83 4065.4C3918.83 4066.73 3914.56 4067.27 3910.03 4067C3906.83 4062.2 3903.23 4057.8 3899.23 4053.8C3895.49 4049.8 3891.76 4045.67 3888.03 4041.4C3900.83 4038.73 3909.09 4034.6 3912.83 4029C3916.83 4023.4 3917.63 4017.93 3915.23 4012.6C3913.09 4007.27 3908.56 4002.6 3901.63 3998.6C3894.69 3994.33 3886.96 3992.2 3878.43 3992.2C3866.96 3992.2 3858.43 3997.27 3852.83 4007.4C3851.76 4009.53 3850.96 4012.73 3850.43 4017C3849.89 4021 3849.49 4025.4 3849.23 4030.2C3849.23 4034.73 3849.23 4039.27 3849.23 4043.8C3849.49 4048.33 3849.76 4051.8 3850.03 4054.2C3850.56 4060.6 3850.43 4066.73 3849.63 4072.6C3849.09 4078.47 3848.56 4084.47 3848.03 4090.6C3847.49 4095.13 3848.29 4099.93 3850.43 4105C3852.83 4109.8 3855.36 4113.93 3858.03 4117.4ZM4219.05 4058.2C4217.98 4064.6 4215.58 4071 4211.85 4077.4C4208.38 4083.53 4203.98 4089.13 4198.65 4094.2C4193.31 4099.27 4187.45 4103.53 4181.05 4107C4174.65 4110.47 4168.11 4112.47 4161.45 4113C4156.91 4113.53 4152.11 4113.67 4147.05 4113.4C4142.25 4113.4 4137.58 4113.4 4133.05 4113.4C4128.51 4113.4 4123.18 4113.53 4117.05 4113.8C4110.91 4114.07 4104.78 4113.93 4098.65 4113.4C4092.51 4113.13 4086.65 4112.33 4081.05 4111C4075.71 4109.4 4071.31 4106.73 4067.85 4103C4066.25 4101.4 4064.78 4099.27 4063.45 4096.6C4062.38 4093.93 4061.45 4091.13 4060.65 4088.2C4059.85 4085.27 4059.05 4082.33 4058.25 4079.4C4057.45 4076.47 4056.65 4073.8 4055.85 4071.4H4055.05C4045.71 4083.4 4034.11 4093.13 4020.25 4100.6C4006.38 4107.8 3991.85 4111.53 3976.65 4111.8C3969.18 4111.8 3963.31 4109.13 3959.05 4103.8C3954.51 4098.47 3952.78 4092.2 3953.85 4085C3954.91 4079.13 3955.85 4073.53 3956.65 4068.2C3957.71 4062.6 3958.91 4056.87 3960.25 4051C3962.65 4041.4 3967.05 4033 3973.45 4025.8C3980.11 4018.33 3987.71 4011.8 3996.25 4006.2C4004.78 4000.6 4013.85 3995.93 4023.45 3992.2C4033.05 3988.2 4042.25 3984.87 4051.05 3982.2C4052.65 3985.93 4054.38 3989.67 4056.25 3993.4C4058.38 3997.13 4060.78 4000.73 4063.45 4004.2C4069.58 4000.47 4075.71 3997 4081.85 3993.8C4087.98 3990.33 4094.11 3986.73 4100.25 3983H4101.45C4098.51 3988.33 4095.71 3995 4093.05 4003C4090.38 4010.73 4088.51 4018.73 4087.45 4027C4086.65 4035.27 4087.05 4043.13 4088.65 4050.6C4090.25 4057.8 4093.85 4063.53 4099.45 4067.8C4102.91 4070.47 4107.05 4072.33 4111.85 4073.4C4116.65 4074.2 4121.58 4074.73 4126.65 4075C4131.71 4075 4136.78 4074.87 4141.85 4074.6C4146.91 4074.33 4151.58 4074.2 4155.85 4074.2C4161.71 4074.2 4167.45 4074.33 4173.05 4074.6C4178.91 4074.87 4184.51 4074.6 4189.85 4073.8C4195.18 4073 4200.25 4071.53 4205.05 4069.4C4209.85 4067 4214.51 4063.27 4219.05 4058.2ZM4055.05 4014.6C4048.65 4016.47 4041.98 4018.87 4035.05 4021.8C4028.38 4024.73 4021.98 4028.33 4015.85 4032.6C4009.71 4036.6 4004.25 4041.4 3999.45 4047C3994.91 4052.33 3991.71 4058.47 3989.85 4065.4V4065.8L3993.05 4069.4L3997.45 4070.2C4004.11 4068.07 4009.98 4065 4015.05 4061C4020.38 4056.73 4025.18 4052.07 4029.45 4047C4033.98 4041.67 4038.25 4036.2 4042.25 4030.6C4046.25 4024.73 4050.51 4019.4 4055.05 4014.6ZM4433.49 3995C4430.55 3997.93 4427.49 4000.73 4424.29 4003.4C4421.09 4006.07 4418.02 4008.87 4415.09 4011.8C4412.95 4008.6 4410.42 4005.67 4407.49 4003C4404.55 4000.33 4401.89 3997.53 4399.49 3994.6C4402.95 3991.93 4406.15 3989.13 4409.09 3986.2C4412.02 3983.27 4415.22 3980.6 4418.69 3978.2C4421.62 3980.87 4424.02 3983.8 4425.89 3987C4428.02 3990.2 4430.55 3992.87 4433.49 3995ZM4477.89 4058.6C4476.29 4064.73 4473.62 4070.87 4469.89 4077C4466.42 4083.13 4462.29 4088.73 4457.49 4093.8C4452.69 4098.87 4447.22 4103.27 4441.09 4107C4435.22 4110.47 4429.09 4112.6 4422.69 4113.4C4417.89 4113.93 4412.95 4114.2 4407.89 4114.2C4402.82 4114.2 4397.89 4114.2 4393.09 4114.2C4389.35 4114.2 4385.09 4114.33 4380.29 4114.6C4375.49 4114.87 4370.69 4115 4365.89 4115C4361.09 4115 4356.42 4114.6 4351.89 4113.8C4347.35 4113.27 4343.62 4112.07 4340.69 4110.2C4335.89 4107 4331.75 4103 4328.29 4098.2C4324.82 4093.4 4322.02 4088.07 4319.89 4082.2C4317.75 4076.33 4316.29 4070.47 4315.49 4064.6C4314.95 4058.47 4315.09 4052.6 4315.89 4047H4314.69C4313.09 4048.6 4310.29 4051.4 4306.29 4055.4C4302.55 4059.13 4298.15 4063.4 4293.09 4068.2C4288.29 4072.73 4283.09 4077.53 4277.49 4082.6C4271.89 4087.4 4266.55 4091.93 4261.49 4096.2C4256.69 4100.2 4252.29 4103.53 4248.29 4106.2C4244.29 4108.87 4241.49 4110.2 4239.89 4110.2C4237.49 4109.93 4234.95 4109.93 4232.29 4110.2C4230.42 4108.87 4228.95 4107.4 4227.89 4105.8C4226.82 4103.93 4226.55 4101.8 4227.09 4099.4C4229.49 4090.07 4230.55 4080.73 4230.29 4071.4C4230.02 4061.8 4229.62 4052.2 4229.09 4042.6C4228.82 4033 4228.82 4023.53 4229.09 4014.2C4229.35 4004.6 4231.09 3995.27 4234.29 3986.2C4241.22 3980.87 4248.15 3975.53 4255.09 3970.2C4262.02 3964.87 4269.09 3959.67 4276.29 3954.6C4268.29 3968.2 4262.55 3982.73 4259.09 3998.2C4255.62 4013.4 4254.55 4028.87 4255.89 4044.6C4257.49 4042.73 4260.15 4039.8 4263.89 4035.8C4267.89 4031.53 4272.29 4027 4277.09 4022.2C4281.89 4017.13 4286.95 4012.07 4292.29 4007C4297.89 4001.93 4303.22 3997.67 4308.29 3994.2C4313.62 3990.73 4318.42 3988.47 4322.69 3987.4C4326.95 3986.07 4330.42 3986.73 4333.09 3989.4C4334.42 3990.73 4335.22 3991.93 4335.49 3993C4335.75 3994.07 4335.75 3995.4 4335.49 3997C4334.95 4006.07 4335.35 4014.87 4336.69 4023.4C4338.02 4031.67 4339.35 4040.2 4340.69 4049C4341.22 4053.27 4342.15 4056.87 4343.49 4059.8C4345.09 4062.47 4347.75 4065.27 4351.49 4068.2C4355.22 4071.13 4359.49 4073.13 4364.29 4074.2C4369.09 4075 4374.02 4075.53 4379.09 4075.8C4384.42 4076.07 4389.75 4076.07 4395.09 4075.8C4400.42 4075.27 4405.35 4075 4409.89 4075C4416.02 4075 4422.15 4075.13 4428.29 4075.4C4434.42 4075.4 4440.29 4075 4445.89 4074.2C4451.75 4073.13 4457.35 4071.53 4462.69 4069.4C4468.02 4067 4473.09 4063.4 4477.89 4058.6Z" fill="url(#paint5_linear_538_3)"/>
<defs>
<linearGradient id="paint0_linear_538_3" x1="2158" y1="550" x2="2158" y2="2452" gradientUnits="userSpaceOnUse">
<stop offset="0.249" stop-color="#0A6A6B"/>
<stop offset="0.5" stop-color="white"/>
<stop offset="0.804" stop-color="#0A6A6B"/>
</linearGradient>
<linearGradient id="paint1_linear_538_3" x1="1297.8" y1="0" x2="1297.8" y2="2193" gradientUnits="userSpaceOnUse">
<stop offset="0.75" stop-color="#0A6A6B"/>
<stop offset="1" stop-color="white"/>
</linearGradient>
<linearGradient id="paint2_linear_538_3" x1="3019.4" y1="0" x2="3019.4" y2="2193" gradientUnits="userSpaceOnUse">
<stop offset="0.75" stop-color="#0A6A6B"/>
<stop offset="1" stop-color="white"/>
</linearGradient>
<linearGradient id="paint3_linear_538_3" x1="2919.49" y1="1933.5" x2="2919.49" y2="3613.62" gradientUnits="userSpaceOnUse">
<stop stop-color="#D9D9D9"/>
<stop offset="0.6" stop-color="#0A6A6B"/>
</linearGradient>
<linearGradient id="paint4_linear_538_3" x1="1445.51" y1="1934" x2="1445.51" y2="3614.12" gradientUnits="userSpaceOnUse">
<stop stop-color="#D9D9D9"/>
<stop offset="0.6" stop-color="#0A6A6B"/>
</linearGradient>
<linearGradient id="paint5_linear_538_3" x1="199" y1="3990" x2="4498" y2="3990" gradientUnits="userSpaceOnUse">
<stop stop-color="#204343"/>
<stop offset="1" stop-color="#63AEA7"/>
</linearGradient>
</defs>
</svg>
