<svg width="133" height="48" viewBox="0 0 133 48" fill="none" xmlns="http://www.w3.org/2000/svg">
<path d="M124.293 47.7071C124.683 48.0976 125.317 48.0976 125.707 47.7071L132.071 41.3431C132.462 40.9526 132.462 40.3195 132.071 39.9289C131.681 39.5384 131.047 39.5384 130.657 39.9289L125 45.5858L119.343 39.9289C118.953 39.5384 118.319 39.5384 117.929 39.9289C117.538 40.3195 117.538 40.9526 117.929 41.3431L124.293 47.7071ZM124 41V47H126V41H124ZM47 2H85V0H47V2ZM2 47C2 22.1472 22.1472 2 47 2V0C21.0426 0 0 21.0426 0 47H2ZM126 41C126 18.3563 107.644 0 85 0V2C106.539 2 124 19.4609 124 41H126Z" fill="#1D1D1D"/>
</svg>
