<svg width="133" height="48" viewBox="0 0 133 48" fill="none" xmlns="http://www.w3.org/2000/svg">
<path d="M124.293 0.292892C124.683 -0.0976295 125.317 -0.0976295 125.707 0.292892L132.071 6.65685C132.462 7.04738 132.462 7.68054 132.071 8.07107C131.681 8.46159 131.047 8.46159 130.657 8.07107L125 2.41422L119.343 8.07107C118.953 8.46159 118.319 8.46159 117.929 8.07107C117.538 7.68054 117.538 7.04738 117.929 6.65685L124.293 0.292892ZM124 7V1H126V7H124ZM47 46H85V48H47V46ZM2 1C2 25.8528 22.1472 46 47 46V48C21.0426 48 0 26.9574 0 1H2ZM126 7C126 29.6437 107.644 48 85 48V46C106.539 46 124 28.5391 124 7H126Z" fill="#1D1D1D"/>
</svg>
