<svg width="51" height="50" viewBox="0 0 51 50" fill="none" xmlns="http://www.w3.org/2000/svg">
<path fill-rule="evenodd" clip-rule="evenodd" d="M0.5 -0.00244141H43.556V6.94207H40.7781V2.77536H3.2778V34.7201H32.9822V37.4979H0.5V-0.00244141ZM42.1671 18.0533C43.2721 18.0533 44.3319 17.6143 45.1134 16.8329C45.8948 16.0515 46.3338 14.9917 46.3338 13.8866C46.3338 12.7815 45.8948 11.7217 45.1134 10.9403C44.3319 10.1589 43.2721 9.71987 42.1671 9.71987C41.062 9.71987 40.0022 10.1589 39.2207 10.9403C38.4393 11.7217 38.0003 12.7815 38.0003 13.8866C38.0003 14.9917 38.4393 16.0515 39.2207 16.8329C40.0022 17.6143 41.062 18.0533 42.1671 18.0533ZM44.9879 20.845C46.7921 20.845 48.2199 21.6561 49.1546 22.9089C50.0282 24.0825 50.3977 25.5339 50.481 26.8742C50.5636 28.2491 50.3763 29.6268 49.9296 30.9298C49.513 32.1381 48.8088 33.3881 47.7227 34.2451V47.9147C47.7237 48.4381 47.5276 48.9427 47.1735 49.3282C46.8193 49.7137 46.333 49.9517 45.8114 49.9949C45.2897 50.0381 44.7709 49.8834 44.3582 49.5615C43.9454 49.2397 43.6689 48.7742 43.5837 48.2577L41.792 37.4979H41.3782L39.3531 48.298C39.257 48.8077 38.9741 49.2632 38.5599 49.5755C38.1457 49.8877 37.6299 50.0342 37.1134 49.9862C36.5969 49.9383 36.1168 49.6994 35.7671 49.3163C35.4175 48.9332 35.2233 48.4334 35.2225 47.9147V28.0992C34.9448 28.5223 34.6707 28.9478 34.4003 29.3756L34.292 29.5464L34.2642 29.5909L34.2573 29.6034C34.0701 29.9039 33.8094 30.1518 33.4998 30.3236C33.1902 30.4955 32.8419 30.5855 32.4878 30.5853H25.5433C24.9907 30.5853 24.4608 30.3658 24.0701 29.9751C23.6794 29.5844 23.4599 29.0545 23.4599 28.502C23.4599 27.9494 23.6794 27.4195 24.0701 27.0288C24.4608 26.6381 24.9907 26.4186 25.5433 26.4186H31.3447C31.6822 25.8964 32.1267 25.2186 32.5934 24.5381C33.0795 23.8283 33.6156 23.0769 34.0934 22.488C34.3253 22.2005 34.585 21.9005 34.8461 21.6547C34.9739 21.5339 35.1517 21.3769 35.3684 21.238C35.7501 20.9856 36.1969 20.8495 36.6545 20.8464L44.9879 20.845Z" fill="white"/>
</svg>
