<svg width="38" height="54" viewBox="0 0 38 54" fill="none" xmlns="http://www.w3.org/2000/svg">
<path d="M9.75 36.2498V33.6069H12.3929V36.2498H9.75Z" fill="white"/>
<path fill-rule="evenodd" clip-rule="evenodd" d="M13.7143 0.571289C12.6629 0.571289 11.6546 0.988954 10.9111 1.7324C10.1677 2.47585 9.75 3.48418 9.75 4.53557H4.46429C3.41289 4.53557 2.40456 4.95324 1.66111 5.69669C0.917664 6.44014 0.5 7.44847 0.5 8.49986V49.4641C0.5 50.5155 0.917664 51.5239 1.66111 52.2673C2.40456 53.0108 3.41289 53.4284 4.46429 53.4284H33.5357C34.5871 53.4284 35.5954 53.0108 36.3389 52.2673C37.0823 51.5239 37.5 50.5155 37.5 49.4641V8.49986C37.5 7.44847 37.0823 6.44014 36.3389 5.69669C35.5954 4.95324 34.5871 4.53557 33.5357 4.53557H28.25C28.25 3.48418 27.8323 2.47585 27.0889 1.7324C26.3454 0.988954 25.3371 0.571289 24.2857 0.571289H13.7143ZM12.3929 4.53557C12.3929 4.18511 12.5321 3.849 12.7799 3.60118C13.0277 3.35337 13.3638 3.21415 13.7143 3.21415H24.2857C24.6362 3.21415 24.9723 3.35337 25.2201 3.60118C25.4679 3.849 25.6071 4.18511 25.6071 4.53557V7.17843C25.6071 7.5289 25.4679 7.86501 25.2201 8.11282C24.9723 8.36064 24.6362 8.49986 24.2857 8.49986H13.7143C13.3638 8.49986 13.0277 8.36064 12.7799 8.11282C12.5321 7.86501 12.3929 7.5289 12.3929 7.17843V4.53557ZM8.42857 21.7141C8.07811 21.7141 7.742 21.8534 7.49418 22.1012C7.24636 22.349 7.10714 22.6851 7.10714 23.0356C7.10714 23.386 7.24636 23.7222 7.49418 23.97C7.742 24.2178 8.07811 24.357 8.42857 24.357H17.6786C18.029 24.357 18.3651 24.2178 18.613 23.97C18.8608 23.7222 19 23.386 19 23.0356C19 22.6851 18.8608 22.349 18.613 22.1012C18.3651 21.8534 18.029 21.7141 17.6786 21.7141H8.42857ZM7.10714 16.4284C7.10714 16.078 7.24636 15.7419 7.49418 15.494C7.742 15.2462 8.07811 15.107 8.42857 15.107H28.9107C29.2612 15.107 29.5973 15.2462 29.8451 15.494C30.0929 15.7419 30.2321 16.078 30.2321 16.4284C30.2321 16.7789 30.0929 17.115 29.8451 17.3628C29.5973 17.6106 29.2612 17.7499 28.9107 17.7499H8.42857C8.07811 17.7499 7.742 17.6106 7.49418 17.3628C7.24636 17.115 7.10714 16.7789 7.10714 16.4284ZM7.10714 32.2856C7.10714 31.9351 7.24636 31.599 7.49418 31.3512C7.742 31.1034 8.07811 30.9641 8.42857 30.9641H13.7143C14.0647 30.9641 14.4009 31.1034 14.6487 31.3512C14.8965 31.599 15.0357 31.9351 15.0357 32.2856V37.5713C15.0357 37.9218 14.8965 38.2579 14.6487 38.5057C14.4009 38.7535 14.0647 38.8927 13.7143 38.8927H8.42857C8.07811 38.8927 7.742 38.7535 7.49418 38.5057C7.24636 38.2579 7.10714 37.9218 7.10714 37.5713V32.2856ZM24.2857 37.5713C25.3371 37.5713 26.3454 37.1536 27.0889 36.4102C27.8323 35.6667 28.25 34.6584 28.25 33.607C28.25 32.5556 27.8323 31.5473 27.0889 30.8038C26.3454 30.0604 25.3371 29.6427 24.2857 29.6427C23.2343 29.6427 22.226 30.0604 21.4825 30.8038C20.7391 31.5473 20.3214 32.5556 20.3214 33.607C20.3214 34.6584 20.7391 35.6667 21.4825 36.4102C22.226 37.1536 23.2343 37.5713 24.2857 37.5713ZM16.3571 43.5177C16.3571 40.7216 21.6389 39.3129 24.2857 39.3129C26.9325 39.3129 32.2143 40.7216 32.2143 43.5177V46.8213H16.3571V43.5177Z" fill="white"/>
</svg>
