<svg width="60" height="62" viewBox="0 0 60 62" fill="none" xmlns="http://www.w3.org/2000/svg">
<path d="M35.1818 0V7.82609M1.5 18.2609H48.1364M14.4545 0V7.82609M9.27273 28.6957H14.4545M19.6364 28.6957H40.3636M9.27273 39.1304H14.4545M19.6364 39.1304H35.1818M32.5909 49.5652H1.5V7.82609H48.1364V33.913M45.5455 60C48.9812 60 52.2763 58.6258 54.7057 56.1797C57.1351 53.7335 58.5 50.4159 58.5 46.9565C58.5 43.4972 57.1351 40.1795 54.7057 37.7334C52.2763 35.2873 48.9812 33.913 45.5455 33.913C42.1097 33.913 38.8147 35.2873 36.3852 37.7334C33.9558 40.1795 32.5909 43.4972 32.5909 46.9565C32.5909 50.4159 33.9558 53.7335 36.3852 56.1797C38.8147 58.6258 42.1097 60 45.5455 60ZM44.25 44.3478L48.1364 46.9565L44.25 49.5652V44.3478Z" stroke="white" stroke-width="3"/>
</svg>
