<svg width="47" height="38" viewBox="0 0 47 38" fill="none" xmlns="http://www.w3.org/2000/svg">
<path d="M15.2751 26.0501C15.0996 26.0501 14.9241 26.0758 14.7566 26.1302C13.8049 26.4393 12.8039 26.6376 11.7501 26.6376C10.6963 26.6376 9.69531 26.4393 8.74283 26.1302C8.57539 26.0758 8.40061 26.0501 8.2251 26.0501C3.66758 26.0501 -0.0241157 29.7572 0.000118636 34.3206C0.0103999 36.2491 1.59591 37.8001 3.52511 37.8001H19.9751C21.9043 37.8001 23.4898 36.2491 23.5001 34.3206C23.5243 29.7572 19.8326 26.0501 15.2751 26.0501ZM11.7501 23.7001C15.6437 23.7001 18.8001 20.5438 18.8001 16.6502C18.8001 12.7565 15.6437 9.60017 11.7501 9.60017C7.85644 9.60017 4.70011 12.7565 4.70011 16.6502C4.70011 20.5438 7.85644 23.7001 11.7501 23.7001ZM43.475 0.200195H15.2751C13.3312 0.200195 11.7501 1.83418 11.7501 3.84195V7.25018C13.47 7.25018 15.0621 7.74808 16.4501 8.55736V4.90018H42.3V26.0501H37.6V21.3501H28.2V26.0501H22.6012C24.0038 27.2758 25.0334 28.8944 25.5159 30.7501H43.475C45.4189 30.7501 47 29.1161 47 27.1084V3.84195C47 1.83418 45.4189 0.200195 43.475 0.200195Z" fill="white"/>
</svg>
