<svg width="66" height="66" viewBox="0 0 66 66" fill="none" xmlns="http://www.w3.org/2000/svg">
<path d="M14.2024 0V5.51589C16.3219 7.04667 17.6837 9.92608 17.6837 13.084C17.6837 15.0771 17.1405 16.9582 16.208 18.4606C16.6905 18.6569 17.1974 18.875 17.6213 19.0671L34.6575 15.7551L35.4815 23.7277L19.9218 27.1031C19.8018 29.467 19.5807 31.7931 19.1854 34.5994H66V0H14.2024ZM10.7217 6.97791C8.41103 6.97791 6.26577 9.55785 6.26577 13.0842C6.26577 16.6105 8.41103 19.1901 10.7217 19.1901C13.0324 19.1901 15.1776 16.6105 15.1776 13.0842C15.1776 9.55785 13.0324 6.97791 10.7217 6.97791ZM32.4564 18.8446L17.3361 21.784C15.3534 20.9696 16.6461 21.3428 14.3468 20.5459C13.3058 21.3409 12.073 21.8066 10.7217 21.8066C9.52425 21.8066 8.42008 21.4398 7.45961 20.8035C6.26354 21.3216 5.00134 21.9795 3.87614 22.643C2.06715 23.7098 0.573109 24.5636 0 24.9738V43.9033H2.78534V27.7666H5.29109V66H9.46883V41.4316H11.9746V66H15.5954V41.0191L15.6168 40.8993C16.9415 33.5376 17.3695 29.6497 17.4911 24.9582L32.7462 21.6487L32.4564 18.8446ZM18.7896 37.2161C18.6571 38.0421 18.5124 38.9083 18.3516 39.8322H63.9111V37.2161H18.7896ZM26.3165 44.1934C24.0058 44.1934 21.8606 46.7734 21.8606 50.2997C21.8606 52.9452 23.0678 55.0578 24.6468 55.9482C25.1479 55.7066 25.6885 55.5548 26.2731 55.5337C26.9182 55.5105 27.5234 55.6452 28.0904 55.8855C29.6176 54.9621 30.7724 52.8865 30.7724 50.2997C30.7724 46.7734 28.6272 44.1934 26.3165 44.1934ZM41.9113 44.1934C39.6006 44.1934 37.4554 46.7734 37.4554 50.2997C37.4554 52.9452 38.6626 55.0578 40.2416 55.9482C40.7427 55.7066 41.2833 55.5548 41.8679 55.5337C42.513 55.5105 43.1182 55.6452 43.6852 55.8855C45.2124 54.9621 46.3673 52.8865 46.3673 50.2997C46.3673 46.7734 44.222 44.1934 41.9113 44.1934ZM57.5061 44.1934C55.1954 44.1934 53.0502 46.7734 53.0502 50.2997C53.0502 52.9452 54.2574 55.0578 55.8364 55.9482C56.3375 55.7066 56.8782 55.5548 57.4627 55.5337C58.1078 55.5105 58.713 55.6452 59.28 55.8855C60.8072 54.9621 61.9621 52.8865 61.9621 50.2997C61.9621 46.7734 59.8168 44.1934 57.5061 44.1934ZM26.36 58.1487C25.8247 58.168 25.1197 58.5746 24.3688 59.4258C23.6179 60.2769 22.8795 61.4974 22.2628 62.7345C21.6744 63.9149 21.2034 65.0837 20.8621 66H32.7446C32.3213 65.0644 31.7507 63.885 31.0552 62.6984C30.3176 61.4398 29.4525 60.207 28.5952 59.3611C27.7379 58.5152 26.9521 58.1273 26.36 58.1487ZM41.9548 58.1487C41.4195 58.168 40.7146 58.5746 39.9636 59.4258C39.2127 60.2769 38.4743 61.4974 37.8576 62.7345C37.2692 63.9149 36.7982 65.0837 36.4569 66H48.3394C47.9162 65.0644 47.3455 63.885 46.65 62.6984C45.9124 61.4398 45.0473 60.207 44.19 59.3611C43.3327 58.5152 42.5468 58.1273 41.9548 58.1487ZM57.5496 58.1487C57.0143 58.168 56.3094 58.5746 55.5584 59.4258C54.8075 60.2769 54.0691 61.4974 53.4524 62.7345C52.864 63.9149 52.393 65.0837 52.0517 66H63.9342C63.511 65.0644 62.9404 63.885 62.2449 62.6984C61.5072 61.4398 60.6421 60.207 59.7848 59.3611C58.9275 58.5152 58.1416 58.1273 57.5496 58.1487Z" fill="white"/>
</svg>
