<svg width="78" height="78" viewBox="0 0 78 78" fill="none" xmlns="http://www.w3.org/2000/svg">
<path d="M13 9.75C9.3925 9.75 6.5 12.6425 6.5 16.25V48.75C6.5 50.4739 7.18482 52.1272 8.40381 53.3462C9.62279 54.5652 11.2761 55.25 13 55.25H39V71.5L48.75 61.75L58.5 71.5V55.25H65C66.7239 55.25 68.3772 54.5652 69.5962 53.3462C70.8152 52.1272 71.5 50.4739 71.5 48.75V16.25C71.5 14.5261 70.8152 12.8728 69.5962 11.6538C68.3772 10.4348 66.7239 9.75 65 9.75H13ZM39 16.25L48.75 22.75L58.5 16.25V27.625L68.25 32.5L58.5 37.375V48.75L48.75 42.25L39 48.75V37.375L29.25 32.5L39 27.625V16.25ZM13 16.25H29.25V22.75H13V16.25ZM13 29.25H22.75V35.75H13V29.25ZM13 42.25H29.25V48.75H13V42.25Z" fill="white"/>
</svg>
