<svg width="57" height="73" viewBox="0 0 57 73" fill="none" xmlns="http://www.w3.org/2000/svg">
<path fill-rule="evenodd" clip-rule="evenodd" d="M20.3571 0C18.7374 0 17.1841 0.576829 16.0387 1.60359V1.60359C14.232 3.22334 12.2829 5.475 9.85639 5.475H6.10714C4.48743 5.475 2.93405 6.05183 1.78874 7.07859C0.643428 8.10535 0 9.49794 0 10.95V67.525C0 68.9771 0.643428 70.3696 1.78874 71.3964C2.93405 72.4232 4.48743 73 6.10714 73H50.8929C52.5126 73 54.0659 72.4232 55.2113 71.3964C56.3566 70.3696 57 68.9771 57 67.525V10.95C57 9.49794 56.3566 8.10535 55.2113 7.07859C54.0659 6.05183 52.5126 5.475 50.8929 5.475H47.1436C44.7171 5.475 42.768 3.22334 40.9613 1.60359V1.60359C39.816 0.576829 38.2626 0 36.6429 0H20.3571ZM18.3214 5.475C18.3214 4.99098 18.5359 4.52678 18.9177 4.18453C19.2994 3.84228 19.8172 3.65 20.3571 3.65H36.6429C37.1828 3.65 37.7006 3.84228 38.0823 4.18453C38.4641 4.52678 38.6786 4.99098 38.6786 5.475V9.125C38.6786 9.60902 38.4641 10.0732 38.0823 10.4155C37.7006 10.7577 37.1828 10.95 36.6429 10.95H20.3571C19.8172 10.95 19.2994 10.7577 18.9177 10.4155C18.5359 10.0732 18.3214 9.60902 18.3214 9.125V5.475ZM12.2143 29.2C11.6744 29.2 11.1566 29.3923 10.7748 29.7345C10.393 30.0768 10.1786 30.541 10.1786 31.025C10.1786 31.509 10.393 31.9732 10.7748 32.3155C11.1566 32.6577 11.6744 32.85 12.2143 32.85H26.4643C27.0042 32.85 27.522 32.6577 27.9038 32.3155C28.2855 31.9732 28.5 31.509 28.5 31.025C28.5 30.541 28.2855 30.0768 27.9038 29.7345C27.522 29.3923 27.0042 29.2 26.4643 29.2H12.2143ZM10.1786 21.9C10.1786 21.416 10.393 20.9518 10.7748 20.6095C11.1566 20.2673 11.6744 20.075 12.2143 20.075H43.7679C44.3078 20.075 44.8256 20.2673 45.2073 20.6095C45.5891 20.9518 45.8036 21.416 45.8036 21.9C45.8036 22.384 45.5891 22.8482 45.2073 23.1905C44.8256 23.5327 44.3078 23.725 43.7679 23.725H12.2143C11.6744 23.725 11.1566 23.5327 10.7748 23.1905C10.393 22.8482 10.1786 22.384 10.1786 21.9ZM10.1786 43.8C10.1786 43.316 10.393 42.8518 10.7748 42.5095C11.1566 42.1673 11.6744 41.975 12.2143 41.975H20.3571C20.897 41.975 21.4148 42.1673 21.7966 42.5095C22.1784 42.8518 22.3929 43.316 22.3929 43.8V51.1C22.3929 51.584 22.1784 52.0482 21.7966 52.3905C21.4148 52.7327 20.897 52.925 20.3571 52.925H12.2143C11.6744 52.925 11.1566 52.7327 10.7748 52.3905C10.393 52.0482 10.1786 51.584 10.1786 51.1V43.8ZM36.6429 51.1C38.2626 51.1 39.816 50.5232 40.9613 49.4964C42.1066 48.4696 42.75 47.0771 42.75 45.625C42.75 44.1729 42.1066 42.7804 40.9613 41.7536C39.816 40.7268 38.2626 40.15 36.6429 40.15C35.0231 40.15 33.4698 40.7268 32.3245 41.7536C31.1791 42.7804 30.5357 44.1729 30.5357 45.625C30.5357 47.0771 31.1791 48.4696 32.3245 49.4964C33.4698 50.5232 35.0231 51.1 36.6429 51.1ZM24.4286 59.3125C24.4286 55.4508 32.5653 53.5054 36.6429 53.5054C40.7204 53.5054 48.8571 55.4508 48.8571 59.3125V59.3125C48.8571 61.8323 46.8144 63.875 44.2946 63.875H28.9911C26.4713 63.875 24.4286 61.8323 24.4286 59.3125V59.3125Z" fill="white"/>
</svg>
