<svg width="73" height="73" viewBox="0 0 73 73" fill="none" xmlns="http://www.w3.org/2000/svg">
<path d="M51.3278 10.4062C49.2704 10.4062 47.3655 11.5055 45.902 13.4567C44.4387 15.4077 43.4863 18.1903 43.4863 21.29C43.4863 24.3896 44.4387 27.1716 45.902 29.1226C47.3654 31.0739 49.2704 32.1732 51.3278 32.1732C53.3852 32.1732 55.29 31.0739 56.7536 29.1228C58.2169 27.1717 59.1696 24.3896 59.1696 21.29C59.1696 18.1903 58.2169 15.4079 56.7536 13.4567C55.29 11.5055 53.3852 10.4062 51.3278 10.4062ZM17.109 24.0938C15.6815 24.0938 14.347 24.8523 13.2965 26.2531C12.246 27.6536 11.5485 29.6757 11.5485 31.9355C11.5485 34.1954 12.246 36.2175 13.2965 37.618C14.347 39.0188 15.6815 39.7773 17.109 39.7773C18.5365 39.7773 19.8713 39.0188 20.9219 37.618C21.9724 36.2175 22.6693 34.1953 22.6693 31.9355C22.6693 29.6757 21.9724 27.6536 20.9219 26.2531C19.8713 24.8523 18.5365 24.0938 17.109 24.0938ZM44.0285 30.891C43.796 31.0709 43.5707 31.2599 43.3531 31.4576C41.3975 33.2433 39.9575 35.885 38.8576 39.1851C36.7774 45.425 35.9485 53.9143 34.5713 62.5898H68.0843C66.707 53.9143 65.8777 45.4249 63.7978 39.1851C62.698 35.885 61.2582 33.2433 59.3026 31.4576C59.0852 31.2598 58.8598 31.0708 58.6272 30.891C56.7965 33.214 54.2156 34.7398 51.3279 34.7398C48.4403 34.7398 45.8593 33.2142 44.0286 30.891H44.0285ZM11.587 39.586C11.5053 39.6552 11.424 39.7254 11.3443 39.7982C9.93522 41.0848 8.87557 43.0139 8.06074 45.4585C6.54941 49.9925 5.91565 56.2009 4.91504 62.5898H29.3027C28.3023 56.2009 27.6685 49.9925 26.1572 45.4585C25.3425 43.0139 24.283 41.0848 22.8739 39.7982C22.7944 39.7259 22.7135 39.6552 22.6312 39.586C21.2228 41.2492 19.2794 42.3438 17.109 42.3438C14.9387 42.3438 12.9954 41.249 11.587 39.586Z" fill="white"/>
</svg>
