<svg width="66" height="66" viewBox="0 0 66 66" fill="none" xmlns="http://www.w3.org/2000/svg">
<rect width="65.8484" height="65.8484" rx="10.9747" fill="#204343"/>
<path fill-rule="evenodd" clip-rule="evenodd" d="M19.317 23.598L19.4929 23.4001C20.1375 22.726 21.0979 22.3887 22.3732 22.3887H44.2284C45.4303 22.3887 46.3537 22.682 46.9988 23.2682L47.0208 23.2901C47.1527 23.4076 47.2851 23.5465 47.4166 23.7079C47.4166 23.7229 47.424 23.7374 47.4386 23.7519L47.4605 23.7739C47.9447 24.375 48.1861 25.225 48.1861 26.3244V38.7691C48.1716 41.4076 46.8524 42.7268 44.2284 42.7268H22.3732C19.7493 42.7123 18.4375 41.3931 18.4375 38.7691V26.3244C18.4375 25.1371 18.7308 24.2281 19.317 23.598ZM44.954 24.5434C44.7341 24.4849 44.4923 24.4625 44.2289 24.4775H22.3732C22.2118 24.4629 22.0579 24.47 21.9115 24.4994L33.2349 35.9767L44.954 24.5434ZM20.5263 26.0825C20.5118 26.156 20.5118 26.2364 20.5263 26.3244V38.7691C20.5263 40.0153 21.1419 40.638 22.3732 40.638H44.2284C45.4742 40.638 46.0973 40.0153 46.0973 38.7691V26.3464L33.9604 38.1974C33.7406 38.4028 33.4917 38.5053 33.2133 38.5053C32.92 38.4908 32.6707 38.3878 32.4657 38.1974L20.5263 26.0825Z" fill="white"/>
<path fill-rule="evenodd" clip-rule="evenodd" d="M19.3174 23.5973C19.3468 23.5533 19.3833 23.5093 19.4273 23.4654C19.4423 23.4359 19.4638 23.4139 19.4933 23.3994L19.3174 23.5973Z" fill="white"/>
</svg>
