<svg width="404" height="1496" viewBox="0 0 404 1496" fill="none" xmlns="http://www.w3.org/2000/svg">
<path opacity="0.5" fill-rule="evenodd" clip-rule="evenodd" d="M-6.10352e-05 758.001H404V757.419H-6.10352e-05V758.001ZM273.603 748.001V693.862H204.329V748H203.747V693.862H134.474V748H133.892V693.862H64.6177V748H64.0356V693.862H-6.10352e-05V693.28H64.0356V625.171H-0.00012207V624.589H64.0356V555.315H-0.00012207V554.733H64.0356L64.0356 485.459H-0.00012207V484.877H64.0356V415.604H-0.00012207V415.022H64.0356V349.862H-0.00012207V349.28H64.0356V344.001H63.9999V281.17H-0.00012207V280.588H63.9999V211.315H-0.00012207V210.733H63.9999V141.459H-0.00012207V140.877H63.9999V71.6035H-0.00012207V71.0214H63.9999L63.9999 0.000915527H64.582L64.582 71.0214H134L134 0.000915527H134.582L134.582 71.0214H203.747V-6.10352e-05H204.329V71.0214H273.602V0.000427246H274.185V71.0214H404V71.6035H274.185V140.877H404V141.459H274.185L274.185 210.733H404V211.315H274.185V280.588H404V281.17H274.185V344.001H274.185V349.28H404V349.862H274.185L274.185 415.022H404V415.604H274.185V484.877H404V485.459H274.185V554.733H404V555.315H274.185V624.589H404V625.171H274.185V693.28H404V693.862H274.185V748.001H273.603ZM273.603 404H273.602V349.862H204.329V404H204.329L204.329 415.022H273.603L273.603 404ZM203.747 344H203.747L203.747 349.28L134.474 349.28V344.001H134.582V281.17L203.747 281.17V344ZM134 344V281.17H64.582V344H64.6177V349.28H133.892V344H134ZM133.892 349.862H64.6177V415.022H133.892V349.862ZM134.474 349.862L203.747 349.862L203.747 415.022L134.474 415.022V349.862ZM133.892 693.28H64.6177V625.171H133.892V693.28ZM133.892 624.589H64.6177V555.315H133.892V624.589ZM133.892 554.733H64.6177L64.6177 485.459H133.892L133.892 554.733ZM133.892 484.877H64.6177V415.604H133.892V484.877ZM134.474 415.604V484.877L203.747 484.877V415.604L134.474 415.604ZM134.474 485.459L134.474 554.733H203.747V485.459L134.474 485.459ZM134.474 555.315V624.589H203.747V555.315H134.474ZM134.474 625.171V693.28H203.747L203.747 625.171H134.474ZM273.603 693.28H204.329L204.329 625.171H273.603V693.28ZM273.603 624.589H204.329V555.315H273.603V624.589ZM273.603 554.733H204.329V485.459H273.603V554.733ZM273.603 484.877H204.329V415.604H273.603V484.877ZM64.582 140.877V71.6035H134V140.877H64.582ZM64.582 210.733L64.582 141.459H134V210.733H64.582ZM64.582 280.588V211.315H134V280.588H64.582ZM134.582 280.588L203.747 280.588V211.315H134.582V280.588ZM134.582 210.733H203.747L203.747 141.459H134.582L134.582 210.733ZM134.582 140.877H203.747V71.6035H134.582V140.877ZM204.329 140.877V71.6035H273.602V140.877H204.329ZM204.329 210.733L204.329 141.459H273.602L273.602 210.733H204.329ZM204.329 280.588V211.315H273.602V280.588H204.329ZM204.329 349.28V281.17H273.602V349.28H204.329Z" fill="url(#paint0_linear_467_969)"/>
<path opacity="0.5" fill-rule="evenodd" clip-rule="evenodd" d="M273.603 1441.86V1496H274.185V1441.86H404V1441.28H274.185V1373.17H404V1372.59H274.185V1303.32H404V1302.73H274.185V1233.46H404V1232.88H274.185V1163.6H404V1163.02H274.185L274.185 1097.86H404V1097.28H274.185V1092H274.185V1029.17H404V1028.59H274.185V959.316H404V958.734H274.185L274.185 889.46H404V888.878H274.185V819.604H404V819.022H274.185V748.001H273.602V819.022H204.329V748.001H203.747V819.022H134.582L134.582 748.002H134L134 819.022H64.5821L64.5821 748.002H63.9999L63.9999 819.022H-6.10352e-05V819.604H63.9999V888.878H-6.10352e-05V889.46H63.9999V958.734H-6.10352e-05V959.316H63.9999V1028.59H-6.10352e-05V1029.17H63.9999V1092H64.0357V1097.28H-6.10352e-05V1097.86H64.0357V1163.02H-6.10352e-05V1163.6H64.0357V1232.88H-6.10352e-05V1233.46H64.0357L64.0357 1302.73H-6.10352e-05V1303.32H64.0357V1372.59H-6.10352e-05V1373.17H64.0357V1441.28H-6.10352e-05V1441.86H64.0357V1496H64.6178V1441.86H133.892V1496H134.474V1441.86H203.747V1496H204.329V1441.86H273.603ZM64.6178 1097.86V1163.02H133.892V1097.86H64.6178ZM134.474 1097.86V1163.02H203.747L203.747 1097.86H134.474ZM203.747 1092H203.747L203.747 1097.28H134.474V1092H134.582V1029.17H203.747V1092ZM204.329 1152V1163.02H273.603V1152H273.602L273.602 1097.86H204.329L204.329 1152H204.329ZM134 1092H133.892V1097.28H64.6178V1092H64.5821V1029.17H134V1092ZM64.6178 1232.88V1163.6H133.892V1232.88H64.6178ZM64.6178 1302.73L64.6178 1233.46H133.892L133.892 1302.73H64.6178ZM64.6178 1372.59V1303.32H133.892V1372.59H64.6178ZM64.6178 1441.28V1373.17H133.892V1441.28H64.6178ZM134.474 1441.28H203.747L203.747 1373.17H134.474V1441.28ZM134.474 1372.59H203.747V1303.32H134.474V1372.59ZM134.474 1302.73H203.747V1233.46H134.474L134.474 1302.73ZM134.474 1232.88H203.747V1163.6H134.474V1232.88ZM204.329 1232.88V1163.6H273.603V1232.88H204.329ZM204.329 1302.73V1233.46H273.603V1302.73H204.329ZM204.329 1372.59V1303.32H273.603V1372.59H204.329ZM204.329 1441.28L204.329 1373.17H273.603V1441.28H204.329ZM64.5821 888.878V819.604H134V888.878H64.5821ZM64.5821 958.734L64.5821 889.46H134V958.734H64.5821ZM64.5821 1028.59V959.316H134V1028.59H64.5821ZM134.582 1028.59H203.747V959.316H134.582V1028.59ZM134.582 958.734H203.747L203.747 889.46H134.582L134.582 958.734ZM134.582 888.878H203.747V819.604H134.582V888.878ZM204.329 888.878V819.604H273.602V888.878H204.329ZM204.329 958.734L204.329 889.46H273.602L273.602 958.734H204.329ZM204.329 1028.59V959.316H273.602V1028.59H204.329ZM204.329 1097.28V1029.17H273.602V1097.28H204.329Z" fill="url(#paint1_linear_467_969)"/>
<defs>
<linearGradient id="paint0_linear_467_969" x1="351.5" y1="252.836" x2="-0.000248108" y2="251.356" gradientUnits="userSpaceOnUse">
<stop stop-color="#5BD6A5"/>
<stop offset="0.47" stop-color="#5BD6A5"/>
<stop offset="1" stop-color="#5BD6A5" stop-opacity="0"/>
</linearGradient>
<linearGradient id="paint1_linear_467_969" x1="351.5" y1="997.502" x2="-1.92961e-05" y2="996.002" gradientUnits="userSpaceOnUse">
<stop stop-color="#5BD6A5"/>
<stop offset="0.47" stop-color="#5BD6A5"/>
<stop offset="1" stop-color="#5BD6A5" stop-opacity="0"/>
</linearGradient>
</defs>
</svg>
