<svg width="1496" height="250" viewBox="0 0 1496 250" fill="none" xmlns="http://www.w3.org/2000/svg">
<g clip-path="url(#clip0_468_1115)">
<path opacity="0.5" fill-rule="evenodd" clip-rule="evenodd" d="M737.999 -6.10352e-05V404H738.581V-6.10352e-05H737.999ZM747.999 273.603H802.138V204.329H748V203.747H802.138V134.474H748V133.892H802.138V64.6177H748V64.0356H802.138V-6.10352e-05H802.72V64.0356H870.829V-0.00012207H871.411V64.0356H940.685V-0.00012207H941.267V64.0356H1010.54V-0.00012207H1011.12V64.0356H1080.4V-0.00012207H1080.98V64.0356H1146.14V-0.00012207H1146.72V64.0356H1152V63.9999H1214.83V-0.00012207H1215.41V63.9999H1284.69V-0.00012207H1285.27V63.9999H1354.54V-0.00012207H1355.12V63.9999H1424.4V-0.00012207H1424.98V63.9999H1496V64.582H1424.98V134H1496V134.582H1424.98V203.747L1496 203.747V204.329L1424.98 204.329V273.602H1496V274.185H1424.98V404H1424.4V274.185H1355.12V404H1354.54V274.185H1285.27V404H1284.69V274.185H1215.41V404H1214.83V274.185H1152V274.185H1146.72V404H1146.14V274.185H1080.98V404H1080.4V274.185H1011.12V404H1010.54V274.185H941.267V404H940.685V274.185H871.411V404H870.829V274.185H802.72V404H802.138V274.185H747.999V273.603ZM1092 273.603V273.602H1146.14V204.329H1092V204.329H1080.98V273.603H1092ZM1152 203.747V203.747L1146.72 203.747V134.474H1152V134.582H1214.83V203.747H1152ZM1152 134H1214.83V64.582H1152V64.6177H1146.72V133.892H1152V134ZM1146.14 133.892V64.6177H1080.98V133.892H1146.14ZM1146.14 134.474V203.747H1080.98V134.474H1146.14ZM802.72 133.892V64.6177H870.829V133.892H802.72ZM871.411 133.892V64.6177H940.685V133.892H871.411ZM941.267 133.892V64.6177H1010.54V133.892H941.267ZM1011.12 133.892V64.6177H1080.4V133.892H1011.12ZM1080.4 134.474H1011.12V203.747H1080.4V134.474ZM1010.54 134.474H941.267V203.747H1010.54V134.474ZM940.685 134.474H871.411V203.747H940.685V134.474ZM870.829 134.474H802.72V203.747H870.829V134.474ZM802.72 273.603V204.329H870.829V273.603H802.72ZM871.411 273.603V204.329H940.685V273.603H871.411ZM941.267 273.603V204.329H1010.54V273.603H941.267ZM1011.12 273.603V204.329H1080.4V273.603H1011.12ZM1355.12 64.582H1424.4V134H1355.12V64.582ZM1285.27 64.582L1354.54 64.582V134H1285.27V64.582ZM1215.41 64.582H1284.69V134H1215.41V64.582ZM1215.41 134.582V203.747H1284.69V134.582H1215.41ZM1285.27 134.582V203.747H1354.54V134.582L1285.27 134.582ZM1355.12 134.582V203.747H1424.4V134.582H1355.12ZM1355.12 204.329H1424.4V273.602H1355.12V204.329ZM1285.27 204.329H1354.54V273.602H1285.27V204.329ZM1215.41 204.329H1284.69V273.602H1215.41V204.329ZM1146.72 204.329H1214.83V273.602H1146.72V204.329Z" fill="url(#paint0_linear_468_1115)"/>
<path opacity="0.5" fill-rule="evenodd" clip-rule="evenodd" d="M54.1371 273.603H-0.00195312L-0.00195312 274.185H54.1371V404H54.7192V274.185H122.828V404H123.411V274.185H192.684V404H193.266V274.185H262.54V404H263.122V274.185H332.395V404H332.977V274.185H398.137V404H398.719V274.185H403.998V274.185H466.829V404H467.411V274.185H536.684V404H537.266V274.185H606.54V404H607.122V274.185H676.396V404H676.978V274.185H747.999V273.602H676.978V204.329L747.999 204.329V203.747L676.978 203.747V134.582H747.998V134H676.978V64.5821H747.998V63.9999H676.978V-6.10352e-05H676.396V63.9999H607.122V-6.10352e-05H606.54V63.9999H537.266V-6.10352e-05H536.684V63.9999H467.411V-6.10352e-05H466.829V63.9999H403.998V64.0357H398.719V-6.10352e-05H398.137V64.0357H332.977V-6.10352e-05H332.395V64.0357H263.122V-6.10352e-05H262.54V64.0357H193.266V-6.10352e-05H192.684V64.0357H123.411L123.411 -6.10352e-05H122.828L122.828 64.0357H54.7192V-6.10352e-05H54.1371V64.0357H-0.0010376L-0.0010376 64.6178H54.1371V133.892H-0.0010376L-0.0010376 134.474H54.1371V203.747H-0.0010376L-0.0010376 204.329H54.1371L54.1371 273.603ZM398.137 64.6178H332.977V133.892H398.137V64.6178ZM398.137 134.474H332.977V203.747H398.137V134.474ZM403.999 203.747V203.747L398.719 203.747V134.474H403.998V134.582H466.829V203.747H403.999ZM343.999 204.329H332.977V273.603H343.999V273.602H398.137V204.329H343.999V204.329ZM403.999 134V133.892H398.719V64.6178H403.999V64.5821H466.829V134H403.999ZM263.122 64.6178H332.395V133.892H263.122V64.6178ZM193.266 64.6178H262.54V133.892H193.266V64.6178ZM123.411 64.6178H192.684V133.892H123.411V64.6178ZM54.7192 64.6178H122.828V133.892H54.7192V64.6178ZM54.7192 134.474V203.747H122.828V134.474H54.7192ZM123.411 134.474V203.747H192.684V134.474H123.411ZM193.266 134.474V203.747H262.54V134.474H193.266ZM263.122 134.474V203.747H332.395V134.474H263.122ZM263.122 204.329H332.395V273.603H263.122V204.329ZM193.266 204.329H262.54V273.603H193.266V204.329ZM123.411 204.329H192.684V273.603H123.411V204.329ZM54.7192 204.329H122.828V273.603H54.7192L54.7192 204.329ZM607.122 64.5821H676.396V134H607.122V64.5821ZM537.266 64.5821L606.54 64.5821V134H537.266V64.5821ZM467.411 64.5821H536.684V134H467.411V64.5821ZM467.411 134.582V203.747H536.684V134.582H467.411ZM537.266 134.582V203.747H606.54V134.582L537.266 134.582ZM607.122 134.582V203.747H676.396V134.582H607.122ZM607.122 204.329H676.396V273.602H607.122V204.329ZM537.266 204.329H606.54V273.602H537.266V204.329ZM467.411 204.329H536.684V273.602H467.411V204.329ZM398.719 204.329H466.829V273.602H398.719V204.329Z" fill="url(#paint1_linear_468_1115)"/>
</g>
<defs>
<linearGradient id="paint0_linear_468_1115" x1="1243.16" y1="351.5" x2="1244.64" y2="-0.000248108" gradientUnits="userSpaceOnUse">
<stop stop-color="#5BD6A5"/>
<stop offset="0.47" stop-color="#5BD6A5"/>
<stop offset="1" stop-color="#5BD6A5" stop-opacity="0"/>
</linearGradient>
<linearGradient id="paint1_linear_468_1115" x1="498.498" y1="351.5" x2="499.998" y2="-1.92961e-05" gradientUnits="userSpaceOnUse">
<stop stop-color="#5BD6A5"/>
<stop offset="0.47" stop-color="#5BD6A5"/>
<stop offset="1" stop-color="#5BD6A5" stop-opacity="0"/>
</linearGradient>
<clipPath id="clip0_468_1115">
<rect width="250" height="1496" fill="white" transform="matrix(0 1 -1 0 1496 0)"/>
</clipPath>
</defs>
</svg>
