<svg width="1600" height="166" viewBox="0 0 1600 166" fill="none" xmlns="http://www.w3.org/2000/svg">
<path d="M160.456 84.7503L161.271 67.0136L161.302 66.3037C161.322 65.8825 161.618 65.5576 161.973 65.5576H173.048C173.404 65.5576 173.71 65.8945 173.72 66.3157L173.741 67.0256L174.382 84.7503L174.403 85.3881C174.423 85.8333 174.138 86.2063 173.761 86.2184C173.343 86.2304 173.078 85.9055 173.058 85.4603L173.027 84.7503L172.396 67.146H162.616L161.8 84.7503L161.77 85.4723C161.749 85.8947 161.453 86.2184 161.098 86.2184H161.057C160.691 86.1943 160.404 85.8213 160.426 85.3881L160.456 84.7503ZM173.802 87.0607H173.842C174.199 87.0607 174.484 87.3868 174.505 87.8187L174.535 88.649L175.075 102.317L175.095 102.955C175.106 103.4 174.82 103.773 174.443 103.797H174.413C174.056 103.797 173.761 103.461 173.741 103.039L173.71 102.316L173.18 88.6479L173.15 87.8898C173.14 87.4457 173.424 87.0715 173.802 87.0607ZM159.58 102.317L160.283 88.649L160.324 87.8067C160.344 87.3615 160.67 87.0727 161.036 87.0607C161.413 87.086 161.698 87.4578 161.667 87.903L161.627 88.649L160.934 102.317L160.893 103.16C160.873 103.593 160.567 103.906 160.211 103.906H160.17C159.803 103.882 159.518 103.509 159.538 103.063L159.58 102.317ZM174.494 104.858H174.515C174.933 104.858 175.177 105.207 175.187 105.628L175.218 106.458L175.87 127.287L175.921 128.888L175.961 130.067L176.012 131.654L176.389 143.663L176.562 149.21V149.234C176.562 149.667 176.277 150.028 175.91 150.04H175.88C175.554 150.04 175.269 149.752 175.218 149.367C175.208 149.33 175.207 149.306 175.207 149.27L174.657 131.653L174.606 130.066L174.566 128.886L174.515 127.286L173.863 106.457L173.842 105.687C173.822 105.255 174.117 104.88 174.494 104.858ZM158.397 131.654L158.469 130.067L158.509 128.888L158.581 127.287L159.415 106.458L159.446 105.736C159.456 105.303 159.751 104.942 160.147 104.977C160.514 105.002 160.81 105.374 160.79 105.807L160.76 106.457L159.924 127.286L159.863 128.886L159.823 130.066L159.751 131.653L158.835 154.564V154.612C158.805 155.045 158.519 155.358 158.152 155.358H158.122C157.765 155.346 157.48 154.997 157.48 154.577V154.529L158.397 131.654Z" fill="black"/>
<path d="M164.429 86.3434H169.814C170.186 86.3434 170.488 85.9872 170.488 85.5468V71.0879C170.488 68.9268 168.955 67.1711 167.071 67.1711C165.242 67.1711 163.752 68.9268 163.752 71.0879V85.5468C163.752 85.9872 164.055 86.3434 164.429 86.3434ZM169.136 84.7514H165.104V71.0891C165.104 69.7883 165.969 68.7655 167.071 68.7655C168.192 68.7655 169.136 69.8317 169.136 71.0891V84.7514Z" fill="black"/>
<path d="M161.319 63.4758C161.492 63.3916 161.686 63.3542 161.879 63.3542H173.147C173.462 63.3542 173.748 63.4385 173.992 63.6069C174.491 63.9318 174.797 64.5455 174.797 65.3036C174.797 66.1218 174.369 66.7717 173.737 67.0243C173.554 67.1086 173.36 67.1459 173.147 67.1459H161.879C161.665 67.1459 161.462 67.0977 161.268 67.0135C160.667 66.738 160.219 66.0629 160.219 65.3048C160.219 64.4613 160.677 63.7405 161.319 63.4758ZM173.145 65.5575C173.207 65.5575 173.441 65.5334 173.441 65.3048C173.441 65.0641 173.349 64.9438 173.145 64.9438H161.878C161.767 64.9438 161.572 65.0521 161.572 65.3048C161.572 65.4011 161.725 65.5575 161.878 65.5575H173.145Z" fill="black"/>
<path d="M160.016 84.7505H175.104C176.01 84.7505 176.754 85.6277 176.754 86.6998C176.754 87.7226 175.969 88.6492 175.104 88.6492H160.016C159.15 88.6492 158.366 87.7226 158.366 86.6998C158.366 85.6277 159.11 84.7505 160.016 84.7505ZM160.016 87.0608H175.104C175.216 87.0608 175.399 86.831 175.399 86.6998C175.399 86.4592 175.226 86.3389 175.104 86.3389H160.016C159.894 86.3389 159.71 86.4592 159.71 86.6998C159.711 86.831 159.905 87.0608 160.016 87.0608Z" fill="black"/>
<path d="M169.685 57.1344C169.716 57.1825 169.757 57.2078 169.797 57.2307C169.899 57.2909 169.99 57.351 170.082 57.4232C172.854 59.3365 172.822 62.2003 172.67 63.3555C172.64 63.5962 172.609 63.7646 172.589 63.8368C172.486 64.258 172.7 64.6912 173.068 64.8115C173.119 64.8247 173.18 64.8356 173.241 64.8356C173.536 64.8356 173.811 64.6069 173.893 64.2459C173.913 64.1497 173.964 63.9331 173.995 63.6082C174.198 62.1041 174.239 58.4111 170.735 56.0394C170.632 55.9564 170.531 55.895 170.418 55.8228C170.316 55.7626 170.215 55.7266 170.102 55.7266C170.092 55.7266 170.092 55.7266 170.092 55.7266C169.857 55.7266 169.633 55.883 169.511 56.1477C169.358 56.4955 169.44 56.9178 169.685 57.1344Z" fill="black"/>
<path d="M170.205 57.3212C170.481 57.3212 170.74 57.1191 170.839 56.7966C170.965 56.3802 170.782 55.9254 170.433 55.7738C170.422 55.7701 169.199 55.2359 168.255 54.0193C168.001 53.6944 167.574 53.6764 167.299 53.9712C167.024 54.2696 167.006 54.7726 167.257 55.0999C168.435 56.6161 169.913 57.2514 169.976 57.2755C170.053 57.308 170.129 57.3212 170.205 57.3212Z" fill="black"/>
<path d="M165.108 57.4362C165.205 57.4362 165.302 57.4122 165.397 57.3628C165.599 57.2461 167.406 56.2209 168.256 55.0862C168.503 54.7589 168.478 54.2547 168.198 53.9611C167.923 53.6675 167.494 53.694 167.244 54.0297C166.68 54.7818 165.302 55.6481 164.819 55.9177C164.481 56.1042 164.337 56.5819 164.497 56.9802C164.613 57.269 164.855 57.4362 165.108 57.4362Z" fill="black"/>
<path d="M164.919 56.9182C165.03 57.1709 165.235 57.3153 165.459 57.3273H165.47C165.521 57.3273 165.561 57.3273 165.602 57.3153C165.684 57.3033 165.765 57.2671 165.835 57.219C167.567 56.0518 169.89 57.3393 169.91 57.3634C169.972 57.3875 170.022 57.4116 170.083 57.4236C170.124 57.4356 170.165 57.4356 170.206 57.4356C170.46 57.4356 170.695 57.2792 170.818 56.9784C170.879 56.834 170.899 56.6896 170.879 56.5452C170.889 56.5331 170.879 56.5331 170.879 56.5211C170.849 56.2684 170.716 56.0518 170.502 55.9195C170.482 55.9074 170.339 55.8352 170.105 55.7269C170.095 55.7269 170.095 55.7269 170.095 55.7269C169.677 55.5344 168.995 55.2817 168.19 55.1854C168.149 55.1734 168.108 55.1734 168.057 55.1734C167.832 55.1494 167.589 55.1373 167.344 55.1493C167.323 55.1361 167.313 55.1361 167.303 55.1493C166.651 55.1734 165.969 55.3407 165.317 55.7378C165.266 55.7739 165.225 55.7991 165.174 55.834C164.848 56.0518 164.735 56.5331 164.919 56.9182Z" fill="black"/>
<path d="M162.671 63.3554H172.675C172.828 62.2002 172.858 59.3364 170.086 57.4231C170.025 57.4111 169.975 57.387 169.913 57.3629C169.893 57.3389 167.57 56.0513 165.838 57.2186C165.768 57.2667 165.685 57.3028 165.605 57.3148C165.045 57.6758 162.313 59.6733 162.671 63.3554Z" fill="#63AEA7"/>
<path d="M161.323 63.4757C161.344 63.7152 161.374 63.9558 161.414 64.1977C161.486 64.5827 161.761 64.8354 162.077 64.8354C162.117 64.8354 162.168 64.8354 162.209 64.8234C162.576 64.7392 162.81 64.3048 162.739 63.8848C162.709 63.7043 162.688 63.5238 162.668 63.3554C162.311 59.6733 165.042 57.6758 165.602 57.3148C165.663 57.2667 165.704 57.2426 165.704 57.2426C165.786 57.1945 165.848 57.1343 165.898 57.0633C166.09 56.8347 166.142 56.4737 166.02 56.1728C165.888 55.8468 165.602 55.6795 165.317 55.7396C165.246 55.7529 165.185 55.7757 165.113 55.8118C164.951 55.9081 164.777 56.0164 164.594 56.1608C163.054 57.2666 160.986 59.8177 161.323 63.4757Z" fill="black"/>
<path d="M167.755 53.6196C168.616 53.6196 168.625 52.7472 168.625 52.7063C168.625 52.669 168.615 51.7966 167.755 51.7966C166.895 51.7966 166.885 52.669 166.885 52.7063C166.884 52.746 166.895 53.6196 167.755 53.6196ZM167.785 52.0337C167.989 52.0818 168.235 52.3345 168.235 52.7063C168.235 53.1154 167.937 53.3802 167.727 53.3886C167.572 53.3802 167.274 53.1142 167.274 52.7063C167.274 52.3345 167.521 52.0818 167.727 52.0337V52.0252C167.744 52.0276 167.764 52.0276 167.785 52.0252V52.0337Z" fill="black"/>
<path d="M167.751 54.4295C168.146 54.4295 168.719 54.0661 168.719 53.4019C168.719 52.7401 168.145 52.373 167.751 52.373C167.197 52.373 166.78 52.8147 166.78 53.4019C166.78 53.9109 167.144 54.4295 167.751 54.4295ZM167.751 52.8363C167.906 52.8363 168.131 53.0553 168.131 53.4019C168.131 53.7484 167.906 53.9674 167.751 53.9674C167.383 53.9674 167.367 53.4079 167.367 53.4019C167.367 53.3983 167.383 52.8363 167.751 52.8363Z" fill="black"/>
<path d="M167.751 55.2367C168.146 55.2367 168.719 54.8721 168.719 54.2103C168.719 53.5484 168.145 53.1838 167.751 53.1838C167.225 53.1838 166.682 53.5665 166.682 54.2103C166.682 54.854 167.225 55.2367 167.751 55.2367ZM167.751 53.6435C167.812 53.6435 168.033 53.8493 168.033 54.2103C168.033 54.5724 167.811 54.7782 167.751 54.7782C167.383 54.7782 167.367 54.2163 167.367 54.2103C167.367 54.2066 167.383 53.6435 167.751 53.6435Z" fill="black"/>
<path d="M167.749 53.2755C168.123 53.2755 168.426 52.9194 168.426 52.4789V51.6667C168.426 51.2263 168.123 50.8701 167.749 50.8701C167.377 50.8701 167.073 51.2263 167.073 51.6667V52.4789C167.073 52.9194 167.377 53.2755 167.749 53.2755Z" fill="black"/>
<path d="M159.232 102.317H175.878C176.846 102.317 177.641 103.245 177.641 104.388C177.641 105.53 176.846 106.458 175.878 106.458H159.232C158.264 106.458 157.48 105.53 157.48 104.388C157.48 103.245 158.264 102.317 159.232 102.317ZM159.232 104.857H175.878C176.102 104.857 176.286 104.641 176.286 104.388C176.286 104.135 176.102 103.907 175.878 103.907H159.232C159.018 103.907 158.835 104.135 158.835 104.388C158.835 104.641 159.018 104.857 159.232 104.857Z" fill="black"/>
<path d="M160.936 102.317H173.711L173.181 88.6489H161.628L160.936 102.317Z" fill="#63AEA7"/>
<path d="M158.162 131.66H176.968C177.972 131.66 178.82 130.659 178.82 129.474C178.82 128.289 177.972 127.288 176.968 127.288H158.162C157.16 127.288 156.312 128.289 156.312 129.474C156.312 130.659 157.16 131.66 158.162 131.66ZM176.968 128.883C177.177 128.883 177.468 129.106 177.468 129.474C177.468 129.841 177.176 130.068 176.968 130.068H158.162C157.96 130.068 157.664 129.853 157.664 129.474C157.664 129.105 157.954 128.883 158.162 128.883H176.968Z" fill="black"/>
<path d="M120.357 32.9962V33.1165C120.369 33.2609 120.369 33.3933 120.379 33.5389C120.449 34.8024 120.633 36.0057 121.031 37.2319C121.061 37.3281 121.093 37.4123 121.122 37.5086C121.185 37.6771 121.255 37.8576 121.326 38.026C121.632 38.8202 122.049 39.6384 122.579 40.4808C123.516 41.9729 124.819 43.5612 126.643 45.3662C126.643 45.3662 126.643 45.3794 126.654 45.3794C128.916 47.6164 131.951 50.1794 136.037 53.2611C142.851 58.4353 146.56 64.1389 147.059 70.2397C147.671 77.7122 143.177 83.4508 142.495 84.2822C142.433 84.3544 142.403 84.3905 142.403 84.3905C142.137 84.6914 142.118 85.1967 142.382 85.5216C142.514 85.6781 142.687 85.7623 142.871 85.7623C143.034 85.7623 143.207 85.6901 143.328 85.5457C143.38 85.4856 143.645 85.1847 144.031 84.6673C145.559 82.6096 148.972 77.1466 148.401 70.1073C147.871 63.4891 143.949 57.3764 136.767 51.9254C124.512 42.672 122.006 38.4845 121.719 33.4306C121.709 33.3223 121.709 33.2261 121.699 33.1178V32.9974C121.699 32.9493 121.689 32.9132 121.678 32.8759C121.678 32.8278 121.657 32.7929 121.648 32.7447C121.648 32.7447 121.648 32.7315 121.638 32.7195C121.627 32.6834 121.607 32.6473 121.586 32.6112C121.586 32.5991 121.576 32.5991 121.576 32.5991C121.565 32.5739 121.545 32.539 121.525 32.5149C121.453 32.4307 121.382 32.3705 121.28 32.3224C121.25 32.3103 121.219 32.2983 121.189 32.2875C121.148 32.2742 121.117 32.2622 121.076 32.2622H121.006C120.995 32.2622 120.995 32.2622 120.976 32.2622C120.935 32.2622 120.894 32.2742 120.864 32.2875C120.834 32.2995 120.802 32.3115 120.772 32.3224C120.762 32.3356 120.752 32.3356 120.741 32.3356C120.712 32.3585 120.69 32.3825 120.66 32.3958C120.65 32.3825 120.65 32.3958 120.639 32.3958C120.619 32.4198 120.589 32.4439 120.568 32.468V32.48C120.558 32.48 120.558 32.4932 120.558 32.4932C120.548 32.5053 120.548 32.5053 120.538 32.5053C120.517 32.5293 120.497 32.5654 120.476 32.6015C120.456 32.6376 120.436 32.6617 120.426 32.6978C120.426 32.7098 120.415 32.7098 120.415 32.7219C120.415 32.7339 120.404 32.7339 120.404 32.7471C120.394 32.782 120.375 32.8193 120.375 32.8675C120.368 32.912 120.357 32.9481 120.357 32.9962Z" fill="black"/>
<path d="M97.8702 84.4615C98.3388 85.1113 98.6751 85.4855 98.7271 85.5445C98.8595 85.6889 99.0326 85.7611 99.1956 85.7611C99.379 85.7611 99.5522 85.6769 99.6836 85.5205C99.9383 85.1956 99.9281 84.6902 99.6632 84.3893C99.6632 84.3893 99.6327 84.3532 99.5706 84.281C98.888 83.4507 94.3964 77.711 95.0076 70.2385C95.5068 64.1377 99.215 58.4328 106.02 53.2598C110.054 50.2155 113.07 47.6885 115.321 45.4745C117.145 43.6815 118.459 42.092 119.408 40.6131V40.5999C119.978 39.7227 120.405 38.8912 120.732 38.0621V38.0501C120.803 37.8925 120.864 37.724 120.915 37.5688C120.956 37.4605 120.997 37.3401 121.038 37.2319C121.364 36.209 121.547 35.2103 121.65 34.1754C121.65 34.1634 121.65 34.1634 121.65 34.1634C121.67 33.9348 121.679 33.6941 121.69 33.4535C121.701 33.3692 121.701 33.273 121.711 33.1887V33.0672C121.711 33.0552 121.711 33.0552 121.711 33.0431C121.711 33.0179 121.711 32.995 121.701 32.9709C121.701 32.936 121.701 32.9108 121.69 32.8747C121.69 32.8627 121.69 32.8398 121.679 32.8265C121.679 32.7916 121.669 32.7664 121.659 32.7435C121.638 32.6954 121.618 32.6593 121.597 32.6112V32.5991H121.587C121.587 32.5871 121.576 32.5871 121.576 32.5739C121.566 32.5618 121.555 32.5498 121.546 32.5389V32.5257C121.475 32.4427 121.394 32.3693 121.291 32.3211C121.261 32.3091 121.23 32.2971 121.199 32.2863C121.178 32.273 121.149 32.273 121.118 32.273C121.108 32.273 121.087 32.261 121.067 32.261C121.057 32.261 121.057 32.261 121.046 32.261H121.016C120.995 32.261 120.975 32.273 120.954 32.273C120.923 32.273 120.893 32.273 120.873 32.2863C120.843 32.2983 120.811 32.3103 120.781 32.3211C120.771 32.3344 120.76 32.3344 120.75 32.3344C120.721 32.3573 120.689 32.3813 120.658 32.3945C120.638 32.4066 120.629 32.4186 120.618 32.4427C120.597 32.4427 120.588 32.4547 120.577 32.4667V32.4788C120.567 32.4788 120.567 32.492 120.567 32.492L120.557 32.504C120.546 32.5161 120.535 32.5281 120.526 32.5401C120.526 32.5401 120.516 32.5402 120.516 32.5522C120.475 32.6003 120.445 32.6605 120.424 32.7206C120.424 32.7327 120.413 32.7327 120.413 32.7459C120.403 32.7808 120.393 32.8289 120.383 32.8662C120.373 32.8915 120.373 32.9264 120.373 32.9625C120.362 32.9746 120.362 32.9866 120.362 32.9986V33.119C120.352 33.2513 120.352 33.3837 120.342 33.5281C120.332 33.6845 120.321 33.853 120.301 34.0214C119.832 38.8226 117.061 43.0462 105.295 51.9266C98.1026 57.3655 94.1916 63.4903 93.6608 70.1085C93.1036 76.9168 96.2922 82.2583 97.8702 84.4615Z" fill="black"/>
<path d="M121.037 27.491C121.87 27.491 122.496 26.9002 122.496 26.1132C122.496 25.3299 121.871 24.7415 121.037 24.7415C120.264 24.7415 119.68 25.3286 119.68 26.1132C119.68 26.9002 120.264 27.491 121.037 27.491Z" fill="black"/>
<path d="M120.946 30.3825C121.945 30.3825 122.699 29.693 122.699 28.7749C122.699 27.8592 121.946 27.1697 120.946 27.1697C120.033 27.1697 119.292 27.8904 119.292 28.7749C119.292 29.6629 120.032 30.3825 120.946 30.3825Z" fill="black"/>
<path d="M120.94 33.6193C121.835 33.6193 122.789 32.8793 122.789 31.7794C122.789 30.7687 121.816 30.0659 120.94 30.0659C119.884 30.0659 118.994 30.8469 118.994 31.7794C118.994 32.8119 119.849 33.6193 120.94 33.6193ZM121.434 31.8889C121.36 31.8889 121.176 32.0249 120.94 32.0249C120.6 32.0249 120.379 31.8444 120.344 31.765C120.379 31.8324 120.612 31.6567 120.94 31.6567C121.193 31.6567 121.418 31.8191 121.463 31.9009C121.458 31.8925 121.448 31.8889 121.434 31.8889Z" fill="black"/>
<path d="M121.034 25.9906C121.044 25.9906 121.054 25.9906 121.063 25.9906C121.433 25.9737 121.726 25.6031 121.71 25.1615L121.611 22.2688C121.597 21.8308 121.28 21.4902 120.911 21.5059C120.54 21.5215 120.247 21.8934 120.264 22.3362L120.36 25.2277C120.374 25.6525 120.673 25.9906 121.034 25.9906Z" fill="black"/>
<path d="M117.9 12.0011C118.042 12.0011 118.183 11.9505 118.302 11.8495C118.535 11.6437 118.633 11.2815 118.542 10.953L117.915 8.72208L119.484 7.3359C119.716 7.12893 119.811 6.77032 119.72 6.44543C119.627 6.11813 119.367 5.90033 119.078 5.90033H117.114L116.488 3.67182C116.396 3.34212 116.104 3.10627 115.834 3.12672C115.54 3.13274 115.28 3.36498 115.197 3.6983L114.65 5.89916H112.61C112.316 5.89916 112.056 6.12416 111.965 6.45267C111.878 6.78237 111.98 7.14455 112.218 7.34791L113.87 8.73291L113.243 10.9518C113.148 11.2815 113.248 11.6485 113.485 11.8519C113.721 12.0577 114.047 12.0577 114.288 11.8435L115.855 10.4597L117.505 11.8555C117.625 11.953 117.765 12.0011 117.9 12.0011ZM117.049 7.49113L116.715 7.78832C116.482 7.99408 116.389 8.35269 116.478 8.67879L116.607 9.13002L116.242 8.81958C116.002 8.61983 115.678 8.62341 115.443 8.83159L115.214 9.03495L115.314 8.68C115.41 8.34668 115.307 7.98085 115.066 7.77388L114.73 7.49113H115.16C115.458 7.49113 115.723 7.26008 115.809 6.91955L115.889 6.59225L115.989 6.94841C116.083 7.27571 116.343 7.49113 116.632 7.49113H117.049Z" fill="black"/>
<path d="M110.452 14.9587C110.697 14.7301 111.043 14.7542 111.286 14.9948C112.427 16.1368 113.945 16.7637 115.555 16.7637C119.385 16.7637 122.513 13.0828 122.513 8.54513C122.513 5.64516 121.24 3.00989 119.11 1.4817C118.856 1.28917 118.733 0.916169 118.815 0.56721C118.907 0.218252 119.202 -0.0224102 119.497 0.00165586C124.693 0.25435 128.758 5.27213 128.758 11.433C128.758 16.2102 126.323 20.3483 122.544 22.0101C122.35 22.0931 122.136 22.0582 121.972 21.9487C121.921 22.1665 121.789 22.3458 121.615 22.4421C121.585 22.4661 121.544 22.4782 121.514 22.4902C121.138 22.6226 120.72 22.7188 120.281 22.779C119.894 22.8392 119.487 22.8632 119.079 22.8632C115.28 22.8632 111.723 20.0716 110.226 15.9081C110.106 15.5724 110.197 15.1741 110.452 14.9587ZM119.081 21.2761C119.835 21.2761 120.548 21.1557 121.14 20.95C121.201 20.9379 121.261 20.9259 121.332 20.9259C121.444 20.9259 121.556 20.962 121.658 21.0222C121.719 20.7935 121.862 20.601 122.076 20.5048C125.316 19.0837 127.413 15.5219 127.413 11.4318C127.413 7.13604 125.1 3.47798 121.841 2.13028C123.135 3.8871 123.868 6.14934 123.868 8.54391C123.868 13.9588 120.139 18.3629 115.555 18.3629C114.597 18.3629 113.67 18.1703 112.804 17.8093C114.364 19.9524 116.666 21.2761 119.081 21.2761Z" fill="black"/>
<path d="M112.802 17.8104C114.361 19.9523 116.663 21.2759 119.078 21.2759C119.832 21.2759 120.545 21.1556 121.137 20.9498C121.198 20.9378 121.258 20.9258 121.329 20.9258C121.441 20.9258 121.553 20.9618 121.655 21.022C121.716 20.7934 121.859 20.6009 122.073 20.5046C125.313 19.0835 127.41 15.5217 127.41 11.4317C127.41 7.13589 125.098 3.47783 121.838 2.13013C123.132 3.88695 123.865 6.14918 123.865 8.54376C123.865 13.9586 120.136 18.3627 115.552 18.3627C114.595 18.3639 113.669 18.1714 112.802 17.8104Z" fill="#63AEA7"/>
<path d="M120.365 32.996V33.1163C120.365 33.2607 120.376 33.4051 120.376 33.5387C120.376 33.6217 120.376 33.6951 120.386 33.7661C120.447 35.0657 120.59 36.293 120.916 37.5685C120.946 37.6889 120.978 37.8092 121.019 37.9416C121.08 38.1702 121.151 38.3988 121.233 38.6275C121.671 39.9992 122.322 41.4191 123.291 43.0075C124.951 45.763 127.528 48.9891 131.462 53.1874C144.848 67.544 137.085 82.3808 135.984 84.282C135.923 84.4023 135.882 84.4733 135.873 84.4866C135.648 84.8476 135.71 85.3409 136.016 85.6056C136.128 85.7139 136.27 85.7621 136.413 85.7621C136.617 85.7621 136.82 85.6538 136.953 85.4492C136.973 85.4239 137.218 85.016 137.584 84.282C139.632 80.1667 145.245 65.8101 132.369 51.9974C129.985 49.4464 128.11 47.2804 126.664 45.3792C126.652 45.3792 126.652 45.3659 126.652 45.3659C123.026 40.6141 121.966 37.4723 121.743 34.0561C121.732 33.8515 121.722 33.647 121.722 33.4292C121.722 33.3461 121.712 33.2607 121.712 33.1765V32.9972C121.712 32.949 121.701 32.913 121.69 32.8757C121.69 32.8275 121.67 32.7926 121.661 32.7445C121.661 32.7313 121.65 32.7313 121.65 32.7192C121.639 32.6831 121.62 32.647 121.598 32.6109V32.5989C121.578 32.5736 121.558 32.5387 121.537 32.5146C121.466 32.4304 121.395 32.3702 121.293 32.3221C121.222 32.2872 121.141 32.274 121.048 32.262H121.019C121.008 32.262 121.007 32.262 120.988 32.262C120.947 32.262 120.907 32.274 120.876 32.2872C120.847 32.2993 120.815 32.3113 120.784 32.3221C120.774 32.3353 120.764 32.3354 120.754 32.3354C120.724 32.3474 120.684 32.3703 120.652 32.3955C120.632 32.4196 120.601 32.4436 120.581 32.4677V32.4798C120.571 32.4798 120.571 32.493 120.571 32.493C120.56 32.505 120.56 32.505 120.55 32.505C120.53 32.5291 120.509 32.5652 120.489 32.6013C120.469 32.6374 120.448 32.6615 120.438 32.6976C120.438 32.7096 120.428 32.7096 120.428 32.7216C120.428 32.7336 120.417 32.7336 120.417 32.7469C120.407 32.7818 120.387 32.8191 120.387 32.8672C120.376 32.9117 120.365 32.9478 120.365 32.996Z" fill="black"/>
<path d="M120.373 32.9962V33.1887C120.373 33.3091 120.384 33.4282 120.384 33.5377C120.384 33.6207 120.384 33.6941 120.394 33.7651C120.435 35.2331 120.527 36.6169 120.741 38.0501C120.761 38.2294 120.792 38.3978 120.832 38.5904C120.883 38.9634 120.955 39.3484 121.026 39.7335C121.719 43.211 123.114 47.1459 125.844 52.9819C132.404 67.0377 128.971 81.6446 128.268 84.281C128.198 84.5337 128.146 84.6781 128.146 84.6902C128.025 85.1113 128.208 85.5685 128.554 85.7129C128.625 85.749 128.706 85.7611 128.788 85.7611C129.063 85.7611 129.318 85.5686 129.418 85.2437C129.43 85.2184 129.531 84.8827 129.684 84.281C130.622 80.4906 133.505 66.0991 127.025 52.213C125.273 48.4707 124.091 45.5346 123.297 43.0077C123.297 42.9957 123.297 42.9956 123.297 42.9956C123.012 42.1184 122.777 41.287 122.594 40.4807C122.054 38.2185 121.83 36.209 121.748 34.0551C121.737 33.8505 121.727 33.646 121.727 33.4282C121.727 33.356 121.717 33.2717 121.717 33.1887V33.0672C121.717 33.0311 121.717 33.007 121.707 32.9709C121.707 32.936 121.707 32.9108 121.695 32.8747C121.685 32.7784 121.644 32.6954 121.604 32.6099V32.5979C121.583 32.5726 121.563 32.5498 121.553 32.5245C121.481 32.4415 121.401 32.3681 121.298 32.32C121.267 32.3079 121.227 32.2959 121.186 32.285C121.166 32.285 121.146 32.2718 121.125 32.2718C121.105 32.2718 121.084 32.2598 121.054 32.2598H121.024C121.013 32.2598 120.993 32.2598 120.962 32.2718C120.931 32.2718 120.901 32.2718 120.88 32.285C120.851 32.2971 120.819 32.3091 120.789 32.32C120.778 32.3332 120.768 32.3332 120.758 32.3332C120.729 32.3452 120.697 32.3681 120.666 32.3934C120.637 32.4174 120.605 32.4415 120.585 32.4656V32.4776C120.575 32.4776 120.575 32.4908 120.575 32.4908C120.565 32.5029 120.565 32.5028 120.565 32.5028C120.543 32.5149 120.534 32.5389 120.524 32.551C120.483 32.5991 120.452 32.6593 120.432 32.7195C120.432 32.7315 120.421 32.7315 120.421 32.7447C120.411 32.7796 120.391 32.8169 120.391 32.8651C120.381 32.8903 120.381 32.9252 120.381 32.9613C120.373 32.9721 120.373 32.983 120.373 32.9962Z" fill="black"/>
<path d="M104.403 84.281C104.759 85.003 105.004 85.411 105.024 85.4362C105.156 85.6528 105.36 85.7611 105.564 85.7611C105.707 85.7611 105.839 85.713 105.961 85.6047C106.267 85.352 106.328 84.8466 106.104 84.4976C106.083 84.4615 106.043 84.3893 105.982 84.281C104.81 82.2583 97.1084 67.6622 110.618 53.1865C114.479 49.0712 117.015 45.8836 118.675 43.1509V43.1389C119.684 41.4903 120.366 40.0103 120.825 38.5904C120.825 38.5784 120.825 38.5783 120.825 38.5783C120.896 38.3617 120.957 38.1572 121.018 37.9406C121.059 37.7962 121.1 37.653 121.129 37.5086C121.415 36.4016 121.568 35.3066 121.65 34.1755C121.65 34.1634 121.65 34.1634 121.65 34.1634C121.67 33.9829 121.679 33.8145 121.69 33.634C121.701 33.5738 121.701 33.5136 121.701 33.4426C121.701 33.3584 121.711 33.273 121.711 33.1899V33.0684C121.711 33.0564 121.711 33.0564 121.711 33.0443C121.711 33.0191 121.711 32.9962 121.701 32.9722C121.701 32.9373 121.701 32.912 121.69 32.8759C121.69 32.8639 121.69 32.841 121.679 32.8278C121.679 32.7929 121.669 32.7676 121.659 32.7447C121.638 32.6966 121.618 32.6605 121.597 32.6124V32.6003H121.587C121.587 32.5883 121.577 32.5883 121.577 32.5751C121.566 32.563 121.555 32.551 121.546 32.5402V32.5269C121.475 32.4439 121.394 32.3705 121.291 32.3224C121.261 32.3103 121.23 32.2983 121.2 32.2875C121.178 32.2742 121.149 32.2743 121.118 32.2743C121.108 32.2743 121.088 32.2622 121.067 32.2622C121.057 32.2622 121.057 32.2622 121.046 32.2622H121.016C120.995 32.2622 120.975 32.2743 120.954 32.2743C120.924 32.2743 120.893 32.2742 120.873 32.2875C120.843 32.2995 120.811 32.3115 120.781 32.3224C120.771 32.3356 120.76 32.3356 120.75 32.3356C120.721 32.3585 120.689 32.3825 120.659 32.3958C120.638 32.4078 120.629 32.4198 120.618 32.4439C120.597 32.4439 120.588 32.4559 120.577 32.468V32.48C120.567 32.48 120.567 32.4932 120.567 32.4932L120.557 32.5053C120.547 32.5173 120.535 32.5293 120.526 32.5414C120.526 32.5414 120.516 32.5414 120.516 32.5534C120.475 32.6015 120.445 32.6617 120.424 32.7219C120.424 32.7339 120.413 32.7339 120.413 32.7471C120.403 32.782 120.393 32.8302 120.384 32.8675C120.373 32.8927 120.373 32.9276 120.373 32.9637C120.362 32.9758 120.362 32.9878 120.362 32.9998V33.1201C120.352 33.2525 120.352 33.3849 120.342 33.5293C120.332 33.6857 120.321 33.8542 120.301 34.0226C120.036 37.5363 118.956 40.7142 115.318 45.4793C113.883 47.3673 112.048 49.4983 109.705 52.0012C96.8242 65.8103 102.375 80.1778 104.403 84.281Z" fill="black"/>
<path d="M112.399 84.281C112.551 84.8826 112.653 85.2184 112.664 85.2436C112.765 85.5685 113.02 85.761 113.295 85.761C113.377 85.761 113.458 85.749 113.528 85.7129C113.886 85.5565 114.059 85.0992 113.927 84.6901C113.927 84.6781 113.875 84.5337 113.804 84.281C113.091 81.6566 109.586 67.0376 116.137 52.9818C118.898 47.0977 120.304 43.1641 121.017 39.7334C121.109 39.3604 121.169 38.9874 121.231 38.6264C121.272 38.4219 121.301 38.2293 121.333 38.0248V38.0127C121.557 36.5447 121.659 35.1248 121.69 33.6315C121.701 33.5713 121.701 33.5112 121.701 33.4402C121.701 33.356 121.711 33.2705 121.711 33.1875V33.0659C121.711 33.0299 121.711 33.0058 121.701 32.9697C121.701 32.9348 121.701 32.9095 121.69 32.8734C121.679 32.7772 121.639 32.6941 121.598 32.6087V32.5966H121.588C121.577 32.5714 121.557 32.5485 121.547 32.5232C121.476 32.4402 121.395 32.3668 121.292 32.3187C121.262 32.3067 121.231 32.2946 121.2 32.2838C121.179 32.2706 121.15 32.2706 121.119 32.2706C121.099 32.2706 121.089 32.2585 121.068 32.2585C121.058 32.2585 121.058 32.2585 121.047 32.2585H121.017C120.996 32.2585 120.976 32.2706 120.955 32.2706C120.894 32.2838 120.844 32.2958 120.782 32.3187C120.772 32.3319 120.761 32.3319 120.751 32.3319C120.722 32.3548 120.69 32.3789 120.66 32.3921C120.63 32.427 120.598 32.4523 120.578 32.4751L120.568 32.4884L120.558 32.5004C120.547 32.5124 120.527 32.5245 120.517 32.5485C120.476 32.5967 120.446 32.6568 120.425 32.717C120.425 32.729 120.414 32.729 120.414 32.7422C120.404 32.7771 120.385 32.8145 120.385 32.8626C120.374 32.8879 120.374 32.9228 120.374 32.9589C120.363 32.9709 120.363 32.9829 120.363 32.995V33.1875C120.353 33.3078 120.353 33.4149 120.353 33.5232C120.282 35.8949 120.057 38.0597 119.405 40.6119C119.212 41.4181 118.966 42.2472 118.671 43.1388C117.866 45.6164 116.674 48.5176 114.954 52.2117C108.486 66.087 111.431 80.4785 112.399 84.281Z" fill="black"/>
<path d="M126.659 45.3779C128.105 47.2792 129.98 49.4451 132.364 51.9961C145.241 65.8088 139.627 80.1654 137.58 84.2807H142.5C143.183 83.4505 147.675 77.7107 147.064 70.2382C146.566 64.1374 142.857 58.4326 136.042 53.2596C131.955 50.1779 128.92 47.6149 126.659 45.3779Z" fill="#63AEA7"/>
<path d="M113.802 84.2809H128.257C128.96 81.6457 132.394 67.0376 125.832 52.9818C123.102 47.1458 121.706 43.2109 121.014 39.7334C120.301 43.164 118.895 47.0976 116.135 52.9818C109.583 67.0376 113.089 81.6565 113.802 84.2809Z" fill="#63AEA7"/>
<path d="M99.5706 84.2809H104.399C102.372 80.1777 96.8211 65.809 109.707 51.9963C112.05 49.4934 113.885 47.3623 115.32 45.4744C113.069 47.6884 110.053 50.2142 106.019 53.2597C99.214 58.434 95.5068 64.1376 95.0066 70.2384C94.3964 77.7109 98.888 83.4506 99.5706 84.2809Z" fill="#63AEA7"/>
<path d="M94.5924 89.4778C94.5924 89.911 94.8878 90.272 95.2648 90.272C95.5908 90.272 95.8454 90.0073 95.9178 89.6584L95.928 89.5621C95.9381 89.5368 95.9382 89.5139 95.9382 89.4778C95.9382 87.4936 97.3135 85.8812 98.9944 85.8812H142.383C144.064 85.8812 145.429 87.4936 145.429 89.4778L145.439 89.6343C145.5 89.9965 145.775 90.272 146.101 90.272C146.478 90.272 146.773 89.911 146.773 89.4778C146.773 89.3695 146.773 89.2504 146.762 89.1421C146.762 89.106 146.762 89.0808 146.752 89.0579C146.62 87.0604 145.53 85.3878 144.032 84.6658C143.553 84.4252 143.035 84.2928 142.494 84.282H98.9934C98.6063 84.282 98.219 84.3422 97.8625 84.4613C96.1011 85.0148 94.7656 86.8318 94.6127 89.0471C94.6026 89.0712 94.6026 89.1073 94.6026 89.1301C94.5924 89.2505 94.5924 89.3587 94.5924 89.4778Z" fill="black"/>
<path d="M92.9254 139.984C93.282 139.984 93.5795 139.656 93.5998 139.231L95.9481 89.2829C95.9695 88.8437 95.6831 88.4683 95.3103 88.4443C94.9425 88.4118 94.6196 88.7583 94.5992 89.1963L92.251 139.143C92.2297 139.583 92.5159 139.959 92.8888 139.984C92.8989 139.984 92.9132 139.984 92.9254 139.984Z" fill="black"/>
<path d="M147.483 151.774C147.49 151.774 147.496 151.774 147.502 151.774C147.875 151.762 148.169 151.398 148.16 150.955L146.79 89.2181C146.78 88.7861 146.479 88.4443 146.114 88.4443C146.109 88.4443 146.103 88.4443 146.096 88.4443C145.722 88.454 145.428 88.821 145.439 89.2614L146.808 150.999C146.817 151.433 147.118 151.774 147.483 151.774Z" fill="black"/>
<path d="M139.739 157.788C140.113 157.788 140.414 157.432 140.414 156.992V112.831C140.411 112.654 139.979 96.4103 120.217 90.6657C120.108 90.6345 119.994 90.6393 119.89 90.6657C119.698 90.7259 100.694 96.5764 99.5951 115.662C99.5696 116.102 99.8528 116.485 100.223 116.513C100.663 116.508 100.92 116.208 100.945 115.773C101.923 98.7448 118.272 92.8618 120.062 92.2674C138.662 97.7605 139.062 112.69 139.064 112.84V156.992C139.064 157.432 139.366 157.788 139.739 157.788Z" fill="#141515"/>
<path d="M67.3114 84.9786L68.1275 67.325L68.1571 66.6511C68.1785 66.23 68.4738 65.905 68.8395 65.905H79.9948C80.3616 65.905 80.6571 66.242 80.6775 66.6631L80.6988 67.349L81.3305 84.9774L81.3599 85.7355C81.3803 86.1807 81.0849 86.5537 80.7181 86.5646C80.3412 86.5525 80.0254 86.2517 80.0162 85.8065L79.9856 84.9774L79.354 67.4934H69.4723L68.6786 84.9774L68.6378 85.8185C68.6164 86.2409 68.3119 86.5646 67.9544 86.5646H67.9248C67.5478 86.5405 67.2626 86.1675 67.283 85.7223L67.3114 84.9786ZM66.5281 102.666L67.1495 88.8761L67.1892 88.047C67.2004 87.6138 67.4745 87.2889 67.8728 87.2889H67.8932C68.2701 87.313 68.5554 87.686 68.535 88.1301L68.5044 88.8761L67.8738 102.666L67.8433 103.389C67.8219 103.81 67.5264 104.147 67.1709 104.147H67.1301C66.7634 104.122 66.4781 103.75 66.4985 103.305L66.5281 102.666ZM80.7599 87.2889H80.8109C81.1685 87.2889 81.4527 87.6379 81.4639 88.0591L81.4934 88.8773L81.9325 102.667L81.9529 103.317C81.9631 103.762 81.6778 104.123 81.3009 104.147C81.2907 104.147 81.2907 104.147 81.2795 104.147C80.9137 104.147 80.6172 103.81 80.5969 103.376L80.5766 102.666L80.1385 88.8761L80.1171 88.118C80.0977 87.6728 80.3932 87.301 80.7599 87.2889ZM65.2739 129.116L65.3453 127.527L65.6306 121.138L66.2622 106.807L66.3029 105.964C66.3233 105.543 66.6085 105.206 66.9651 105.206H67.0161C67.3828 105.23 67.6691 105.603 67.6477 106.048L67.6181 106.807L66.7012 127.527L66.6299 129.116L66.579 130.294L66.5689 130.438C66.5689 130.583 66.528 130.727 66.4567 130.835C66.3345 131.052 66.1318 131.196 65.8965 131.196H65.8659C65.489 131.172 65.2047 130.799 65.2241 130.355V130.294L65.2739 129.116ZM81.3507 105.206C81.7277 105.218 82.0333 105.531 82.0537 105.964L82.0832 106.807L82.8688 127.527L82.9298 129.116L82.9808 130.294L83.0429 131.894L83.1651 135.143L83.2263 136.84C83.2365 137.273 82.9512 137.646 82.5743 137.669H82.5529C82.3288 137.669 82.1362 137.549 82.0139 137.356C81.9324 137.236 81.8815 137.079 81.8703 136.911L81.6778 131.893L81.6156 130.293L81.5749 129.115L81.5138 127.526L80.7283 106.805L80.6988 106.035C80.6876 105.603 80.9728 105.229 81.3507 105.206Z" fill="black"/>
<path d="M71.2841 86.571H76.6733C77.0471 86.571 77.3477 86.216 77.3477 85.7732V71.4382C77.3477 69.2121 75.8583 67.4023 74.0287 67.4023C72.1419 67.4023 70.6097 69.2133 70.6097 71.4382V85.7732C70.6097 86.2172 70.9112 86.571 71.2841 86.571ZM75.9989 84.9766H71.9575V71.4382C71.9575 70.0905 72.8877 68.9967 74.0287 68.9967C75.0973 68.9967 75.9979 70.117 75.9979 71.4382L75.9989 84.9766Z" fill="black"/>
<path d="M68.178 63.7286C68.3512 63.6324 68.5437 63.5842 68.7383 63.5842H80.1075C80.3825 63.5842 80.6474 63.6805 80.8817 63.849C81.3911 64.1979 81.7578 64.8477 81.7578 65.5456C81.7578 66.3278 81.2995 67.0498 80.6984 67.3506C80.514 67.4468 80.3112 67.495 80.1075 67.495H68.7383C68.5243 67.495 68.3206 67.4348 68.127 67.3253C67.5769 67.0245 67.1887 66.3398 67.1887 65.5456C67.1887 64.7274 67.6065 64.0162 68.178 63.7286ZM80.1075 65.9066C80.2185 65.9066 80.4029 65.6792 80.4029 65.5456C80.4029 65.4012 80.2185 65.1846 80.1075 65.1846H68.7383C68.6669 65.1846 68.5346 65.3639 68.5346 65.5456C68.5346 65.7261 68.6669 65.9066 68.7383 65.9066H80.1075Z" fill="black"/>
<path d="M66.9732 88.8813H81.9609C82.9165 88.8813 83.6133 88.0594 83.6133 86.9295C83.6133 85.8538 82.8707 84.9766 81.9609 84.9766H66.9732C66.0624 84.9766 65.3218 85.8538 65.3218 86.9295C65.3218 88.0607 66.0166 88.8813 66.9732 88.8813ZM81.9609 86.571C82.1739 86.571 82.2635 86.8032 82.2635 86.9295C82.2635 87.181 82.1739 87.2881 81.9609 87.2881H66.9732C66.7582 87.2881 66.6696 87.1858 66.6696 86.9295C66.6696 86.7839 66.7674 86.571 66.9732 86.571H81.9609Z" fill="black"/>
<path d="M76.6385 57.4595C76.7302 57.5196 76.8117 57.5677 76.8932 57.6279L76.9034 57.6399H76.9146C79.5725 59.481 79.7263 62.0801 79.5317 63.5843C79.5113 63.8249 79.4706 64.0295 79.4401 64.198C79.3484 64.6191 79.5725 65.0523 79.9392 65.1606C79.9902 65.1726 80.0411 65.1847 80.1023 65.1847C80.3977 65.1847 80.6728 64.944 80.7543 64.583C80.795 64.3905 80.8358 64.1498 80.8765 63.849C81.0905 62.032 80.9784 58.4101 77.2803 56.0528C77.1886 56.0047 77.1071 55.9686 77.0052 55.9686C77.0052 55.9686 77.0052 55.9686 76.995 55.9565C76.9838 55.9565 76.9839 55.9565 76.9748 55.9565H76.9646C76.7201 55.9565 76.4857 56.1129 76.3634 56.3777C76.1913 56.7615 76.3135 57.2417 76.6385 57.4595Z" fill="black"/>
<path d="M74.1183 55.3292C74.1285 55.3412 74.1479 55.3653 74.1591 55.3774C74.3017 55.5699 74.4545 55.7383 74.5971 55.8948C75.3917 56.7624 76.166 57.2557 76.5633 57.4723C76.6041 57.4964 76.6346 57.5084 76.6662 57.5325C76.7171 57.5578 76.7477 57.5806 76.7772 57.5926C76.7976 57.6059 76.8078 57.6059 76.8292 57.6167C76.8587 57.6287 76.8801 57.6408 76.9097 57.6408H76.9209C76.9718 57.6649 77.0228 57.6648 77.0727 57.6648C77.3172 57.6648 77.5617 57.4952 77.6737 57.2196C77.6951 57.1595 77.7145 57.1113 77.7257 57.05C77.7359 56.9898 77.7461 56.9296 77.7461 56.8707C77.7461 56.7973 77.7359 56.7263 77.7155 56.6541C77.7053 56.5807 77.686 56.5217 77.6452 56.4615C77.6147 56.3881 77.5739 56.3292 77.523 56.281C77.4822 56.2329 77.4313 56.1968 77.3794 56.1607C77.3692 56.1607 77.3692 56.1475 77.359 56.1475C77.3386 56.1355 77.2164 56.0644 77.0126 55.9682C77.0126 55.9682 77.0126 55.9682 77.0024 55.9562C76.6764 55.7516 76.1161 55.3665 75.5354 54.7529C75.4437 54.6434 75.3521 54.535 75.2502 54.4159C75.2095 54.3557 75.1585 54.3076 75.1178 54.2475C75.0974 54.2222 75.0872 54.2114 75.0668 54.1993C75.0362 54.1632 74.9955 54.138 74.9649 54.1031C74.9537 54.1031 74.9537 54.1031 74.9446 54.1031V54.0898C74.9242 54.0778 74.9037 54.0658 74.8834 54.0549L74.862 54.0417C74.7917 54.0176 74.7296 53.9948 74.6583 53.9948C74.5972 53.9815 74.5472 53.9948 74.4962 54.0068C74.4443 54.0188 74.3934 54.0417 74.3435 54.067C74.3221 54.079 74.2925 54.091 74.2619 54.1151C74.2314 54.1391 74.1907 54.1753 74.1601 54.2114C74.1081 54.2715 74.0674 54.3317 74.0379 54.3906C73.884 54.6794 73.9146 55.0765 74.1183 55.3292Z" fill="black"/>
<path d="M72.0661 57.6663C72.1679 57.6663 72.2688 57.641 72.3676 57.5845C72.443 57.5375 74.2594 56.4618 75.1162 55.3222C75.3668 54.9949 75.3413 54.4895 75.0632 54.1959C74.7831 53.9011 74.3552 53.9264 74.1086 54.2609C73.5392 55.0166 72.2219 55.8842 71.7635 56.1549C71.4304 56.3523 71.2918 56.83 71.4599 57.2259C71.5791 57.505 71.8185 57.6663 72.0661 57.6663Z" fill="black"/>
<path d="M71.7752 57.1455C71.9086 57.4223 72.1522 57.5679 72.3967 57.5558H72.4068C72.5097 57.5426 72.6106 57.5077 72.7022 57.4463C72.7226 57.4343 72.7328 57.4223 72.7542 57.4223C74.1601 56.4945 75.9623 57.1937 76.5633 57.4704C76.6041 57.4945 76.6346 57.5065 76.6662 57.5306C76.7365 57.5667 76.7772 57.5907 76.7772 57.5907C76.7976 57.604 76.8078 57.604 76.8292 57.6148C76.8496 57.6269 76.8801 57.6269 76.8995 57.6269L76.9097 57.6389H76.9209C76.9718 57.6629 77.0228 57.663 77.0727 57.663C77.3172 57.663 77.5617 57.4933 77.6737 57.2177C77.6951 57.1575 77.7145 57.1094 77.7257 57.0481C77.7359 56.9879 77.7461 56.9277 77.7461 56.8688C77.7461 56.7954 77.7359 56.7244 77.7155 56.6522C77.7053 56.5788 77.686 56.5198 77.6452 56.4597C77.6147 56.3863 77.5739 56.3273 77.523 56.2791C77.4822 56.231 77.4313 56.1949 77.3794 56.1588C77.3692 56.1588 77.3692 56.1456 77.359 56.1456C77.3386 56.1335 77.2164 56.0626 77.0126 55.9663C77.0024 55.9663 76.9912 55.9663 76.982 55.9543H76.9718C76.5643 55.7738 75.8614 55.509 75.0464 55.4128C75.0158 55.4007 74.9945 55.4007 74.9649 55.4007C74.7204 55.3755 74.4556 55.3647 74.2009 55.3755H74.1896C74.1794 55.3634 74.1693 55.3634 74.1601 55.3755C73.4572 55.4007 72.7134 55.592 72.0298 56.0613C71.9789 56.0974 71.928 56.1444 71.8781 56.1925C71.8781 56.2057 71.8679 56.2058 71.8679 56.2058C71.6744 56.4476 71.6234 56.8339 71.7752 57.1455Z" fill="black"/>
<path d="M69.5252 63.5841H79.5394C79.7329 62.08 79.5802 59.4809 76.9223 57.6398H76.9111C76.8815 57.6398 76.8602 57.6278 76.8306 57.6158C76.8092 57.6037 76.8 57.6037 76.7786 57.5917C76.7491 57.5796 76.7175 57.5568 76.6676 57.5315C76.637 57.5075 76.6055 57.4954 76.5647 57.4713C75.9637 57.1946 74.1615 56.4955 72.7556 57.4232C72.7037 57.4954 72.6333 57.5435 72.562 57.5917C72.5304 57.6037 69.1289 59.6132 69.5252 63.5841Z" fill="#63AEA7"/>
<path d="M68.1795 63.7285C68.1998 63.9571 68.2304 64.1978 68.2711 64.4385C68.3424 64.8115 68.6175 65.0642 68.9333 65.0642C68.9842 65.0642 69.025 65.0642 69.0759 65.0522C69.4427 64.9679 69.677 64.5468 69.5955 64.1136C69.565 63.9343 69.5445 63.7526 69.5241 63.5853C69.1268 59.6144 72.5294 57.6049 72.56 57.5929C72.6313 57.5447 72.7027 57.4966 72.7536 57.4244C72.7933 57.3883 72.8239 57.3281 72.8452 57.28C72.9563 57.0502 72.9777 56.7746 72.8748 56.5219C72.7129 56.1248 72.3043 55.9684 71.9681 56.1477C71.9376 56.161 71.9071 56.1838 71.8765 56.1958C71.8765 56.2091 71.8663 56.2091 71.8663 56.2091C71.7441 56.2813 71.6218 56.3655 71.4894 56.4618V56.4738C69.9409 57.5796 67.8331 60.1054 68.1795 63.7285Z" fill="black"/>
<path d="M74.7122 53.9675C75.0005 53.9675 75.4844 53.7545 75.4844 52.9435C75.4844 52.5031 75.0861 52.0254 74.7122 52.0254C74.1479 52.0254 73.8422 52.4971 73.8422 52.9435C73.8412 53.6535 74.2793 53.9675 74.7122 53.9675ZM74.7122 52.3731C74.919 52.3731 75.1859 52.6487 75.19 52.9604C75.19 53.3863 74.8793 53.6198 74.7122 53.6198V52.8244L74.1356 52.9447C74.1427 52.7245 74.3648 52.3731 74.7122 52.3731Z" fill="black"/>
<path d="M74.6124 54.658C75.2399 54.658 75.5781 54.1309 75.5781 53.6328C75.5781 53.356 75.4864 52.717 74.6124 52.717C73.7495 52.717 73.7414 53.5943 73.7414 53.6328C73.7414 54.1887 74.1397 54.658 74.6124 54.658ZM74.6124 53.0624C74.8874 53.0624 75.0901 53.3067 75.0901 53.634C75.0901 54.0419 74.7967 54.3054 74.5828 54.315L74.7693 53.5185L74.2303 53.634C74.2303 53.2633 74.484 53.0624 74.6124 53.0624Z" fill="black"/>
<path d="M74.6124 55.4679C75.2399 55.4679 75.5781 54.9396 75.5781 54.4414C75.5781 53.9433 75.2399 53.4138 74.6124 53.4138C73.9828 53.4138 73.6446 53.9421 73.6446 54.4414C73.6446 54.9396 73.9828 55.4679 74.6124 55.4679ZM74.6124 53.8747C74.7428 53.8747 74.9924 54.0732 74.9924 54.4414C74.9924 55.1309 74.2303 55.1189 74.2303 54.4414C74.2303 54.0732 74.484 53.8747 74.6124 53.8747Z" fill="black"/>
<path d="M74.6147 53.5052C74.9885 53.5052 75.2891 53.1478 75.2891 52.7062V52.0131C75.2891 51.5715 74.9885 51.2153 74.6147 51.2153C74.2418 51.2153 73.9403 51.5715 73.9403 52.0131V52.7062C73.9403 53.1478 74.2418 53.5052 74.6147 53.5052Z" fill="black"/>
<path d="M66.1012 102.666H82.8392C83.807 102.666 84.6016 103.594 84.6016 104.737C84.6016 105.867 83.807 106.807 82.8392 106.807H66.1012C65.1334 106.807 64.349 105.868 64.349 104.737C64.349 103.594 65.1334 102.666 66.1012 102.666ZM66.1012 105.206H82.8392C83.0633 105.206 83.2467 104.99 83.2467 104.737C83.2467 104.484 83.0623 104.256 82.8392 104.256H66.1012C65.8872 104.256 65.6936 104.484 65.6936 104.737C65.6936 104.99 65.877 105.206 66.1012 105.206Z" fill="black"/>
<path d="M65.1097 127.528H83.823C84.8723 127.528 85.668 128.466 85.668 129.707C85.668 130.958 84.8733 131.896 83.823 131.896H65.1097C65.0883 131.896 65.0689 131.896 65.0475 131.884C64.0288 131.86 63.2647 130.933 63.2647 129.706C63.2657 128.466 64.0604 127.528 65.1097 127.528ZM65.1097 130.294H83.823C84.1296 130.294 84.3222 130.077 84.3222 129.706C84.3222 129.331 84.1286 129.116 83.823 129.116H65.1097C64.7929 129.116 64.6105 129.333 64.6105 129.706C64.6105 130.079 64.7939 130.294 65.1097 130.294Z" fill="black"/>
<path d="M66.6992 127.528H81.5117L80.7263 106.807H67.6161L66.6992 127.528Z" fill="#63AEA7"/>
<path d="M87.8384 145.994C90.9639 145.994 93.6055 142.929 93.6055 139.301C93.6055 138.862 93.3039 138.506 92.9311 138.506C92.5582 138.506 92.2567 138.862 92.2567 139.301C92.2567 142.065 90.2334 144.4 87.8384 144.4C85.6032 144.4 83.7858 142.219 83.5148 139.217L83.2204 135.413C83.1858 134.971 82.868 134.637 82.488 134.69C82.1151 134.728 81.84 135.116 81.8756 135.555L82.1701 139.372C82.5155 143.215 84.8983 145.994 87.8384 145.994Z" fill="black"/>
<path d="M152.962 161.484C156.197 161.484 158.828 158.382 158.828 154.566C158.828 154.126 158.526 153.769 158.152 153.769C157.779 153.769 157.476 154.126 157.476 154.566C157.476 157.451 155.409 159.892 152.962 159.892C150.619 159.892 148.718 157.615 148.442 154.485L148.151 150.564C148.117 150.122 147.781 149.804 147.417 149.838C147.045 149.875 146.77 150.262 146.803 150.701L147.094 154.636C147.447 158.611 149.914 161.484 152.962 161.484Z" fill="black"/>
<path d="M56.7866 143.686C61.9251 143.686 66.0459 138.84 66.3709 132.413L66.9597 121.316C66.9821 120.878 66.6999 120.497 66.3271 120.469C65.9777 120.45 65.6364 120.776 65.6109 121.218L65.0231 132.318C64.7419 137.889 61.1998 142.091 56.7866 142.091C52.189 142.091 48.4502 137.728 48.4502 132.366V120.575C48.4502 120.134 48.1487 119.777 47.7758 119.777C47.403 119.777 47.1014 120.134 47.1014 120.575V132.366C47.1014 138.609 51.4463 143.686 56.7866 143.686Z" fill="black"/>
<path d="M184.903 165.304C190.242 165.304 194.586 160.175 194.586 153.869V95.6017C194.586 95.1601 194.283 94.804 193.91 94.804C193.537 94.804 193.235 95.1601 193.235 95.6017V153.869C193.235 159.295 189.497 163.712 184.903 163.712C180.452 163.712 176.756 159.288 176.664 153.854L176.469 144.024C176.459 143.585 176.228 143.22 175.777 143.245C175.405 143.255 175.11 143.62 175.118 144.064L175.312 153.89C175.419 160.182 179.721 165.304 184.903 165.304Z" fill="black"/>
<path d="M212.028 109.464C212.4 109.464 212.703 109.108 212.703 108.667V90.862C212.703 84.5567 208.401 79.427 203.114 79.427C197.788 79.427 193.533 84.4436 193.429 90.844L193.232 100.667C193.224 101.106 193.518 101.474 193.891 101.481C193.896 101.481 193.902 101.481 193.907 101.481C194.273 101.481 194.574 101.137 194.583 100.705L194.78 90.8813C194.871 85.3485 198.53 81.0202 203.114 81.0202C207.655 81.0202 211.351 85.4351 211.351 90.862V108.667C211.351 109.108 211.654 109.464 212.028 109.464Z" fill="black"/>
<path d="M47.8715 131.313C48.2454 131.313 48.5469 130.957 48.5469 130.517V116.64C48.5469 110.444 44.1113 105.209 38.8617 105.209C33.6274 105.209 29.2825 110.329 29.1766 116.623C29.1674 117.064 29.4638 117.428 29.8377 117.437C29.8418 117.437 29.8479 117.437 29.852 117.437C30.2187 117.437 30.5202 117.093 30.5274 116.656C30.6201 111.225 34.3599 106.801 38.8627 106.801C43.3819 106.801 47.1981 111.308 47.1981 116.64V130.517C47.1971 130.957 47.4986 131.313 47.8715 131.313Z" fill="black"/>
<path d="M0.674685 127.843H20.8508C26.1941 127.843 30.5391 122.714 30.5391 116.409C30.5391 115.97 30.2376 115.614 29.8637 115.614C29.4908 115.614 29.1893 115.97 29.1893 116.409C29.1893 121.836 25.4494 126.251 20.8518 126.251H0.675678C0.302818 126.251 0.00128365 126.607 0.00128365 127.046C0.000265121 127.487 0.301825 127.843 0.674685 127.843Z" fill="black"/>
<path d="M249.557 118.496H1597.24C1598.76 118.496 1600 118.14 1600 117.701C1600 117.26 1598.76 116.904 1597.24 116.904H249.557C230.752 116.904 211.995 112.283 211.995 106.858C213.521 106.858 211.995 106.416 211.995 106.858C210.464 106.858 211.995 105.086 211.495 108.038C209.496 111.58 227.705 118.496 249.557 118.496Z" fill="black"/>
</svg>
