<svg width="1600" height="100" viewBox="0 0 1600 100" fill="none" xmlns="http://www.w3.org/2000/svg">
<path d="M72.6332 51.0212L73.1241 40.3433L73.1425 39.916C73.1548 39.6624 73.3326 39.4668 73.5468 39.4668H80.2163C80.4311 39.4668 80.6151 39.6696 80.6213 39.9232L80.6335 40.3506L81.0201 51.0212L81.0323 51.4051C81.0446 51.6731 80.8728 51.8977 80.6458 51.9049C80.3943 51.9122 80.2347 51.7166 80.2225 51.4486L80.2041 51.0212L79.8237 40.423H73.9339L73.4424 51.0212L73.4247 51.4558C73.4118 51.7101 73.2339 51.9049 73.0197 51.9049H72.9953C72.7744 51.8905 72.6019 51.6659 72.6148 51.4051L72.6332 51.0212ZM80.6703 52.412H80.6949C80.9096 52.412 81.0814 52.6083 81.0937 52.8684L81.1121 53.3682L81.4372 61.5968L81.4495 61.9808C81.4556 62.2488 81.2838 62.4734 81.0568 62.4879H81.0385C80.8238 62.4879 80.6458 62.285 80.6335 62.0315L80.6151 61.5961L80.2961 53.3675L80.2777 52.9112C80.2716 52.6438 80.4427 52.4186 80.6703 52.412ZM72.1056 61.5968L72.529 53.3682L72.5535 52.8612C72.5657 52.5931 72.762 52.4193 72.9823 52.412C73.2093 52.4272 73.3812 52.6511 73.3627 52.9191L73.3382 53.3682L72.921 61.5968L72.8965 62.1039C72.8842 62.3647 72.7001 62.5531 72.4854 62.5531H72.4608C72.24 62.5386 72.0682 62.314 72.0804 62.046L72.1056 61.5968ZM81.0875 63.1261H81.0998C81.3514 63.1261 81.4986 63.3361 81.5048 63.5897L81.5231 64.0895L81.9158 76.6291L81.9465 77.5925L81.971 78.3025L82.0017 79.258L82.2287 86.4876L82.333 89.8271V89.8416C82.333 90.1024 82.1612 90.3197 81.9403 90.327H81.9219C81.7256 90.327 81.5538 90.1531 81.5231 89.9213C81.517 89.8996 81.517 89.8851 81.517 89.8633L81.1857 79.2572L81.155 78.3017L81.1305 77.5918L81.0998 76.6283L80.7072 64.0888L80.6949 63.6252C80.6826 63.3651 80.8605 63.1398 81.0875 63.1261ZM71.3933 79.258L71.4363 78.3025L71.4608 77.5925L71.5038 76.6291L72.0062 64.0895L72.0246 63.6549C72.0308 63.3941 72.2087 63.1768 72.4473 63.1978C72.6682 63.213 72.8461 63.4368 72.8345 63.6976L72.816 64.0888L72.313 76.6283L72.2761 77.5918L72.2516 78.3017L72.2087 79.2572L71.6571 93.05V93.079C71.6387 93.3398 71.4663 93.5281 71.2455 93.5281H71.2276C71.0123 93.5209 70.8411 93.3108 70.8411 93.058V93.029L71.3933 79.258Z" fill="black"/>
<path d="M75.0266 51.98H78.2696C78.4936 51.98 78.6758 51.7656 78.6758 51.5005V42.7959C78.6758 41.4949 77.7524 40.438 76.618 40.438C75.5162 40.438 74.6191 41.4949 74.6191 42.7959V51.5005C74.6191 51.7656 74.8014 51.98 75.0266 51.98ZM77.8616 51.0216H75.4333V42.7967C75.4333 42.0136 75.9542 41.3978 76.618 41.3978C77.2929 41.3978 77.8616 42.0397 77.8616 42.7967V51.0216Z" fill="black"/>
<path d="M73.1555 38.2138C73.2598 38.1631 73.3764 38.1406 73.493 38.1406H80.2786C80.4688 38.1406 80.6405 38.1913 80.7878 38.2927C81.0884 38.4883 81.2725 38.8578 81.2725 39.3142C81.2725 39.8068 81.0148 40.198 80.6344 40.3501C80.5239 40.4008 80.4074 40.4232 80.2786 40.4232H73.493C73.3642 40.4232 73.2415 40.3943 73.1249 40.3436C72.7629 40.1777 72.493 39.7713 72.493 39.3149C72.493 38.8071 72.769 38.3732 73.1555 38.2138ZM80.2779 39.467C80.3147 39.467 80.4558 39.4525 80.4558 39.3149C80.4558 39.17 80.4006 39.0976 80.2779 39.0976H73.4924C73.4255 39.0976 73.3083 39.1628 73.3083 39.3149C73.3083 39.3728 73.4004 39.467 73.4924 39.467H80.2779Z" fill="black"/>
<path d="M72.3681 51.021H81.4543C82.0004 51.021 82.4482 51.5491 82.4482 52.1945C82.4482 52.8103 81.9758 53.3681 81.4543 53.3681H72.3681C71.8466 53.3681 71.3742 52.8103 71.3742 52.1945C71.3742 51.5491 71.8227 51.021 72.3681 51.021ZM72.3681 52.4119H81.4543C81.5218 52.4119 81.6323 52.2735 81.6323 52.1945C81.6323 52.0497 81.528 51.9772 81.4543 51.9772H72.3681C72.2945 51.9772 72.1841 52.0497 72.1841 52.1945C72.1847 52.2735 72.3012 52.4119 72.3681 52.4119Z" fill="black"/>
<path d="M78.1913 34.3959C78.2097 34.4249 78.2342 34.4401 78.2588 34.4539C78.3201 34.4901 78.3747 34.5263 78.4299 34.5698C80.0993 35.7216 80.0803 37.4457 79.9889 38.1411C79.9705 38.286 79.9521 38.3874 79.9398 38.4309C79.8778 38.6844 80.0067 38.9452 80.2282 39.0176C80.2588 39.0256 80.2957 39.0321 80.3325 39.0321C80.5104 39.0321 80.6761 38.8945 80.7251 38.6772C80.7374 38.6192 80.7681 38.4888 80.7865 38.2932C80.9092 37.3877 80.9337 35.1645 78.8232 33.7367C78.7613 33.6867 78.7005 33.6497 78.6324 33.6063C78.5711 33.5701 78.5103 33.5483 78.4422 33.5483C78.4361 33.5483 78.436 33.5483 78.436 33.5483C78.2949 33.5483 78.16 33.6425 78.0864 33.8019C77.9943 34.0112 78.0434 34.2655 78.1913 34.3959Z" fill="black"/>
<path d="M78.5041 34.5083C78.6704 34.5083 78.8262 34.3866 78.8863 34.1925C78.9618 33.9418 78.852 33.668 78.6415 33.5767C78.6348 33.5745 77.8986 33.2529 77.3298 32.5205C77.1771 32.3249 76.92 32.3141 76.7544 32.4915C76.5887 32.6712 76.5777 32.974 76.7292 33.171C77.4384 34.0838 78.3286 34.4663 78.3667 34.4808C78.4127 34.5003 78.4587 34.5083 78.5041 34.5083Z" fill="black"/>
<path d="M75.4374 34.5776C75.4956 34.5776 75.5546 34.5631 75.6116 34.5334C75.7331 34.4632 76.8214 33.846 77.3331 33.1628C77.4822 32.9658 77.4669 32.6623 77.2981 32.4855C77.1325 32.3088 76.8742 32.3247 76.7239 32.5268C76.384 32.9796 75.5546 33.5011 75.2632 33.6634C75.0601 33.7757 74.9729 34.0633 75.0693 34.3031C75.1392 34.4769 75.2852 34.5776 75.4374 34.5776Z" fill="black"/>
<path d="M75.3214 34.2657C75.3882 34.4178 75.5116 34.5047 75.6465 34.512H75.6527C75.6834 34.512 75.7079 34.512 75.7324 34.5048C75.7815 34.4975 75.8306 34.4758 75.8729 34.4468C76.9159 33.7441 78.3147 34.5192 78.327 34.5337C78.3644 34.5482 78.3945 34.5627 78.4313 34.5699C78.4558 34.5772 78.4803 34.5772 78.5049 34.5772C78.6583 34.5772 78.7994 34.483 78.8737 34.3019C78.9105 34.215 78.9227 34.128 78.9104 34.0411C78.9166 34.0339 78.9104 34.0339 78.9104 34.0266C78.892 33.8745 78.8123 33.7441 78.6834 33.6644C78.6712 33.6572 78.5853 33.6137 78.4442 33.5485C78.438 33.5485 78.4381 33.5485 78.4381 33.5485C78.1865 33.4326 77.7755 33.2805 77.2908 33.2225C77.2663 33.2153 77.2417 33.2153 77.211 33.2153C77.0755 33.2008 76.9288 33.1936 76.7815 33.2008C76.7687 33.1928 76.7631 33.1928 76.757 33.2008C76.3643 33.2153 75.9533 33.316 75.5606 33.555C75.53 33.5768 75.5054 33.592 75.4747 33.613C75.2784 33.7441 75.2103 34.0339 75.3214 34.2657Z" fill="black"/>
<path d="M73.9643 38.1415H79.989C80.081 37.446 80.0994 35.7219 78.43 34.5701C78.3932 34.5629 78.3632 34.5484 78.3258 34.5339C78.3135 34.5194 76.9147 33.7443 75.8717 34.447C75.8294 34.4759 75.7797 34.4977 75.7312 34.5049C75.3938 34.7223 73.7489 35.9248 73.9643 38.1415Z" fill="#63AEA7"/>
<path d="M73.1538 38.2138C73.1667 38.358 73.1845 38.5029 73.2091 38.6485C73.252 38.8803 73.4177 39.0324 73.6079 39.0324C73.6324 39.0324 73.663 39.0324 73.6876 39.0252C73.9084 38.9745 74.0495 38.713 74.0066 38.4601C73.9888 38.3515 73.9759 38.2428 73.9643 38.1414C73.7489 35.9247 75.3938 34.7222 75.7312 34.5049C75.768 34.4759 75.7926 34.4614 75.7926 34.4614C75.8416 34.4324 75.8791 34.3962 75.9092 34.3535C76.0251 34.2158 76.0564 33.9985 75.9828 33.8174C75.903 33.6211 75.7312 33.5204 75.5594 33.5566C75.5165 33.5646 75.4797 33.5783 75.4367 33.6001C75.3392 33.658 75.2343 33.7232 75.1238 33.8101C74.1968 34.4759 72.9513 36.0116 73.1538 38.2138Z" fill="black"/>
<path d="M77.0288 32.2796C77.5472 32.2796 77.5527 31.7544 77.5527 31.7298C77.5527 31.7073 77.5466 31.1821 77.0288 31.1821C76.511 31.1821 76.5048 31.7073 76.5048 31.7298C76.5042 31.7537 76.511 32.2796 77.0288 32.2796ZM77.0466 31.3248C77.1699 31.3538 77.3178 31.5059 77.3178 31.7298C77.3178 31.9761 77.1386 32.1355 77.0116 32.1405C76.9184 32.1355 76.7392 31.9753 76.7392 31.7298C76.7392 31.5059 76.8877 31.3538 77.0116 31.3248V31.3197C77.0221 31.3212 77.0343 31.3212 77.0466 31.3197V31.3248Z" fill="black"/>
<path d="M77.0294 32.7673C77.2675 32.7673 77.6123 32.5486 77.6123 32.1487C77.6123 31.7503 77.2668 31.5293 77.0294 31.5293C76.6957 31.5293 76.4447 31.7952 76.4447 32.1487C76.4447 32.4551 76.6638 32.7673 77.0294 32.7673ZM77.0294 31.8082C77.1227 31.8082 77.2583 31.94 77.2583 32.1487C77.2583 32.3573 77.1227 32.4892 77.0294 32.4892C76.8079 32.4892 76.7981 32.1523 76.7981 32.1487C76.7981 32.1465 76.8079 31.8082 77.0294 31.8082Z" fill="black"/>
<path d="M77.0294 33.2534C77.2675 33.2534 77.6123 33.0339 77.6123 32.6355C77.6123 32.2371 77.2668 32.0176 77.0294 32.0176C76.7128 32.0176 76.3859 32.2479 76.3859 32.6355C76.3859 33.0231 76.7128 33.2534 77.0294 33.2534ZM77.0294 32.2943C77.0662 32.2943 77.1993 32.4182 77.1993 32.6355C77.1993 32.8535 77.0656 32.9774 77.0294 32.9774C76.8079 32.9774 76.7981 32.6391 76.7981 32.6355C76.7981 32.6333 76.8079 32.2943 77.0294 32.2943Z" fill="black"/>
<path d="M77.0301 32.0731C77.2552 32.0731 77.4375 31.8587 77.4375 31.5935V31.1046C77.4375 30.8394 77.2552 30.625 77.0301 30.625C76.8061 30.625 76.6227 30.8394 76.6227 31.1046V31.5935C76.6227 31.8587 76.8061 32.0731 77.0301 32.0731Z" fill="black"/>
<path d="M71.8961 61.5967H81.921C82.5039 61.5967 82.9824 62.1552 82.9824 62.8434C82.9824 63.5309 82.5039 64.0894 81.921 64.0894H71.8961C71.3133 64.0894 70.8409 63.5309 70.8409 62.8434C70.8409 62.1552 71.3133 61.5967 71.8961 61.5967ZM71.8961 63.1259H81.921C82.056 63.1259 82.1665 62.9955 82.1665 62.8434C82.1665 62.6913 82.056 62.5536 81.921 62.5536H71.8961C71.7673 62.5536 71.6569 62.6913 71.6569 62.8434C71.6569 62.9955 71.7673 63.1259 71.8961 63.1259Z" fill="black"/>
<path d="M72.9207 61.5968H80.6143L80.2952 53.3682H73.3373L72.9207 61.5968Z" fill="#63AEA7"/>
<path d="M71.2495 79.2622H82.5751C83.1794 79.2622 83.6904 78.6594 83.6904 77.9459C83.6904 77.2331 83.1794 76.6304 82.5751 76.6304H71.2495C70.6458 76.6304 70.1353 77.2331 70.1353 77.9459C70.1353 78.6594 70.6458 79.2622 71.2495 79.2622ZM82.5751 77.5902C82.7008 77.5902 82.8763 77.7249 82.8763 77.9459C82.8763 78.1668 82.7002 78.3038 82.5751 78.3038H71.2495C71.1274 78.3038 70.9495 78.1741 70.9495 77.9459C70.9495 77.7242 71.1243 77.5902 71.2495 77.5902H82.5751Z" fill="black"/>
<path d="M48.4897 19.8642V19.9367C48.4965 20.0236 48.4965 20.1033 48.5026 20.191C48.5449 20.9516 48.656 21.676 48.8953 22.4142C48.9137 22.4721 48.9327 22.5228 48.9505 22.5808C48.9879 22.6822 49.0302 22.7909 49.0731 22.8923C49.2572 23.3704 49.5088 23.863 49.8278 24.3701C50.3923 25.2683 51.1769 26.2246 52.2751 27.3112C52.2751 27.3112 52.2752 27.3192 52.2819 27.3192C53.6439 28.6658 55.4716 30.2088 57.9324 32.064C62.0362 35.179 64.27 38.6127 64.5701 42.2855C64.9388 46.7841 62.2326 50.2388 61.8215 50.7394C61.7847 50.7828 61.7663 50.8046 61.7663 50.8046C61.6062 50.9857 61.5945 51.2899 61.7534 51.4855C61.8332 51.5797 61.9375 51.6304 62.0479 51.6304C62.1461 51.6304 62.2503 51.5869 62.3234 51.5C62.3546 51.4638 62.5142 51.2827 62.7467 50.9712C63.667 49.7324 65.7222 46.4436 65.3787 42.2058C65.0596 38.2215 62.6976 34.5415 58.3723 31.26C50.9917 25.6892 49.4824 23.1683 49.31 20.1258C49.3039 20.0606 49.3039 20.0026 49.2977 19.9374V19.865C49.2977 19.836 49.2916 19.8143 49.2849 19.7918C49.2849 19.7628 49.2726 19.7418 49.267 19.7129C49.267 19.7129 49.267 19.7049 49.2609 19.6976C49.2541 19.6759 49.2425 19.6542 49.2296 19.6324C49.2296 19.6252 49.2234 19.6252 49.2234 19.6252C49.2173 19.61 49.2051 19.589 49.1928 19.5745C49.1499 19.5238 49.1069 19.4876 49.0456 19.4586C49.0272 19.4513 49.0088 19.4441 48.9904 19.4376C48.9658 19.4296 48.9474 19.4224 48.9228 19.4224H48.8805C48.8738 19.4224 48.8737 19.4224 48.8621 19.4224C48.8375 19.4224 48.813 19.4296 48.7946 19.4376C48.7768 19.4448 48.7578 19.4521 48.7394 19.4586C48.7333 19.4665 48.7271 19.4666 48.721 19.4666C48.7032 19.4803 48.6903 19.4948 48.6719 19.5028C48.6658 19.4948 48.6658 19.5028 48.6597 19.5028C48.6474 19.5173 48.629 19.5317 48.6167 19.5462V19.5535C48.6106 19.5535 48.6106 19.5614 48.6106 19.5614C48.6045 19.5687 48.6045 19.5687 48.5983 19.5687C48.586 19.5832 48.5737 19.6049 48.5615 19.6266C48.5492 19.6484 48.537 19.6629 48.5308 19.6846C48.5308 19.6918 48.5247 19.6918 48.5247 19.6991C48.5247 19.7063 48.518 19.7063 48.518 19.7143C48.5118 19.7353 48.5001 19.7578 48.5001 19.7867C48.4965 19.8135 48.4897 19.8353 48.4897 19.8642Z" fill="black"/>
<path d="M34.9431 50.8475C35.2253 51.2387 35.4278 51.464 35.4591 51.4995C35.5389 51.5864 35.6432 51.6299 35.7413 51.6299C35.8518 51.6299 35.9561 51.5792 36.0352 51.485C36.1886 51.2894 36.1824 50.9852 36.0229 50.8041C36.0229 50.8041 36.0046 50.7823 35.9671 50.7389C35.5561 50.239 32.8511 46.7836 33.2192 42.285C33.5198 38.6122 35.753 35.1778 39.8513 32.0636C42.2808 30.2308 44.0968 28.7095 45.4527 27.3766C46.5509 26.2972 47.3424 25.3403 47.9136 24.45V24.442C48.2572 23.9139 48.5142 23.4134 48.7112 22.9143V22.907C48.7541 22.8121 48.7909 22.7107 48.8216 22.6173C48.8462 22.5521 48.8707 22.4796 48.8952 22.4144C49.0916 21.7987 49.202 21.1974 49.2639 20.5744C49.2639 20.5672 49.2639 20.5672 49.2639 20.5672C49.2762 20.4295 49.2818 20.2846 49.2879 20.1398C49.2946 20.0891 49.2946 20.0311 49.3008 19.9804V19.9072C49.3008 19.9 49.3008 19.9 49.3008 19.8927C49.3008 19.8775 49.3008 19.8638 49.2946 19.8493C49.2946 19.8283 49.2946 19.8131 49.2879 19.7913C49.2879 19.7841 49.2879 19.7703 49.2818 19.7623C49.2818 19.7413 49.2756 19.7261 49.2695 19.7124C49.2566 19.6834 49.2449 19.6617 49.232 19.6327V19.6254H49.2259C49.2259 19.6182 49.2197 19.6182 49.2197 19.6102C49.2136 19.603 49.2069 19.5957 49.2014 19.5892V19.5812C49.1585 19.5313 49.11 19.4871 49.048 19.4581C49.0296 19.4508 49.0112 19.4436 48.9927 19.4371C48.9799 19.4291 48.9621 19.4291 48.9437 19.4291C48.9376 19.4291 48.9253 19.4219 48.913 19.4219C48.9069 19.4219 48.9069 19.4219 48.9001 19.4219H48.8824C48.8695 19.4219 48.8578 19.4291 48.8449 19.4291C48.8265 19.4291 48.8081 19.4291 48.7959 19.4371C48.7781 19.4443 48.759 19.4516 48.7406 19.4581C48.7344 19.4661 48.7284 19.4661 48.7222 19.4661C48.7044 19.4798 48.6854 19.4943 48.667 19.5023C48.6547 19.5095 48.6492 19.5168 48.6425 19.5313C48.6302 19.5313 48.6247 19.5385 48.6179 19.5457V19.553C48.6118 19.553 48.6118 19.561 48.6118 19.561L48.6056 19.5682C48.5995 19.5754 48.5927 19.5827 48.5872 19.5899C48.5872 19.5899 48.5811 19.5899 48.5811 19.5972C48.5565 19.6262 48.5381 19.6624 48.5259 19.6986C48.5259 19.7058 48.5191 19.7059 48.5191 19.7138C48.513 19.7348 48.5068 19.7638 48.5013 19.7862C48.4952 19.8015 48.4952 19.8225 48.4952 19.8442C48.4885 19.8515 48.4884 19.8587 48.4884 19.8659V19.9384C48.4823 20.0181 48.4823 20.0978 48.4762 20.1847C48.4701 20.2789 48.4639 20.3803 48.4516 20.4817C48.1694 23.3721 46.5007 25.9148 39.4145 31.2609C35.0831 34.5352 32.7277 38.2225 32.4081 42.2068C32.0725 46.3055 33.9928 49.5212 34.9431 50.8475Z" fill="black"/>
<path d="M48.8949 16.5498C49.3961 16.5498 49.7734 16.1941 49.7734 15.7203C49.7734 15.2488 49.3967 14.8945 48.8949 14.8945C48.4292 14.8945 48.0776 15.248 48.0776 15.7203C48.0776 16.1941 48.4292 16.5498 48.8949 16.5498Z" fill="black"/>
<path d="M48.8367 18.2906C49.4386 18.2906 49.8926 17.8755 49.8926 17.3228C49.8926 16.7715 49.4392 16.3564 48.8367 16.3564C48.287 16.3564 47.8404 16.7904 47.8404 17.3228C47.8404 17.8574 48.2864 18.2906 48.8367 18.2906Z" fill="black"/>
<path d="M48.8357 20.2398C49.3744 20.2398 49.9492 19.7943 49.9492 19.1322C49.9492 18.5236 49.3633 18.1006 48.8357 18.1006C48.1995 18.1006 47.6639 18.5707 47.6639 19.1322C47.6639 19.7537 48.1786 20.2398 48.8357 20.2398ZM49.1333 19.1981C49.0885 19.1981 48.9781 19.2799 48.8357 19.2799C48.6308 19.2799 48.4977 19.1713 48.4768 19.1235C48.4977 19.164 48.6382 19.0583 48.8357 19.0583C48.9879 19.0583 49.1234 19.156 49.1504 19.2053C49.1473 19.2002 49.1419 19.1981 49.1333 19.1981Z" fill="black"/>
<path d="M48.893 15.647C48.8992 15.647 48.9053 15.647 48.9108 15.647C49.1336 15.6368 49.3096 15.4137 49.3004 15.1478L49.2409 13.4064C49.2323 13.1427 49.0415 12.9377 48.8188 12.9471C48.5955 12.9565 48.4194 13.1804 48.4292 13.4469L48.4875 15.1877C48.4955 15.4434 48.6758 15.647 48.893 15.647Z" fill="black"/>
<path d="M47.0088 7.22462C47.0941 7.22462 47.1787 7.19419 47.2505 7.13334C47.391 7.00947 47.4499 6.79142 47.3953 6.59366L47.0173 5.2506L47.9622 4.41609C48.102 4.29149 48.1591 4.0756 48.1045 3.88001C48.0487 3.68297 47.8923 3.55185 47.718 3.55185H46.5351L46.1584 2.21025C46.1025 2.01176 45.9271 1.86978 45.7645 1.88209C45.5872 1.88571 45.4308 2.02553 45.3805 2.22619L45.051 3.55115H43.8228C43.6455 3.55115 43.489 3.6866 43.4344 3.88437C43.3816 4.08286 43.443 4.3009 43.5866 4.42332L44.5817 5.25712L44.2038 6.59295C44.1467 6.79144 44.2068 7.01237 44.3497 7.1348C44.4921 7.25867 44.6878 7.25868 44.8332 7.12974L45.7768 6.29665L46.7707 7.13697C46.8431 7.19564 46.9272 7.22462 47.0088 7.22462ZM46.4958 4.50954L46.2946 4.68845C46.1547 4.81233 46.0983 5.02822 46.1523 5.22453L46.2296 5.49619L46.0099 5.30929C45.8658 5.18904 45.6706 5.1912 45.5289 5.31652L45.3909 5.43895L45.451 5.22526C45.5087 5.0246 45.4467 4.80436 45.3019 4.67977L45.0995 4.50954H45.3584C45.5381 4.50954 45.6976 4.37045 45.7492 4.16544L45.7977 3.9684L45.8578 4.18282C45.9142 4.37986 46.0707 4.50954 46.245 4.50954H46.4958Z" fill="black"/>
<path d="M42.5216 9.00542C42.6688 8.86778 42.8774 8.88227 43.024 9.02715C43.7112 9.71462 44.6253 10.092 45.5947 10.092C47.9015 10.092 49.785 7.87607 49.785 5.14432C49.785 3.39849 49.0181 1.81201 47.7359 0.892008C47.5825 0.776102 47.5089 0.55155 47.5579 0.341471C47.6132 0.131392 47.7911 -0.0134914 47.969 0.000996855C51.098 0.153123 53.5459 3.17392 53.5459 6.8829C53.5459 9.75881 52.0796 12.25 49.8034 13.2505C49.6869 13.3004 49.558 13.2794 49.4592 13.2135C49.4286 13.3446 49.3488 13.4526 49.2445 13.5105C49.2261 13.525 49.2016 13.5323 49.1832 13.5395C48.9568 13.6192 48.7052 13.6771 48.4408 13.7134C48.2076 13.7496 47.9629 13.7641 47.7169 13.7641C45.429 13.7641 43.2872 12.0834 42.3853 9.57698C42.3129 9.37487 42.3682 9.13509 42.5216 9.00542ZM47.7181 12.8086C48.1721 12.8086 48.6015 12.7361 48.958 12.6123C48.9948 12.605 49.031 12.5978 49.0739 12.5978C49.1414 12.5978 49.2089 12.6195 49.2703 12.6557C49.3071 12.5181 49.393 12.4022 49.5218 12.3442C51.4728 11.4887 52.736 9.34444 52.736 6.88217C52.736 4.29602 51.3433 2.09381 49.3801 1.28247C50.1599 2.34011 50.601 3.70201 50.601 5.14359C50.601 8.40344 48.3555 11.0548 45.5947 11.0548C45.018 11.0548 44.4596 10.9389 43.9382 10.7215C44.8775 12.0117 46.264 12.8086 47.7181 12.8086Z" fill="black"/>
<path d="M43.9391 10.722C44.8778 12.0115 46.2643 12.8083 47.7184 12.8083C48.1724 12.8083 48.6018 12.7359 48.9583 12.612C48.9951 12.6048 49.0313 12.5975 49.0742 12.5975C49.1417 12.5975 49.2092 12.6193 49.2706 12.6555C49.3074 12.5178 49.3932 12.4019 49.5221 12.344C51.4731 11.4885 52.7363 9.3442 52.7363 6.88193C52.7363 4.29578 51.3437 2.09357 49.3804 1.28223C50.1602 2.33987 50.6013 3.70177 50.6013 5.14335C50.6013 8.4032 48.3558 11.0545 45.5949 11.0545C45.0189 11.0553 44.4612 10.9393 43.9391 10.722Z" fill="#63AEA7"/>
<path d="M48.4913 19.8642V19.9367C48.4913 20.0236 48.498 20.1106 48.498 20.191C48.498 20.241 48.498 20.2851 48.5042 20.3279C48.541 21.1102 48.6269 21.8491 48.8232 22.617C48.8416 22.6895 48.8606 22.7619 48.8852 22.8416C48.922 22.9792 48.9649 23.1169 49.014 23.2545C49.2778 24.0803 49.6698 24.9351 50.2533 25.8913C51.2533 27.5502 52.8055 29.4924 55.1743 32.0199C63.236 40.6628 58.561 49.5948 57.8978 50.7394C57.861 50.8118 57.8365 50.8545 57.8309 50.8625C57.6953 51.0798 57.7328 51.3768 57.9168 51.5362C57.9843 51.6014 58.0701 51.6304 58.156 51.6304C58.2787 51.6304 58.4015 51.5652 58.4812 51.442C58.4935 51.4268 58.6407 51.1812 58.8616 50.7394C60.0948 48.2619 63.4753 39.6189 55.7204 31.3034C54.2847 29.7677 53.1559 28.4637 52.2847 27.3192C52.2779 27.3192 52.2779 27.3112 52.2779 27.3112C50.0938 24.4505 49.4558 22.5591 49.3214 20.5025C49.3147 20.3793 49.3085 20.2562 49.3085 20.125C49.3085 20.0751 49.3024 20.0236 49.3024 19.9729V19.865C49.3024 19.836 49.2963 19.8143 49.2895 19.7918C49.2895 19.7628 49.2772 19.7418 49.2717 19.7129C49.2717 19.7049 49.2655 19.7049 49.2655 19.6976C49.2588 19.6759 49.2471 19.6542 49.2342 19.6324V19.6252C49.222 19.61 49.2097 19.589 49.1975 19.5745C49.1545 19.5238 49.1116 19.4876 49.0502 19.4586C49.0073 19.4376 48.9588 19.4296 48.903 19.4224H48.8852C48.8784 19.4224 48.8784 19.4224 48.8667 19.4224C48.8422 19.4224 48.8177 19.4296 48.7993 19.4376C48.7815 19.4448 48.7625 19.4521 48.7441 19.4586C48.7379 19.4665 48.7318 19.4666 48.7256 19.4666C48.7078 19.4738 48.6833 19.4876 48.6643 19.5028C48.652 19.5173 48.6337 19.5317 48.6214 19.5462V19.5535C48.6153 19.5535 48.6152 19.5614 48.6152 19.5614C48.6091 19.5687 48.6091 19.5687 48.603 19.5687C48.5907 19.5832 48.5784 19.6049 48.5661 19.6266C48.5538 19.6484 48.5416 19.6629 48.5355 19.6846C48.5355 19.6918 48.5293 19.6918 48.5293 19.6991C48.5293 19.7063 48.5226 19.7063 48.5226 19.7143C48.5165 19.7353 48.5048 19.7578 48.5048 19.7867C48.498 19.8135 48.4913 19.8353 48.4913 19.8642Z" fill="black"/>
<path d="M48.4914 19.8642V19.9801C48.4914 20.0526 48.4981 20.1243 48.4981 20.1902C48.4981 20.2402 48.4981 20.2844 48.5043 20.3271C48.5288 21.2109 48.584 22.044 48.7129 22.9068C48.7251 23.0147 48.7435 23.1161 48.7681 23.232C48.7987 23.4566 48.8417 23.6884 48.8847 23.9202C49.3019 26.0138 50.1424 28.3826 51.786 31.896C55.7371 40.3578 53.6695 49.1514 53.2462 50.7386C53.2038 50.8907 53.1726 50.9777 53.1726 50.9849C53.0996 51.2385 53.21 51.5137 53.418 51.6007C53.4609 51.6224 53.51 51.6297 53.5591 51.6297C53.7247 51.6297 53.8781 51.5138 53.9389 51.3182C53.9456 51.3029 54.0063 51.1008 54.099 50.7386C54.6634 48.4567 56.3997 39.7928 52.4977 31.4331C51.4424 29.1802 50.7307 27.4126 50.2522 25.8913C50.2522 25.8841 50.2522 25.8841 50.2522 25.8841C50.0804 25.356 49.9393 24.8554 49.8288 24.3701C49.5037 23.0082 49.3687 21.7984 49.3196 20.5017C49.3129 20.3786 49.3068 20.2554 49.3068 20.1243C49.3068 20.0808 49.3006 20.0301 49.3006 19.9801V19.907C49.3006 19.8853 49.3006 19.8708 49.2945 19.849C49.2945 19.828 49.2945 19.8128 49.2877 19.7911C49.2816 19.7331 49.2571 19.6831 49.2325 19.6317V19.6245C49.2203 19.6092 49.208 19.5955 49.2018 19.5803C49.1589 19.5303 49.1104 19.4861 49.0485 19.4571C49.03 19.4499 49.0055 19.4426 48.981 19.4361C48.9687 19.4361 48.9571 19.4281 48.9442 19.4281C48.9319 19.4281 48.9196 19.4209 48.9012 19.4209H48.8835C48.8767 19.4209 48.865 19.4209 48.846 19.4281C48.8276 19.4281 48.8092 19.4281 48.7969 19.4361C48.7791 19.4434 48.7601 19.4506 48.7417 19.4571C48.7356 19.4651 48.7294 19.4651 48.7233 19.4651C48.7055 19.4723 48.6865 19.4861 48.6681 19.5013C48.6503 19.5158 48.6313 19.5303 48.619 19.5448V19.552C48.6129 19.552 48.6129 19.56 48.6129 19.56C48.6067 19.5672 48.6067 19.5672 48.6067 19.5672C48.5939 19.5745 48.5883 19.589 48.5822 19.5962C48.5576 19.6252 48.5392 19.6614 48.527 19.6976C48.527 19.7049 48.5202 19.7049 48.5202 19.7128C48.5141 19.7339 48.5024 19.7563 48.5024 19.7853C48.4963 19.8005 48.4963 19.8215 48.4963 19.8432C48.4914 19.8498 48.4914 19.8563 48.4914 19.8642Z" fill="black"/>
<path d="M38.8761 50.7386C39.0908 51.1733 39.2381 51.4189 39.2503 51.4341C39.3301 51.5645 39.4528 51.6297 39.5755 51.6297C39.6614 51.6297 39.7412 51.6007 39.8148 51.5355C39.9989 51.3834 40.0357 51.0791 39.9007 50.869C39.8884 50.8473 39.8639 50.8038 39.8271 50.7386C39.1215 49.5209 34.4833 40.7338 42.6192 32.0191C44.9445 29.5417 46.4715 27.6227 47.4715 25.9775V25.9703C48.0789 24.9779 48.49 24.0868 48.766 23.232C48.766 23.2248 48.766 23.2248 48.766 23.2248C48.809 23.0944 48.8458 22.9712 48.8827 22.8409C48.9072 22.7539 48.9317 22.6677 48.9495 22.5808C49.1213 21.9143 49.214 21.2551 49.263 20.5742C49.263 20.5669 49.263 20.5669 49.263 20.5669C49.2753 20.4583 49.2808 20.3568 49.2869 20.2482C49.2937 20.212 49.2937 20.1757 49.2937 20.133C49.2937 20.0823 49.2998 20.0309 49.2998 19.9809V19.9077C49.2998 19.9005 49.2998 19.9005 49.2998 19.8932C49.2998 19.878 49.2998 19.8643 49.2937 19.8498C49.2937 19.8288 49.2937 19.8136 49.2869 19.7918C49.2869 19.7846 49.2869 19.7708 49.2808 19.7628C49.2808 19.7418 49.2746 19.7266 49.2685 19.7129C49.2556 19.6839 49.244 19.6621 49.2311 19.6332V19.6259H49.225C49.225 19.6187 49.2188 19.6187 49.2188 19.6107C49.2127 19.6035 49.2059 19.5962 49.2004 19.5897V19.5817C49.1575 19.5318 49.109 19.4876 49.047 19.4586C49.0286 19.4513 49.0103 19.4441 48.9918 19.4376C48.979 19.4296 48.9612 19.4296 48.9428 19.4296C48.9367 19.4296 48.9244 19.4224 48.9121 19.4224C48.906 19.4224 48.906 19.4224 48.8992 19.4224H48.8814C48.8685 19.4224 48.8569 19.4296 48.844 19.4296C48.8256 19.4296 48.8071 19.4296 48.7949 19.4376C48.7771 19.4448 48.7581 19.4521 48.7397 19.4586C48.7335 19.4665 48.7274 19.4666 48.7213 19.4666C48.7035 19.4803 48.6845 19.4948 48.6661 19.5028C48.6538 19.51 48.6482 19.5173 48.6415 19.5318C48.6292 19.5318 48.6238 19.539 48.617 19.5462V19.5535C48.6109 19.5535 48.6109 19.5614 48.6109 19.5614L48.6047 19.5687C48.5986 19.5759 48.5918 19.5832 48.5863 19.5904C48.5863 19.5904 48.5802 19.5904 48.5802 19.5977C48.5556 19.6267 48.5372 19.6629 48.525 19.6991C48.525 19.7063 48.5182 19.7063 48.5182 19.7143C48.5121 19.7353 48.5059 19.7643 48.5004 19.7867C48.4943 19.8019 48.4943 19.823 48.4943 19.8447C48.4875 19.8519 48.4875 19.8592 48.4875 19.8664V19.9389C48.4814 20.0185 48.4814 20.0982 48.4752 20.1852C48.4691 20.2793 48.463 20.3807 48.4507 20.4822C48.2912 22.5974 47.6408 24.5106 45.45 27.3793C44.5855 28.5159 43.4806 29.7988 42.0695 31.3056C34.3122 39.6189 37.6552 48.2684 38.8761 50.7386Z" fill="black"/>
<path d="M43.6926 50.7383C43.7846 51.1006 43.846 51.3027 43.8521 51.3179C43.9135 51.5135 44.0669 51.6294 44.2325 51.6294C44.2816 51.6294 44.3307 51.6221 44.373 51.6004C44.5883 51.5062 44.6926 51.231 44.6129 50.9847C44.6129 50.9774 44.5816 50.8905 44.5393 50.7383C44.1098 49.1584 41.9986 40.3576 45.9442 31.8957C47.6068 28.3533 48.4535 25.9852 48.883 23.9199C48.9382 23.6954 48.9743 23.4708 49.0118 23.2535C49.0363 23.1303 49.0541 23.0144 49.0731 22.8913V22.884C49.2081 22.0003 49.2695 21.1455 49.2879 20.2465C49.2946 20.2102 49.2946 20.174 49.2946 20.1313C49.2946 20.0806 49.3008 20.0291 49.3008 19.9791V19.906C49.3008 19.8843 49.3008 19.8698 49.2946 19.848C49.2946 19.827 49.2946 19.8118 49.2879 19.7901C49.2818 19.7321 49.2572 19.6821 49.2326 19.6307V19.6235H49.2265C49.2204 19.6083 49.2081 19.5945 49.202 19.5793C49.1591 19.5293 49.1106 19.4851 49.0486 19.4561C49.0302 19.4489 49.0118 19.4417 48.9933 19.4351C48.9805 19.4272 48.9627 19.4272 48.9443 19.4272C48.932 19.4272 48.9259 19.4199 48.9137 19.4199C48.9075 19.4199 48.9075 19.4199 48.9007 19.4199H48.883C48.8701 19.4199 48.8584 19.4272 48.8455 19.4272C48.8087 19.4351 48.7787 19.4424 48.7413 19.4561C48.7351 19.4641 48.729 19.4641 48.7228 19.4641C48.705 19.4779 48.686 19.4924 48.6676 19.5003C48.6498 19.5213 48.6308 19.5365 48.6185 19.5503L48.6124 19.5583L48.6062 19.5655C48.6001 19.5728 48.5879 19.58 48.5817 19.5945C48.5572 19.6235 48.5387 19.6597 48.5265 19.6959C48.5265 19.7032 48.5197 19.7032 48.5197 19.7111C48.5136 19.7321 48.502 19.7546 48.502 19.7836C48.4958 19.7988 48.4958 19.8198 48.4958 19.8415C48.4891 19.8488 48.4891 19.856 48.4891 19.8633V19.9791C48.483 20.0516 48.483 20.1161 48.483 20.1813C48.44 21.6091 48.305 22.9123 47.9123 24.4488C47.7958 24.9341 47.648 25.4332 47.47 25.97C46.9854 27.4616 46.2675 29.2082 45.2313 31.4321C41.336 39.7853 43.1098 48.4492 43.6926 50.7383Z" fill="black"/>
<path d="M52.2814 27.3179C53.1526 28.4624 54.2815 29.7664 55.7171 31.3021C63.472 39.6176 60.0915 48.2606 58.8583 50.7381H61.8216C62.2327 50.2382 64.9383 46.7828 64.5702 42.2842C64.2702 38.6114 62.0364 35.177 57.9325 32.0628C55.4711 30.2075 53.6434 28.6646 52.2814 27.3179Z" fill="#63AEA7"/>
<path d="M44.5397 50.7383H53.2449C53.6682 49.1519 55.7364 40.3575 51.7847 31.8957C50.1405 28.3823 49.3 26.0135 48.8834 23.9199C48.4539 25.9852 47.6073 28.3533 45.9446 31.8957C41.9991 40.3575 44.1102 49.1584 44.5397 50.7383Z" fill="#63AEA7"/>
<path d="M35.9672 50.7387H38.8752C37.6543 48.2685 34.3113 39.6183 42.0717 31.3028C43.4828 29.796 44.5877 28.5131 45.4521 27.3765C44.0963 28.7094 42.2802 30.2299 39.8507 32.0634C35.7524 35.1784 33.5198 38.6121 33.2186 42.2848C32.8511 46.7834 35.5561 50.2389 35.9672 50.7387Z" fill="#63AEA7"/>
<path d="M32.9733 53.8673C32.9733 54.128 33.1512 54.3454 33.3782 54.3454C33.5746 54.3454 33.7279 54.186 33.7715 53.9759L33.7776 53.918C33.7838 53.9028 33.7838 53.889 33.7838 53.8673C33.7838 52.6727 34.612 51.702 35.6243 51.702H61.7541C62.7664 51.702 63.5885 52.6727 63.5885 53.8673L63.5947 53.9614C63.6315 54.1795 63.7972 54.3454 63.9935 54.3454C64.2205 54.3454 64.3984 54.128 64.3984 53.8673C64.3984 53.8021 64.3984 53.7304 64.3916 53.6652C64.3916 53.6434 64.3917 53.6282 64.3856 53.6144C64.3058 52.4119 63.6493 51.405 62.7474 50.9703C62.4591 50.8255 62.1468 50.7458 61.821 50.7393H35.6237C35.3906 50.7393 35.1574 50.7755 34.9427 50.8472C33.8819 51.1804 33.0776 52.2743 32.9856 53.6079C32.9794 53.6224 32.9794 53.6442 32.9794 53.6579C32.9733 53.7304 32.9733 53.7955 32.9733 53.8673Z" fill="black"/>
<path d="M31.968 84.2729C32.1828 84.2729 32.3619 84.0751 32.3742 83.8194L33.7884 53.7498C33.8013 53.4854 33.6288 53.2594 33.4043 53.2449C33.1828 53.2254 32.9883 53.434 32.976 53.6977L31.5619 83.7665C31.549 84.0317 31.7214 84.2577 31.946 84.2729C31.9521 84.2729 31.9607 84.2729 31.968 84.2729Z" fill="black"/>
<path d="M64.82 91.3709C64.8237 91.3709 64.8274 91.3709 64.8311 91.3709C65.0556 91.3636 65.2329 91.1441 65.2274 90.8775L64.4022 53.7109C64.3961 53.4509 64.2151 53.2451 63.9954 53.2451C63.9924 53.2451 63.9887 53.2451 63.9844 53.2451C63.7593 53.2509 63.5819 53.4718 63.5887 53.737L64.4133 90.9044C64.4188 91.1651 64.5997 91.3709 64.82 91.3709Z" fill="black"/>
<path d="M60.1606 94.9915C60.3858 94.9915 60.5674 94.7771 60.5674 94.5119V67.9261C60.5655 67.8196 60.3055 58.0407 48.4038 54.5824C48.3381 54.5636 48.27 54.5665 48.2074 54.5824C48.0915 54.6186 36.6469 58.1407 35.9849 69.6306C35.9695 69.8957 36.1401 70.1261 36.3628 70.1427C36.6278 70.1399 36.7825 69.9595 36.7978 69.6972C37.3868 59.4461 47.2325 55.9045 48.3105 55.5466C59.5121 58.8535 59.7533 67.8413 59.7545 67.9318V94.5119C59.7545 94.7771 59.9361 94.9915 60.1606 94.9915Z" fill="#141515"/>
<path d="M16.5384 51.1589L17.0299 40.5311L17.0477 40.1254C17.0606 39.8719 17.2385 39.6763 17.4587 39.6763H24.1768C24.3977 39.6763 24.5756 39.8791 24.5879 40.1327L24.6008 40.5456L24.9812 51.1582L24.9989 51.6146C25.0112 51.8826 24.8332 52.1072 24.6124 52.1137C24.3854 52.1064 24.1952 51.9253 24.1897 51.6573L24.1713 51.1582L23.7909 40.6325H17.8398L17.3618 51.1582L17.3372 51.6646C17.3244 51.9188 17.141 52.1137 16.9256 52.1137H16.9078C16.6808 52.0992 16.509 51.8746 16.5213 51.6066L16.5384 51.1589ZM16.0667 61.807L16.4409 53.5053L16.4648 53.0062C16.4716 52.7454 16.6366 52.5498 16.8765 52.5498H16.8888C17.1158 52.5643 17.2876 52.7888 17.2753 53.0561L17.2569 53.5053L16.8771 61.807L16.8588 62.2424C16.8459 62.4959 16.6679 62.6988 16.4538 62.6988H16.4292C16.2084 62.6836 16.0366 62.4597 16.0489 62.1917L16.0667 61.807ZM24.6375 52.5498H24.6682C24.8836 52.5498 25.0548 52.7599 25.0615 53.0134L25.0793 53.506L25.3437 61.8078L25.356 62.1989C25.3621 62.467 25.1903 62.6843 24.9633 62.6988C24.9572 62.6988 24.9572 62.6988 24.9504 62.6988C24.7302 62.6988 24.5516 62.4959 24.5394 62.2344L24.5272 61.807L24.2633 53.5053L24.2504 53.0489C24.2388 52.7809 24.4167 52.557 24.6375 52.5498ZM15.3114 77.7303L15.3544 76.7741L15.5262 72.9274L15.9066 64.2997L15.9311 63.7926C15.9433 63.5391 16.1151 63.3363 16.3299 63.3363H16.3606C16.5814 63.3507 16.7538 63.5753 16.7409 63.8434L16.7231 64.2997L16.1709 76.7741L16.128 77.7303L16.0973 78.4395L16.0913 78.5264C16.0913 78.6133 16.0666 78.7003 16.0237 78.7655C15.9501 78.8959 15.828 78.9828 15.6863 78.9828H15.6679C15.4409 78.9683 15.2697 78.7437 15.2814 78.4764V78.4395L15.3114 77.7303ZM24.9934 63.3363C25.2204 63.3435 25.4045 63.5319 25.4167 63.7926L25.4345 64.2997L25.9076 76.7741L25.9443 77.7303L25.975 78.4395L26.0124 79.403L26.086 81.3589L26.1229 82.3803C26.129 82.6411 25.9572 82.8656 25.7302 82.8794H25.7173C25.5824 82.8794 25.4664 82.807 25.3928 82.6911C25.3437 82.6186 25.313 82.5244 25.3063 82.423L25.1903 79.4022L25.1529 78.4388L25.1284 77.7296L25.0915 76.7734L24.6185 64.299L24.6008 63.8354C24.594 63.5753 24.7657 63.35 24.9934 63.3363Z" fill="black"/>
<path d="M18.9303 52.1175H22.1759C22.4011 52.1175 22.582 51.9038 22.582 51.6372V43.0073C22.582 41.6672 21.6851 40.5776 20.5832 40.5776C19.447 40.5776 18.5242 41.6679 18.5242 43.0073V51.6372C18.5242 51.9045 18.7058 52.1175 18.9303 52.1175ZM21.7697 51.1576H19.3359V43.0073C19.3359 42.196 19.8961 41.5375 20.5832 41.5375C21.2268 41.5375 21.7691 42.2119 21.7691 43.0073L21.7697 51.1576Z" fill="black"/>
<path d="M17.0601 38.3657C17.1644 38.3078 17.2803 38.2788 17.3975 38.2788H24.2444C24.41 38.2788 24.5696 38.3368 24.7107 38.4382C25.0174 38.6483 25.2383 39.0394 25.2383 39.4596C25.2383 39.9305 24.9622 40.3651 24.6003 40.5462C24.4892 40.6042 24.3671 40.6331 24.2444 40.6331H17.3975C17.2686 40.6331 17.146 40.5969 17.0294 40.531C16.6981 40.3499 16.4643 39.9377 16.4643 39.4596C16.4643 38.967 16.7159 38.5389 17.0601 38.3657ZM24.2444 39.6769C24.3113 39.6769 24.4223 39.54 24.4223 39.4596C24.4223 39.3727 24.3113 39.2423 24.2444 39.2423H17.3975C17.3545 39.2423 17.2748 39.3502 17.2748 39.4596C17.2748 39.5683 17.3545 39.6769 17.3975 39.6769H24.2444Z" fill="black"/>
<path d="M16.3362 53.508H25.3623C25.9378 53.508 26.3574 53.0132 26.3574 52.333C26.3574 51.6853 25.9102 51.1572 25.3623 51.1572H16.3362C15.7877 51.1572 15.3417 51.6853 15.3417 52.333C15.3417 53.0139 15.7601 53.508 16.3362 53.508ZM25.3623 52.1171C25.4905 52.1171 25.5445 52.2569 25.5445 52.333C25.5445 52.4844 25.4905 52.5488 25.3623 52.5488H16.3362C16.2067 52.5488 16.1534 52.4873 16.1534 52.333C16.1534 52.2453 16.2123 52.1171 16.3362 52.1171H25.3623Z" fill="black"/>
<path d="M22.1596 34.5913C22.2148 34.6275 22.2639 34.6565 22.313 34.6927L22.3192 34.7H22.3259C23.9266 35.8083 24.0192 37.373 23.902 38.2786C23.8897 38.4234 23.8652 38.5466 23.8468 38.648C23.7916 38.9016 23.9266 39.1623 24.1474 39.2275C24.1781 39.2348 24.2088 39.242 24.2456 39.242C24.4235 39.242 24.5892 39.0971 24.6383 38.8798C24.6628 38.7639 24.6874 38.619 24.7119 38.4379C24.8407 37.3441 24.7732 35.1636 22.5462 33.7445C22.4909 33.7155 22.4418 33.6938 22.3805 33.6938C22.3805 33.6938 22.3805 33.6938 22.3743 33.6865C22.3676 33.6865 22.3677 33.6865 22.3621 33.6865H22.356C22.2088 33.6865 22.0676 33.7807 21.994 33.94C21.8903 34.1711 21.9639 34.4602 22.1596 34.5913Z" fill="black"/>
<path d="M20.6365 33.3091C20.6427 33.3164 20.6543 33.3309 20.6611 33.3381C20.747 33.454 20.839 33.5554 20.9249 33.6496C21.4034 34.1719 21.8697 34.4689 22.109 34.5993C22.1335 34.6138 22.1519 34.621 22.1709 34.6355C22.2016 34.6507 22.22 34.6645 22.2378 34.6717C22.2501 34.6797 22.2562 34.6797 22.2691 34.6862C22.2869 34.6935 22.2998 34.7007 22.3176 34.7007H22.3243C22.355 34.7152 22.3857 34.7152 22.4157 34.7152C22.563 34.7152 22.7102 34.6131 22.7777 34.4472C22.7906 34.411 22.8023 34.382 22.809 34.345C22.8151 34.3088 22.8213 34.2726 22.8213 34.2371C22.8213 34.1929 22.8151 34.1502 22.8029 34.1067C22.7967 34.0625 22.7851 34.027 22.7606 33.9908C22.7421 33.9466 22.7176 33.9111 22.6869 33.8821C22.6624 33.8532 22.6317 33.8314 22.6004 33.8097C22.5943 33.8097 22.5943 33.8017 22.5881 33.8017C22.5759 33.7945 22.5023 33.7517 22.3796 33.6938C22.3796 33.6938 22.3796 33.6938 22.3734 33.6866C22.1771 33.5634 21.8396 33.3316 21.4899 32.9621C21.4347 32.8962 21.3795 32.831 21.3182 32.7593C21.2937 32.7231 21.263 32.6941 21.2384 32.6579C21.2262 32.6427 21.22 32.6361 21.2077 32.6289C21.1893 32.6072 21.1648 32.592 21.1464 32.571C21.1396 32.571 21.1396 32.571 21.1341 32.571V32.563C21.1218 32.5557 21.1095 32.5485 21.0973 32.542L21.0844 32.534C21.042 32.5195 21.0047 32.5058 20.9617 32.5058C20.9249 32.4978 20.8948 32.5057 20.8641 32.513C20.8328 32.5202 20.8022 32.534 20.7722 32.5492C20.7593 32.5565 20.7414 32.5637 20.723 32.5782C20.7046 32.5927 20.6801 32.6144 20.6617 32.6362C20.6304 32.6724 20.6059 32.7086 20.5881 32.7441C20.4954 32.9179 20.5138 33.157 20.6365 33.3091Z" fill="black"/>
<path d="M19.4037 34.7164C19.4651 34.7164 19.5258 34.7012 19.5853 34.6671C19.6307 34.6389 20.7246 33.9912 21.2406 33.3052C21.3915 33.1082 21.3762 32.8039 21.2087 32.6272C21.04 32.4497 20.7823 32.4649 20.6338 32.6663C20.2909 33.1212 19.4976 33.6435 19.2215 33.8065C19.0209 33.9253 18.9375 34.2129 19.0387 34.4512C19.1105 34.6193 19.2546 34.7164 19.4037 34.7164Z" fill="black"/>
<path d="M19.2254 34.4026C19.3058 34.5692 19.4525 34.6568 19.5997 34.6496H19.6058C19.6677 34.6416 19.7285 34.6206 19.7837 34.5837C19.796 34.5764 19.8021 34.5692 19.815 34.5692C20.6617 34.0107 21.747 34.4316 22.109 34.5982C22.1335 34.6127 22.1519 34.6199 22.1709 34.6344C22.2133 34.6561 22.2378 34.6706 22.2378 34.6706C22.2501 34.6786 22.2562 34.6786 22.2691 34.6851C22.2814 34.6923 22.2998 34.6924 22.3114 34.6924L22.3176 34.6996H22.3243C22.355 34.7141 22.3857 34.7141 22.4157 34.7141C22.563 34.7141 22.7102 34.6119 22.7777 34.446C22.7906 34.4098 22.8023 34.3808 22.809 34.3439C22.8151 34.3077 22.8213 34.2715 22.8213 34.236C22.8213 34.1918 22.8151 34.149 22.8029 34.1056C22.7967 34.0614 22.7851 34.0259 22.7606 33.9897C22.7421 33.9455 22.7176 33.91 22.6869 33.881C22.6624 33.852 22.6317 33.8303 22.6004 33.8086C22.5943 33.8086 22.5943 33.8006 22.5881 33.8006C22.5759 33.7933 22.5023 33.7506 22.3796 33.6927C22.3734 33.6927 22.3667 33.6927 22.3611 33.6854H22.355C22.1096 33.5767 21.6863 33.4174 21.1954 33.3594C21.177 33.3522 21.1642 33.3522 21.1464 33.3522C20.9991 33.337 20.8396 33.3305 20.6863 33.337H20.6794C20.6733 33.3297 20.6672 33.3297 20.6617 33.337C20.2384 33.3522 19.7904 33.4674 19.3788 33.7499C19.3481 33.7716 19.3175 33.7999 19.2874 33.8288C19.2874 33.8368 19.2813 33.8368 19.2813 33.8368C19.1647 33.9824 19.134 34.2149 19.2254 34.4026Z" fill="black"/>
<path d="M17.8696 38.2788H23.9005C24.017 37.3732 23.925 35.8085 22.3243 34.7002H22.3176C22.2998 34.7002 22.2869 34.6929 22.2691 34.6857C22.2563 34.6784 22.2507 34.6784 22.2378 34.6712C22.22 34.6639 22.201 34.6502 22.171 34.635C22.1526 34.6205 22.1336 34.6132 22.109 34.5987C21.747 34.4321 20.6617 34.0113 19.8151 34.5698C19.7838 34.6132 19.7414 34.6422 19.6985 34.6712C19.6794 34.6784 17.6309 35.8882 17.8696 38.2788Z" fill="#63AEA7"/>
<path d="M17.0609 38.3655C17.0732 38.5031 17.0916 38.648 17.1161 38.7929C17.159 39.0175 17.3247 39.1696 17.5149 39.1696C17.5456 39.1696 17.5701 39.1696 17.6008 39.1624C17.8217 39.1116 17.9628 38.8581 17.9137 38.5973C17.8953 38.4894 17.883 38.38 17.8707 38.2793C17.6314 35.8887 19.6806 34.679 19.699 34.6717C19.7419 34.6427 19.7849 34.6138 19.8156 34.5703C19.8395 34.5486 19.8579 34.5123 19.8708 34.4834C19.9377 34.345 19.9506 34.1791 19.8886 34.027C19.7911 33.7879 19.545 33.6938 19.3426 33.8017C19.3242 33.8097 19.3058 33.8234 19.2874 33.8307C19.2874 33.8386 19.2812 33.8387 19.2812 33.8387C19.2076 33.8821 19.134 33.9328 19.0542 33.9908V33.998C18.1217 34.6638 16.8523 36.1843 17.0609 38.3655Z" fill="black"/>
<path d="M20.9959 32.4895C21.1696 32.4895 21.4609 32.3613 21.4609 31.873C21.4609 31.6079 21.2211 31.3203 20.9959 31.3203C20.656 31.3203 20.472 31.6043 20.472 31.873C20.4714 32.3004 20.7352 32.4895 20.9959 32.4895ZM20.9959 31.5297C21.1205 31.5297 21.2812 31.6956 21.2837 31.8832C21.2837 32.1396 21.0965 32.2802 20.9959 32.2802V31.8013L20.6487 31.8738C20.6529 31.7412 20.7867 31.5297 20.9959 31.5297Z" fill="black"/>
<path d="M20.9369 32.9048C21.3149 32.9048 21.5186 32.5875 21.5186 32.2876C21.5186 32.121 21.4633 31.7363 20.9369 31.7363C20.4173 31.7363 20.4124 32.2644 20.4124 32.2876C20.4124 32.6223 20.6523 32.9048 20.9369 32.9048ZM20.9369 31.9442C21.1026 31.9442 21.2247 32.0913 21.2247 32.2883C21.2247 32.5339 21.048 32.6926 20.9191 32.6983L21.0315 32.2188L20.7069 32.2883C20.7069 32.0652 20.8596 31.9442 20.9369 31.9442Z" fill="black"/>
<path d="M20.9369 33.3928C21.3149 33.3928 21.5186 33.0748 21.5186 32.7749C21.5186 32.475 21.3149 32.1562 20.9369 32.1562C20.5578 32.1562 20.3541 32.4743 20.3541 32.7749C20.3541 33.0748 20.5578 33.3928 20.9369 33.3928ZM20.9369 32.4337C21.0155 32.4337 21.1658 32.5532 21.1658 32.7749C21.1658 33.19 20.7069 33.1827 20.7069 32.7749C20.7069 32.5532 20.8596 32.4337 20.9369 32.4337Z" fill="black"/>
<path d="M20.9366 32.2111C21.1618 32.2111 21.3428 31.9959 21.3428 31.7301V31.3128C21.3428 31.0469 21.1618 30.8325 20.9366 30.8325C20.7121 30.8325 20.5305 31.0469 20.5305 31.3128V31.7301C20.5305 31.9959 20.7121 32.2111 20.9366 32.2111Z" fill="black"/>
<path d="M15.8087 61.8071H25.8888C26.4717 61.8071 26.9502 62.3656 26.9502 63.0538C26.9502 63.734 26.4717 64.2998 25.8888 64.2998H15.8087C15.2258 64.2998 14.7534 63.7348 14.7534 63.0538C14.7534 62.3656 15.2258 61.8071 15.8087 61.8071ZM15.8087 63.3364H25.8888C26.0238 63.3364 26.1342 63.206 26.1342 63.0538C26.1342 62.9017 26.0232 62.7641 25.8888 62.7641H15.8087C15.6798 62.7641 15.5632 62.9017 15.5632 63.0538C15.5632 63.206 15.6737 63.3364 15.8087 63.3364Z" fill="black"/>
<path d="M15.2129 76.7739H26.4826C27.1146 76.7739 27.5938 77.339 27.5938 78.0858C27.5938 78.8392 27.1152 79.4035 26.4826 79.4035H15.2129C15.2 79.4035 15.1883 79.4036 15.1754 79.3963C14.5619 79.3818 14.1018 78.824 14.1018 78.0851C14.1024 77.339 14.581 76.7739 15.2129 76.7739ZM15.2129 78.4394H26.4826C26.6673 78.4394 26.7833 78.309 26.7833 78.0851C26.7833 77.8598 26.6667 77.7302 26.4826 77.7302H15.2129C15.0221 77.7302 14.9123 77.8605 14.9123 78.0851C14.9123 78.3097 15.0227 78.4394 15.2129 78.4394Z" fill="black"/>
<path d="M16.1702 76.7742H25.0908L24.6178 64.2998H16.7224L16.1702 76.7742Z" fill="#63AEA7"/>
<path d="M28.8999 87.8909C30.7822 87.8909 32.373 86.0459 32.373 83.8618C32.373 83.5974 32.1915 83.3829 31.9669 83.3829C31.7424 83.3829 31.5608 83.5974 31.5608 83.8618C31.5608 85.5258 30.3423 86.9318 28.8999 86.9318C27.5538 86.9318 26.4593 85.6185 26.2961 83.8111L26.1188 81.5212C26.098 81.2553 25.9066 81.054 25.6777 81.0858C25.4532 81.109 25.2875 81.3423 25.309 81.6067L25.4863 83.9045C25.6943 86.2183 27.1293 87.8909 28.8999 87.8909Z" fill="black"/>
<path d="M68.1227 97.2159C70.0706 97.2159 71.6553 95.3484 71.6553 93.0513C71.6553 92.7862 71.4731 92.5717 71.2479 92.5717C71.0234 92.5717 70.8412 92.7862 70.8412 93.0513C70.8412 94.7884 69.5963 96.2575 68.1227 96.2575C66.7116 96.2575 65.5667 94.887 65.4005 93.0028L65.225 90.6419C65.2048 90.376 65.0023 90.1848 64.7833 90.2051C64.5593 90.2275 64.3937 90.4601 64.4133 90.7245L64.5888 93.0933C64.8011 95.4868 66.287 97.2159 68.1227 97.2159Z" fill="black"/>
<path d="M10.2047 86.5017C13.2993 86.5017 15.781 83.5845 15.9767 79.7154L16.3313 73.0349C16.3448 72.7712 16.1748 72.5416 15.9503 72.5249C15.7399 72.5133 15.5343 72.7097 15.519 72.9755L15.165 79.6582C14.9956 83.0122 12.8625 85.5419 10.2047 85.5419C7.43588 85.5419 5.18427 82.9152 5.18427 79.6872V72.5887C5.18427 72.3228 5.00267 72.1084 4.77813 72.1084C4.55358 72.1084 4.37198 72.3228 4.37198 72.5887V79.6872C4.37198 83.4454 6.98862 86.5017 10.2047 86.5017Z" fill="black"/>
<path d="M87.3531 99.5162C90.5685 99.5162 93.1846 96.428 93.1846 92.6321V57.554C93.1846 57.2882 93.0023 57.0737 92.7778 57.0737C92.5526 57.0737 92.371 57.2882 92.371 57.554V92.6321C92.371 95.8985 90.12 98.5578 87.3531 98.5578C84.6726 98.5578 82.4467 95.8942 82.3915 92.6227L82.2737 86.705C82.2682 86.4406 82.1289 86.2211 81.8571 86.2363C81.6332 86.2421 81.4553 86.4616 81.4602 86.7289L81.5773 92.6445C81.6418 96.4324 84.2327 99.5162 87.3531 99.5162Z" fill="black"/>
<path d="M103.69 65.8992C103.914 65.8992 104.097 65.6847 104.097 65.4196V54.7005C104.097 50.9046 101.506 47.8164 98.3216 47.8164C95.1141 47.8164 92.552 50.8365 92.4895 54.6896L92.3704 60.603C92.3655 60.8674 92.5428 61.0891 92.7674 61.0934C92.7704 61.0934 92.7741 61.0934 92.7772 61.0934C92.9974 61.0934 93.1785 60.8862 93.184 60.6262L93.303 54.7121C93.3576 51.3812 95.5613 48.7755 98.3216 48.7755C101.057 48.7755 103.283 51.4334 103.283 54.7005V65.4196C103.283 65.6847 103.465 65.8992 103.69 65.8992Z" fill="black"/>
<path d="M4.83545 79.0533C5.06061 79.0533 5.24219 78.8388 5.24219 78.5737V70.2198C5.24219 66.4898 2.57095 63.3379 -0.590522 63.3379C-3.74279 63.3379 -6.35942 66.4203 -6.42323 70.2096C-6.42875 70.4748 -6.25026 70.6943 -6.0251 70.6993C-6.02265 70.6993 -6.01894 70.6993 -6.01649 70.6993C-5.79562 70.6993 -5.61404 70.4922 -5.60975 70.2292C-5.55392 66.9599 -3.30168 64.2963 -0.589922 64.2963C2.13165 64.2963 4.4299 67.0099 4.4299 70.2198V78.5737C4.42929 78.8388 4.6109 79.0533 4.83545 79.0533Z" fill="black"/>
<path d="M144.246 71H1597.02C1598.67 71 1600 70.7951 1600 70.5423C1600 70.2889 1598.67 70.084 1597.02 70.084H144.246C123.975 70.084 103.755 67.4251 103.755 64.3032C105.4 64.3032 103.755 64.0491 103.755 64.3032C102.105 64.3032 103.755 63.2841 103.216 64.9826C101.061 67.0207 120.69 71 144.246 71Z" fill="black"/>
</svg>
