<svg width="65" height="66" viewBox="0 0 65 66" fill="none" xmlns="http://www.w3.org/2000/svg">
<rect y="0.697266" width="65" height="65" rx="10.9747" fill="#204343"/>
<path d="M32.6296 18.6973C26.7751 18.6973 22 23.4723 22 29.3269C22 31.649 22.7359 33.8566 24.126 35.7046L31.9754 46.2797C32.0898 46.4432 32.4006 46.6067 32.6296 46.6067C32.875 46.6067 33.1694 46.4269 33.2838 46.2797C33.3163 46.2305 41.215 35.5901 41.2805 35.4919C41.2969 35.4919 41.2969 35.4919 41.2969 35.4757C42.5724 33.6768 43.2592 31.5508 43.2592 29.3269C43.2592 23.4724 38.4841 18.6973 32.6296 18.6973ZM32.6296 35.0505C29.4736 35.0505 26.906 32.483 26.906 29.3269C26.906 26.1707 29.4736 23.6033 32.6296 23.6033C35.7857 23.6033 38.3532 26.1707 38.3532 29.3269C38.3532 32.483 35.7857 35.0505 32.6296 35.0505Z" fill="white"/>
</svg>
