<svg width="31" height="31" viewBox="0 0 31 31" fill="none" xmlns="http://www.w3.org/2000/svg">
<path d="M16.4531 7.99658C17.9996 8.26203 19.4132 8.99356 20.5399 10.1171C21.6603 11.2376 22.3949 12.6512 22.6604 14.2007C22.7622 14.8119 23.287 15.2533 23.9074 15.2533C23.9876 15.2533 24.0586 15.244 24.108 15.2348C24.1111 15.2348 24.1142 15.2348 24.1173 15.2317C24.4537 15.1761 24.747 14.994 24.9414 14.7131C25.1359 14.4353 25.21 14.102 25.1513 13.7717C24.7994 11.7036 23.824 9.82078 22.327 8.32376C20.8238 6.82674 18.9379 5.85136 16.8729 5.50257H16.8698C16.1815 5.38836 15.5302 5.85445 15.416 6.53968C15.308 7.23109 15.771 7.88237 16.4531 7.99658Z" fill="white"/>
<path d="M24.2351 18.592C23.5437 17.8728 22.7072 17.4932 21.8152 17.4932C20.9324 17.4932 20.0897 17.8667 19.3829 18.5766L17.6266 20.3329C17.5834 20.3113 17.5402 20.2897 17.5 20.2681L17.4105 20.2249C17.2222 20.1292 17.0062 20.0211 16.8272 19.91C15.0246 18.7649 13.3794 17.2648 11.7928 15.3202C11.1138 14.4652 10.6384 13.7398 10.2896 13.0176C10.731 12.6009 11.1416 12.1842 11.5274 11.7891C11.6138 11.7026 11.7002 11.6131 11.7897 11.5236C11.8762 11.4341 11.9657 11.3446 12.0552 11.2551C12.7898 10.5205 13.1787 9.66855 13.1757 8.79194C13.1757 7.91842 12.7867 7.06959 12.0552 6.34115L10.3483 4.63423C10.2495 4.53546 10.1507 4.43669 10.0551 4.33791C9.95937 4.23914 9.8606 4.14037 9.76491 4.04468L9.6291 3.90578C9.29265 3.56317 8.94386 3.2082 8.59199 2.88411C7.90675 2.20196 7.07645 1.84082 6.19675 1.84082C5.32015 1.84082 4.48367 2.20196 3.77065 2.88411C3.76756 2.88719 3.76448 2.88719 3.76448 2.89028L1.62543 5.02624C0.751915 5.89976 0.254965 6.96465 0.146933 8.19004V8.19313C0.0327268 9.64385 0.295092 11.1748 0.974153 13.0114C2.002 15.7894 3.54533 18.3636 5.82636 21.1107C8.61051 24.4289 11.9533 27.0463 15.7592 28.8891H15.7623C17.2284 29.5897 19.1977 30.4108 21.4201 30.5559C21.4232 30.5559 21.4262 30.5559 21.4293 30.5559H21.4448C21.5713 30.562 21.704 30.5682 21.8429 30.5682C23.4017 30.5682 24.7166 30.0033 25.7475 28.8891L25.763 28.8736C25.7753 28.8613 25.7846 28.852 25.7938 28.8397C26.1025 28.4693 26.4575 28.1267 26.8557 27.7439C27.1304 27.4816 27.4112 27.213 27.6829 26.9229C28.3835 26.1913 28.7539 25.3394 28.7509 24.4597C28.7478 23.577 28.3712 22.7343 27.6613 22.0244L24.2351 18.592ZM23.8956 27.1945C23.3461 27.781 22.7165 28.0433 21.8584 28.0433C21.7781 28.0433 21.6886 28.0372 21.596 28.031C19.8181 27.9168 18.1359 27.213 16.8704 26.6111C13.3763 24.9289 10.3143 22.5337 7.76785 19.4902C5.68437 16.9808 4.27995 14.6411 3.35087 12.1348C2.79527 10.6439 2.58538 9.48952 2.67181 8.39994C2.72737 7.76409 2.96504 7.25788 3.41877 6.81032L5.54238 4.6867C5.76462 4.47373 5.99303 4.35952 6.20601 4.35952C6.40664 4.35952 6.61962 4.47064 6.84495 4.68979C6.84803 4.69288 6.85112 4.69597 6.85421 4.69905C7.22152 5.04476 7.57957 5.40898 7.95923 5.79172L7.97157 5.80407C8.15368 5.99235 8.36358 6.20842 8.57655 6.41522L10.2804 8.11905C10.7773 8.616 10.7773 8.96479 10.2804 9.46174C10.1014 9.64077 9.91924 9.82288 9.74022 10.0081L9.61367 10.1377C9.13524 10.6223 8.68459 11.0791 8.19381 11.5144C8.18764 11.5205 8.17838 11.5267 8.1722 11.536L8.14134 11.5668C7.6197 12.0885 7.47771 12.712 7.72155 13.4157C7.72773 13.4343 7.7339 13.4497 7.74007 13.4651C7.74316 13.4744 7.74625 13.4836 7.75242 13.4929C8.20924 14.5948 8.85127 15.6412 9.83899 16.8913C9.83899 16.8944 9.84208 16.8944 9.84208 16.8975C11.5953 19.055 13.4442 20.7403 15.4968 22.0429C15.7653 22.2127 16.0431 22.3546 16.3024 22.4843C16.4938 22.58 16.7099 22.6911 16.8889 22.7991C16.9012 22.8084 16.9136 22.8146 16.9259 22.8207L16.9352 22.8269C16.9537 22.8362 16.9722 22.8485 16.9938 22.8578C17.2624 22.9936 17.5278 23.0584 17.8025 23.0584C18.2717 23.0584 18.7038 22.8639 19.0526 22.4966L21.1886 20.3607C21.3429 20.2063 21.5837 20.0211 21.8368 20.0211C22.0714 20.0211 22.2998 20.2033 22.4479 20.3576C22.451 20.3607 22.451 20.3607 22.4541 20.3638L25.9019 23.8115C26.2414 24.1511 26.4729 24.5523 25.8741 25.182L25.871 25.1851C25.6827 25.3888 25.4821 25.5833 25.2691 25.7901C25.2228 25.8333 25.1765 25.8796 25.1302 25.9259C24.6981 26.3302 24.2845 26.7315 23.8956 27.1945Z" fill="white"/>
<path d="M30.5186 13.5241C29.9506 10.1813 28.3703 7.13167 25.9473 4.70865C23.515 2.28255 20.4654 0.702191 17.1195 0.137336C16.4311 0.0231299 15.7799 0.489213 15.6657 1.17445C15.5515 1.86277 16.0175 2.51405 16.6997 2.62826C19.5301 3.10977 22.1075 4.44938 24.157 6.49582C26.2065 8.54535 27.5431 11.1227 28.0246 13.9501C28.1264 14.5612 28.6512 15.0026 29.2716 15.0026C29.2747 15.0026 29.2778 15.0026 29.2808 15.0026C29.358 15.0026 29.4228 14.9933 29.4722 14.9841C29.4753 14.9841 29.4784 14.9841 29.4815 14.981C29.8179 14.9254 30.1112 14.7433 30.3056 14.4624C30.5032 14.1877 30.5772 13.8544 30.5186 13.5241Z" fill="white"/>
</svg>
