<svg width="1600" height="101" viewBox="0 0 1600 101" fill="none" xmlns="http://www.w3.org/2000/svg">
<path d="M1527.64 51.7102L1527.14 40.8884L1527.12 40.4552C1527.11 40.1982 1526.93 40 1526.71 40H1519.95C1519.73 40 1519.55 40.2056 1519.54 40.4625L1519.53 40.8957L1519.14 51.7102L1519.12 52.0994C1519.11 52.371 1519.29 52.5986 1519.52 52.6059C1519.77 52.6133 1519.93 52.4151 1519.94 52.1434L1519.96 51.7102L1520.35 40.9691H1526.32L1526.82 51.7102L1526.83 52.1508C1526.85 52.4085 1527.03 52.6059 1527.24 52.6059H1527.27C1527.49 52.5913 1527.67 52.3637 1527.65 52.0994L1527.64 51.7102ZM1519.49 53.1199H1519.47C1519.25 53.1199 1519.07 53.3188 1519.06 53.5824L1519.04 54.089L1518.71 62.4286L1518.7 62.8177C1518.69 63.0894 1518.87 63.317 1519.1 63.3316H1519.12C1519.34 63.3316 1519.52 63.1261 1519.53 62.8691L1519.55 62.4278L1519.87 54.0883L1519.89 53.6257C1519.89 53.3548 1519.72 53.1265 1519.49 53.1199ZM1528.17 62.4286L1527.74 54.089L1527.72 53.5751C1527.7 53.3034 1527.51 53.1272 1527.28 53.1199C1527.05 53.1353 1526.88 53.3622 1526.9 53.6338L1526.92 54.089L1527.34 62.4286L1527.37 62.9425C1527.38 63.2068 1527.57 63.3977 1527.79 63.3977H1527.81C1528.03 63.383 1528.21 63.1554 1528.2 62.8838L1528.17 62.4286ZM1519.07 63.9784H1519.06C1518.8 63.9784 1518.65 64.1914 1518.65 64.4483L1518.63 64.9549L1518.23 77.6636L1518.2 78.6401L1518.17 79.3596L1518.14 80.328L1517.91 87.6552L1517.81 91.0397V91.0544C1517.81 91.3187 1517.98 91.539 1518.2 91.5463H1518.22C1518.42 91.5463 1518.6 91.3701 1518.63 91.1352C1518.63 91.1132 1518.63 91.0985 1518.63 91.0764L1518.97 80.3273L1519 79.3589L1519.02 78.6394L1519.06 77.6629L1519.45 64.9542L1519.47 64.4843C1519.48 64.2207 1519.3 63.9924 1519.07 63.9784ZM1528.89 80.328L1528.85 79.3596L1528.82 78.6401L1528.78 77.6636L1528.27 64.9549L1528.25 64.5144C1528.25 64.2501 1528.07 64.0298 1527.82 64.0511C1527.6 64.0665 1527.42 64.2934 1527.43 64.5577L1527.45 64.9542L1527.96 77.6629L1528 78.6394L1528.02 79.3589L1528.07 80.3273L1528.63 94.3061V94.3355C1528.64 94.5998 1528.82 94.7907 1529.04 94.7907H1529.06C1529.28 94.7833 1529.45 94.5704 1529.45 94.3142V94.2848L1528.89 80.328Z" fill="black"/>
<path d="M1525.21 52.6812H1521.93C1521.7 52.6812 1521.51 52.4638 1521.51 52.1951V43.3732C1521.51 42.0546 1522.45 40.9834 1523.6 40.9834C1524.72 40.9834 1525.63 42.0546 1525.63 43.3732V52.1951C1525.63 52.4638 1525.44 52.6812 1525.21 52.6812ZM1522.34 51.7098H1524.8V43.3739C1524.8 42.5803 1524.27 41.9562 1523.6 41.9562C1522.92 41.9562 1522.34 42.6067 1522.34 43.3739V51.7098Z" fill="black"/>
<path d="M1527.11 38.7294C1527 38.678 1526.88 38.6553 1526.77 38.6553H1519.89C1519.7 38.6553 1519.52 38.7067 1519.37 38.8094C1519.07 39.0077 1518.88 39.3821 1518.88 39.8446C1518.88 40.3439 1519.14 40.7404 1519.53 40.8945C1519.64 40.9459 1519.76 40.9687 1519.89 40.9687H1526.77C1526.9 40.9687 1527.02 40.9393 1527.14 40.8879C1527.51 40.7198 1527.78 40.3079 1527.78 39.8454C1527.78 39.3307 1527.5 38.891 1527.11 38.7294ZM1519.89 39.9996C1519.85 39.9996 1519.71 39.9849 1519.71 39.8454C1519.71 39.6986 1519.77 39.6251 1519.89 39.6251H1526.77C1526.83 39.6251 1526.95 39.6912 1526.95 39.8454C1526.95 39.9041 1526.86 39.9996 1526.77 39.9996H1519.89Z" fill="black"/>
<path d="M1527.9 51.71H1518.7C1518.14 51.71 1517.69 52.2452 1517.69 52.8993C1517.69 53.5234 1518.17 54.0887 1518.7 54.0887H1527.9C1528.43 54.0887 1528.91 53.5234 1528.91 52.8993C1528.91 52.2452 1528.46 51.71 1527.9 51.71ZM1527.9 53.1196H1518.7C1518.63 53.1196 1518.52 52.9794 1518.52 52.8993C1518.52 52.7525 1518.62 52.6791 1518.7 52.6791H1527.9C1527.98 52.6791 1528.09 52.7525 1528.09 52.8993C1528.09 52.9794 1527.97 53.1196 1527.9 53.1196Z" fill="black"/>
<path d="M1522 34.86C1521.99 34.8893 1521.96 34.9048 1521.94 34.9187C1521.87 34.9554 1521.82 34.9921 1521.76 35.0362C1520.07 36.2035 1520.09 37.9509 1520.18 38.6557C1520.2 38.8025 1520.22 38.9053 1520.23 38.9494C1520.3 39.2063 1520.16 39.4706 1519.94 39.5441C1519.91 39.5521 1519.87 39.5588 1519.83 39.5588C1519.65 39.5588 1519.49 39.4192 1519.44 39.199C1519.42 39.1403 1519.39 39.0081 1519.37 38.8099C1519.25 37.8921 1519.23 35.6389 1521.36 34.1919C1521.43 34.1412 1521.49 34.1038 1521.56 34.0597C1521.62 34.023 1521.68 34.001 1521.75 34.001C1521.76 34.001 1521.76 34.001 1521.76 34.001C1521.9 34.001 1522.04 34.0964 1522.11 34.2579C1522.2 34.4701 1522.15 34.7278 1522 34.86Z" fill="black"/>
<path d="M1521.69 34.9742C1521.52 34.9742 1521.36 34.8509 1521.3 34.6541C1521.22 34.4001 1521.33 34.1226 1521.55 34.0301C1521.55 34.0279 1522.3 33.7019 1522.88 32.9596C1523.03 32.7614 1523.29 32.7504 1523.46 32.9302C1523.63 33.1123 1523.64 33.4192 1523.49 33.6189C1522.77 34.544 1521.86 34.9316 1521.83 34.9463C1521.78 34.9661 1521.73 34.9742 1521.69 34.9742Z" fill="black"/>
<path d="M1524.79 35.044C1524.74 35.044 1524.68 35.0293 1524.62 34.9992C1524.49 34.928 1523.39 34.3025 1522.87 33.6102C1522.72 33.4105 1522.74 33.1028 1522.91 32.9237C1523.08 32.7446 1523.34 32.7607 1523.49 32.9655C1523.84 33.4244 1524.68 33.953 1524.97 34.1175C1525.18 34.2313 1525.27 34.5227 1525.17 34.7658C1525.1 34.942 1524.95 35.044 1524.79 35.044Z" fill="black"/>
<path d="M1524.91 34.7289C1524.84 34.883 1524.72 34.9711 1524.58 34.9785H1524.58C1524.55 34.9785 1524.52 34.9785 1524.5 34.9712C1524.45 34.9638 1524.4 34.9418 1524.35 34.9124C1523.3 34.2003 1521.88 34.9858 1521.87 35.0005C1521.83 35.0152 1521.8 35.0299 1521.76 35.0372C1521.74 35.0446 1521.71 35.0446 1521.69 35.0446C1521.53 35.0446 1521.39 34.9491 1521.31 34.7656C1521.28 34.6775 1521.26 34.5894 1521.28 34.5013C1521.27 34.4939 1521.28 34.4939 1521.28 34.4866C1521.29 34.3324 1521.37 34.2003 1521.51 34.1195C1521.52 34.1122 1521.6 34.0681 1521.75 34.002C1521.75 34.002 1521.75 34.002 1521.75 34.002C1522.01 33.8846 1522.43 33.7304 1522.92 33.6716C1522.94 33.6643 1522.97 33.6643 1523 33.6643C1523.13 33.6496 1523.28 33.6423 1523.43 33.6496C1523.45 33.6415 1523.45 33.6415 1523.46 33.6496C1523.86 33.6643 1524.27 33.7664 1524.67 34.0086C1524.7 34.0307 1524.73 34.0461 1524.76 34.0674C1524.96 34.2002 1525.03 34.4939 1524.91 34.7289Z" fill="black"/>
<path d="M1526.29 38.6547H1520.18C1520.09 37.9499 1520.07 36.2026 1521.76 35.0352C1521.8 35.0279 1521.83 35.0132 1521.87 34.9985C1521.88 34.9838 1523.3 34.1982 1524.35 34.9104C1524.4 34.9398 1524.45 34.9618 1524.5 34.9692C1524.84 35.1894 1526.51 36.4081 1526.29 38.6547Z" fill="#63AEA7"/>
<path d="M1527.11 38.7284C1527.1 38.8745 1527.08 39.0214 1527.05 39.169C1527.01 39.4039 1526.84 39.5581 1526.65 39.5581C1526.62 39.5581 1526.59 39.5581 1526.57 39.5507C1526.34 39.4993 1526.2 39.2343 1526.24 38.9781C1526.26 38.8679 1526.28 38.7578 1526.29 38.655C1526.51 36.4084 1524.84 35.1897 1524.5 34.9694C1524.46 34.9401 1524.43 34.9254 1524.43 34.9254C1524.38 34.896 1524.35 34.8593 1524.32 34.816C1524.2 34.6765 1524.17 34.4562 1524.24 34.2727C1524.32 34.0737 1524.5 33.9717 1524.67 34.0084C1524.71 34.0164 1524.75 34.0304 1524.79 34.0524C1524.89 34.1111 1525 34.1772 1525.11 34.2653C1526.05 34.94 1527.31 36.4965 1527.11 38.7284Z" fill="black"/>
<path d="M1523.18 32.7158C1522.66 32.7158 1522.65 32.1835 1522.65 32.1585C1522.65 32.1358 1522.66 31.6035 1523.18 31.6035C1523.71 31.6035 1523.71 32.1358 1523.71 32.1585C1523.71 32.1828 1523.71 32.7158 1523.18 32.7158ZM1523.16 31.7481C1523.04 31.7775 1522.89 31.9317 1522.89 32.1585C1522.89 32.4082 1523.07 32.5697 1523.2 32.5748C1523.29 32.5697 1523.47 32.4074 1523.47 32.1585C1523.47 31.9317 1523.32 31.7775 1523.2 31.7481V31.743C1523.19 31.7445 1523.18 31.7445 1523.16 31.743V31.7481Z" fill="black"/>
<path d="M1523.18 33.2098C1522.94 33.2098 1522.59 32.9881 1522.59 32.5828C1522.59 32.179 1522.94 31.9551 1523.18 31.9551C1523.52 31.9551 1523.77 32.2245 1523.77 32.5828C1523.77 32.8934 1523.55 33.2098 1523.18 33.2098ZM1523.18 32.2377C1523.09 32.2377 1522.95 32.3714 1522.95 32.5828C1522.95 32.7943 1523.09 32.9279 1523.18 32.9279C1523.41 32.9279 1523.42 32.5865 1523.42 32.5828C1523.42 32.5806 1523.41 32.2377 1523.18 32.2377Z" fill="black"/>
<path d="M1523.18 33.7017C1522.94 33.7017 1522.59 33.4793 1522.59 33.0755C1522.59 32.6717 1522.94 32.4492 1523.18 32.4492C1523.5 32.4492 1523.83 32.6827 1523.83 33.0755C1523.83 33.4683 1523.5 33.7017 1523.18 33.7017ZM1523.18 32.7297C1523.14 32.7297 1523.01 32.8552 1523.01 33.0755C1523.01 33.2965 1523.14 33.422 1523.18 33.422C1523.41 33.422 1523.42 33.0791 1523.42 33.0755C1523.42 33.0733 1523.41 32.7297 1523.18 32.7297Z" fill="black"/>
<path d="M1523.18 32.5057C1522.95 32.5057 1522.77 32.2884 1522.77 32.0197V31.5241C1522.77 31.2554 1522.95 31.0381 1523.18 31.0381C1523.41 31.0381 1523.59 31.2554 1523.59 31.5241V32.0197C1523.59 32.2884 1523.41 32.5057 1523.18 32.5057Z" fill="black"/>
<path d="M1528.38 62.4277H1518.22C1517.63 62.4277 1517.15 62.9938 1517.15 63.6913C1517.15 64.388 1517.63 64.9541 1518.22 64.9541H1528.38C1528.97 64.9541 1529.45 64.388 1529.45 63.6913C1529.45 62.9938 1528.97 62.4277 1528.38 62.4277ZM1528.38 63.9776H1518.22C1518.09 63.9776 1517.97 63.8454 1517.97 63.6913C1517.97 63.5371 1518.09 63.3976 1518.22 63.3976H1528.38C1528.51 63.3976 1528.63 63.5371 1528.63 63.6913C1528.63 63.8454 1528.51 63.9776 1528.38 63.9776Z" fill="black"/>
<path d="M1527.35 62.4275H1519.55L1519.87 54.0879H1526.92L1527.35 62.4275Z" fill="#63AEA7"/>
<path d="M1529.04 80.3313H1517.56C1516.95 80.3313 1516.43 79.7205 1516.43 78.9973C1516.43 78.2749 1516.95 77.6641 1517.56 77.6641H1529.04C1529.65 77.6641 1530.17 78.2749 1530.17 78.9973C1530.17 79.7205 1529.65 80.3313 1529.04 80.3313ZM1517.56 78.6368C1517.43 78.6368 1517.26 78.7734 1517.26 78.9973C1517.26 79.2213 1517.43 79.36 1517.56 79.36H1529.04C1529.16 79.36 1529.34 79.2286 1529.34 78.9973C1529.34 78.7727 1529.17 78.6368 1529.04 78.6368H1517.56Z" fill="black"/>
<path d="M1552.11 20.1324V20.2058C1552.1 20.2939 1552.1 20.3747 1552.09 20.4635C1552.05 21.2344 1551.94 21.9686 1551.7 22.7168C1551.68 22.7755 1551.66 22.8269 1551.64 22.8856C1551.6 22.9884 1551.56 23.0985 1551.52 23.2013C1551.33 23.6859 1551.07 24.1851 1550.75 24.699C1550.18 25.6094 1549.38 26.5785 1548.27 27.6798C1548.27 27.6798 1548.27 27.6879 1548.26 27.6879C1546.88 29.0528 1545.03 30.6166 1542.54 32.4968C1538.38 35.6538 1536.11 39.1338 1535.81 42.8561C1535.44 47.4154 1538.18 50.9167 1538.6 51.4241C1538.63 51.4681 1538.65 51.4901 1538.65 51.4901C1538.81 51.6737 1538.83 51.982 1538.66 52.1803C1538.58 52.2757 1538.48 52.3271 1538.37 52.3271C1538.27 52.3271 1538.16 52.2831 1538.09 52.195C1538.05 52.1583 1537.89 51.9747 1537.66 51.659C1536.72 50.4036 1534.64 47.0704 1534.99 42.7754C1535.31 38.7374 1537.71 35.0077 1542.09 31.6819C1549.57 26.036 1551.1 23.481 1551.28 20.3975C1551.28 20.3314 1551.28 20.2727 1551.29 20.2066V20.1332C1551.29 20.1038 1551.29 20.0818 1551.3 20.059C1551.3 20.0296 1551.31 20.0083 1551.32 19.979C1551.32 19.979 1551.32 19.9709 1551.33 19.9636C1551.33 19.9415 1551.34 19.9195 1551.36 19.8975C1551.36 19.8901 1551.36 19.8901 1551.36 19.8901C1551.37 19.8747 1551.38 19.8534 1551.39 19.8387C1551.44 19.7873 1551.48 19.7506 1551.54 19.7213C1551.56 19.7139 1551.58 19.7066 1551.6 19.7C1551.62 19.6919 1551.64 19.6846 1551.67 19.6846H1551.71C1551.72 19.6846 1551.72 19.6846 1551.73 19.6846C1551.75 19.6846 1551.78 19.6919 1551.8 19.7C1551.82 19.7073 1551.84 19.7147 1551.85 19.7213C1551.86 19.7293 1551.87 19.7294 1551.87 19.7294C1551.89 19.7433 1551.9 19.758 1551.92 19.7661C1551.93 19.758 1551.93 19.7661 1551.93 19.7661C1551.95 19.7807 1551.97 19.7954 1551.98 19.8101V19.8175C1551.98 19.8175 1551.98 19.8255 1551.98 19.8255C1551.99 19.8329 1551.99 19.8329 1552 19.8329C1552.01 19.8476 1552.02 19.8696 1552.03 19.8916C1552.05 19.9136 1552.06 19.9283 1552.07 19.9503C1552.07 19.9577 1552.07 19.9577 1552.07 19.965C1552.07 19.9724 1552.08 19.9724 1552.08 19.9804C1552.08 20.0017 1552.1 20.0245 1552.1 20.0539C1552.1 20.081 1552.11 20.103 1552.11 20.1324Z" fill="black"/>
<path d="M1565.84 51.5332C1565.55 51.9297 1565.34 52.158 1565.31 52.194C1565.23 52.2821 1565.13 52.3261 1565.03 52.3261C1564.91 52.3261 1564.81 52.2748 1564.73 52.1793C1564.57 51.9811 1564.58 51.6727 1564.74 51.4892C1564.74 51.4892 1564.76 51.4671 1564.8 51.4231C1565.21 50.9165 1567.96 47.4145 1567.58 42.8552C1567.28 39.1329 1565.01 35.6521 1560.86 32.4958C1558.4 30.6383 1556.56 29.0966 1555.18 27.7457C1554.07 26.6517 1553.27 25.6819 1552.69 24.7796V24.7715C1552.34 24.2363 1552.08 23.729 1551.88 23.2231V23.2158C1551.84 23.1196 1551.8 23.0168 1551.77 22.9221C1551.74 22.856 1551.72 22.7826 1551.7 22.7165C1551.5 22.0925 1551.38 21.4831 1551.32 20.8517C1551.32 20.8443 1551.32 20.8443 1551.32 20.8443C1551.31 20.7048 1551.3 20.558 1551.3 20.4112C1551.29 20.3598 1551.29 20.301 1551.28 20.2496V20.1755C1551.28 20.1682 1551.28 20.1682 1551.28 20.1608C1551.28 20.1454 1551.28 20.1314 1551.29 20.1168C1551.29 20.0955 1551.29 20.0801 1551.3 20.058C1551.3 20.0507 1551.3 20.0367 1551.3 20.0287C1551.3 20.0074 1551.31 19.992 1551.32 19.978C1551.33 19.9486 1551.34 19.9266 1551.35 19.8973V19.8899H1551.36C1551.36 19.8826 1551.37 19.8826 1551.37 19.8745C1551.37 19.8671 1551.38 19.8598 1551.38 19.8532V19.8451C1551.43 19.7945 1551.48 19.7497 1551.54 19.7203C1551.56 19.713 1551.58 19.7056 1551.6 19.699C1551.61 19.6909 1551.63 19.6909 1551.65 19.6909C1551.65 19.6909 1551.66 19.6836 1551.68 19.6836C1551.68 19.6836 1551.68 19.6836 1551.69 19.6836H1551.71C1551.72 19.6836 1551.73 19.6909 1551.75 19.6909C1551.76 19.6909 1551.78 19.6909 1551.8 19.699C1551.81 19.7064 1551.83 19.7137 1551.85 19.7203C1551.86 19.7284 1551.86 19.7284 1551.87 19.7284C1551.89 19.7423 1551.91 19.757 1551.93 19.7651C1551.94 19.7724 1551.94 19.7798 1551.95 19.7945C1551.96 19.7945 1551.97 19.8018 1551.98 19.8091V19.8165C1551.98 19.8165 1551.98 19.8246 1551.98 19.8246L1551.99 19.8319C1551.99 19.8392 1552 19.8466 1552.01 19.8539C1552.01 19.8539 1552.01 19.8539 1552.01 19.8613C1552.04 19.8906 1552.06 19.9273 1552.07 19.964C1552.07 19.9714 1552.08 19.9714 1552.08 19.9795C1552.08 20.0008 1552.09 20.0301 1552.09 20.0529C1552.1 20.0683 1552.1 20.0896 1552.1 20.1116C1552.11 20.119 1552.11 20.1263 1552.11 20.1337V20.2071C1552.11 20.2878 1552.11 20.3686 1552.12 20.4567C1552.13 20.5521 1552.13 20.6549 1552.14 20.7577C1552.43 23.6871 1554.12 26.2641 1561.3 31.6824C1565.69 35.0009 1568.08 38.7379 1568.4 42.7759C1568.74 46.9299 1566.8 50.1889 1565.84 51.5332Z" fill="black"/>
<path d="M1551.7 16.7733C1551.19 16.7733 1550.81 16.4128 1550.81 15.9327C1550.81 15.4547 1551.19 15.0957 1551.7 15.0957C1552.17 15.0957 1552.52 15.454 1552.52 15.9327C1552.52 16.4128 1552.17 16.7733 1551.7 16.7733Z" fill="black"/>
<path d="M1551.75 18.5384C1551.14 18.5384 1550.68 18.1177 1550.68 17.5575C1550.68 16.9988 1551.14 16.5781 1551.75 16.5781C1552.31 16.5781 1552.76 17.0179 1552.76 17.5575C1552.76 18.0993 1552.31 18.5384 1551.75 18.5384Z" fill="black"/>
<path d="M1551.76 20.5128C1551.21 20.5128 1550.63 20.0613 1550.63 19.3902C1550.63 18.7735 1551.22 18.3447 1551.76 18.3447C1552.4 18.3447 1552.94 18.8212 1552.94 19.3902C1552.94 20.0201 1552.42 20.5128 1551.76 20.5128ZM1551.45 19.457C1551.5 19.457 1551.61 19.54 1551.76 19.54C1551.96 19.54 1552.1 19.4299 1552.12 19.3814C1552.1 19.4225 1551.96 19.3153 1551.76 19.3153C1551.6 19.3153 1551.46 19.4144 1551.44 19.4644C1551.44 19.4592 1551.45 19.457 1551.45 19.457Z" fill="black"/>
<path d="M1551.7 15.8587C1551.69 15.8587 1551.68 15.8587 1551.68 15.8587C1551.45 15.8484 1551.28 15.6223 1551.28 15.3528L1551.34 13.5879C1551.35 13.3206 1551.55 13.1128 1551.77 13.1224C1552 13.1319 1552.18 13.3588 1552.17 13.629L1552.11 15.3932C1552.1 15.6524 1551.92 15.8587 1551.7 15.8587Z" fill="black"/>
<path d="M1553.61 7.32259C1553.52 7.32259 1553.44 7.29175 1553.36 7.23007C1553.22 7.10453 1553.16 6.88354 1553.22 6.68311L1553.6 5.32193L1552.64 4.47617C1552.5 4.34989 1552.44 4.13109 1552.5 3.93286C1552.55 3.73316 1552.71 3.60027 1552.89 3.60027H1554.09L1554.47 2.24057C1554.53 2.0394 1554.7 1.8955 1554.87 1.90798C1555.05 1.91165 1555.21 2.05335 1555.26 2.25672L1555.59 3.59955H1556.84C1557.02 3.59955 1557.18 3.73684 1557.23 3.93727C1557.28 4.13844 1557.22 4.35942 1557.08 4.48349L1556.07 5.32854L1556.45 6.68239C1556.51 6.88356 1556.45 7.10748 1556.3 7.23155C1556.16 7.3571 1555.96 7.35711 1555.81 7.22642L1554.86 6.38209L1553.85 7.23375C1553.78 7.29322 1553.69 7.32259 1553.61 7.32259ZM1554.13 4.57088L1554.33 4.7522C1554.47 4.87775 1554.53 5.09655 1554.48 5.29551L1554.4 5.57083L1554.62 5.38142C1554.77 5.25954 1554.96 5.26173 1555.11 5.38874L1555.25 5.51283L1555.19 5.29625C1555.13 5.09289 1555.19 4.86968 1555.34 4.7434L1555.54 4.57088H1555.28C1555.1 4.57088 1554.94 4.42991 1554.88 4.22213L1554.84 4.02243L1554.77 4.23974C1554.72 4.43944 1554.56 4.57088 1554.38 4.57088H1554.13Z" fill="black"/>
<path d="M1558.15 9.12691C1558.01 8.98742 1557.79 9.0021 1557.65 9.14894C1556.95 9.84568 1556.02 10.2282 1555.04 10.2282C1552.7 10.2282 1550.79 7.98233 1550.79 5.21372C1550.79 3.44434 1551.57 1.83646 1552.87 0.904042C1553.03 0.786573 1553.1 0.558991 1553.05 0.346078C1552.99 0.133164 1552.81 -0.0136734 1552.63 0.0010103C1549.46 0.155189 1546.98 3.21674 1546.98 6.97576C1546.98 9.89047 1548.47 12.4153 1550.77 13.4292C1550.89 13.4799 1551.02 13.4586 1551.12 13.3918C1551.15 13.5247 1551.24 13.6341 1551.34 13.6928C1551.36 13.7075 1551.38 13.7148 1551.4 13.7222C1551.63 13.8029 1551.89 13.8617 1552.16 13.8984C1552.39 13.9351 1552.64 13.9498 1552.89 13.9498C1555.21 13.9498 1557.38 12.2465 1558.29 9.70618C1558.37 9.50135 1558.31 9.25833 1558.15 9.12691ZM1552.89 12.9814C1552.43 12.9814 1551.99 12.908 1551.63 12.7824C1551.59 12.7751 1551.56 12.7677 1551.51 12.7677C1551.45 12.7677 1551.38 12.7898 1551.31 12.8265C1551.28 12.687 1551.19 12.5695 1551.06 12.5108C1549.08 11.6437 1547.8 9.47051 1547.8 6.97502C1547.8 4.35398 1549.21 2.12205 1551.2 1.29977C1550.41 2.37168 1549.97 3.75196 1549.97 5.21298C1549.97 8.51681 1552.24 11.2039 1555.04 11.2039C1555.62 11.2039 1556.19 11.0864 1556.72 10.8662C1555.77 12.1738 1554.36 12.9814 1552.89 12.9814Z" fill="black"/>
<path d="M1556.72 10.867C1555.77 12.1738 1554.36 12.9814 1552.89 12.9814C1552.43 12.9814 1551.99 12.908 1551.63 12.7824C1551.59 12.7751 1551.56 12.7678 1551.51 12.7678C1551.45 12.7678 1551.38 12.7898 1551.32 12.8265C1551.28 12.687 1551.19 12.5695 1551.06 12.5108C1549.08 11.6437 1547.8 9.47054 1547.8 6.97505C1547.8 4.35402 1549.21 2.12209 1551.2 1.2998C1550.41 2.37171 1549.97 3.75199 1549.97 5.21302C1549.97 8.51684 1552.24 11.204 1555.04 11.204C1555.62 11.2047 1556.19 11.0872 1556.72 10.867Z" fill="#63AEA7"/>
<path d="M1552.1 20.1324V20.2058C1552.1 20.2939 1552.1 20.382 1552.1 20.4635C1552.1 20.5142 1552.1 20.559 1552.09 20.6023C1552.05 21.3952 1551.97 22.1441 1551.77 22.9223C1551.75 22.9957 1551.73 23.0692 1551.71 23.1499C1551.67 23.2894 1551.62 23.4289 1551.57 23.5684C1551.31 24.4054 1550.91 25.2717 1550.32 26.2408C1549.31 27.9221 1547.73 29.8904 1545.33 32.452C1537.16 41.2116 1541.9 50.2641 1542.57 51.4241C1542.61 51.4975 1542.63 51.5408 1542.64 51.5489C1542.78 51.7691 1542.74 52.0701 1542.55 52.2317C1542.48 52.2977 1542.4 52.3271 1542.31 52.3271C1542.19 52.3271 1542.06 52.261 1541.98 52.1362C1541.97 52.1208 1541.82 51.8719 1541.59 51.4241C1540.34 48.9132 1536.92 40.1536 1544.78 31.7259C1546.23 30.1695 1547.38 28.8479 1548.26 27.6879C1548.27 27.6879 1548.27 27.6798 1548.27 27.6798C1550.48 24.7805 1551.13 22.8636 1551.26 20.7792C1551.27 20.6544 1551.28 20.5296 1551.28 20.3967C1551.28 20.3461 1551.28 20.294 1551.28 20.2426V20.1332C1551.28 20.1038 1551.29 20.0818 1551.3 20.059C1551.3 20.0296 1551.31 20.0083 1551.31 19.979C1551.31 19.9709 1551.32 19.9709 1551.32 19.9636C1551.33 19.9415 1551.34 19.9195 1551.35 19.8975V19.8901C1551.36 19.8747 1551.38 19.8534 1551.39 19.8387C1551.43 19.7873 1551.48 19.7506 1551.54 19.7213C1551.58 19.7 1551.63 19.6919 1551.69 19.6846H1551.71C1551.71 19.6846 1551.71 19.6846 1551.72 19.6846C1551.75 19.6846 1551.77 19.6919 1551.79 19.7C1551.81 19.7073 1551.83 19.7147 1551.85 19.7213C1551.85 19.7293 1551.86 19.7294 1551.87 19.7294C1551.89 19.7367 1551.91 19.7506 1551.93 19.7661C1551.94 19.7807 1551.96 19.7954 1551.97 19.8101V19.8175C1551.98 19.8175 1551.98 19.8255 1551.98 19.8255C1551.99 19.8329 1551.99 19.8329 1551.99 19.8329C1552 19.8476 1552.02 19.8696 1552.03 19.8916C1552.04 19.9136 1552.05 19.9283 1552.06 19.9503C1552.06 19.9577 1552.07 19.9577 1552.07 19.965C1552.07 19.9724 1552.07 19.9724 1552.07 19.9804C1552.08 20.0017 1552.09 20.0245 1552.09 20.0539C1552.1 20.081 1552.1 20.103 1552.1 20.1324Z" fill="black"/>
<path d="M1552.1 20.1329V20.2504C1552.1 20.3238 1552.1 20.3965 1552.1 20.4633C1552.1 20.514 1552.1 20.5587 1552.09 20.6021C1552.07 21.4978 1552.01 22.3421 1551.88 23.2165C1551.87 23.3259 1551.85 23.4287 1551.82 23.5461C1551.79 23.7737 1551.75 24.0087 1551.71 24.2436C1551.28 26.3654 1550.43 28.7662 1548.77 32.327C1544.76 40.903 1546.86 49.8152 1547.29 51.4238C1547.33 51.578 1547.36 51.6661 1547.36 51.6735C1547.43 51.9304 1547.32 52.2094 1547.11 52.2975C1547.07 52.3195 1547.02 52.3269 1546.97 52.3269C1546.8 52.3269 1546.65 52.2094 1546.58 52.0112C1546.58 51.9958 1546.52 51.7909 1546.42 51.4238C1545.85 49.1111 1544.09 40.3303 1548.04 31.8578C1549.11 29.5745 1549.84 27.7831 1550.32 26.2413C1550.32 26.234 1550.32 26.234 1550.32 26.234C1550.49 25.6988 1550.64 25.1914 1550.75 24.6995C1551.08 23.3193 1551.22 22.0932 1551.27 20.779C1551.27 20.6542 1551.28 20.5294 1551.28 20.3965C1551.28 20.3524 1551.28 20.301 1551.28 20.2504V20.1762C1551.28 20.1542 1551.28 20.1395 1551.29 20.1175C1551.29 20.0962 1551.29 20.0808 1551.3 20.0588C1551.3 20 1551.33 19.9494 1551.35 19.8973V19.8899C1551.37 19.8745 1551.38 19.8605 1551.38 19.8451C1551.43 19.7945 1551.48 19.7497 1551.54 19.7203C1551.56 19.713 1551.58 19.7056 1551.61 19.699C1551.62 19.699 1551.63 19.6909 1551.65 19.6909C1551.66 19.6909 1551.67 19.6836 1551.69 19.6836H1551.71C1551.71 19.6836 1551.73 19.6836 1551.75 19.6909C1551.76 19.6909 1551.78 19.6909 1551.8 19.699C1551.81 19.7064 1551.83 19.7137 1551.85 19.7203C1551.86 19.7284 1551.86 19.7284 1551.87 19.7284C1551.89 19.7357 1551.91 19.7497 1551.93 19.7651C1551.94 19.7798 1551.96 19.7945 1551.98 19.8092V19.8165C1551.98 19.8165 1551.98 19.8246 1551.98 19.8246C1551.99 19.8319 1551.99 19.8319 1551.99 19.8319C1552 19.8392 1552.01 19.8539 1552.01 19.8613C1552.04 19.8906 1552.06 19.9274 1552.07 19.9641C1552.07 19.9714 1552.08 19.9714 1552.08 19.9795C1552.08 20.0008 1552.09 20.0235 1552.09 20.0529C1552.1 20.0683 1552.1 20.0896 1552.1 20.1116C1552.1 20.1182 1552.1 20.1248 1552.1 20.1329Z" fill="black"/>
<path d="M1561.85 51.4233C1561.63 51.8638 1561.48 52.1127 1561.47 52.1282C1561.39 52.2603 1561.26 52.3264 1561.14 52.3264C1561.05 52.3264 1560.97 52.297 1560.9 52.2309C1560.71 52.0768 1560.67 51.7684 1560.81 51.5555C1560.82 51.5335 1560.85 51.4894 1560.89 51.4233C1561.6 50.1892 1566.3 41.2835 1558.06 32.4513C1555.7 29.9404 1554.15 27.9955 1553.14 26.3282V26.3209C1552.52 25.315 1552.11 24.412 1551.83 23.5456C1551.83 23.5383 1551.83 23.5383 1551.83 23.5383C1551.78 23.4061 1551.75 23.2813 1551.71 23.1492C1551.68 23.0611 1551.66 22.9737 1551.64 22.8856C1551.47 22.2102 1551.37 21.5421 1551.32 20.8519C1551.32 20.8446 1551.32 20.8446 1551.32 20.8446C1551.31 20.7344 1551.3 20.6317 1551.3 20.5215C1551.29 20.4848 1551.29 20.4481 1551.29 20.4048C1551.29 20.3534 1551.29 20.3013 1551.29 20.2506V20.1765C1551.29 20.1691 1551.29 20.1691 1551.29 20.1618C1551.29 20.1464 1551.29 20.1324 1551.29 20.1177C1551.29 20.0964 1551.29 20.081 1551.3 20.059C1551.3 20.0517 1551.3 20.0377 1551.3 20.0296C1551.3 20.0083 1551.31 19.9929 1551.32 19.979C1551.33 19.9496 1551.34 19.9276 1551.35 19.8982V19.8909H1551.36C1551.36 19.8835 1551.37 19.8835 1551.37 19.8755C1551.37 19.8681 1551.38 19.8608 1551.39 19.8542V19.8461C1551.43 19.7954 1551.48 19.7506 1551.54 19.7213C1551.56 19.7139 1551.58 19.7066 1551.6 19.7C1551.61 19.6919 1551.63 19.6919 1551.65 19.6919C1551.65 19.6919 1551.67 19.6846 1551.68 19.6846C1551.68 19.6846 1551.68 19.6846 1551.69 19.6846H1551.71C1551.72 19.6846 1551.73 19.6919 1551.75 19.6919C1551.77 19.6919 1551.78 19.6919 1551.8 19.7C1551.81 19.7073 1551.83 19.7147 1551.85 19.7213C1551.86 19.7293 1551.87 19.7294 1551.87 19.7294C1551.89 19.7433 1551.91 19.758 1551.93 19.7661C1551.94 19.7734 1551.95 19.7807 1551.95 19.7954C1551.96 19.7954 1551.97 19.8028 1551.98 19.8101V19.8175C1551.98 19.8175 1551.98 19.8255 1551.98 19.8255L1551.99 19.8329C1552 19.8402 1552 19.8476 1552.01 19.8549C1552.01 19.8549 1552.01 19.8549 1552.01 19.8622C1552.04 19.8916 1552.06 19.9283 1552.07 19.965C1552.07 19.9724 1552.08 19.9724 1552.08 19.9804C1552.08 20.0017 1552.09 20.0311 1552.1 20.0539C1552.1 20.0693 1552.1 20.0906 1552.1 20.1126C1552.11 20.1199 1552.11 20.1273 1552.11 20.1346V20.208C1552.11 20.2888 1552.11 20.3696 1552.12 20.4577C1552.13 20.5531 1552.13 20.6559 1552.15 20.7587C1552.31 22.9025 1552.97 24.8415 1555.19 27.7489C1556.06 28.9008 1557.18 30.201 1558.61 31.7281C1566.47 40.1536 1563.09 48.9198 1561.85 51.4233Z" fill="black"/>
<path d="M1556.97 51.4226C1556.87 51.7897 1556.81 51.9945 1556.81 52.0099C1556.74 52.2082 1556.59 52.3256 1556.42 52.3256C1556.37 52.3256 1556.32 52.3183 1556.28 52.2963C1556.06 52.2008 1555.95 51.9219 1556.04 51.6722C1556.04 51.6649 1556.07 51.5768 1556.11 51.4226C1556.55 49.8213 1558.68 40.9017 1554.69 32.3257C1553 28.7356 1552.14 26.3355 1551.71 24.2424C1551.65 24.0148 1551.62 23.7872 1551.58 23.5669C1551.55 23.4421 1551.53 23.3247 1551.51 23.1998V23.1925C1551.38 22.2968 1551.32 21.4305 1551.3 20.5193C1551.29 20.4826 1551.29 20.4459 1551.29 20.4026C1551.29 20.3512 1551.28 20.2991 1551.28 20.2484V20.1743C1551.28 20.1522 1551.28 20.1375 1551.29 20.1155C1551.29 20.0942 1551.29 20.0788 1551.3 20.0568C1551.3 19.9981 1551.33 19.9474 1551.35 19.8953V19.8879H1551.36C1551.37 19.8725 1551.38 19.8586 1551.38 19.8431C1551.43 19.7925 1551.48 19.7477 1551.54 19.7183C1551.56 19.711 1551.58 19.7037 1551.6 19.6971C1551.61 19.689 1551.63 19.689 1551.65 19.689C1551.66 19.689 1551.66 19.6816 1551.68 19.6816C1551.68 19.6816 1551.68 19.6816 1551.69 19.6816H1551.71C1551.72 19.6816 1551.73 19.689 1551.75 19.689C1551.78 19.697 1551.81 19.7044 1551.85 19.7183C1551.86 19.7264 1551.86 19.7264 1551.87 19.7264C1551.89 19.7404 1551.91 19.7551 1551.93 19.7631C1551.94 19.7844 1551.96 19.7998 1551.98 19.8138L1551.98 19.8219L1551.99 19.8292C1551.99 19.8365 1552.01 19.8439 1552.01 19.8586C1552.04 19.8879 1552.06 19.9246 1552.07 19.9614C1552.07 19.9687 1552.08 19.9687 1552.08 19.9768C1552.08 19.9981 1552.09 20.0208 1552.09 20.0502C1552.1 20.0656 1552.1 20.0869 1552.1 20.1089C1552.11 20.1163 1552.11 20.1236 1552.11 20.131V20.2484C1552.11 20.3218 1552.11 20.3872 1552.11 20.4533C1552.16 21.9003 1552.29 23.2211 1552.69 24.7783C1552.81 25.2702 1552.96 25.7761 1553.14 26.3201C1553.63 27.8318 1554.36 29.6019 1555.41 31.8559C1559.36 40.3218 1557.56 49.1026 1556.97 51.4226Z" fill="black"/>
<path d="M1548.26 27.6865C1547.38 28.8465 1546.24 30.1681 1544.78 31.7245C1536.92 40.1522 1540.35 48.9118 1541.6 51.4227H1538.59C1538.18 50.9161 1535.44 47.414 1535.81 42.8548C1536.11 39.1325 1538.38 35.6517 1542.54 32.4954C1545.03 30.6152 1546.88 29.0514 1548.26 27.6865Z" fill="#63AEA7"/>
<path d="M1556.11 51.4234H1547.29C1546.86 49.8155 1544.76 40.9025 1548.77 32.3265C1550.43 28.7657 1551.29 26.365 1551.71 24.2432C1552.14 26.3363 1553 28.7364 1554.69 32.3265C1558.68 40.9025 1556.54 49.8221 1556.11 51.4234Z" fill="#63AEA7"/>
<path d="M1564.8 51.4235H1561.85C1563.09 48.92 1566.47 40.1531 1558.61 31.7254C1557.18 30.1983 1556.06 28.898 1555.18 27.7461C1556.56 29.097 1558.4 30.638 1560.86 32.4963C1565.01 35.6533 1567.28 39.1333 1567.58 42.8556C1567.95 47.4149 1565.21 50.9169 1564.8 51.4235Z" fill="#63AEA7"/>
<path d="M1567.83 54.594C1567.83 54.8583 1567.65 55.0786 1567.42 55.0786C1567.22 55.0786 1567.07 54.9171 1567.02 54.7042L1567.02 54.6454C1567.01 54.63 1567.01 54.6161 1567.01 54.594C1567.01 53.3834 1566.17 52.3996 1565.14 52.3996H1538.66C1537.64 52.3996 1536.8 53.3834 1536.8 54.594L1536.8 54.6895C1536.76 54.9105 1536.59 55.0786 1536.39 55.0786C1536.16 55.0786 1535.98 54.8583 1535.98 54.594C1535.98 54.528 1535.98 54.4553 1535.99 54.3892C1535.99 54.3672 1535.99 54.3517 1536 54.3378C1536.08 53.1191 1536.74 52.0985 1537.66 51.658C1537.95 51.5112 1538.26 51.4304 1538.59 51.4238H1565.15C1565.38 51.4238 1565.62 51.4606 1565.84 51.5332C1566.91 51.871 1567.73 52.9796 1567.82 54.3312C1567.83 54.3459 1567.83 54.3679 1567.83 54.3819C1567.83 54.4553 1567.83 54.5213 1567.83 54.594Z" fill="black"/>
<path d="M1568.85 85.4107C1568.63 85.4107 1568.45 85.2103 1568.44 84.9511L1567.01 54.4759C1566.99 54.2079 1567.17 53.9789 1567.39 53.9642C1567.62 53.9444 1567.82 54.1558 1567.83 54.423L1569.26 84.8975C1569.28 85.1663 1569.1 85.3953 1568.87 85.4107C1568.87 85.4107 1568.86 85.4107 1568.85 85.4107Z" fill="black"/>
<path d="M1535.55 92.603C1535.55 92.603 1535.55 92.603 1535.54 92.603C1535.32 92.5956 1535.14 92.3732 1535.14 92.103L1535.98 54.435C1535.98 54.1714 1536.17 53.9629 1536.39 53.9629C1536.39 53.9629 1536.4 53.9629 1536.4 53.9629C1536.63 53.9688 1536.81 54.1927 1536.8 54.4614L1535.97 92.1302C1535.96 92.3945 1535.78 92.603 1535.55 92.603Z" fill="black"/>
<path d="M1540.28 96.2732C1540.05 96.2732 1539.87 96.0558 1539.87 95.7871V68.8426C1539.87 68.7347 1540.13 58.8239 1552.19 55.3189C1552.26 55.2998 1552.33 55.3028 1552.39 55.3189C1552.51 55.3556 1564.11 58.9252 1564.78 70.5701C1564.8 70.8388 1564.62 71.0723 1564.4 71.0892C1564.13 71.0862 1563.97 70.9034 1563.96 70.6377C1563.36 60.2482 1553.38 56.6588 1552.29 56.2961C1540.94 59.6477 1540.69 68.7567 1540.69 68.8484V95.7871C1540.69 96.0558 1540.51 96.2732 1540.28 96.2732Z" fill="#141515"/>
<path d="M1584.49 51.8485L1583.99 41.0773L1583.97 40.6662C1583.96 40.4092 1583.78 40.2109 1583.56 40.2109H1576.75C1576.52 40.2109 1576.34 40.4165 1576.33 40.6735L1576.32 41.092L1575.93 51.8478L1575.91 52.3103C1575.9 52.5819 1576.08 52.8095 1576.31 52.8161C1576.54 52.8088 1576.73 52.6253 1576.73 52.3536L1576.75 51.8478L1577.14 41.1801H1583.17L1583.65 51.8478L1583.68 52.361C1583.69 52.6187 1583.88 52.8161 1584.1 52.8161H1584.11C1584.34 52.8015 1584.52 52.5739 1584.51 52.3022L1584.49 51.8485ZM1584.97 62.6403L1584.59 54.2265L1584.56 53.7207C1584.56 53.4563 1584.39 53.2581 1584.15 53.2581H1584.13C1583.9 53.2728 1583.73 53.5004 1583.74 53.7713L1583.76 54.2265L1584.15 62.6403L1584.16 63.0815C1584.18 63.3385 1584.36 63.544 1584.57 63.544H1584.6C1584.82 63.5286 1585 63.3018 1584.98 63.0301L1584.97 62.6403ZM1576.28 53.2581H1576.25C1576.03 53.2581 1575.86 53.471 1575.85 53.728L1575.83 54.2272L1575.56 62.641L1575.55 63.0374C1575.55 63.3091 1575.72 63.5294 1575.95 63.544C1575.96 63.544 1575.96 63.544 1575.96 63.544C1576.19 63.544 1576.37 63.3385 1576.38 63.0734L1576.39 62.6403L1576.66 54.2265L1576.67 53.764C1576.68 53.4923 1576.5 53.2655 1576.28 53.2581ZM1585.73 78.7784L1585.69 77.8092L1585.51 73.9107L1585.13 65.1666L1585.1 64.6527C1585.09 64.3957 1584.92 64.1901 1584.7 64.1901H1584.67C1584.44 64.2048 1584.27 64.4324 1584.28 64.7041L1584.3 65.1666L1584.86 77.8092L1584.9 78.7784L1584.94 79.4971L1584.94 79.5852C1584.94 79.6733 1584.97 79.7614 1585.01 79.8275C1585.08 79.9597 1585.21 80.0478 1585.35 80.0478H1585.37C1585.6 80.0331 1585.77 79.8055 1585.76 79.5346V79.4971L1585.73 78.7784ZM1575.92 64.1901C1575.69 64.1975 1575.5 64.3884 1575.49 64.6527L1575.47 65.1666L1574.99 77.8092L1574.96 78.7784L1574.92 79.4971L1574.89 80.4736L1574.81 82.4559L1574.77 83.4911C1574.77 83.7554 1574.94 83.983 1575.17 83.9969H1575.19C1575.32 83.9969 1575.44 83.9235 1575.51 83.806C1575.56 83.7326 1575.6 83.6372 1575.6 83.5344L1575.72 80.4729L1575.76 79.4964L1575.78 78.7776L1575.82 77.8085L1576.3 65.1659L1576.32 64.696C1576.32 64.4324 1576.15 64.2041 1575.92 64.1901Z" fill="black"/>
<path d="M1582.06 52.8205H1578.77C1578.55 52.8205 1578.36 52.604 1578.36 52.3338V43.5875C1578.36 42.2292 1579.27 41.125 1580.39 41.125C1581.54 41.125 1582.48 42.2299 1582.48 43.5875V52.3338C1582.48 52.6047 1582.29 52.8205 1582.06 52.8205ZM1579.19 51.8477H1581.65V43.5875C1581.65 42.7652 1581.09 42.0978 1580.39 42.0978C1579.74 42.0978 1579.19 42.7813 1579.19 43.5875L1579.19 51.8477Z" fill="black"/>
<path d="M1583.96 38.883C1583.85 38.8243 1583.74 38.7949 1583.62 38.7949H1576.68C1576.51 38.7949 1576.35 38.8537 1576.21 38.9564C1575.9 39.1694 1575.67 39.5658 1575.67 39.9916C1575.67 40.4689 1575.95 40.9094 1576.32 41.0929C1576.43 41.1517 1576.55 41.181 1576.68 41.181H1583.62C1583.75 41.181 1583.87 41.1443 1583.99 41.0775C1584.33 40.894 1584.56 40.4762 1584.56 39.9916C1584.56 39.4924 1584.31 39.0585 1583.96 38.883ZM1576.68 40.2119C1576.61 40.2119 1576.5 40.0731 1576.5 39.9916C1576.5 39.9035 1576.61 39.7714 1576.68 39.7714H1583.62C1583.66 39.7714 1583.74 39.8808 1583.74 39.9916C1583.74 40.1018 1583.66 40.2119 1583.62 40.2119H1576.68Z" fill="black"/>
<path d="M1584.69 54.2301H1575.54C1574.96 54.2301 1574.54 53.7286 1574.54 53.0392C1574.54 52.3829 1574.99 51.8477 1575.54 51.8477H1584.69C1585.25 51.8477 1585.7 52.3829 1585.7 53.0392C1585.7 53.7294 1585.28 54.2301 1584.69 54.2301ZM1575.54 52.8205C1575.41 52.8205 1575.36 52.9622 1575.36 53.0392C1575.36 53.1927 1575.41 53.258 1575.54 53.258H1584.69C1584.82 53.258 1584.88 53.1956 1584.88 53.0392C1584.88 52.9504 1584.82 52.8205 1584.69 52.8205H1575.54Z" fill="black"/>
<path d="M1578.79 35.0586C1578.74 35.0953 1578.69 35.1247 1578.64 35.1614L1578.63 35.1687H1578.62C1577 36.292 1576.91 37.8779 1577.03 38.7956C1577.04 38.9424 1577.06 39.0672 1577.08 39.17C1577.14 39.427 1577 39.6913 1576.78 39.7574C1576.75 39.7647 1576.72 39.772 1576.68 39.772C1576.5 39.772 1576.33 39.6252 1576.28 39.4049C1576.26 39.2875 1576.23 39.1407 1576.21 38.9571C1576.08 37.8485 1576.14 35.6386 1578.4 34.2003C1578.46 34.171 1578.51 34.1489 1578.57 34.1489C1578.57 34.1489 1578.57 34.1489 1578.57 34.1416C1578.58 34.1416 1578.58 34.1416 1578.59 34.1416H1578.59C1578.74 34.1416 1578.89 34.237 1578.96 34.3985C1579.07 34.6328 1578.99 34.9257 1578.79 35.0586Z" fill="black"/>
<path d="M1580.33 33.758C1580.33 33.7653 1580.32 33.78 1580.31 33.7874C1580.22 33.9048 1580.13 34.0076 1580.04 34.1031C1579.56 34.6324 1579.08 34.9334 1578.84 35.0656C1578.82 35.0803 1578.8 35.0876 1578.78 35.1023C1578.75 35.1177 1578.73 35.1317 1578.71 35.139C1578.7 35.1471 1578.69 35.1471 1578.68 35.1537C1578.66 35.161 1578.65 35.1684 1578.63 35.1684H1578.62C1578.59 35.1831 1578.56 35.183 1578.53 35.183C1578.38 35.183 1578.23 35.0795 1578.16 34.9114C1578.15 34.8747 1578.14 34.8453 1578.13 34.8079C1578.13 34.7712 1578.12 34.7345 1578.12 34.6985C1578.12 34.6537 1578.13 34.6104 1578.14 34.5663C1578.15 34.5216 1578.16 34.4856 1578.18 34.4489C1578.2 34.4041 1578.23 34.3681 1578.26 34.3387C1578.28 34.3094 1578.31 34.2873 1578.34 34.2653C1578.35 34.2653 1578.35 34.2573 1578.36 34.2573C1578.37 34.2499 1578.44 34.2066 1578.57 34.1478C1578.57 34.1478 1578.57 34.1479 1578.57 34.1405C1578.77 34.0157 1579.12 33.7808 1579.47 33.4063C1579.53 33.3395 1579.58 33.2734 1579.64 33.2007C1579.67 33.164 1579.7 33.1347 1579.72 33.098C1579.74 33.0826 1579.74 33.0759 1579.76 33.0686C1579.77 33.0466 1579.8 33.0312 1579.82 33.0099C1579.82 33.0099 1579.82 33.0099 1579.83 33.0099V33.0018C1579.84 32.9944 1579.85 32.9871 1579.87 32.9805L1579.88 32.9724C1579.92 32.9577 1579.96 32.9438 1580 32.9438C1580.04 32.9357 1580.07 32.9438 1580.1 32.9511C1580.14 32.9585 1580.17 32.9724 1580.2 32.9878C1580.21 32.9952 1580.23 33.0025 1580.25 33.0172C1580.27 33.0319 1580.29 33.0539 1580.31 33.0759C1580.34 33.1127 1580.37 33.1494 1580.38 33.1853C1580.48 33.3615 1580.46 33.6038 1580.33 33.758Z" fill="black"/>
<path d="M1581.59 35.1847C1581.52 35.1847 1581.46 35.1693 1581.4 35.1348C1581.36 35.1061 1580.25 34.4498 1579.72 33.7545C1579.57 33.5548 1579.59 33.2464 1579.76 33.0673C1579.93 32.8874 1580.19 32.9028 1580.34 33.1069C1580.69 33.568 1581.49 34.0973 1581.77 34.2625C1581.97 34.3829 1582.06 34.6744 1581.96 34.916C1581.88 35.0863 1581.74 35.1847 1581.59 35.1847Z" fill="black"/>
<path d="M1581.76 34.8667C1581.68 35.0356 1581.53 35.1244 1581.39 35.1171H1581.38C1581.32 35.109 1581.25 35.0877 1581.2 35.0503C1581.19 35.0429 1581.18 35.0356 1581.17 35.0356C1580.31 34.4695 1579.21 34.8961 1578.84 35.065C1578.82 35.0797 1578.8 35.087 1578.78 35.1017C1578.74 35.1237 1578.71 35.1384 1578.71 35.1384C1578.7 35.1464 1578.69 35.1465 1578.68 35.1531C1578.67 35.1604 1578.65 35.1604 1578.64 35.1604L1578.63 35.1677H1578.62C1578.59 35.1824 1578.56 35.1824 1578.53 35.1824C1578.38 35.1824 1578.23 35.0789 1578.16 34.9108C1578.15 34.8741 1578.14 34.8447 1578.13 34.8073C1578.13 34.7706 1578.12 34.7339 1578.12 34.6979C1578.12 34.6531 1578.13 34.6098 1578.14 34.5657C1578.15 34.5209 1578.16 34.485 1578.18 34.4483C1578.2 34.4035 1578.23 34.3675 1578.26 34.3381C1578.28 34.3087 1578.31 34.2867 1578.34 34.2647C1578.35 34.2647 1578.35 34.2566 1578.36 34.2566C1578.37 34.2493 1578.44 34.206 1578.57 34.1472C1578.57 34.1472 1578.58 34.1472 1578.59 34.1399H1578.59C1578.84 34.0298 1579.27 33.8682 1579.77 33.8095C1579.79 33.8022 1579.8 33.8022 1579.82 33.8022C1579.97 33.7868 1580.13 33.7801 1580.28 33.7868H1580.29C1580.3 33.7794 1580.3 33.7794 1580.31 33.7868C1580.74 33.8022 1581.19 33.9189 1581.61 34.2052C1581.64 34.2272 1581.67 34.2559 1581.7 34.2853C1581.7 34.2933 1581.71 34.2933 1581.71 34.2933C1581.83 34.4409 1581.86 34.6766 1581.76 34.8667Z" fill="black"/>
<path d="M1583.14 38.795H1577.03C1576.91 37.8772 1577 36.2914 1578.63 35.1681H1578.63C1578.65 35.1681 1578.66 35.1608 1578.68 35.1534C1578.69 35.1461 1578.7 35.1461 1578.71 35.1387C1578.73 35.1314 1578.75 35.1174 1578.78 35.102C1578.8 35.0873 1578.82 35.08 1578.84 35.0653C1579.21 34.8964 1580.31 34.4699 1581.17 35.036C1581.2 35.08 1581.24 35.1094 1581.29 35.1387C1581.31 35.1461 1583.38 36.3722 1583.14 38.795Z" fill="#63AEA7"/>
<path d="M1583.96 38.8832C1583.95 39.0227 1583.93 39.1696 1583.9 39.3164C1583.86 39.544 1583.69 39.6982 1583.5 39.6982C1583.47 39.6982 1583.44 39.6982 1583.41 39.6908C1583.19 39.6394 1583.05 39.3825 1583.1 39.1182C1583.11 39.0088 1583.13 38.8979 1583.14 38.7959C1583.38 36.3731 1581.31 35.147 1581.29 35.1396C1581.24 35.1103 1581.2 35.0809 1581.17 35.0368C1581.14 35.0148 1581.13 34.9781 1581.11 34.9487C1581.04 34.8085 1581.03 34.6404 1581.09 34.4862C1581.19 34.2439 1581.44 34.1485 1581.65 34.2579C1581.67 34.266 1581.69 34.2799 1581.7 34.2872C1581.7 34.2953 1581.71 34.2953 1581.71 34.2953C1581.78 34.3394 1581.86 34.3908 1581.94 34.4495V34.4568C1582.89 35.1316 1584.17 36.6726 1583.96 38.8832Z" fill="black"/>
<path d="M1579.97 32.9272C1579.79 32.9272 1579.5 32.7972 1579.5 32.3024C1579.5 32.0337 1579.74 31.7422 1579.97 31.7422C1580.31 31.7422 1580.5 32.03 1580.5 32.3024C1580.5 32.7355 1580.23 32.9272 1579.97 32.9272ZM1579.97 31.9544C1579.84 31.9544 1579.68 32.1225 1579.68 32.3127C1579.68 32.5726 1579.87 32.715 1579.97 32.715V32.2297L1580.32 32.3031C1580.32 32.1688 1580.18 31.9544 1579.97 31.9544Z" fill="black"/>
<path d="M1580.03 33.3483C1579.65 33.3483 1579.44 33.0267 1579.44 32.7228C1579.44 32.5539 1579.5 32.1641 1580.03 32.1641C1580.56 32.1641 1580.56 32.6993 1580.56 32.7228C1580.56 33.062 1580.32 33.3483 1580.03 33.3483ZM1580.03 32.3748C1579.86 32.3748 1579.74 32.5238 1579.74 32.7235C1579.74 32.9724 1579.92 33.1332 1580.05 33.1391L1579.94 32.653L1580.26 32.7235C1580.26 32.4974 1580.11 32.3748 1580.03 32.3748Z" fill="black"/>
<path d="M1580.03 33.8431C1579.65 33.8431 1579.44 33.5208 1579.44 33.2168C1579.44 32.9129 1579.65 32.5898 1580.03 32.5898C1580.42 32.5898 1580.62 32.9122 1580.62 33.2168C1580.62 33.5208 1580.42 33.8431 1580.03 33.8431ZM1580.03 32.871C1579.95 32.871 1579.8 32.9922 1579.8 33.2168C1579.8 33.6375 1580.26 33.6302 1580.26 33.2168C1580.26 32.9922 1580.11 32.871 1580.03 32.871Z" fill="black"/>
<path d="M1580.03 32.6462C1579.8 32.6462 1579.62 32.4281 1579.62 32.1587V31.7358C1579.62 31.4663 1579.8 31.249 1580.03 31.249C1580.26 31.249 1580.44 31.4663 1580.44 31.7358V32.1587C1580.44 32.4281 1580.26 32.6462 1580.03 32.6462Z" fill="black"/>
<path d="M1585.23 62.6406H1575.01C1574.42 62.6406 1573.94 63.2067 1573.94 63.9041C1573.94 64.5935 1574.42 65.1669 1575.01 65.1669H1585.23C1585.82 65.1669 1586.3 64.5943 1586.3 63.9041C1586.3 63.2067 1585.82 62.6406 1585.23 62.6406ZM1585.23 64.1905H1575.01C1574.88 64.1905 1574.76 64.0583 1574.76 63.9041C1574.76 63.75 1574.88 63.6105 1575.01 63.6105H1585.23C1585.36 63.6105 1585.48 63.75 1585.48 63.9041C1585.48 64.0583 1585.37 64.1905 1585.23 64.1905Z" fill="black"/>
<path d="M1585.83 77.8096H1574.41C1573.77 77.8096 1573.28 78.3822 1573.28 79.1392C1573.28 79.9027 1573.77 80.4747 1574.41 80.4747H1585.83C1585.84 80.4747 1585.86 80.4747 1585.87 80.4673C1586.49 80.4527 1586.96 79.8873 1586.96 79.1384C1586.96 78.3822 1586.47 77.8096 1585.83 77.8096ZM1585.83 79.4975H1574.41C1574.22 79.4975 1574.1 79.3653 1574.1 79.1384C1574.1 78.9101 1574.22 78.7787 1574.41 78.7787H1585.83C1586.02 78.7787 1586.14 78.9108 1586.14 79.1384C1586.14 79.366 1586.02 79.4975 1585.83 79.4975Z" fill="black"/>
<path d="M1584.86 77.8096H1575.82L1576.3 65.167H1584.3L1584.86 77.8096Z" fill="#63AEA7"/>
<path d="M1571.96 89.0761C1570.05 89.0761 1568.44 87.2061 1568.44 84.9925C1568.44 84.7246 1568.62 84.5072 1568.85 84.5072C1569.08 84.5072 1569.26 84.7246 1569.26 84.9925C1569.26 86.679 1570.5 88.104 1571.96 88.104C1573.32 88.104 1574.43 86.7729 1574.6 84.9411L1574.78 82.6204C1574.8 82.3509 1574.99 82.1468 1575.23 82.1791C1575.45 82.2026 1575.62 82.439 1575.6 82.707L1575.42 85.0359C1575.21 87.3808 1573.75 89.0761 1571.96 89.0761Z" fill="black"/>
<path d="M1532.21 98.5278C1530.23 98.5278 1528.63 96.6351 1528.63 94.307C1528.63 94.0383 1528.81 93.8209 1529.04 93.8209C1529.27 93.8209 1529.45 94.0383 1529.45 94.307C1529.45 96.0676 1530.71 97.5565 1532.21 97.5565C1533.64 97.5565 1534.8 96.1674 1534.97 94.2578L1535.14 91.8651C1535.17 91.5956 1535.37 91.4018 1535.59 91.4224C1535.82 91.4452 1535.99 91.6808 1535.97 91.9488L1535.79 94.3496C1535.57 96.7753 1534.07 98.5278 1532.21 98.5278Z" fill="black"/>
<path d="M1590.91 87.6685C1587.77 87.6685 1585.26 84.712 1585.06 80.7907L1584.7 74.0201C1584.69 73.7528 1584.86 73.5201 1585.09 73.5032C1585.3 73.4915 1585.51 73.6904 1585.52 73.9599L1585.88 80.7327C1586.05 84.132 1588.21 86.6958 1590.91 86.6958C1593.71 86.6958 1596 84.0336 1596 80.7621V73.5678C1596 73.2984 1596.18 73.0811 1596.41 73.0811C1596.64 73.0811 1596.82 73.2984 1596.82 73.5678V80.7621C1596.82 84.571 1594.17 87.6685 1590.91 87.6685Z" fill="black"/>
<path d="M1512.72 100.859C1509.46 100.859 1506.81 97.729 1506.81 93.8819V58.3305C1506.81 58.0611 1506.99 57.8438 1507.22 57.8438C1507.45 57.8438 1507.63 58.0611 1507.63 58.3305V93.8819C1507.63 97.1923 1509.92 99.8875 1512.72 99.8875C1515.44 99.8875 1517.69 97.1879 1517.75 93.8723L1517.87 87.8748C1517.87 87.6068 1518.01 87.3844 1518.29 87.3998C1518.52 87.4057 1518.7 87.6281 1518.69 87.899L1518.57 93.8944C1518.51 97.7334 1515.88 100.859 1512.72 100.859Z" fill="black"/>
<path d="M1496.16 66.7876C1495.93 66.7876 1495.75 66.5703 1495.75 66.3016V55.4379C1495.75 51.5908 1498.37 48.4609 1501.6 48.4609C1504.85 48.4609 1507.45 51.5218 1507.51 55.4269L1507.63 61.42C1507.64 61.688 1507.46 61.9127 1507.23 61.9171C1507.23 61.9171 1507.22 61.9171 1507.22 61.9171C1507 61.9171 1506.81 61.7071 1506.81 61.4435L1506.69 55.4496C1506.63 52.0739 1504.4 49.433 1501.6 49.433C1498.83 49.433 1496.57 52.1267 1496.57 55.4379V66.3016C1496.57 66.5703 1496.39 66.7876 1496.16 66.7876Z" fill="black"/>
<path d="M1596.35 80.1198C1596.12 80.1198 1595.94 79.9024 1595.94 79.6337V71.1671C1595.94 67.3868 1598.64 64.1924 1601.85 64.1924C1605.04 64.1924 1607.69 67.3163 1607.76 71.1568C1607.76 71.4256 1607.58 71.648 1607.36 71.6531C1607.35 71.6531 1607.35 71.6531 1607.35 71.6531C1607.12 71.6531 1606.94 71.4432 1606.93 71.1767C1606.88 67.8633 1604.6 65.1637 1601.85 65.1637C1599.09 65.1637 1596.76 67.914 1596.76 71.1671V79.6337C1596.76 79.9024 1596.58 80.1198 1596.35 80.1198Z" fill="black"/>
<path d="M1455.32 72.2997H0.983024C-0.663803 72.2997 -2 72.0824 -2 71.8144C-2 71.5457 -0.663803 71.3284 0.983024 71.3284H1455.32C1475.61 71.3284 1495.85 68.5089 1495.85 65.1985C1494.2 65.1985 1495.85 64.929 1495.85 65.1985C1497.5 65.1985 1495.85 64.1178 1496.39 65.9189C1498.55 68.0801 1478.9 72.2997 1455.32 72.2997Z" fill="black"/>
</svg>
