<svg width="1596" height="166" viewBox="0 0 1596 166" fill="none" xmlns="http://www.w3.org/2000/svg">
<path d="M1435.95 84.7506L1435.14 67.0139L1435.11 66.3039C1435.09 65.8828 1434.79 65.5579 1434.44 65.5579H1423.39C1423.03 65.5579 1422.73 65.8948 1422.72 66.3159L1422.7 67.0259L1422.06 84.7506L1422.04 85.3883C1422.02 85.8335 1422.3 86.2066 1422.68 86.2186C1423.09 86.2306 1423.36 85.9057 1423.38 85.4605L1423.41 84.7506L1424.04 67.1462H1433.79L1434.61 84.7506L1434.64 85.4726C1434.66 85.8949 1434.95 86.2186 1435.31 86.2186H1435.35C1435.72 86.1945 1436 85.8215 1435.98 85.3883L1435.95 84.7506ZM1422.64 87.0609H1422.6C1422.24 87.0609 1421.96 87.387 1421.94 87.819L1421.91 88.6493L1421.37 102.318L1421.35 102.955C1421.34 103.401 1421.62 103.774 1422 103.798H1422.03C1422.38 103.798 1422.68 103.461 1422.7 103.04L1422.73 102.316L1423.26 88.6481L1423.29 87.89C1423.3 87.446 1423.01 87.0718 1422.64 87.0609ZM1436.82 102.318L1436.12 88.6493L1436.08 87.807C1436.06 87.3618 1435.74 87.073 1435.37 87.0609C1434.99 87.0862 1434.71 87.458 1434.74 87.9032L1434.78 88.6493L1435.47 102.318L1435.51 103.16C1435.53 103.593 1435.84 103.906 1436.19 103.906H1436.23C1436.6 103.882 1436.88 103.509 1436.86 103.064L1436.82 102.318ZM1421.95 104.858H1421.93C1421.51 104.858 1421.26 105.207 1421.25 105.628L1421.22 106.458L1420.57 127.287L1420.52 128.888L1420.48 130.067L1420.43 131.654L1420.06 143.663L1419.88 149.21V149.234C1419.88 149.668 1420.17 150.029 1420.53 150.041H1420.56C1420.89 150.041 1421.17 149.752 1421.22 149.367C1421.23 149.331 1421.23 149.307 1421.23 149.271L1421.78 131.653L1421.83 130.066L1421.87 128.887L1421.93 127.286L1422.58 106.457L1422.6 105.687C1422.62 105.255 1422.32 104.881 1421.95 104.858ZM1438 131.654L1437.93 130.067L1437.89 128.888L1437.82 127.287L1436.99 106.458L1436.96 105.736C1436.95 105.303 1436.65 104.942 1436.26 104.977C1435.89 105.002 1435.6 105.374 1435.62 105.807L1435.65 106.457L1436.48 127.286L1436.54 128.887L1436.58 130.066L1436.65 131.653L1437.57 154.564V154.612C1437.6 155.045 1437.88 155.358 1438.25 155.358H1438.28C1438.63 155.346 1438.92 154.997 1438.92 154.577V154.529L1438 131.654Z" fill="black"/>
<path d="M1431.97 86.3435H1426.6C1426.23 86.3435 1425.93 85.9873 1425.93 85.5469V71.088C1425.93 68.9269 1427.46 67.1713 1429.34 67.1713C1431.16 67.1713 1432.65 68.9269 1432.65 71.088V85.5469C1432.65 85.9873 1432.35 86.3435 1431.97 86.3435ZM1427.28 84.7516H1431.3V71.0892C1431.3 69.7885 1430.44 68.7657 1429.34 68.7657C1428.22 68.7657 1427.28 69.8318 1427.28 71.0892V84.7516Z" fill="black"/>
<path d="M1435.08 63.476C1434.9 63.3918 1434.71 63.3545 1434.52 63.3545H1423.28C1422.96 63.3545 1422.68 63.4387 1422.44 63.6072C1421.94 63.9321 1421.63 64.5458 1421.63 65.3038C1421.63 66.1221 1422.06 66.7719 1422.69 67.0246C1422.87 67.1088 1423.07 67.1461 1423.28 67.1461H1434.52C1434.73 67.1461 1434.93 67.098 1435.13 67.0138C1435.73 66.7382 1436.17 66.0631 1436.17 65.3051C1436.17 64.4615 1435.72 63.7408 1435.08 63.476ZM1423.28 65.5577C1423.22 65.5577 1422.99 65.5337 1422.99 65.3051C1422.99 65.0644 1423.08 64.9441 1423.28 64.9441H1434.52C1434.63 64.9441 1434.82 65.0524 1434.82 65.3051C1434.82 65.4013 1434.67 65.5577 1434.52 65.5577H1423.28Z" fill="black"/>
<path d="M1436.38 84.7505H1421.33C1420.43 84.7505 1419.69 85.6278 1419.69 86.6999C1419.69 87.7227 1420.47 88.6492 1421.33 88.6492H1436.38C1437.25 88.6492 1438.03 87.7227 1438.03 86.6999C1438.03 85.6278 1437.29 84.7505 1436.38 84.7505ZM1436.38 87.0609H1421.33C1421.22 87.0609 1421.04 86.8311 1421.04 86.6999C1421.04 86.4592 1421.21 86.3389 1421.33 86.3389H1436.38C1436.51 86.3389 1436.69 86.4592 1436.69 86.6999C1436.69 86.8311 1436.49 87.0609 1436.38 87.0609Z" fill="black"/>
<path d="M1426.73 57.1345C1426.7 57.1827 1426.66 57.208 1426.62 57.2308C1426.52 57.291 1426.43 57.3511 1426.34 57.4233C1423.57 59.3366 1423.6 62.2005 1423.76 63.3556C1423.79 63.5963 1423.82 63.7647 1423.84 63.8369C1423.94 64.2581 1423.73 64.6913 1423.36 64.8116C1423.31 64.8249 1423.25 64.8357 1423.19 64.8357C1422.89 64.8357 1422.62 64.6071 1422.54 64.2461C1422.52 64.1498 1422.47 63.9332 1422.43 63.6083C1422.23 62.1042 1422.19 58.4113 1425.69 56.0396C1425.79 55.9565 1425.89 55.8951 1426 55.8229C1426.1 55.7628 1426.2 55.7267 1426.32 55.7267C1426.33 55.7267 1426.33 55.7267 1426.33 55.7267C1426.56 55.7267 1426.79 55.8831 1426.91 56.1478C1427.06 56.4956 1426.98 56.9179 1426.73 57.1345Z" fill="black"/>
<path d="M1426.22 57.3213C1425.95 57.3213 1425.69 57.1192 1425.59 56.7967C1425.47 56.3804 1425.65 55.9255 1426 55.7739C1426.01 55.7703 1427.23 55.236 1428.17 54.0195C1428.42 53.6946 1428.85 53.6765 1429.12 53.9713C1429.4 54.2697 1429.41 54.7727 1429.16 55.1C1427.99 56.6162 1426.51 57.2515 1426.45 57.2756C1426.37 57.3081 1426.3 57.3213 1426.22 57.3213Z" fill="black"/>
<path d="M1431.3 57.4365C1431.21 57.4365 1431.11 57.4124 1431.01 57.3631C1430.81 57.2464 1429.01 56.2211 1428.16 55.0864C1427.91 54.7591 1427.94 54.255 1428.22 53.9613C1428.49 53.6677 1428.92 53.6942 1429.17 54.0299C1429.73 54.782 1431.11 55.6484 1431.59 55.9179C1431.93 56.1044 1432.07 56.5821 1431.91 56.9804C1431.8 57.2692 1431.55 57.4365 1431.3 57.4365Z" fill="black"/>
<path d="M1431.5 56.9184C1431.38 57.1711 1431.18 57.3155 1430.96 57.3275H1430.95C1430.9 57.3275 1430.86 57.3275 1430.81 57.3155C1430.73 57.3035 1430.65 57.2673 1430.58 57.2192C1428.85 56.052 1426.54 57.3395 1426.52 57.3636C1426.45 57.3877 1426.41 57.4117 1426.34 57.4238C1426.3 57.4358 1426.26 57.4358 1426.22 57.4358C1425.97 57.4358 1425.73 57.2794 1425.61 56.9786C1425.55 56.8342 1425.53 56.6897 1425.55 56.5454C1425.54 56.5333 1425.55 56.5333 1425.55 56.5213C1425.58 56.2686 1425.71 56.052 1425.93 55.9196C1425.95 55.9076 1426.09 55.8354 1426.32 55.7271C1426.33 55.7271 1426.33 55.7271 1426.33 55.7271C1426.75 55.5346 1427.43 55.2819 1428.23 55.1856C1428.27 55.1736 1428.31 55.1736 1428.37 55.1736C1428.59 55.1495 1428.83 55.1375 1429.08 55.1495C1429.1 55.1363 1429.11 55.1363 1429.12 55.1495C1429.77 55.1736 1430.45 55.3409 1431.1 55.7379C1431.15 55.774 1431.19 55.7993 1431.24 55.8342C1431.57 56.052 1431.68 56.5333 1431.5 56.9184Z" fill="black"/>
<path d="M1433.75 63.3555H1423.77C1423.61 62.2004 1423.58 59.3365 1426.35 57.4233C1426.41 57.4112 1426.46 57.3871 1426.52 57.3631C1426.54 57.339 1428.86 56.0515 1430.59 57.2187C1430.66 57.2668 1430.74 57.3029 1430.82 57.315C1431.38 57.676 1434.1 59.6734 1433.75 63.3555Z" fill="#63AEA7"/>
<path d="M1435.09 63.4759C1435.07 63.7154 1435.04 63.9561 1435 64.1979C1434.92 64.583 1434.65 64.8357 1434.34 64.8357C1434.29 64.8357 1434.24 64.8357 1434.2 64.8236C1433.84 64.7394 1433.6 64.305 1433.67 63.8851C1433.7 63.7046 1433.73 63.5241 1433.74 63.3556C1434.1 59.6735 1431.38 57.676 1430.82 57.315C1430.76 57.2669 1430.72 57.2428 1430.72 57.2428C1430.64 57.1947 1430.57 57.1345 1430.52 57.0635C1430.33 56.8349 1430.28 56.4739 1430.4 56.1731C1430.53 55.847 1430.82 55.6797 1431.1 55.7399C1431.17 55.7531 1431.23 55.776 1431.31 55.8121C1431.47 55.9083 1431.64 56.0167 1431.82 56.161C1433.36 57.2669 1435.42 59.8179 1435.09 63.4759Z" fill="black"/>
<path d="M1428.66 53.6198C1427.8 53.6198 1427.79 52.7474 1427.79 52.7065C1427.79 52.6692 1427.8 51.7968 1428.66 51.7968C1429.52 51.7968 1429.53 52.6692 1429.53 52.7065C1429.53 52.7462 1429.52 53.6198 1428.66 53.6198ZM1428.63 52.0339C1428.43 52.082 1428.18 52.3347 1428.18 52.7065C1428.18 53.1156 1428.48 53.3804 1428.69 53.3888C1428.84 53.3804 1429.14 53.1144 1429.14 52.7065C1429.14 52.3347 1428.89 52.082 1428.69 52.0339V52.0254C1428.67 52.0278 1428.65 52.0278 1428.63 52.0254V52.0339Z" fill="black"/>
<path d="M1428.67 54.4297C1428.27 54.4297 1427.7 54.0663 1427.7 53.4021C1427.7 52.7403 1428.28 52.3732 1428.67 52.3732C1429.22 52.3732 1429.64 52.8149 1429.64 53.4021C1429.64 53.9111 1429.27 54.4297 1428.67 54.4297ZM1428.67 52.8365C1428.51 52.8365 1428.29 53.0555 1428.29 53.4021C1428.29 53.7486 1428.51 53.9676 1428.67 53.9676C1429.04 53.9676 1429.05 53.4081 1429.05 53.4021C1429.05 53.3985 1429.04 52.8365 1428.67 52.8365Z" fill="black"/>
<path d="M1428.67 55.2368C1428.27 55.2368 1427.7 54.8722 1427.7 54.2104C1427.7 53.5486 1428.28 53.184 1428.67 53.184C1429.19 53.184 1429.73 53.5666 1429.73 54.2104C1429.73 54.8541 1429.19 55.2368 1428.67 55.2368ZM1428.67 53.6436C1428.61 53.6436 1428.39 53.8494 1428.39 54.2104C1428.39 54.5726 1428.61 54.7784 1428.67 54.7784C1429.04 54.7784 1429.05 54.2164 1429.05 54.2104C1429.05 54.2068 1429.04 53.6436 1428.67 53.6436Z" fill="black"/>
<path d="M1428.66 53.2757C1428.29 53.2757 1427.99 52.9195 1427.99 52.4791V51.6669C1427.99 51.2265 1428.29 50.8703 1428.66 50.8703C1429.03 50.8703 1429.34 51.2265 1429.34 51.6669V52.4791C1429.34 52.9195 1429.03 53.2757 1428.66 53.2757Z" fill="black"/>
<path d="M1437.16 102.318H1420.55C1419.59 102.318 1418.8 103.245 1418.8 104.388C1418.8 105.53 1419.59 106.458 1420.55 106.458H1437.16C1438.12 106.458 1438.91 105.53 1438.91 104.388C1438.91 103.245 1438.12 102.318 1437.16 102.318ZM1437.16 104.858H1420.55C1420.33 104.858 1420.15 104.641 1420.15 104.388C1420.15 104.136 1420.33 103.907 1420.55 103.907H1437.16C1437.37 103.907 1437.56 104.136 1437.56 104.388C1437.56 104.641 1437.37 104.858 1437.16 104.858Z" fill="black"/>
<path d="M1435.46 102.318H1422.72L1423.25 88.6492H1434.77L1435.46 102.318Z" fill="#63AEA7"/>
<path d="M1438.24 131.66H1419.48C1418.48 131.66 1417.63 130.659 1417.63 129.474C1417.63 128.29 1418.48 127.289 1419.48 127.289H1438.24C1439.24 127.289 1440.08 128.29 1440.08 129.474C1440.08 130.659 1439.24 131.66 1438.24 131.66ZM1419.48 128.883C1419.27 128.883 1418.98 129.107 1418.98 129.474C1418.98 129.841 1419.27 130.068 1419.48 130.068H1438.24C1438.44 130.068 1438.73 129.853 1438.73 129.474C1438.73 129.105 1438.44 128.883 1438.24 128.883H1419.48Z" fill="black"/>
<path d="M1475.94 32.9963V33.1167C1475.92 33.2611 1475.92 33.3934 1475.91 33.539C1475.84 34.8025 1475.66 36.0058 1475.26 37.232C1475.23 37.3282 1475.2 37.4125 1475.17 37.5087C1475.11 37.6772 1475.04 37.8577 1474.97 38.0262C1474.66 38.8203 1474.25 39.6386 1473.72 40.4809C1472.78 41.973 1471.48 43.5613 1469.67 45.3663C1469.67 45.3663 1469.67 45.3795 1469.65 45.3795C1467.4 47.6165 1464.37 50.1795 1460.3 53.2612C1453.5 58.4354 1449.8 64.1391 1449.3 70.2398C1448.69 77.7123 1453.17 83.4509 1453.85 84.2824C1453.91 84.3546 1453.95 84.3906 1453.95 84.3906C1454.21 84.6915 1454.23 85.1969 1453.97 85.5218C1453.83 85.6782 1453.66 85.7624 1453.48 85.7624C1453.32 85.7624 1453.14 85.6902 1453.02 85.5458C1452.97 85.4857 1452.71 85.1848 1452.32 84.6674C1450.8 82.6098 1447.39 77.1468 1447.96 70.1074C1448.49 63.4893 1452.4 57.3765 1459.57 51.9255C1471.79 42.6721 1474.29 38.4846 1474.58 33.4307C1474.59 33.3225 1474.59 33.2262 1474.6 33.1179V32.9975C1474.6 32.9494 1474.61 32.9133 1474.62 32.876C1474.62 32.8279 1474.64 32.793 1474.65 32.7449C1474.65 32.7449 1474.65 32.7316 1474.66 32.7196C1474.67 32.6835 1474.69 32.6474 1474.71 32.6113C1474.71 32.5993 1474.72 32.5993 1474.72 32.5993C1474.73 32.574 1474.75 32.5391 1474.77 32.515C1474.84 32.4308 1474.91 32.3706 1475.01 32.3225C1475.05 32.3104 1475.08 32.2984 1475.11 32.2876C1475.15 32.2744 1475.18 32.2623 1475.22 32.2623H1475.29C1475.3 32.2623 1475.3 32.2623 1475.32 32.2623C1475.36 32.2623 1475.4 32.2744 1475.43 32.2876C1475.46 32.2996 1475.49 32.3116 1475.52 32.3225C1475.53 32.3357 1475.54 32.3357 1475.55 32.3357C1475.58 32.3586 1475.6 32.3827 1475.63 32.3959C1475.64 32.3827 1475.64 32.3959 1475.65 32.3959C1475.67 32.42 1475.7 32.444 1475.73 32.4681V32.4801C1475.74 32.4801 1475.74 32.4933 1475.74 32.4933C1475.75 32.5054 1475.75 32.5054 1475.76 32.5054C1475.78 32.5295 1475.8 32.5655 1475.82 32.6016C1475.84 32.6377 1475.86 32.6618 1475.87 32.6979C1475.87 32.71 1475.88 32.7099 1475.88 32.722C1475.88 32.734 1475.89 32.734 1475.89 32.7472C1475.9 32.7821 1475.92 32.8194 1475.92 32.8676C1475.92 32.9121 1475.94 32.9482 1475.94 32.9963Z" fill="black"/>
<path d="M1498.37 84.4618C1497.9 85.1116 1497.57 85.4858 1497.52 85.5448C1497.38 85.6891 1497.21 85.7613 1497.05 85.7613C1496.87 85.7613 1496.69 85.6771 1496.56 85.5207C1496.31 85.1958 1496.32 84.6904 1496.58 84.3896C1496.58 84.3896 1496.61 84.3535 1496.67 84.2813C1497.36 83.451 1501.84 77.7112 1501.23 70.2387C1500.73 64.138 1497.03 58.4331 1490.24 53.2601C1486.22 50.2157 1483.21 47.6888 1480.96 45.4747C1479.14 43.6818 1477.83 42.0922 1476.89 40.6134V40.6001C1476.32 39.7229 1475.89 38.8915 1475.57 38.0624V38.0503C1475.5 37.8927 1475.43 37.7242 1475.38 37.569C1475.34 37.4607 1475.3 37.3404 1475.26 37.2321C1474.94 36.2093 1474.75 35.2105 1474.65 34.1757C1474.65 34.1637 1474.65 34.1636 1474.65 34.1636C1474.63 33.935 1474.62 33.6944 1474.61 33.4537C1474.6 33.3695 1474.6 33.2732 1474.59 33.189V33.0675C1474.59 33.0554 1474.59 33.0554 1474.59 33.0434C1474.59 33.0181 1474.59 32.9952 1474.6 32.9712C1474.6 32.9363 1474.6 32.911 1474.61 32.8749C1474.61 32.8629 1474.61 32.84 1474.62 32.8268C1474.62 32.7919 1474.63 32.7666 1474.64 32.7438C1474.66 32.6956 1474.68 32.6595 1474.7 32.6114V32.5994H1474.71C1474.71 32.5873 1474.72 32.5873 1474.72 32.5741C1474.73 32.5621 1474.75 32.55 1474.75 32.5392V32.526C1474.83 32.4429 1474.91 32.3695 1475.01 32.3214C1475.04 32.3093 1475.07 32.2973 1475.1 32.2865C1475.12 32.2733 1475.15 32.2733 1475.18 32.2733C1475.19 32.2733 1475.21 32.2612 1475.23 32.2612C1475.24 32.2612 1475.24 32.2612 1475.25 32.2612H1475.28C1475.3 32.2612 1475.32 32.2733 1475.34 32.2733C1475.38 32.2733 1475.41 32.2733 1475.43 32.2865C1475.46 32.2985 1475.49 32.3106 1475.52 32.3214C1475.53 32.3346 1475.54 32.3346 1475.55 32.3346C1475.58 32.3575 1475.61 32.3816 1475.64 32.3948C1475.66 32.4068 1475.67 32.4189 1475.68 32.4429C1475.7 32.4429 1475.71 32.455 1475.72 32.467V32.479C1475.73 32.479 1475.73 32.4923 1475.73 32.4923L1475.74 32.5043C1475.75 32.5163 1475.76 32.5284 1475.77 32.5404C1475.77 32.5404 1475.78 32.5404 1475.78 32.5524C1475.82 32.6006 1475.85 32.6607 1475.87 32.7209C1475.87 32.7329 1475.88 32.7329 1475.88 32.7462C1475.89 32.7811 1475.9 32.8292 1475.91 32.8665C1475.92 32.8918 1475.92 32.9267 1475.92 32.9628C1475.94 32.9748 1475.94 32.9868 1475.94 32.9989V33.1192C1475.95 33.2516 1475.95 33.3839 1475.96 33.5283C1475.97 33.6848 1475.98 33.8532 1476 34.0217C1476.46 38.8229 1479.23 43.0464 1490.96 51.9268C1498.14 57.3657 1502.04 63.4906 1502.57 70.1088C1503.13 76.9171 1499.95 82.2585 1498.37 84.4618Z" fill="black"/>
<path d="M1475.26 27.4911C1474.43 27.4911 1473.81 26.9003 1473.81 26.1133C1473.81 25.33 1474.43 24.7416 1475.26 24.7416C1476.04 24.7416 1476.62 25.3288 1476.62 26.1133C1476.62 26.9003 1476.04 27.4911 1475.26 27.4911Z" fill="black"/>
<path d="M1475.36 30.3827C1474.37 30.3827 1473.61 29.6932 1473.61 28.775C1473.61 27.8593 1474.36 27.1699 1475.36 27.1699C1476.27 27.1699 1477.01 27.8906 1477.01 28.775C1477.01 29.6631 1476.27 30.3827 1475.36 30.3827Z" fill="black"/>
<path d="M1475.36 33.6195C1474.47 33.6195 1473.52 32.8795 1473.52 31.7797C1473.52 30.7689 1474.49 30.0662 1475.36 30.0662C1476.41 30.0662 1477.3 30.8471 1477.3 31.7797C1477.3 32.8121 1476.45 33.6195 1475.36 33.6195ZM1474.87 31.8892C1474.94 31.8892 1475.12 32.0252 1475.36 32.0252C1475.7 32.0252 1475.92 31.8447 1475.95 31.7652C1475.92 31.8326 1475.69 31.657 1475.36 31.657C1475.11 31.657 1474.88 31.8194 1474.84 31.9012C1474.84 31.8928 1474.85 31.8892 1474.87 31.8892Z" fill="black"/>
<path d="M1475.27 25.9907C1475.26 25.9907 1475.24 25.9907 1475.24 25.9907C1474.87 25.9739 1474.58 25.6033 1474.59 25.1616L1474.69 22.2689C1474.7 21.8309 1475.02 21.4904 1475.39 21.506C1475.76 21.5217 1476.05 21.8935 1476.03 22.3363L1475.94 25.2278C1475.92 25.6526 1475.62 25.9907 1475.27 25.9907Z" fill="black"/>
<path d="M1478.39 12.0012C1478.25 12.0012 1478.11 11.9507 1477.99 11.8496C1477.76 11.6438 1477.66 11.2816 1477.75 10.9531L1478.38 8.7222L1476.81 7.33602C1476.58 7.12906 1476.49 6.77045 1476.58 6.44555C1476.67 6.11825 1476.93 5.90045 1477.22 5.90045H1479.18L1479.8 3.67195C1479.89 3.34224 1480.18 3.10639 1480.45 3.12685C1480.75 3.13286 1481.01 3.36511 1481.09 3.69842L1481.63 5.89928H1483.67C1483.96 5.89928 1484.22 6.12429 1484.31 6.45279C1484.4 6.78249 1484.3 7.14467 1484.06 7.34803L1482.41 8.73304L1483.04 10.952C1483.13 11.2817 1483.03 11.6487 1482.8 11.852C1482.56 12.0578 1482.24 12.0578 1482 11.8436L1480.43 10.4598L1478.79 11.8556C1478.67 11.9531 1478.53 12.0012 1478.39 12.0012ZM1479.24 7.49125L1479.57 7.78844C1479.81 7.9942 1479.9 8.35281 1479.81 8.67891L1479.68 9.13015L1480.05 8.8197C1480.29 8.61995 1480.61 8.62354 1480.84 8.83171L1481.07 9.03507L1480.97 8.68012C1480.88 8.3468 1480.98 7.98097 1481.22 7.77401L1481.55 7.49125H1481.13C1480.83 7.49125 1480.56 7.26021 1480.48 6.91967L1480.4 6.59237L1480.3 6.94853C1480.2 7.27583 1479.95 7.49125 1479.66 7.49125H1479.24Z" fill="black"/>
<path d="M1485.82 14.9587C1485.58 14.7301 1485.23 14.7542 1484.99 14.9948C1483.85 16.1368 1482.34 16.7637 1480.73 16.7637C1476.91 16.7637 1473.79 13.0828 1473.79 8.54513C1473.79 5.64516 1475.06 3.00989 1477.19 1.4817C1477.44 1.28917 1477.56 0.916169 1477.48 0.56721C1477.39 0.218252 1477.09 -0.0224102 1476.8 0.00165586C1471.62 0.25435 1467.56 5.27213 1467.56 11.433C1467.56 16.2102 1469.99 20.3483 1473.76 22.0101C1473.95 22.0931 1474.17 22.0582 1474.33 21.9487C1474.38 22.1665 1474.51 22.3458 1474.69 22.4421C1474.72 22.4661 1474.76 22.4782 1474.79 22.4902C1475.16 22.6226 1475.58 22.7188 1476.02 22.779C1476.4 22.8392 1476.81 22.8632 1477.22 22.8632C1481.01 22.8632 1484.55 20.0716 1486.05 15.9081C1486.17 15.5724 1486.08 15.1741 1485.82 14.9587ZM1477.22 21.2761C1476.46 21.2761 1475.75 21.1557 1475.16 20.95C1475.1 20.9379 1475.04 20.9259 1474.97 20.9259C1474.86 20.9259 1474.75 20.962 1474.64 21.0222C1474.58 20.7935 1474.44 20.601 1474.23 20.5048C1471 19.0837 1468.9 15.5219 1468.9 11.4318C1468.9 7.13604 1471.21 3.47798 1474.46 2.13028C1473.17 3.8871 1472.44 6.14934 1472.44 8.54391C1472.44 13.9588 1476.16 18.3629 1480.73 18.3629C1481.69 18.3629 1482.61 18.1703 1483.48 17.8093C1481.92 19.9524 1479.62 21.2761 1477.22 21.2761Z" fill="black"/>
<path d="M1483.48 17.8105C1481.92 19.9524 1479.63 21.276 1477.22 21.276C1476.47 21.276 1475.75 21.1557 1475.16 20.9499C1475.1 20.9379 1475.04 20.9259 1474.97 20.9259C1474.86 20.9259 1474.75 20.962 1474.65 21.0221C1474.59 20.7935 1474.44 20.601 1474.23 20.5047C1471 19.0836 1468.91 15.5218 1468.91 11.4318C1468.91 7.13601 1471.21 3.47795 1474.46 2.13025C1473.17 3.88707 1472.44 6.14931 1472.44 8.54388C1472.44 13.9587 1476.16 18.3628 1480.73 18.3628C1481.69 18.364 1482.61 18.1715 1483.48 17.8105Z" fill="#63AEA7"/>
<path d="M1475.93 32.9963V33.1166C1475.93 33.261 1475.92 33.4054 1475.92 33.539C1475.92 33.622 1475.92 33.6954 1475.91 33.7664C1475.85 35.066 1475.7 36.2933 1475.38 37.5688C1475.35 37.6892 1475.32 37.8095 1475.28 37.9419C1475.22 38.1705 1475.14 38.3991 1475.06 38.6278C1474.63 39.9995 1473.98 41.4194 1473.01 43.0078C1471.35 45.7633 1468.78 48.9894 1464.86 53.1877C1451.51 67.5443 1459.25 82.3811 1460.35 84.2823C1460.41 84.4026 1460.45 84.4736 1460.46 84.4869C1460.68 84.8479 1460.62 85.3412 1460.32 85.6059C1460.2 85.7142 1460.06 85.7624 1459.92 85.7624C1459.72 85.7624 1459.51 85.6541 1459.38 85.4495C1459.36 85.4242 1459.12 85.0163 1458.75 84.2823C1456.71 80.167 1451.11 65.8104 1463.95 51.9977C1466.33 49.4467 1468.2 47.2807 1469.65 45.3795C1469.66 45.3795 1469.66 45.3662 1469.66 45.3662C1473.27 40.6144 1474.33 37.4726 1474.55 34.0564C1474.56 33.8518 1474.57 33.6473 1474.57 33.4295C1474.57 33.3464 1474.59 33.261 1474.59 33.1768V32.9975C1474.59 32.9493 1474.6 32.9133 1474.61 32.876C1474.61 32.8278 1474.63 32.7929 1474.64 32.7448C1474.64 32.7316 1474.65 32.7316 1474.65 32.7195C1474.66 32.6834 1474.68 32.6473 1474.7 32.6112V32.5992C1474.72 32.5739 1474.74 32.539 1474.76 32.515C1474.83 32.4307 1474.9 32.3706 1475 32.3224C1475.07 32.2875 1475.15 32.2743 1475.25 32.2623H1475.28C1475.29 32.2623 1475.29 32.2623 1475.31 32.2623C1475.35 32.2623 1475.39 32.2743 1475.42 32.2875C1475.45 32.2996 1475.48 32.3116 1475.51 32.3224C1475.52 32.3357 1475.53 32.3357 1475.54 32.3357C1475.57 32.3477 1475.61 32.3706 1475.64 32.3958C1475.66 32.4199 1475.69 32.444 1475.71 32.468V32.4801C1475.72 32.4801 1475.72 32.4933 1475.72 32.4933C1475.73 32.5053 1475.73 32.5053 1475.74 32.5053C1475.76 32.5294 1475.78 32.5655 1475.8 32.6016C1475.82 32.6377 1475.85 32.6618 1475.86 32.6979C1475.86 32.7099 1475.87 32.7099 1475.87 32.7219C1475.87 32.7339 1475.88 32.7339 1475.88 32.7472C1475.89 32.7821 1475.91 32.8194 1475.91 32.8675C1475.92 32.912 1475.93 32.9481 1475.93 32.9963Z" fill="black"/>
<path d="M1475.93 32.9965V33.189C1475.93 33.3094 1475.92 33.4285 1475.92 33.538C1475.92 33.621 1475.92 33.6944 1475.91 33.7654C1475.87 35.2334 1475.78 36.6172 1475.57 38.0504C1475.54 38.2297 1475.51 38.3981 1475.47 38.5907C1475.42 38.9637 1475.35 39.3487 1475.28 39.7338C1474.59 43.2113 1473.2 47.1462 1470.48 52.9822C1463.93 67.038 1467.36 81.6449 1468.06 84.2813C1468.13 84.534 1468.18 84.6784 1468.18 84.6905C1468.3 85.1116 1468.12 85.5688 1467.77 85.7132C1467.7 85.7493 1467.62 85.7614 1467.54 85.7614C1467.26 85.7614 1467.01 85.5689 1466.91 85.244C1466.9 85.2187 1466.8 84.883 1466.64 84.2813C1465.71 80.4909 1462.83 66.0994 1469.3 52.2133C1471.04 48.471 1472.22 45.5349 1473.02 43.008C1473.02 42.996 1473.02 42.9959 1473.02 42.9959C1473.3 42.1187 1473.53 41.2873 1473.72 40.481C1474.26 38.2188 1474.48 36.2093 1474.56 34.0554C1474.57 33.8508 1474.58 33.6463 1474.58 33.4285C1474.58 33.3563 1474.59 33.2721 1474.59 33.189V33.0675C1474.59 33.0314 1474.59 33.0073 1474.6 32.9712C1474.6 32.9363 1474.6 32.9111 1474.61 32.875C1474.62 32.7787 1474.66 32.6957 1474.7 32.6103V32.5982C1474.72 32.5729 1474.75 32.5501 1474.76 32.5248C1474.83 32.4418 1474.91 32.3684 1475.01 32.3203C1475.04 32.3082 1475.08 32.2962 1475.12 32.2853C1475.14 32.2853 1475.16 32.2721 1475.18 32.2721C1475.2 32.2721 1475.22 32.2601 1475.25 32.2601H1475.28C1475.29 32.2601 1475.31 32.2601 1475.34 32.2721C1475.38 32.2721 1475.41 32.2721 1475.43 32.2853C1475.46 32.2974 1475.49 32.3094 1475.52 32.3203C1475.53 32.3335 1475.54 32.3335 1475.55 32.3335C1475.58 32.3455 1475.61 32.3684 1475.64 32.3937C1475.67 32.4177 1475.7 32.4418 1475.72 32.4659V32.4779C1475.73 32.4779 1475.73 32.4911 1475.73 32.4911C1475.74 32.5032 1475.74 32.5031 1475.74 32.5031C1475.76 32.5152 1475.77 32.5392 1475.78 32.5513C1475.82 32.5994 1475.85 32.6596 1475.87 32.7198C1475.87 32.7318 1475.88 32.7318 1475.88 32.745C1475.89 32.7799 1475.91 32.8172 1475.91 32.8654C1475.92 32.8906 1475.92 32.9255 1475.92 32.9616C1475.93 32.9724 1475.93 32.9833 1475.93 32.9965Z" fill="black"/>
<path d="M1491.85 84.2811C1491.5 85.0031 1491.26 85.4111 1491.24 85.4363C1491.1 85.6529 1490.9 85.7612 1490.7 85.7612C1490.55 85.7612 1490.42 85.7131 1490.3 85.6048C1490 85.3521 1489.93 84.8467 1490.16 84.4978C1490.18 84.4617 1490.22 84.3894 1490.28 84.2811C1491.45 82.2584 1499.13 67.6623 1485.66 53.1866C1481.8 49.0713 1479.27 45.8837 1477.62 43.151V43.139C1476.61 41.4905 1475.93 40.0104 1475.47 38.5905C1475.47 38.5785 1475.47 38.5785 1475.47 38.5785C1475.4 38.3619 1475.34 38.1573 1475.28 37.9407C1475.24 37.7963 1475.2 37.6531 1475.17 37.5087C1474.89 36.4017 1474.73 35.3067 1474.65 34.1756C1474.65 34.1635 1474.65 34.1635 1474.65 34.1635C1474.63 33.983 1474.62 33.8146 1474.61 33.6341C1474.6 33.5739 1474.6 33.5138 1474.6 33.4428C1474.6 33.3585 1474.59 33.2731 1474.59 33.1901V33.0685C1474.59 33.0565 1474.59 33.0565 1474.59 33.0445C1474.59 33.0192 1474.59 32.9963 1474.6 32.9723C1474.6 32.9374 1474.6 32.9121 1474.61 32.876C1474.61 32.864 1474.61 32.8411 1474.62 32.8279C1474.62 32.793 1474.63 32.7677 1474.64 32.7449C1474.66 32.6967 1474.68 32.6606 1474.7 32.6125V32.6005H1474.71C1474.71 32.5884 1474.72 32.5884 1474.72 32.5752C1474.73 32.5632 1474.75 32.5511 1474.75 32.5403V32.5271C1474.83 32.444 1474.91 32.3706 1475.01 32.3225C1475.04 32.3104 1475.07 32.2984 1475.1 32.2876C1475.12 32.2744 1475.15 32.2744 1475.18 32.2744C1475.19 32.2744 1475.21 32.2623 1475.23 32.2623C1475.24 32.2623 1475.24 32.2623 1475.25 32.2623H1475.28C1475.3 32.2623 1475.32 32.2744 1475.34 32.2744C1475.38 32.2744 1475.41 32.2744 1475.43 32.2876C1475.46 32.2996 1475.49 32.3116 1475.52 32.3225C1475.53 32.3357 1475.54 32.3357 1475.55 32.3357C1475.58 32.3586 1475.61 32.3827 1475.64 32.3959C1475.66 32.4079 1475.67 32.42 1475.68 32.444C1475.7 32.444 1475.71 32.456 1475.72 32.4681V32.4801C1475.73 32.4801 1475.73 32.4933 1475.73 32.4933L1475.74 32.5054C1475.75 32.5174 1475.76 32.5295 1475.77 32.5415C1475.77 32.5415 1475.78 32.5415 1475.78 32.5535C1475.82 32.6017 1475.85 32.6618 1475.87 32.722C1475.87 32.734 1475.88 32.734 1475.88 32.7472C1475.89 32.7821 1475.9 32.8303 1475.91 32.8676C1475.92 32.8928 1475.92 32.9278 1475.92 32.9639C1475.94 32.9759 1475.94 32.9879 1475.94 33V33.1203C1475.95 33.2526 1475.95 33.385 1475.96 33.5294C1475.97 33.6858 1475.98 33.8543 1476 34.0227C1476.26 37.5364 1477.34 40.7143 1480.97 45.4794C1482.4 47.3674 1484.23 49.4984 1486.57 52.0013C1499.41 65.8104 1493.88 80.1779 1491.85 84.2811Z" fill="black"/>
<path d="M1483.88 84.281C1483.73 84.8827 1483.62 85.2184 1483.61 85.2437C1483.51 85.5686 1483.26 85.7611 1482.98 85.7611C1482.9 85.7611 1482.82 85.7491 1482.75 85.713C1482.4 85.5565 1482.22 85.0993 1482.35 84.6902C1482.35 84.6781 1482.41 84.5337 1482.48 84.281C1483.19 81.6566 1486.68 67.0377 1480.15 52.9819C1477.4 47.0977 1475.99 43.1641 1475.28 39.7335C1475.19 39.3605 1475.13 38.9875 1475.07 38.6265C1475.03 38.4219 1475 38.2294 1474.97 38.0248V38.0128C1474.74 36.5448 1474.64 35.1249 1474.61 33.6316C1474.6 33.5714 1474.6 33.5112 1474.6 33.4402C1474.6 33.356 1474.59 33.2706 1474.59 33.1875V33.066C1474.59 33.0299 1474.59 33.0058 1474.6 32.9697C1474.6 32.9348 1474.6 32.9096 1474.61 32.8735C1474.62 32.7772 1474.66 32.6942 1474.7 32.6087V32.5967H1474.71C1474.72 32.5714 1474.74 32.5486 1474.75 32.5233C1474.82 32.4403 1474.9 32.3669 1475.01 32.3188C1475.04 32.3067 1475.07 32.2947 1475.1 32.2839C1475.12 32.2706 1475.15 32.2706 1475.18 32.2706C1475.2 32.2706 1475.21 32.2586 1475.23 32.2586C1475.24 32.2586 1475.24 32.2586 1475.25 32.2586H1475.28C1475.3 32.2586 1475.32 32.2706 1475.34 32.2706C1475.4 32.2839 1475.45 32.2959 1475.52 32.3188C1475.53 32.332 1475.54 32.332 1475.55 32.332C1475.58 32.3548 1475.61 32.3789 1475.64 32.3922C1475.67 32.4271 1475.7 32.4523 1475.72 32.4752L1475.73 32.4884L1475.74 32.5005C1475.75 32.5125 1475.77 32.5245 1475.78 32.5486C1475.82 32.5967 1475.85 32.6569 1475.87 32.717C1475.87 32.7291 1475.88 32.7291 1475.88 32.7423C1475.89 32.7772 1475.91 32.8145 1475.91 32.8626C1475.92 32.8879 1475.92 32.9228 1475.92 32.9589C1475.93 32.971 1475.93 32.983 1475.93 32.995V33.1875C1475.94 33.3079 1475.94 33.415 1475.94 33.5233C1476.02 35.895 1476.24 38.0597 1476.89 40.6119C1477.08 41.4181 1477.33 42.2472 1477.62 43.1389C1478.42 45.6165 1479.61 48.5177 1481.33 52.2118C1487.78 66.0871 1484.84 80.4786 1483.88 84.281Z" fill="black"/>
<path d="M1469.65 45.3782C1468.21 47.2795 1466.34 49.4454 1463.96 51.9964C1451.12 65.8091 1456.72 80.1657 1458.76 84.281H1453.85C1453.17 83.4508 1448.69 77.711 1449.3 70.2385C1449.8 64.1377 1453.5 58.4329 1460.29 53.2599C1464.37 50.1782 1467.4 47.6152 1469.65 45.3782Z" fill="#63AEA7"/>
<path d="M1482.47 84.2812H1468.06C1467.35 81.6459 1463.93 67.0378 1470.47 52.982C1473.2 47.146 1474.59 43.2112 1475.28 39.7336C1475.99 43.1643 1477.39 47.0979 1480.15 52.982C1486.68 67.0378 1483.19 81.6568 1482.47 84.2812Z" fill="#63AEA7"/>
<path d="M1496.67 84.2812H1491.85C1493.88 80.1779 1499.41 65.8093 1486.56 51.9965C1484.22 49.4937 1482.39 47.3626 1480.96 45.4746C1483.21 47.6887 1486.21 50.2144 1490.24 53.26C1497.03 58.4342 1500.72 64.1379 1501.22 70.2386C1501.83 77.7111 1497.35 83.4509 1496.67 84.2812Z" fill="#63AEA7"/>
<path d="M1501.64 89.4781C1501.64 89.9113 1501.34 90.2723 1500.97 90.2723C1500.64 90.2723 1500.39 90.0076 1500.31 89.6587L1500.3 89.5624C1500.29 89.5371 1500.29 89.5142 1500.29 89.4781C1500.29 87.4939 1498.92 85.8815 1497.25 85.8815H1453.97C1452.29 85.8815 1450.93 87.4939 1450.93 89.4781L1450.92 89.6346C1450.86 89.9968 1450.58 90.2723 1450.26 90.2723C1449.88 90.2723 1449.59 89.9113 1449.59 89.4781C1449.59 89.3698 1449.59 89.2507 1449.6 89.1424C1449.6 89.1063 1449.6 89.0811 1449.61 89.0582C1449.74 87.0607 1450.83 85.3881 1452.32 84.6661C1452.8 84.4255 1453.32 84.2931 1453.86 84.2823H1497.25C1497.63 84.2823 1498.02 84.3425 1498.37 84.4616C1500.13 85.0151 1501.46 86.8321 1501.62 89.0474C1501.63 89.0715 1501.63 89.1076 1501.63 89.1304C1501.64 89.2508 1501.64 89.359 1501.64 89.4781Z" fill="black"/>
<path d="M1503.3 139.984C1502.95 139.984 1502.65 139.656 1502.63 139.231L1500.29 89.2831C1500.26 88.8439 1500.55 88.4684 1500.92 88.4444C1501.29 88.4119 1501.61 88.7584 1501.63 89.1964L1503.97 139.143C1504 139.584 1503.71 139.959 1503.34 139.984C1503.33 139.984 1503.31 139.984 1503.3 139.984Z" fill="black"/>
<path d="M1448.89 151.774C1448.88 151.774 1448.87 151.774 1448.87 151.774C1448.5 151.762 1448.2 151.398 1448.21 150.955L1449.58 89.2183C1449.59 88.7863 1449.89 88.4446 1450.25 88.4446C1450.26 88.4446 1450.26 88.4446 1450.27 88.4446C1450.64 88.4542 1450.94 88.8212 1450.93 89.2616L1449.56 151C1449.55 151.433 1449.25 151.774 1448.89 151.774Z" fill="black"/>
<path d="M1456.6 157.789C1456.23 157.789 1455.93 157.432 1455.93 156.992V112.831C1455.93 112.654 1456.36 96.4105 1476.08 90.6659C1476.19 90.6346 1476.3 90.6395 1476.4 90.6659C1476.59 90.7261 1495.55 96.5766 1496.65 115.662C1496.67 116.103 1496.39 116.485 1496.02 116.513C1495.58 116.508 1495.33 116.208 1495.3 115.773C1494.32 98.7449 1478.02 92.862 1476.23 92.2676C1457.68 97.7606 1457.28 112.69 1457.28 112.84V156.992C1457.28 157.432 1456.98 157.789 1456.6 157.789Z" fill="#141515"/>
<path d="M1528.86 84.9789L1528.05 67.3253L1528.02 66.6514C1527.99 66.2303 1527.7 65.9053 1527.34 65.9053H1516.21C1515.84 65.9053 1515.55 66.2423 1515.53 66.6634L1515.51 67.3493L1514.88 84.9777L1514.85 85.7358C1514.83 86.181 1515.12 86.554 1515.49 86.5649C1515.86 86.5528 1516.18 86.252 1516.19 85.8068L1516.22 84.9777L1516.85 67.4937H1526.7L1527.5 84.9777L1527.54 85.8188C1527.56 86.2412 1527.86 86.5649 1528.22 86.5649H1528.25C1528.62 86.5408 1528.91 86.1678 1528.89 85.7226L1528.86 84.9789ZM1529.64 102.666L1529.02 88.8764L1528.98 88.0473C1528.97 87.6141 1528.7 87.2892 1528.3 87.2892H1528.28C1527.9 87.3133 1527.62 87.6863 1527.64 88.1304L1527.67 88.8764L1528.3 102.666L1528.33 103.389C1528.35 103.811 1528.65 104.148 1529 104.148H1529.04C1529.41 104.122 1529.69 103.75 1529.67 103.305L1529.64 102.666ZM1515.44 87.2892H1515.39C1515.04 87.2892 1514.75 87.6382 1514.74 88.0594L1514.71 88.8776L1514.28 102.668L1514.25 103.317C1514.24 103.762 1514.53 104.123 1514.91 104.148C1514.92 104.148 1514.92 104.148 1514.93 104.148C1515.29 104.148 1515.59 103.811 1515.61 103.376L1515.63 102.666L1516.06 88.8764L1516.09 88.1184C1516.11 87.6731 1515.81 87.3013 1515.44 87.2892ZM1530.89 129.116L1530.82 127.528L1530.54 121.138L1529.91 106.807L1529.87 105.965C1529.85 105.543 1529.56 105.206 1529.21 105.206H1529.15C1528.79 105.231 1528.5 105.604 1528.52 106.049L1528.55 106.807L1529.47 127.528L1529.54 129.116L1529.59 130.294L1529.6 130.439C1529.6 130.583 1529.64 130.727 1529.71 130.836C1529.83 131.052 1530.04 131.197 1530.27 131.197H1530.3C1530.68 131.173 1530.96 130.8 1530.94 130.356V130.294L1530.89 129.116ZM1514.86 105.206C1514.48 105.218 1514.17 105.531 1514.15 105.965L1514.12 106.807L1513.34 127.528L1513.28 129.116L1513.23 130.294L1513.17 131.895L1513.05 135.143L1512.98 136.84C1512.97 137.273 1513.26 137.646 1513.64 137.669H1513.66C1513.88 137.669 1514.07 137.549 1514.19 137.356C1514.28 137.236 1514.33 137.08 1514.34 136.911L1514.53 131.893L1514.59 130.293L1514.63 129.115L1514.69 127.527L1515.48 106.806L1515.51 106.036C1515.52 105.604 1515.23 105.229 1514.86 105.206Z" fill="black"/>
<path d="M1524.9 86.5712H1519.53C1519.16 86.5712 1518.86 86.2162 1518.86 85.7734V71.4385C1518.86 69.2124 1520.34 67.4026 1522.17 67.4026C1524.05 67.4026 1525.58 69.2136 1525.58 71.4385V85.7734C1525.58 86.2175 1525.28 86.5712 1524.9 86.5712ZM1520.2 84.9768H1524.23V71.4385C1524.23 70.0908 1523.3 68.9969 1522.17 68.9969C1521.1 68.9969 1520.2 70.1172 1520.2 71.4385L1520.2 84.9768Z" fill="black"/>
<path d="M1527.99 63.7287C1527.82 63.6325 1527.63 63.5844 1527.43 63.5844H1516.09C1515.82 63.5844 1515.55 63.6806 1515.32 63.8491C1514.81 64.198 1514.45 64.8478 1514.45 65.5457C1514.45 66.3279 1514.9 67.0499 1515.5 67.3507C1515.69 67.447 1515.89 67.4951 1516.09 67.4951H1527.43C1527.65 67.4951 1527.85 67.4349 1528.04 67.3254C1528.59 67.0246 1528.98 66.3399 1528.98 65.5457C1528.98 64.7275 1528.56 64.0163 1527.99 63.7287ZM1516.09 65.9067C1515.98 65.9067 1515.8 65.6793 1515.8 65.5457C1515.8 65.4013 1515.98 65.1847 1516.09 65.1847H1527.43C1527.5 65.1847 1527.64 65.364 1527.64 65.5457C1527.64 65.7262 1527.5 65.9067 1527.43 65.9067H1516.09Z" fill="black"/>
<path d="M1529.2 88.8814H1514.25C1513.29 88.8814 1512.6 88.0596 1512.6 86.9297C1512.6 85.8539 1513.34 84.9767 1514.25 84.9767H1529.2C1530.1 84.9767 1530.84 85.8539 1530.84 86.9297C1530.84 88.0608 1530.15 88.8814 1529.2 88.8814ZM1514.25 86.5711C1514.03 86.5711 1513.94 86.8033 1513.94 86.9297C1513.94 87.1812 1514.03 87.2883 1514.25 87.2883H1529.2C1529.41 87.2883 1529.5 87.186 1529.5 86.9297C1529.5 86.7841 1529.4 86.5711 1529.2 86.5711H1514.25Z" fill="black"/>
<path d="M1519.55 57.4597C1519.46 57.5199 1519.38 57.568 1519.3 57.6281L1519.29 57.6402H1519.27C1516.62 59.4812 1516.47 62.0804 1516.66 63.5845C1516.68 63.8252 1516.72 64.0298 1516.76 64.1982C1516.85 64.6194 1516.62 65.0525 1516.26 65.1608C1516.21 65.1729 1516.16 65.1849 1516.09 65.1849C1515.8 65.1849 1515.53 64.9442 1515.44 64.5832C1515.4 64.3907 1515.36 64.1501 1515.32 63.8492C1515.11 62.0323 1515.22 58.4103 1518.91 56.053C1519 56.0049 1519.08 55.9688 1519.18 55.9688C1519.18 55.9688 1519.18 55.9688 1519.19 55.9568C1519.21 55.9568 1519.21 55.9568 1519.21 55.9568H1519.22C1519.47 55.9568 1519.7 56.1132 1519.82 56.3779C1520 56.7618 1519.87 57.2419 1519.55 57.4597Z" fill="black"/>
<path d="M1522.07 55.3295C1522.06 55.3416 1522.04 55.3656 1522.03 55.3777C1521.89 55.5702 1521.74 55.7386 1521.59 55.8951C1520.8 56.7627 1520.03 57.256 1519.63 57.4726C1519.59 57.4967 1519.56 57.5087 1519.53 57.5328C1519.48 57.5581 1519.45 57.5809 1519.42 57.5929C1519.4 57.6062 1519.39 57.6062 1519.37 57.617C1519.34 57.629 1519.32 57.6411 1519.29 57.6411H1519.28C1519.23 57.6652 1519.17 57.6651 1519.12 57.6651C1518.88 57.6651 1518.64 57.4955 1518.53 57.2199C1518.5 57.1598 1518.48 57.1116 1518.47 57.0503C1518.46 56.9901 1518.45 56.9299 1518.45 56.871C1518.45 56.7976 1518.46 56.7266 1518.48 56.6544C1518.49 56.581 1518.51 56.522 1518.55 56.4618C1518.58 56.3884 1518.62 56.3295 1518.68 56.2814C1518.72 56.2332 1518.77 56.1971 1518.82 56.161C1518.83 56.161 1518.83 56.1478 1518.84 56.1478C1518.86 56.1358 1518.98 56.0647 1519.18 55.9685C1519.18 55.9685 1519.18 55.9685 1519.19 55.9565C1519.52 55.7519 1520.08 55.3669 1520.66 54.7532C1520.75 54.6437 1520.84 54.5353 1520.94 54.4162C1520.98 54.356 1521.03 54.3079 1521.07 54.2478C1521.1 54.2225 1521.11 54.2117 1521.13 54.1996C1521.16 54.1635 1521.2 54.1383 1521.23 54.1034C1521.24 54.1034 1521.24 54.1034 1521.25 54.1034V54.0901C1521.27 54.0781 1521.29 54.0661 1521.31 54.0552L1521.33 54.042C1521.4 54.0179 1521.46 53.9951 1521.53 53.9951C1521.59 53.9818 1521.64 53.9951 1521.69 54.0071C1521.75 54.0191 1521.8 54.042 1521.85 54.0673C1521.87 54.0793 1521.9 54.0913 1521.93 54.1154C1521.96 54.1394 1522 54.1756 1522.03 54.2117C1522.08 54.2718 1522.12 54.332 1522.15 54.3909C1522.31 54.6797 1522.28 55.0768 1522.07 55.3295Z" fill="black"/>
<path d="M1524.11 57.6665C1524.01 57.6665 1523.91 57.6412 1523.81 57.5846C1523.73 57.5377 1521.92 56.462 1521.07 55.3224C1520.82 54.9951 1520.84 54.4897 1521.12 54.1961C1521.4 53.9013 1521.83 53.9266 1522.07 54.2611C1522.64 55.0168 1523.95 55.8843 1524.41 56.1551C1524.74 56.3524 1524.88 56.8302 1524.71 57.226C1524.6 57.5052 1524.36 57.6665 1524.11 57.6665Z" fill="black"/>
<path d="M1524.41 57.1456C1524.28 57.4224 1524.03 57.568 1523.79 57.556H1523.78C1523.68 57.5427 1523.58 57.5078 1523.48 57.4465C1523.46 57.4344 1523.45 57.4224 1523.43 57.4224C1522.03 56.4947 1520.23 57.1938 1519.63 57.4706C1519.59 57.4946 1519.56 57.5066 1519.53 57.5307C1519.46 57.5668 1519.42 57.5909 1519.42 57.5909C1519.4 57.6041 1519.39 57.6041 1519.37 57.6149C1519.35 57.627 1519.32 57.627 1519.3 57.627L1519.29 57.639H1519.28C1519.23 57.6631 1519.17 57.6631 1519.12 57.6631C1518.88 57.6631 1518.64 57.4934 1518.53 57.2178C1518.5 57.1577 1518.48 57.1095 1518.47 57.0482C1518.46 56.988 1518.45 56.9279 1518.45 56.8689C1518.45 56.7955 1518.46 56.7245 1518.48 56.6523C1518.49 56.5789 1518.51 56.5199 1518.55 56.4598C1518.58 56.3864 1518.62 56.3274 1518.68 56.2793C1518.72 56.2311 1518.77 56.1951 1518.82 56.159C1518.83 56.159 1518.83 56.1457 1518.84 56.1457C1518.86 56.1337 1518.98 56.0627 1519.18 55.9664C1519.19 55.9664 1519.21 55.9664 1519.22 55.9544H1519.23C1519.63 55.7739 1520.33 55.5091 1521.15 55.4129C1521.18 55.4008 1521.2 55.4009 1521.23 55.4009C1521.47 55.3756 1521.74 55.3648 1521.99 55.3756H1522C1522.01 55.3636 1522.02 55.3636 1522.03 55.3756C1522.73 55.4009 1523.47 55.5922 1524.16 56.0615C1524.21 56.0976 1524.26 56.1445 1524.31 56.1926C1524.31 56.2059 1524.32 56.2059 1524.32 56.2059C1524.51 56.4477 1524.56 56.834 1524.41 57.1456Z" fill="black"/>
<path d="M1526.65 63.5842H1516.66C1516.47 62.0801 1516.62 59.4809 1519.27 57.6399H1519.28C1519.31 57.6399 1519.33 57.6279 1519.36 57.6158C1519.38 57.6038 1519.39 57.6038 1519.41 57.5917C1519.44 57.5797 1519.47 57.5569 1519.52 57.5316C1519.55 57.5075 1519.59 57.4955 1519.63 57.4714C1520.23 57.1946 1522.02 56.4955 1523.43 57.4233C1523.48 57.4955 1523.55 57.5436 1523.62 57.5917C1523.65 57.6038 1527.04 59.6133 1526.65 63.5842Z" fill="#63AEA7"/>
<path d="M1527.99 63.7287C1527.97 63.9573 1527.94 64.198 1527.9 64.4386C1527.83 64.8117 1527.55 65.0644 1527.24 65.0644C1527.19 65.0644 1527.14 65.0644 1527.09 65.0523C1526.73 64.9681 1526.49 64.547 1526.58 64.1138C1526.61 63.9345 1526.63 63.7528 1526.65 63.5855C1527.04 59.6146 1523.65 57.6051 1523.62 57.5931C1523.55 57.5449 1523.48 57.4968 1523.43 57.4246C1523.39 57.3885 1523.36 57.3283 1523.33 57.2802C1523.22 57.0504 1523.2 56.7748 1523.3 56.5221C1523.47 56.125 1523.87 55.9686 1524.21 56.1479C1524.24 56.1611 1524.27 56.184 1524.3 56.196C1524.3 56.2092 1524.31 56.2093 1524.31 56.2093C1524.43 56.2815 1524.55 56.3657 1524.69 56.4619V56.474C1526.23 57.5798 1528.33 60.1056 1527.99 63.7287Z" fill="black"/>
<path d="M1521.47 53.9677C1521.19 53.9677 1520.7 53.7547 1520.7 52.9436C1520.7 52.5032 1521.1 52.0255 1521.47 52.0255C1522.04 52.0255 1522.34 52.4972 1522.34 52.9436C1522.34 53.6536 1521.91 53.9677 1521.47 53.9677ZM1521.47 52.3733C1521.27 52.3733 1521 52.6488 1521 52.9605C1521 53.3865 1521.31 53.6199 1521.47 53.6199V52.8245L1522.05 52.9448C1522.04 52.7246 1521.82 52.3733 1521.47 52.3733Z" fill="black"/>
<path d="M1521.57 54.6582C1520.95 54.6582 1520.61 54.1311 1520.61 53.633C1520.61 53.3562 1520.7 52.7172 1521.57 52.7172C1522.43 52.7172 1522.44 53.5945 1522.44 53.633C1522.44 54.1889 1522.04 54.6582 1521.57 54.6582ZM1521.57 53.0626C1521.3 53.0626 1521.1 53.3068 1521.1 53.6341C1521.1 54.0421 1521.39 54.3056 1521.6 54.3152L1521.42 53.5186L1521.95 53.6341C1521.95 53.2635 1521.7 53.0626 1521.57 53.0626Z" fill="black"/>
<path d="M1521.57 55.4681C1520.95 55.4681 1520.61 54.9399 1520.61 54.4417C1520.61 53.9435 1520.95 53.4141 1521.57 53.4141C1522.2 53.4141 1522.54 53.9423 1522.54 54.4417C1522.54 54.9399 1522.2 55.4681 1521.57 55.4681ZM1521.57 53.8749C1521.44 53.8749 1521.19 54.0735 1521.19 54.4417C1521.19 55.1312 1521.95 55.1191 1521.95 54.4417C1521.95 54.0735 1521.7 53.8749 1521.57 53.8749Z" fill="black"/>
<path d="M1521.57 53.5055C1521.19 53.5055 1520.89 53.1481 1520.89 52.7065V52.0134C1520.89 51.5718 1521.19 51.2156 1521.57 51.2156C1521.94 51.2156 1522.24 51.5718 1522.24 52.0134V52.7065C1522.24 53.1481 1521.94 53.5055 1521.57 53.5055Z" fill="black"/>
<path d="M1530.06 102.666H1513.37C1512.4 102.666 1511.61 103.594 1511.61 104.737C1511.61 105.867 1512.4 106.807 1513.37 106.807H1530.06C1531.03 106.807 1531.81 105.868 1531.81 104.737C1531.81 103.594 1531.03 102.666 1530.06 102.666ZM1530.06 105.207H1513.37C1513.14 105.207 1512.96 104.99 1512.96 104.737C1512.96 104.485 1513.14 104.256 1513.37 104.256H1530.06C1530.28 104.256 1530.47 104.485 1530.47 104.737C1530.47 104.99 1530.29 105.207 1530.06 105.207Z" fill="black"/>
<path d="M1531.05 127.528H1512.39C1511.34 127.528 1510.55 128.466 1510.55 129.707C1510.55 130.959 1511.34 131.896 1512.39 131.896H1531.05C1531.08 131.896 1531.09 131.896 1531.12 131.884C1532.13 131.86 1532.89 130.933 1532.89 129.706C1532.89 128.466 1532.1 127.528 1531.05 127.528ZM1531.05 130.294H1512.39C1512.08 130.294 1511.89 130.078 1511.89 129.706C1511.89 129.332 1512.08 129.116 1512.39 129.116H1531.05C1531.37 129.116 1531.55 129.333 1531.55 129.706C1531.55 130.079 1531.37 130.294 1531.05 130.294Z" fill="black"/>
<path d="M1529.47 127.528H1514.69L1515.47 106.807H1528.55L1529.47 127.528Z" fill="#63AEA7"/>
<path d="M1508.38 145.994C1505.26 145.994 1502.62 142.929 1502.62 139.301C1502.62 138.862 1502.93 138.506 1503.3 138.506C1503.67 138.506 1503.97 138.862 1503.97 139.301C1503.97 142.065 1505.99 144.401 1508.38 144.401C1510.61 144.401 1512.42 142.219 1512.69 139.217L1512.98 135.413C1513.02 134.972 1513.34 134.637 1513.71 134.69C1514.09 134.728 1514.36 135.116 1514.33 135.555L1514.03 139.372C1513.69 143.215 1511.31 145.994 1508.38 145.994Z" fill="black"/>
<path d="M1443.42 161.484C1440.19 161.484 1437.57 158.382 1437.57 154.566C1437.57 154.126 1437.87 153.769 1438.24 153.769C1438.61 153.769 1438.91 154.126 1438.91 154.566C1438.91 157.452 1440.98 159.892 1443.42 159.892C1445.75 159.892 1447.65 157.615 1447.93 154.485L1448.22 150.564C1448.25 150.122 1448.59 149.805 1448.95 149.838C1449.32 149.876 1449.59 150.262 1449.56 150.701L1449.27 154.636C1448.92 158.611 1446.46 161.484 1443.42 161.484Z" fill="black"/>
<path d="M1539.35 143.686C1534.22 143.686 1530.11 138.84 1529.79 132.413L1529.2 121.316C1529.18 120.878 1529.46 120.497 1529.83 120.469C1530.18 120.45 1530.52 120.776 1530.55 121.218L1531.13 132.318C1531.41 137.89 1534.95 142.092 1539.35 142.092C1543.93 142.092 1547.66 137.728 1547.66 132.366V120.575C1547.66 120.134 1547.96 119.777 1548.34 119.777C1548.71 119.777 1549.01 120.134 1549.01 120.575V132.366C1549.01 138.609 1544.68 143.686 1539.35 143.686Z" fill="black"/>
<path d="M1411.57 165.304C1406.24 165.304 1401.91 160.175 1401.91 153.869V95.6019C1401.91 95.1603 1402.21 94.8041 1402.58 94.8041C1402.95 94.8041 1403.25 95.1603 1403.25 95.6019V153.869C1403.25 159.295 1406.98 163.713 1411.57 163.713C1416 163.713 1419.69 159.288 1419.78 153.854L1419.98 144.024C1419.99 143.585 1420.22 143.22 1420.67 143.246C1421.04 143.255 1421.33 143.62 1421.33 144.064L1421.13 153.89C1421.03 160.182 1416.73 165.304 1411.57 165.304Z" fill="black"/>
<path d="M1384.51 109.464C1384.14 109.464 1383.84 109.108 1383.84 108.667V90.8622C1383.84 84.5568 1388.13 79.4271 1393.4 79.4271C1398.71 79.4271 1402.96 84.4437 1403.06 90.8441L1403.26 100.667C1403.27 101.106 1402.97 101.474 1402.6 101.481C1402.6 101.481 1402.59 101.481 1402.58 101.481C1402.22 101.481 1401.92 101.137 1401.91 100.705L1401.71 90.8814C1401.62 85.3486 1397.97 81.0203 1393.4 81.0203C1388.87 81.0203 1385.18 85.4352 1385.18 90.8622V108.667C1385.18 109.108 1384.88 109.464 1384.51 109.464Z" fill="black"/>
<path d="M1548.24 131.313C1547.87 131.313 1547.57 130.957 1547.57 130.517V116.64C1547.57 110.445 1551.99 105.209 1557.23 105.209C1562.45 105.209 1566.78 110.329 1566.89 116.624C1566.9 117.064 1566.6 117.429 1566.23 117.437C1566.22 117.437 1566.22 117.437 1566.21 117.437C1565.85 117.437 1565.55 117.093 1565.54 116.656C1565.45 111.226 1561.72 106.801 1557.23 106.801C1552.72 106.801 1548.91 111.309 1548.91 116.64V130.517C1548.91 130.957 1548.61 131.313 1548.24 131.313Z" fill="black"/>
<path d="M1595.32 127.843H1575.2C1569.87 127.843 1565.54 122.714 1565.54 116.409C1565.54 115.97 1565.84 115.614 1566.21 115.614C1566.58 115.614 1566.88 115.97 1566.88 116.409C1566.88 121.836 1570.61 126.251 1575.2 126.251H1595.32C1595.7 126.251 1596 126.607 1596 127.046C1596 127.487 1595.7 127.843 1595.32 127.843Z" fill="black"/>
<path d="M1347.07 118.496H2.75735C1.23511 118.496 0 118.14 0 117.701C0 117.261 1.23511 116.904 2.75735 116.904H1347.07C1365.82 116.904 1384.53 112.283 1384.53 106.858C1383.01 106.858 1384.53 106.416 1384.53 106.858C1386.06 106.858 1384.53 105.087 1385.03 108.038C1387.03 111.581 1368.86 118.496 1347.07 118.496Z" fill="black"/>
</svg>
