<svg width="1629" height="364" viewBox="0 0 1629 364" fill="none" xmlns="http://www.w3.org/2000/svg">
<path d="M-66 178.112L20.5696 124.001C57.3188 101.03 103.005 97.573 142.793 114.751V114.751C182.593 131.935 228.295 128.47 265.05 105.481L301.49 82.6879C351.583 51.3564 417.401 64.3525 451.825 112.372V112.372C484.837 158.422 547.051 172.542 596.708 145.256L681.886 98.4508C728.903 72.6145 787.77 85.3596 819.89 128.33L830.325 142.289C863.826 187.108 929.166 192.088 969.073 152.864V152.864C997.389 125.032 1040.32 118.407 1075.71 136.407L1132.53 165.309C1186.18 192.599 1250.78 186.356 1298.22 149.297L1343.02 114.291C1374.35 89.8154 1418.5 90.495 1449.06 115.923V115.923C1488.53 148.766 1547.93 139.091 1574.94 95.4204L1629 8" stroke="#F4F3F9" stroke-width="30"/>
<path d="M-70 206.112L16.5696 152.001C53.3188 129.03 99.0053 125.573 138.793 142.751V142.751C178.593 159.935 224.295 156.47 261.05 133.481L297.49 110.688C347.583 79.3564 413.401 92.3525 447.825 140.372V140.372C480.837 186.422 543.051 200.542 592.708 173.256L677.886 126.451C724.903 100.614 783.77 113.36 815.89 156.33L826.325 170.289C859.826 215.108 925.166 220.088 965.073 180.864V180.864C993.389 153.032 1036.32 146.407 1071.71 164.407L1128.53 193.309C1182.18 220.599 1246.78 214.356 1294.22 177.297L1339.02 142.291C1370.35 117.815 1414.5 118.495 1445.06 143.923V143.923C1484.53 176.766 1543.93 167.091 1570.94 123.42L1625 36" stroke="#F4F3F9" stroke-width="30"/>
<path d="M-70 232.112L16.5696 178.001C53.3188 155.03 99.0053 151.573 138.793 168.751V168.751C178.593 185.935 224.295 182.47 261.05 159.481L297.49 136.688C347.583 105.356 413.401 118.353 447.825 166.372V166.372C480.837 212.422 543.051 226.542 592.708 199.256L677.886 152.451C724.903 126.614 783.77 139.36 815.89 182.33L826.325 196.289C859.826 241.108 925.166 246.088 965.073 206.864V206.864C993.389 179.032 1036.32 172.407 1071.71 190.407L1128.53 219.309C1182.18 246.599 1246.78 240.356 1294.22 203.297L1339.02 168.291C1370.35 143.815 1414.5 144.495 1445.06 169.923V169.923C1484.53 202.766 1543.93 193.091 1570.94 149.42L1625 62" stroke="#F4F3F9" stroke-width="30"/>
<path d="M-70 258.112L16.5696 204.001C53.3188 181.03 99.0053 177.573 138.793 194.751V194.751C178.593 211.935 224.295 208.47 261.05 185.481L297.49 162.688C347.583 131.356 413.401 144.353 447.825 192.372V192.372C480.837 238.422 543.051 252.542 592.708 225.256L677.886 178.451C724.903 152.614 783.77 165.36 815.89 208.33L826.325 222.289C859.826 267.108 925.166 272.088 965.073 232.864V232.864C993.389 205.032 1036.32 198.407 1071.71 216.407L1128.53 245.309C1182.18 272.599 1246.78 266.356 1294.22 229.297L1339.02 194.291C1370.35 169.815 1414.5 170.495 1445.06 195.923V195.923C1484.53 228.766 1543.93 219.091 1570.94 175.42L1625 88" stroke="#F4F3F9" stroke-width="30"/>
<path d="M-70 287.112L16.5696 233.001C53.3188 210.03 99.0053 206.573 138.793 223.751V223.751C178.593 240.935 224.295 237.47 261.05 214.481L297.49 191.688C347.583 160.356 413.401 173.353 447.825 221.372V221.372C480.837 267.422 543.051 281.542 592.708 254.256L677.886 207.451C724.903 181.614 783.77 194.36 815.89 237.33L826.325 251.289C859.826 296.108 925.166 301.088 965.073 261.864V261.864C993.389 234.032 1036.32 227.407 1071.71 245.407L1128.53 274.309C1182.18 301.599 1246.78 295.356 1294.22 258.297L1339.02 223.291C1370.35 198.815 1414.5 199.495 1445.06 224.923V224.923C1484.53 257.766 1543.93 248.091 1570.94 204.42L1625 117" stroke="#F4F3F9" stroke-width="30"/>
<path d="M-66 315.112L20.5696 261.001C57.3188 238.03 103.005 234.573 142.793 251.751V251.751C182.593 268.935 228.295 265.47 265.05 242.481L301.49 219.688C351.583 188.356 417.401 201.353 451.825 249.372V249.372C484.837 295.422 547.051 309.542 596.708 282.256L681.886 235.451C728.903 209.614 787.77 222.36 819.89 265.33L830.325 279.289C863.826 324.108 929.166 329.088 969.073 289.864V289.864C997.389 262.032 1040.32 255.407 1075.71 273.407L1132.53 302.309C1186.18 329.599 1250.78 323.356 1298.22 286.297L1343.02 251.291C1374.35 226.815 1418.5 227.495 1449.06 252.923V252.923C1488.53 285.766 1547.93 276.091 1574.94 232.42L1629 145" stroke="#F4F3F9" stroke-width="30"/>
</svg>
