<svg width="40" height="40" viewBox="0 0 40 40" fill="none" xmlns="http://www.w3.org/2000/svg">
<rect width="40" height="40" rx="20" fill="#5DA9A3"/>
<path d="M20 31C26.0751 31 31 26.0751 31 20C31 13.9249 26.0751 9 20 9C13.9249 9 9 13.9249 9 20C9 26.0751 13.9249 31 20 31Z" fill="white"/>
<path d="M23.5768 12.376H21.14C19.6939 12.376 18.0855 12.9842 18.0855 15.0803C18.0926 15.8107 18.0855 16.5101 18.0855 17.2974H16.4126V19.9594H18.1373V27.6231H21.3064V19.9089H23.3982L23.5874 17.2899H21.2518C21.2518 17.2899 21.257 16.1249 21.2518 15.7865C21.2518 14.9582 22.1137 15.0056 22.1656 15.0056C22.5757 15.0056 23.3732 15.0068 23.5779 15.0056V12.376H23.5768Z" fill="#5DA9A3"/>
</svg>
