<svg width="167" height="22" viewBox="0 0 167 22" fill="none" xmlns="http://www.w3.org/2000/svg">
<path d="M0.984375 15.4432V13.8452L6.64134 4.90909H7.90057V7.26136H7.10156L3.0554 13.6662V13.7685H10.8089V15.4432H0.984375ZM7.19105 18V14.9574L7.20384 14.2287V4.90909H9.0767V18H7.19105ZM13.8292 18.1214C13.4798 18.1214 13.1793 17.9979 12.9279 17.7507C12.6765 17.4993 12.5508 17.1967 12.5508 16.843C12.5508 16.4936 12.6765 16.1953 12.9279 15.9482C13.1793 15.6967 13.4798 15.571 13.8292 15.571C14.1786 15.571 14.479 15.6967 14.7305 15.9482C14.9819 16.1953 15.1076 16.4936 15.1076 16.843C15.1076 17.0774 15.0479 17.2926 14.9286 17.4886C14.8136 17.6804 14.6602 17.8338 14.4684 17.9489C14.2766 18.0639 14.0636 18.1214 13.8292 18.1214ZM17.7491 18L23.4636 6.69886V6.60298H16.8542V4.90909H25.5091V6.66051L19.8137 18H17.7491Z" fill="black"/>
<path d="M47.43 9L45 1L42.57 9H35L41.18 13.41L38.83 21L45 16.31L51.18 21L48.83 13.41L55 9H47.43Z" fill="#FF9529"/>
<path d="M75.43 9L73 1L70.57 9H63L69.18 13.41L66.83 21L73 16.31L79.18 21L76.83 13.41L83 9H75.43Z" fill="#FF9529"/>
<path d="M103.43 9L101 1L98.57 9H91L97.18 13.41L94.83 21L101 16.31L107.18 21L104.83 13.41L111 9H103.43Z" fill="#FF9529"/>
<path d="M131.43 9L129 1L126.57 9H119L125.18 13.41L122.83 21L129 16.31L135.18 21L132.83 13.41L139 9H131.43Z" fill="#FF9529"/>
<path d="M167 8.74L159.81 8.12L157 1.5L154.19 8.13L147 8.74L152.46 13.47L150.82 20.5L157 16.77L163.18 20.5L161.55 13.47L167 8.74ZM157 14.9V5.6L158.71 9.64L163.09 10.02L159.77 12.9L160.77 17.18L157 14.9Z" fill="#FF9529"/>
</svg>
