<svg width="40" height="40" viewBox="0 0 40 40" fill="none" xmlns="http://www.w3.org/2000/svg">
<rect width="40" height="40" rx="20" fill="#5DA9A3"/>
<path fill-rule="evenodd" clip-rule="evenodd" d="M20.4972 11C15.2601 11 11 15.2613 11 20.4999C11 22.5775 11.67 24.5043 12.809 26.0682L11.6253 29.5978L15.2768 28.4307C16.7786 29.4249 18.5709 30 20.5028 30C25.7399 30 30 25.7386 30 20.5001C30 15.2614 25.7399 11.0002 20.5028 11.0002L20.4972 11ZM17.8451 15.8255C17.6609 15.3844 17.5213 15.3677 17.2422 15.3563C17.1472 15.3508 17.0413 15.3453 16.9239 15.3453C16.5608 15.3453 16.1812 15.4514 15.9523 15.6859C15.6732 15.9707 14.9808 16.6352 14.9808 17.998C14.9808 19.3608 15.9747 20.6788 16.1086 20.8632C16.2482 21.0473 18.0461 23.8845 20.8378 25.0408C23.0208 25.9455 23.6686 25.8617 24.1654 25.7556C24.8912 25.5992 25.8014 25.0629 26.0304 24.4152C26.2593 23.7672 26.2593 23.2143 26.1922 23.097C26.1252 22.9798 25.9408 22.9129 25.6618 22.7731C25.3827 22.6335 24.0258 21.9633 23.769 21.8739C23.5177 21.779 23.2777 21.8126 23.0879 22.0807C22.8199 22.4549 22.5576 22.8348 22.3453 23.0636C22.1778 23.2424 21.9041 23.2647 21.6753 23.1697C21.3682 23.0414 20.5084 22.7395 19.4475 21.7957C18.6267 21.0642 18.0684 20.1539 17.9065 19.8803C17.7446 19.6012 17.8898 19.439 18.0181 19.2883C18.1577 19.1151 18.2917 18.9923 18.4313 18.8302C18.5709 18.6684 18.649 18.5845 18.7384 18.3946C18.8334 18.2103 18.7663 18.0204 18.6993 17.8807C18.6323 17.7411 18.074 16.3783 17.8451 15.8255Z" fill="white"/>
</svg>
