<svg width="58" height="58" viewBox="0 0 58 58" fill="none" xmlns="http://www.w3.org/2000/svg">
<path d="M57.011 33.405L47.6022 45.749C45.738 48.1917 43.0763 49.6034 39.9053 49.6034H22.8055C21.2959 49.6034 19.9921 50.1611 18.9944 51.2355L6.99455 39.819L12.4582 34.746C14.2165 33.1139 16.3036 32.2626 18.7567 32.2626H23.7944C25.4298 32.2626 26.8364 32.6216 28.2516 33.3995L29.7984 34.2482H40.9514C44.8454 34.2482 45.8975 39.3457 42.3066 40.7955C41.892 40.9668 41.4031 41.0512 40.9514 41.0512H30.4959C30.0956 41.0512 29.7668 41.364 29.7668 41.7475C29.7668 42.131 30.0956 42.4411 30.4959 42.4411H40.9514C43.8162 42.4411 46.0605 40.1889 45.989 37.4797L53.0309 30.2391C55.1294 28.0848 58.8291 31.0198 57.0135 33.4053L57.011 33.405ZM5.85935 40.711C5.14458 40.0283 3.97524 40.0283 3.25759 40.711L1.03607 42.8245C0.321309 43.5073 0.321309 44.6198 1.03607 45.2998L13.3213 56.9879C14.0361 57.6707 15.2083 57.6707 15.9231 56.9879L18.1446 54.8744C18.8622 54.1917 18.8622 53.0792 18.1446 52.3991L5.85935 40.711ZM26.4102 15.213C26.4102 7.0881 33.3348 0.5 41.8749 0.5C50.415 0.5 57.3396 7.08803 57.3396 15.213C57.3396 23.338 50.4178 29.9261 41.8749 29.9261C33.3319 29.9261 26.4102 23.338 26.4102 15.213ZM28.7689 15.213C28.7689 22.1003 34.6385 27.6845 41.8747 27.6845C49.1138 27.6845 54.9833 22.0975 54.9833 15.213C54.9833 8.32578 49.1137 2.74431 41.8747 2.74431C34.6327 2.74431 28.7689 8.32863 28.7689 15.213ZM30.2299 15.213C30.2299 9.09551 35.4448 4.13143 41.8777 4.13143C48.3077 4.13143 53.5284 9.09287 53.5284 15.213C53.5284 21.3305 48.3134 26.2946 41.8777 26.2946C35.4448 26.2946 30.2299 21.3359 30.2299 15.213ZM39.8166 22.533C39.4278 22.4323 39.0275 22.6527 38.9217 23.0226C38.8102 23.4143 39.0417 23.7924 39.4334 23.893C39.8223 23.9909 40.2225 23.7706 40.3284 23.4007C40.4399 23.0063 40.2111 22.6309 39.8166 22.533ZM44.84 23.0389C44.7256 22.6445 44.3282 22.4323 43.9393 22.533C43.5505 22.6309 43.3189 23.0117 43.4247 23.3844C43.5391 23.7788 43.9308 23.991 44.3253 23.8931C44.7142 23.7924 44.9429 23.4116 44.84 23.0389ZM49.5717 13.249C49.6717 13.619 50.072 13.8393 50.4637 13.7441C50.8783 13.638 51.107 13.2654 51.0012 12.89C50.8983 12.52 50.5009 12.2997 50.1092 12.3976C49.6946 12.4983 49.4659 12.8736 49.5717 13.249ZM50.0863 18.0228C50.498 18.1316 50.8954 17.914 51.0012 17.5414C51.1041 17.1714 50.8754 16.7906 50.4866 16.6872C50.072 16.5811 49.6774 16.7987 49.5717 17.1741C49.4659 17.5413 49.6975 17.9248 50.0863 18.0255V18.0228ZM48.5567 20.5851C48.2537 20.2968 47.802 20.2968 47.5103 20.5688C47.2273 20.8408 47.2244 21.2787 47.5074 21.5508C47.8105 21.8391 48.268 21.8391 48.5539 21.5671C48.8398 21.2978 48.8398 20.8572 48.5567 20.5851ZM47.5103 9.85729C47.7962 10.1266 48.2594 10.1266 48.5425 9.85457C48.8427 9.56624 48.8398 9.1365 48.5539 8.86172C48.268 8.58972 47.8077 8.59243 47.5247 8.86172C47.2216 9.15005 47.2244 9.58529 47.5103 9.85729ZM43.9394 7.89611C44.3253 7.99403 44.7256 7.7737 44.8314 7.40377C44.9458 7.01208 44.7142 6.63396 44.3196 6.53606C43.9308 6.43814 43.5334 6.65846 43.4247 7.02567C43.3132 7.42009 43.5448 7.79549 43.9394 7.89611ZM41.1461 15.2133C41.1461 15.5968 41.4691 15.9096 41.8751 15.9096H46.0894C46.4925 15.9096 46.8213 15.5968 46.8213 15.2133C46.8213 14.8297 46.4925 14.5169 46.0894 14.5169H42.607V10.0478C42.607 9.66427 42.2782 9.35146 41.8751 9.35146C41.472 9.35146 41.1461 9.66427 41.1461 10.0478V15.2133ZM38.916 7.38499C39.0275 7.77941 39.4163 7.99701 39.8109 7.89637C40.1997 7.79845 40.4313 7.42036 40.3312 7.04767C40.2197 6.65325 39.828 6.43565 39.4335 6.53629C39.0446 6.63149 38.813 7.0123 38.916 7.38499ZM35.2021 9.84392C35.5023 10.1295 35.9568 10.1295 36.2456 9.8548C36.5287 9.58279 36.5287 9.14488 36.2428 8.8756C35.9426 8.58727 35.488 8.58999 35.1992 8.862C34.9162 9.134 34.9162 9.57457 35.2021 9.84392ZM35.2021 21.5675C35.4851 21.8368 35.9483 21.8368 36.2313 21.5648C36.5315 21.2765 36.5315 20.8413 36.2427 20.5693C35.9597 20.3 35.4965 20.3027 35.2135 20.572C34.9133 20.8603 34.9133 21.2956 35.2021 21.5675ZM33.2722 13.7393C33.6839 13.8453 34.0756 13.6277 34.1843 13.2524C34.2872 12.8824 34.0556 12.5016 33.6668 12.4009C33.2551 12.2949 32.8576 12.5125 32.7547 12.8878C32.6518 13.2578 32.8834 13.6386 33.2722 13.7393ZM33.6496 18.0316C34.0613 17.9255 34.2872 17.5501 34.1843 17.1747C34.0813 16.8075 33.6811 16.5872 33.2893 16.6851C32.8748 16.7912 32.6518 17.1639 32.7547 17.5393C32.8576 17.9092 33.2579 18.1295 33.6496 18.0316ZM12.6523 15.9099H19.474C19.8771 15.9099 20.2059 15.5971 20.2059 15.2136C20.2059 14.83 19.8771 14.5172 19.474 14.5172H12.6523C12.2492 14.5172 11.9233 14.83 11.9233 15.2136C11.9233 15.5971 12.2463 15.9099 12.6523 15.9099ZM17.6471 4.90141H24.4659C24.8691 4.90141 25.1978 4.59404 25.1978 4.2078C25.1978 3.82426 24.8691 3.51145 24.4659 3.51145H17.6471C17.244 3.51145 16.9152 3.82426 16.9152 4.2078C16.9152 4.59133 17.244 4.90141 17.6471 4.90141ZM17.6471 26.9149H24.4659C24.8691 26.9149 25.1978 26.6021 25.1978 26.2213C25.1978 25.8377 24.8691 25.5249 24.4659 25.5249H17.6471C17.244 25.5249 16.9152 25.8377 16.9152 26.2213C16.9152 26.6021 17.244 26.9149 17.6471 26.9149ZM15.1511 10.4067H21.9699C22.3731 10.4067 22.7019 10.0939 22.7019 9.71036C22.7019 9.32954 22.3731 9.01674 21.9699 9.01674H15.1511C14.748 9.01674 14.4192 9.32955 14.4192 9.71036C14.4192 10.0939 14.748 10.4067 15.1511 10.4067ZM22.6986 20.7188C22.6986 20.3353 22.3698 20.0225 21.9667 20.0225H15.1479C14.7447 20.0225 14.4159 20.3353 14.4159 20.7188C14.4159 21.1024 14.7447 21.4152 15.1479 21.4152H21.9667C22.3698 21.4152 22.6986 21.1024 22.6986 20.7188Z" fill="white"/>
</svg>
