<svg width="61" height="58" viewBox="0 0 61 58" fill="none" xmlns="http://www.w3.org/2000/svg">
    <path fill-rule="evenodd" clip-rule="evenodd"
        d="M37.9725 18.1899H31.5166C29.8289 18.1899 28.4666 19.5092 28.4666 21.1381V54.5517C28.4666 55.333 28.792 56.0848 29.3613 56.6352C29.9306 57.1904 30.7033 57.5 31.5166 57.5H57.95C58.7633 57.5 59.536 57.1904 60.1053 56.6352C60.6747 56.0848 61 55.333 61 54.5517V21.1381C61 20.3568 60.6747 19.605 60.1053 19.0547C59.536 18.4994 58.7633 18.1899 57.95 18.1899H54.9C54.3408 18.1899 53.8833 18.6297 53.8833 19.1726C53.8833 19.7156 54.3408 20.1554 54.9 20.1554H57.95C58.2143 20.1554 58.4787 20.2586 58.6718 20.4428C58.8548 20.6271 58.9667 20.8777 58.9667 21.1382V54.5518C58.9667 54.8122 58.8548 55.0628 58.6718 55.2471C58.4787 55.4313 58.2144 55.5345 57.95 55.5345H31.5166C31.2523 55.5345 30.988 55.4313 30.7948 55.2471C30.6118 55.0628 30.4999 54.8122 30.4999 54.5518V21.1382C30.4999 20.5952 30.9574 20.1554 31.5166 20.1554H36.7321C36.6406 20.4748 36.5999 20.804 36.5999 21.1382V22.1086C36.5999 22.9145 37.3828 23.0717 37.5759 23.0988L37.6166 23.1037H39.6499C40.2091 23.1037 40.6666 22.6639 40.6666 22.1209C40.6666 21.5779 40.2091 21.1382 39.6499 21.1382H38.6333C38.6333 20.6173 38.8468 20.1161 39.2331 19.7476C39.6093 19.3791 40.1278 19.1727 40.6666 19.1727H41.6833C41.6833 19.1727 42.6999 19.099 42.6999 18.1777V17.2072C42.6999 16.6863 42.9134 16.1851 43.2998 15.8166C43.6759 15.4481 44.1944 15.2417 44.7333 15.2417C45.2721 15.2417 45.7906 15.4481 46.1667 15.8166C46.5531 16.1851 46.7666 16.6863 46.7666 17.2072V18.1777C46.7666 19.099 47.7832 19.1727 47.7832 19.1727H48.7999C49.3387 19.1727 49.8573 19.3791 50.2334 19.7476C50.6197 20.1161 50.8332 20.6173 50.8332 21.1382H43.7162C43.1571 21.1382 42.6996 21.5779 42.6996 22.1209C42.6996 22.6639 43.1571 23.1037 43.7162 23.1037H51.8496L51.8903 23.0988C52.0834 23.0717 52.8663 22.9145 52.8663 22.1086V21.1382C52.8663 20.0965 52.4393 19.0965 51.6768 18.3594C50.9143 17.6199 49.8773 17.2071 48.7996 17.2071C48.7996 16.1655 48.3726 15.1655 47.6101 14.4284C46.8476 13.6889 45.8106 13.2761 44.7329 13.2761C43.6552 13.2761 42.6182 13.6889 41.8557 14.4284C41.0932 15.1655 40.6662 16.1654 40.6662 17.2071C39.6699 17.2071 38.7146 17.5585 37.9725 18.1899ZM37.6166 52.0947V47.6723C37.6166 47.1294 37.1591 46.6896 36.6 46.6896C36.0408 46.6896 35.5833 47.1294 35.5833 47.6723V52.0947C35.5833 52.6377 36.0408 53.0775 36.6 53.0775C37.1591 53.0775 37.6166 52.6377 37.6166 52.0947ZM53.8833 52.0947V45.707C53.8833 45.164 53.4258 44.7242 52.8667 44.7242C52.3075 44.7242 51.85 45.164 51.85 45.707V52.0947C51.85 52.6377 52.3075 53.0775 52.8667 53.0775C53.4258 53.0775 53.8833 52.6377 53.8833 52.0947ZM41.6833 52.0947V44.2327C41.6833 43.6897 41.2258 43.2499 40.6667 43.2499C40.1075 43.2499 39.65 43.6897 39.65 44.2327V52.0947C39.65 52.6377 40.1075 53.0775 40.6667 53.0775C41.2258 53.0775 41.6833 52.6377 41.6833 52.0947ZM49.8167 52.0947V40.7929C49.8167 40.2499 49.3592 39.8101 48.8 39.8101C48.2408 39.8101 47.7833 40.2499 47.7833 40.7929V52.0947C47.7833 52.6377 48.2408 53.0775 48.8 53.0775C49.3592 53.0775 49.8167 52.6377 49.8167 52.0947ZM45.75 52.0947V39.8104C45.75 39.2675 45.2925 38.8277 44.7333 38.8277C44.1742 38.8277 43.7167 39.2675 43.7167 39.8104V52.0947C43.7167 52.6377 44.1742 53.0775 44.7333 53.0775C45.2925 53.0775 45.75 52.6377 45.75 52.0947ZM35.5833 3.44826H9.14995V1.9741C9.14995 1.58346 8.98728 1.20752 8.70261 0.932411C8.41795 0.654781 8.03164 0.5 7.62498 0.5C7.21831 0.5 6.83194 0.654781 6.54734 0.932411C6.26267 1.20758 6.10001 1.58351 6.10001 1.9741V3.44826H3.05C1.3623 3.44826 0 4.76763 0 6.39652V36.8622C0 38.4911 1.36237 39.8104 3.05 39.8104H10.2581L19.1033 48.3675C19.2354 48.4928 19.3981 48.5837 19.5811 48.6255L23.6478 49.6082C23.9934 49.6917 24.3595 49.5935 24.6136 49.3502C24.8678 49.107 24.9695 48.7508 24.878 48.4166L23.8613 44.4856C23.8206 44.3136 23.7291 44.1539 23.597 44.0286L19.2253 39.8102H25.4168C25.9759 39.8102 26.4334 39.3704 26.4334 38.8274C26.4334 38.2844 25.9759 37.8446 25.4168 37.8446H17.1917L10.3798 31.2531C10.1867 31.0689 9.93249 30.9657 9.65797 30.9657C8.58034 30.9657 7.54331 31.3784 6.78079 32.1155C6.01827 32.8525 5.5913 33.8549 5.5913 34.8967C5.5913 35.1571 5.70314 35.4077 5.88613 35.592L8.2245 37.8449H3.04968C2.49051 37.8449 2.03301 37.4052 2.03301 36.8622V11.3106H43.7161C44.2752 11.3106 44.7327 10.8708 44.7327 10.3279V6.39684C44.7327 4.76795 43.3704 3.44858 41.6827 3.44858H38.6327V1.97442C38.6327 1.58378 38.4701 1.20784 38.1854 0.932732C37.9007 0.655102 37.5144 0.500321 37.1078 0.500321C36.7011 0.500321 36.3147 0.655102 36.0301 0.932732C35.7455 1.2079 35.5828 1.58383 35.5828 1.97442L35.5833 3.44826ZM12.1996 35.7958C15.941 39.4172 21.9596 45.2277 21.9596 45.2277L22.4985 47.3062L20.3431 46.7854L10.5831 37.3535L12.1996 35.7958ZM38.633 25.0688C35.2678 25.0688 32.533 27.7124 32.533 30.9654C32.533 34.2183 35.2678 36.8619 38.633 36.8619C41.9982 36.8619 44.733 34.2183 44.733 30.9654C44.733 27.7124 41.9982 25.0688 38.633 25.0688ZM10.7662 34.4051L9.14969 35.9628L7.66538 34.5255C7.73655 34.1423 7.92972 33.7884 8.22455 33.5084C8.50922 33.2283 8.87522 33.0416 9.27174 32.9679C9.27174 32.9679 9.85124 33.528 10.7663 34.4076L10.7662 34.4051ZM47.7833 35.8793H55.9167C56.4758 35.8793 56.9333 35.4395 56.9333 34.8966C56.9333 34.3536 56.4758 33.9138 55.9167 33.9138H47.7833C47.2242 33.9138 46.7667 34.3536 46.7667 34.8966C46.7667 35.4395 47.2242 35.8793 47.7833 35.8793ZM37.6166 27.1575C35.868 27.5948 34.5666 29.1353 34.5666 30.9657C34.5666 33.1351 36.3865 34.8967 38.6333 34.8967C40.5243 34.8967 42.1205 33.6437 42.5678 31.9484H38.6333C38.0741 31.9484 37.6166 31.5086 37.6166 30.9657V27.1575ZM17.2833 31.9484H19.3166C19.8758 31.9484 20.3333 31.5086 20.3333 30.9657C20.3333 30.4227 19.8758 29.9829 19.3166 29.9829H17.2833C16.7241 29.9829 16.2666 30.4227 16.2666 30.9657C16.2666 31.5086 16.7241 31.9484 17.2833 31.9484ZM47.7833 31.9484H55.9167C56.4758 31.9484 56.9333 31.5086 56.9333 30.9657C56.9333 30.4227 56.4758 29.9829 55.9167 29.9829H47.7833C47.2242 29.9829 46.7667 30.4227 46.7667 30.9657C46.7667 31.5086 47.2242 31.9484 47.7833 31.9484ZM39.65 29.9829V27.1575C41.0835 27.5137 42.2018 28.6022 42.5678 29.9829H39.65ZM47.7833 28.0174H55.9167C56.4758 28.0174 56.9333 27.5776 56.9333 27.0347C56.9333 26.4917 56.4758 26.0519 55.9167 26.0519H47.7833C47.2242 26.0519 46.7667 26.4917 46.7667 27.0347C46.7667 27.5776 47.2242 28.0174 47.7833 28.0174ZM9.14995 27.0347H11.1833C11.7425 27.0347 12.2 26.5949 12.2 26.0519C12.2 25.5089 11.7425 25.0691 11.1833 25.0691H9.14995C8.59078 25.0691 8.13328 25.5089 8.13328 26.0519C8.13328 26.5949 8.59078 27.0347 9.14995 27.0347ZM17.2833 27.0347H19.3166C19.8758 27.0347 20.3333 26.5949 20.3333 26.0519C20.3333 25.5089 19.8758 25.0691 19.3166 25.0691H17.2833C16.7241 25.0691 16.2666 25.5089 16.2666 26.0519C16.2666 26.5949 16.7241 27.0347 17.2833 27.0347ZM9.14995 22.1209H11.1833C11.7425 22.1209 12.2 21.6811 12.2 21.1381C12.2 20.5952 11.7425 20.1554 11.1833 20.1554H9.14995C8.59078 20.1554 8.13328 20.5952 8.13328 21.1381C8.13328 21.6811 8.59078 22.1209 9.14995 22.1209ZM17.2833 22.1209H19.3166C19.8758 22.1209 20.3333 21.6811 20.3333 21.1381C20.3333 20.5952 19.8758 20.1554 19.3166 20.1554H17.2833C16.7241 20.1554 16.2666 20.5952 16.2666 21.1381C16.2666 21.6811 16.7241 22.1209 17.2833 22.1209ZM9.14995 17.2071H11.1833C11.7425 17.2071 12.2 16.7673 12.2 16.2244C12.2 15.6814 11.7425 15.2416 11.1833 15.2416H9.14995C8.59078 15.2416 8.13328 15.6814 8.13328 16.2244C8.13328 16.7673 8.59078 17.2071 9.14995 17.2071ZM17.2833 17.2071H19.3166C19.8758 17.2071 20.3333 16.7673 20.3333 16.2244C20.3333 15.6814 19.8758 15.2416 19.3166 15.2416H17.2833C16.7241 15.2416 16.2666 15.6814 16.2666 16.2244C16.2666 16.7673 16.7241 17.2071 17.2833 17.2071ZM25.4166 17.2071H27.45C28.0091 17.2071 28.4666 16.7673 28.4666 16.2244C28.4666 15.6814 28.0091 15.2416 27.45 15.2416H25.4166C24.8575 15.2416 24.4 15.6814 24.4 16.2244C24.4 16.7673 24.8575 17.2071 25.4166 17.2071ZM38.633 5.41408V5.90546C38.633 6.2961 38.4703 6.67204 38.1857 6.94714C37.901 7.22477 37.5147 7.37956 37.108 7.37956C36.7014 7.37956 36.315 7.22477 36.0304 6.94714C35.7457 6.67197 35.5831 6.29604 35.5831 5.90546V5.41408H9.14969V5.90546C9.14969 6.2961 8.98702 6.67204 8.70235 6.94714C8.41769 7.22477 8.03138 7.37956 7.62472 7.37956C7.21805 7.37956 6.83168 7.22477 6.54708 6.94714C6.26241 6.67197 6.09975 6.29604 6.09975 5.90546V5.41408H3.04974C2.49057 5.41408 2.03308 5.85386 2.03308 6.39683V9.34509H42.6998V6.39683C42.6998 5.85386 42.2423 5.41408 41.6831 5.41408H38.633Z"
        fill="white" />
</svg>