<svg width="60" height="64" viewBox="0 0 60 64" fill="none" xmlns="http://www.w3.org/2000/svg">
<path d="M16.8908 13.1138H20.019L19.5339 15.9276C19.506 16.0721 19.5785 16.2221 19.7012 16.2943C19.7597 16.3304 19.8239 16.3526 19.8908 16.3526C19.9716 16.3526 20.0441 16.3249 20.1083 16.2721L24.2988 13.1138H26.4484V12.2416C26.4484 10.6471 27.7449 9.35551 29.3453 9.35551H41.1665C42.7669 9.35551 44.0634 10.6471 44.0634 12.2416V13.1083C45.3738 13.0222 46.4305 11.9249 46.4305 10.5916V2.52775C46.4305 1.13613 45.2873 0.00277773 43.8961 0.00277773L16.8904 0C15.4991 0 14.3559 1.13335 14.3559 2.52497V10.5888C14.3559 11.9805 15.4995 13.1138 16.8908 13.1138ZM18.6139 3.84465H41.9195C42.123 3.84465 42.2819 4.00299 42.2819 4.20576C42.2819 4.40853 42.123 4.56686 41.9195 4.56686H18.6139C18.4187 4.56686 18.2514 4.40852 18.2514 4.20576C18.2514 4.00298 18.4187 3.84465 18.6139 3.84465ZM18.6139 6.78071H29.3873C29.5825 6.78071 29.7498 6.93904 29.7498 7.14181C29.7498 7.33625 29.5825 7.50291 29.3873 7.50291H18.6139C18.4187 7.50291 18.2514 7.33625 18.2514 7.14181C18.2514 6.93903 18.4187 6.78071 18.6139 6.78071ZM9.26507 17.4472C9.26507 15.1722 11.1164 13.3278 13.3999 13.3278C15.6833 13.3278 17.5347 15.1722 17.5347 17.4472C17.5347 19.7221 15.6833 21.5666 13.3999 21.5666C11.1164 21.5666 9.26507 19.7221 9.26507 17.4472ZM47.4875 17.4472C47.4875 15.1722 49.3388 13.3278 51.6223 13.3278C53.9057 13.3278 55.7571 15.1722 55.7571 17.4472C55.7571 19.7221 53.9057 21.5666 51.6223 21.5666C49.3388 21.5666 47.4875 19.7221 47.4875 17.4472ZM28.7121 60.0328C28.8571 60.58 28.7483 61.1577 28.3998 61.6049C28.0513 62.0605 27.5243 62.3188 26.9528 62.3188C26.2084 62.3188 25.5197 61.8494 25.2521 61.1577L19.3218 45.8805C19.2632 45.7444 19.1322 45.6499 18.9816 45.6499H8.57932C7.16851 45.6499 5.92221 44.7555 5.47333 43.4222L4.96032 41.8778C3.75864 38.2861 3.36828 34.397 3.83116 30.6388C4.15736 28.0056 5.43711 25.5834 7.4362 23.8306C8.23918 23.1251 9.28191 22.7418 10.3331 22.7418C10.623 22.7418 10.9046 22.7696 11.1806 22.8279C12.8173 23.1529 14.1054 24.3501 14.5403 25.9501L16.3637 32.6638C16.4 32.8222 16.545 32.9305 16.7122 32.9305H25.1967C26.1223 32.9305 26.8751 33.6805 26.8751 34.6027C26.8751 35.4527 26.2311 36.1666 25.3919 36.261L13.308 37.3221L9.58588 29.7141C9.49945 29.5335 9.28198 29.4557 9.10911 29.5418C8.92788 29.6363 8.84982 29.8446 8.94182 30.0252L12.756 37.8586L13.5534 39.6336C13.6036 39.7419 13.7068 39.8225 13.8294 39.8419L22.1854 41.1752C23.1055 41.3058 23.8499 41.9614 24.0897 42.8558L28.7152 60.0302L28.7121 60.0328ZM52.1098 45.7525H41.4398C41.2948 45.7525 41.1638 45.8386 41.108 45.9747L35.0188 61.2384C34.6926 62.0162 33.8451 62.4495 33.0197 62.2857C32.543 62.1857 32.1442 61.9024 31.8821 61.4912C31.6201 61.0801 31.542 60.5968 31.6507 60.1413L37.319 41.4806C37.3775 41.4723 37.4361 41.4723 37.4918 41.4667L50.8555 40.0307C51.0228 40.0168 51.151 39.8946 51.1733 39.7279L52.7375 29.7583C52.7737 29.5639 52.6371 29.375 52.4419 29.3472C52.2384 29.3194 52.0572 29.4472 52.0209 29.6416L51.9624 30.0083L50.507 39.3415L37.5922 40.7275L37.411 40.7498C36.9538 40.7942 36.5132 40.6637 36.1592 40.3748C35.8051 40.0859 35.5876 39.6748 35.543 39.222C35.4705 38.3637 36.0504 37.5915 36.898 37.4248L43.9268 36.0027L46.0402 35.5777C46.1936 35.5415 46.3079 35.4193 46.3302 35.2666L46.4891 34.0971L47.451 26.8418C47.6546 24.4974 49.5951 22.7391 51.9483 22.7391C54.4018 22.7391 56.4287 24.7308 56.465 27.1613L56.1165 41.6947C56.1304 42.7697 55.7178 43.7864 54.965 44.5585C54.2038 45.3224 53.1917 45.7474 52.1044 45.7474L52.1098 45.7525ZM38.9781 21.8916C39.0506 21.9416 39.1314 21.9721 39.2095 21.9721C39.413 21.9721 39.5998 21.8138 39.5942 21.5832L39.558 19.2666H41.1639C42.3656 19.2666 43.3359 18.2999 43.3359 17.1027V12.2417C43.3359 11.0445 42.3656 10.0779 41.1639 10.0779H29.3427C28.141 10.0779 27.1707 11.0445 27.1707 12.2417V17.1027C27.1707 18.2999 28.141 19.2666 29.3427 19.2666H35.6327L38.9781 21.8916ZM29.5094 13.2944C29.5094 13.0916 29.6683 12.9333 29.8718 12.9333H40.6367C40.8402 12.9333 40.9992 13.0916 40.9992 13.2944C40.9992 13.4972 40.8402 13.6555 40.6367 13.6555H29.8718C29.6683 13.6555 29.5094 13.4971 29.5094 13.2944ZM33.3904 15.9916C33.3904 15.7888 33.5493 15.6305 33.7529 15.6305H40.6367C40.8402 15.6305 40.9992 15.7888 40.9992 15.9916C40.9992 16.186 40.8402 16.3527 40.6367 16.3527H33.7529C33.5493 16.3527 33.3904 16.186 33.3904 15.9916ZM18.3794 47.7692V63.9993H15.4825V49.2134H2.89686V63.9993H0V28.7025H2.89686V46.3271H16.9322C17.7324 46.3271 18.3794 46.9748 18.3794 47.7692ZM60 28.7032V64H57.1031V49.2141H44.5146V64H41.6178V47.7699C41.6178 46.9727 42.2674 46.3283 43.0648 46.3283H57.1001V28.7037L60 28.7032Z" fill="white"/>
</svg>
