<svg width="53" height="52" viewBox="0 0 53 52" fill="none" xmlns="http://www.w3.org/2000/svg">
<path fill-rule="evenodd" clip-rule="evenodd" d="M0.792969 25.3155V25.2279H17.8281L13.4948 20.8938L17.8718 25.2717L13.4948 29.6497L17.8281 25.3155H0.792969V25.3155Z" fill="white"/>
<path fill-rule="evenodd" clip-rule="evenodd" d="M15.9111 24.433H0.794754C0.355825 24.433 0 24.7889 0 25.2279V25.3155C0 25.7545 0.355825 26.1104 0.794754 26.1104H15.9112L12.9346 29.0876C12.6242 29.398 12.6242 29.9013 12.9346 30.2117C13.245 30.5222 13.7482 30.5222 14.0586 30.2117L18.3919 25.8776L18.392 25.8774L18.4356 25.8338C18.746 25.5234 18.746 25.0201 18.4356 24.7096L18.3926 24.6666L18.3919 24.6658L14.0586 20.3317C13.7482 20.0213 13.245 20.0213 12.9346 20.3317C12.6242 20.6421 12.6242 21.1454 12.9346 21.4559L15.9112 24.433L15.9111 24.433Z" fill="white"/>
<path fill-rule="evenodd" clip-rule="evenodd" d="M17.8475 5.36536C17.9511 5.38866 18.064 5.40486 18.1825 5.42306C18.3204 5.44426 18.4731 5.46524 18.6153 5.55544C18.8499 5.7043 21.5305 8.17848 23.0217 10.0101C23.3855 10.4569 23.6776 10.8615 23.8324 11.1809C23.8723 11.2633 23.9083 11.3862 23.9157 11.4122C23.8684 11.6403 23.9862 11.8729 24.2018 11.9682C24.9945 12.3189 25.9209 12.7978 26.4539 13.3516C26.6868 13.5936 26.8606 13.8345 26.7673 14.1011C26.7096 14.2662 26.6627 14.4146 26.6099 14.5458C26.5631 14.662 26.5193 14.7625 26.4258 14.8333C26.273 14.9492 26.0334 14.9924 25.6382 15.0146C25.118 15.044 24.3848 15.0095 23.3307 14.9144C21.1715 14.7195 19.4898 14.319 18.1157 14.0891C17.1323 13.9245 16.2953 13.8482 15.5517 13.9644C14.3308 14.1552 12.3489 14.573 11.0406 14.7785C10.5439 14.8566 10.1578 14.9106 9.98033 14.8888C9.65441 14.8489 9.51067 14.7468 9.34782 14.6717C9.16522 14.5876 8.96992 14.5191 8.66378 14.5041C8.09221 14.4763 3.50541 14.4528 0.814665 15.2605C0.551468 15.3395 0.401919 15.6173 0.480892 15.8806C0.559865 16.1438 0.837682 16.2934 1.10088 16.2144C3.67663 15.4412 8.06818 15.4722 8.61533 15.4989C8.86428 15.5111 8.97434 15.5999 9.13252 15.6732C9.31131 15.756 9.52335 15.8363 9.85936 15.8774C10.0826 15.9047 10.5704 15.8606 11.1951 15.7625C12.5032 15.557 14.4847 15.1392 15.7054 14.9484C16.357 14.8466 17.0897 14.9272 17.9514 15.0714C19.3451 15.3046 21.0511 15.7087 23.2412 15.9063C24.5973 16.0287 25.4584 16.0498 26.0233 15.9803C26.502 15.9213 26.8082 15.7932 27.0274 15.627C27.3762 15.3625 27.5161 14.976 27.7072 14.4301C27.9194 13.8236 27.7013 13.2116 27.1712 12.6608C26.6232 12.0913 25.7215 11.5753 24.8858 11.1852C24.8706 11.1117 24.8483 11.0342 24.8178 10.953C24.6681 10.5546 24.2954 9.99726 23.7938 9.38114C22.2267 7.45642 19.3951 4.87082 19.1486 4.71446C18.9174 4.56773 18.6773 4.49868 18.4473 4.45742C18.2967 4.43041 18.1535 4.42146 18.0334 4.38542C17.9834 4.37044 17.9022 4.35464 17.7899 4.36531C17.6761 4.37616 17.4377 4.43249 17.1018 4.53322C15.6535 4.96754 12.0743 6.24952 9.00076 7.16521C5.19802 8.29817 0.666977 8.80656 0.666977 8.80656C0.393877 8.83725 0.197084 9.08388 0.22776 9.35703C0.258403 9.63014 0.50503 9.82703 0.778086 9.79634C0.778086 9.79634 5.40316 9.27628 9.28502 8.11976C12.3592 7.20384 15.9392 5.92163 17.3878 5.48723C17.5754 5.43098 17.7687 5.38395 17.8475 5.36538L17.8475 5.36536Z" fill="white"/>
<path fill-rule="evenodd" clip-rule="evenodd" d="M14.6898 8.70514C14.69 8.70532 15.4397 9.44968 16.3577 10.1001C17.0105 10.5626 17.7489 10.9683 18.3772 11.0771C19.7945 11.3224 20.0862 11.1848 21.3576 11.4035C22.5685 11.6119 23.74 11.752 24.2073 11.9857C24.453 12.1086 24.7523 12.0089 24.8753 11.763C24.9981 11.5172 24.8984 11.2178 24.6526 11.0949C24.1389 10.8379 22.8578 10.6511 21.5264 10.422C20.2555 10.2033 19.9638 10.3409 18.547 10.0957C18.0416 10.0082 17.4585 9.65951 16.9333 9.28744C16.0846 8.68607 15.3912 7.99813 15.3912 7.99813C15.1961 7.80457 14.8807 7.80579 14.6871 8.0009C14.4935 8.19598 14.4948 8.51156 14.6898 8.70514H14.6898Z" fill="white"/>
<path fill-rule="evenodd" clip-rule="evenodd" d="M18.0462 7.04521C18.0462 7.04521 18.0055 7.82475 17.8124 8.64107C17.6951 9.13748 17.5286 9.65418 17.2571 9.97962C17.081 10.1907 17.1095 10.505 17.3205 10.6811C17.5315 10.8571 17.8457 10.8287 18.0217 10.6177C18.3787 10.1898 18.6271 9.52299 18.7815 8.87033C18.996 7.96316 19.0407 7.09677 19.0407 7.09677C19.0549 6.82231 18.8436 6.58793 18.5692 6.57367C18.2948 6.55947 18.0604 6.77074 18.0462 7.04521Z" fill="white"/>
<path fill-rule="evenodd" clip-rule="evenodd" d="M25.6203 11.6952C25.6202 11.6952 25.0988 11.7068 24.5945 11.8502C24.1778 11.9687 23.7877 12.1874 23.5876 12.4952C23.3786 12.8169 23.1111 13.5908 23.0495 14.1792C23.0145 14.5138 23.0544 14.8 23.1418 14.9759C23.4615 15.6188 23.7638 15.839 24.3348 15.9532C24.6042 16.0071 24.8667 15.8321 24.9207 15.5626C24.9745 15.293 24.7995 15.0305 24.5301 14.9766C24.2869 14.9279 24.1748 14.8134 24.0394 14.544C24.0377 14.5306 24.0308 14.4751 24.0308 14.4384C24.0308 14.3352 24.0452 14.2163 24.0676 14.0919C24.1391 13.6941 24.2904 13.2414 24.4226 13.038C24.5062 12.9092 24.6925 12.8578 24.8668 12.8082C25.2482 12.6998 25.6426 12.6909 25.6426 12.6909C25.9173 12.6848 26.1354 12.4567 26.1292 12.1819C26.1231 11.9072 25.895 11.689 25.6203 11.6952Z" fill="white"/>
<path fill-rule="evenodd" clip-rule="evenodd" d="M19.6428 10.6676C19.6428 10.6676 19.7022 9.47991 20.5076 8.71213C20.7064 8.52246 20.714 8.207 20.5244 8.00803C20.3348 7.8091 20.0194 7.80157 19.8205 7.99119C18.7384 9.02282 18.6484 10.6142 18.6484 10.6142C18.6337 10.8886 18.8445 11.1234 19.1189 11.1382C19.3933 11.1529 19.628 10.9421 19.6428 10.6676V10.6676Z" fill="white"/>
<path fill-rule="evenodd" clip-rule="evenodd" d="M20.1178 10.7655L28.1706 0.0700684L38.0494 7.51088L24.6769 25.2716L14.7981 17.8307L17.3249 14.4748C18.8314 14.662 20.726 15.179 23.2877 15.4102C26.912 15.7373 26.8604 15.3475 27.239 14.2655C27.6205 13.1752 25.822 12.1395 24.405 11.5126C24.8955 11.7579 24.7047 11.6517 24.405 11.5126C23.9144 11.2673 22.7154 11.1311 21.4443 10.9123C20.8651 10.8126 20.4893 10.787 20.1178 10.7654L20.1178 10.7654L20.1178 10.7655ZM31.6465 8.06491L30.12 6.91439C29.6252 7.28799 29.1563 7.48207 28.7131 7.49659C28.27 7.51107 27.8517 7.37008 27.4582 7.0735C27.0599 6.7733 26.82 6.39536 26.7386 5.93982C26.6572 5.48431 26.7533 5.03203 27.0268 4.58306L26.6661 4.31123L27.0642 3.78286L27.4249 4.05469C27.762 3.70318 28.1254 3.49522 28.5148 3.43067C28.9042 3.36616 29.3049 3.4396 29.7168 3.65107L29.1425 4.66359C28.8138 4.50347 28.5096 4.50279 28.2301 4.66155L29.6546 5.73522C30.2517 5.27117 30.7556 5.02821 31.1663 5.00632C31.5769 4.98445 31.9789 5.12177 32.3724 5.41835C32.812 5.7497 33.0822 6.16185 33.183 6.65486C33.2837 7.14786 33.1897 7.65689 32.9008 8.18185L33.582 8.69533L33.184 9.2237L32.5209 8.72397C32.1532 9.1058 31.7394 9.32902 31.2794 9.3937C30.8195 9.45835 30.3228 9.34681 29.7894 9.05905L30.4039 8.03108C30.6275 8.13867 30.85 8.19211 31.0714 8.19138C31.2928 8.19065 31.4845 8.14853 31.6465 8.06491ZM32.0956 7.57499C32.1989 7.36717 32.2261 7.15534 32.1773 6.93958C32.1286 6.72381 32.0131 6.54727 31.8309 6.40999C31.6682 6.28732 31.4918 6.22958 31.3017 6.23675C31.1116 6.24392 30.9026 6.33303 30.6747 6.50404L32.0956 7.57499ZM27.8211 5.18169C27.7616 5.3616 27.7582 5.53806 27.8107 5.71092C27.8633 5.88384 27.9599 6.02338 28.1008 6.12957C28.2296 6.22658 28.3785 6.27788 28.5476 6.28342C28.7166 6.28895 28.8946 6.23843 29.0816 6.13179L27.8211 5.18169Z" fill="white"/>
<path fill-rule="evenodd" clip-rule="evenodd" d="M33.6988 33.8676C33.6127 33.8596 33.5233 33.877 33.4426 33.9232C33.4269 33.9321 33.4115 33.9416 33.3965 33.9515C33.3339 33.9793 33.2724 34.0096 33.2101 34.0379C32.9999 34.1332 32.7977 34.2418 32.633 34.4087C32.4008 34.644 32.2804 34.9258 32.2119 35.2445C32.1178 35.6818 32.1077 36.1521 32.3325 36.5538C32.3738 36.6276 32.4884 36.8322 32.5744 36.9262C32.6871 37.0494 32.893 37.2043 33.0015 37.2813C33.3979 37.563 33.8252 37.8096 34.2611 38.0244L34.2709 38.0292L33.0745 37.8595L32.451 42.2413L37.6253 42.9779L38.1653 39.17C38.3479 39.3907 38.5294 39.6386 38.6807 39.86C38.8866 40.1612 39.1069 40.5165 39.2754 40.8415C39.3612 41.007 39.4695 41.2288 39.5286 41.4211C39.5837 41.6001 39.5871 41.7592 39.6008 41.9559C39.6171 42.1887 39.6271 42.422 39.6339 42.6553C39.6507 43.2313 39.6511 43.8839 39.6307 44.4579C39.6105 45.0234 39.5808 45.5982 39.4909 46.1587C39.4537 46.3912 39.4129 46.6249 39.3081 46.8372C39.2794 46.8546 39.1339 46.9427 39.077 46.9753C38.662 47.2131 38.2278 47.421 37.7871 47.6063C37.6568 47.6612 37.3533 47.6857 36.9557 47.6997L37.5107 43.7865L32.3359 43.0499L31.737 47.2593L34.8516 47.7012C33.684 47.67 32.5739 47.5954 32.3015 47.5158C31.9318 47.4079 31.4182 47.2642 30.9304 47.1312L31.5275 42.9348L26.4262 42.2086L25.891 45.9825C25.675 45.9498 25.4236 45.92 25.2706 45.9264C25.1326 45.9322 24.9959 45.9579 24.8601 45.9833C24.6816 46.0167 24.4974 46.1035 24.3593 46.2219C24.2578 46.3088 24.1678 46.4335 24.101 46.5419C24.0349 46.6495 23.9878 46.7811 23.9575 46.9018C23.9085 47.0973 23.8855 47.3065 23.9015 47.5079C23.9127 47.6489 23.9551 47.8308 24.0345 47.9555C24.0816 48.0294 24.146 48.0935 24.2171 48.1449C24.387 48.2677 24.564 48.3805 24.736 48.5003C25.0513 48.72 25.3629 48.9449 25.6791 49.1634C26.0062 49.3895 26.3345 49.6141 26.6658 49.834C26.775 49.9065 27.2095 50.1808 27.3892 50.2444C27.5612 50.3052 27.7396 50.3457 27.9161 50.3916C28.5862 50.5661 28.5881 50.5509 29.2559 50.7306C29.3274 50.7498 29.5076 50.7976 29.5874 50.8369C29.7223 50.9034 29.8514 50.9809 29.9849 51.0502C30.35 51.2398 30.6817 51.4147 31.0545 51.5734C31.3638 51.705 31.6912 51.8338 32.026 51.8844C32.2797 51.9227 32.7949 51.9029 32.9064 51.8999C33.5515 51.8822 40.1806 51.9244 40.5059 51.93C40.5924 51.9315 40.8356 51.9124 40.929 51.8845C41.398 51.744 41.8384 51.4897 42.2615 51.251C42.8343 50.9276 43.2803 50.6448 43.8576 50.2701C44.1863 50.0568 44.4747 49.791 44.8057 49.5827C45.1123 49.3898 45.5947 49.133 45.9038 48.9721C46.3279 48.7512 46.825 48.5052 47.2582 48.3014C47.6146 48.1338 48.0041 47.9239 48.3885 47.8181C48.5849 47.7641 48.7958 47.8108 48.9992 47.8016C49.5409 47.7768 50.6374 47.7098 51.1861 47.6651C51.261 47.659 51.3775 47.694 51.4658 47.6973C51.611 47.7026 51.7315 47.6677 51.8144 47.618C51.9627 47.5293 52.0629 47.3934 52.0595 47.1721C52.0558 46.9314 51.8574 46.7391 51.6168 46.7428C51.5323 46.7441 51.4539 46.7694 51.3877 46.8121C51.2974 46.802 51.1757 46.7908 51.1152 46.7958C50.5743 46.8399 49.4934 46.9059 48.9595 46.9303C48.6919 46.9425 48.4155 46.9061 48.1572 46.9772C47.7261 47.0958 47.2866 47.3242 46.8871 47.5122C46.4437 47.7208 45.9352 47.9724 45.5011 48.1984C45.1745 48.3685 44.6653 48.6406 44.3414 48.8444C44.0069 49.0549 43.7151 49.3229 43.383 49.5384C42.8222 49.9023 42.3893 50.1773 41.8329 50.4913C41.4687 50.6969 41.093 50.9228 40.6897 51.0455C40.6684 51.0475 40.5519 51.0585 40.5209 51.058C40.1939 51.0523 33.5309 51.0102 32.8825 51.028C32.7905 51.0305 32.3656 51.0536 32.1563 51.022C31.8935 50.9823 31.6387 50.8741 31.3959 50.7708C31.0439 50.621 30.7313 50.455 30.3866 50.2761C30.2477 50.204 30.1132 50.1238 29.9729 50.0546C29.8542 49.9961 29.5888 49.9169 29.4824 49.8883C28.8112 49.7077 28.8093 49.7229 28.1358 49.5475C27.9832 49.5078 27.8285 49.4746 27.6799 49.4221C27.5463 49.3749 27.2292 49.1612 27.1481 49.1073C26.8213 48.8904 26.4975 48.6689 26.1748 48.4459C25.8595 48.228 25.5488 48.0036 25.2343 47.7846C25.0824 47.6788 24.9264 47.5787 24.7753 47.4718C24.7733 47.4597 24.7715 47.4473 24.7708 47.4391C24.7623 47.3309 24.777 47.2189 24.8033 47.114C24.8128 47.076 24.8229 47.0329 24.8438 46.999C24.8667 46.9617 24.8918 46.9141 24.9267 46.8842C24.9524 46.8622 24.987 46.8469 25.0202 46.8407C25.1154 46.8229 25.2106 46.8019 25.3073 46.7978C25.5012 46.7897 25.895 46.8642 26.0507 46.8944C26.4879 46.9794 26.9242 47.07 27.3592 47.1658C27.421 47.1794 29.2372 47.5855 29.8307 47.7399C30.4535 47.9019 31.451 48.176 32.0571 48.353C32.4889 48.4791 34.9008 48.6162 36.5411 48.5831C37.3011 48.5677 37.906 48.5025 38.1251 48.4103C38.5985 48.2113 39.0646 47.9875 39.5104 47.7321C39.6826 47.6334 39.9641 47.4689 40.0739 47.2556C40.2282 46.9557 40.299 46.6272 40.352 46.2967C40.4475 45.7009 40.4807 45.0901 40.5021 44.4889C40.5233 43.897 40.5229 43.224 40.5056 42.6299C40.4984 42.3848 40.4878 42.1397 40.4707 41.8951C40.452 41.626 40.4374 41.4097 40.3621 41.1647C40.2883 40.9247 40.1566 40.6464 40.0495 40.4399C39.8654 40.085 39.6254 39.6967 39.4005 39.3677C39.1846 39.0519 38.9125 38.6881 38.6544 38.402C38.473 38.201 38.1844 37.9017 37.903 37.7896C37.314 37.555 36.6239 37.5452 36.0029 37.5437C35.9988 37.5437 35.5841 37.5728 35.442 37.5505C35.166 37.5071 34.8932 37.3636 34.6465 37.242C34.2521 37.0477 33.8651 36.8251 33.5064 36.5702C33.4339 36.5187 33.2929 36.4195 33.2176 36.3372C33.1796 36.2958 33.1371 36.2117 33.1101 36.1593C33.1283 36.1658 33.1466 36.1707 33.1647 36.1743C33.3301 36.2396 34.1957 36.5721 34.6641 36.5888C35.0253 36.6016 35.3331 36.4789 35.6035 36.3059C35.807 36.1758 35.9849 36.0149 36.1522 35.8992C36.3645 35.7526 36.4721 35.5687 36.523 35.3934C36.9511 35.5109 37.3786 35.63 37.8068 35.7471C38.0008 35.8002 38.1945 35.8545 38.3894 35.9041L38.6804 35.9711C38.9653 36.1264 39.2069 36.4108 39.4367 36.631C39.5302 36.7206 39.614 36.8212 39.7152 36.9021C39.8647 37.0215 40.4922 37.3298 40.5446 37.3548C41.0385 37.5909 41.5335 37.8247 42.0315 38.0519C42.545 38.2862 43.0618 38.5132 43.579 38.7393C43.7445 38.8117 44.3127 39.0534 44.553 39.1282C45.7461 39.4998 46.9877 39.6221 48.219 39.7927C48.7383 39.8646 49.257 39.9413 49.7756 40.018C50.4381 40.116 51.1001 40.2166 51.7622 40.3171C52.0001 40.3532 52.2226 40.1893 52.2587 39.9513C52.2948 39.7134 52.131 39.4908 51.8931 39.4548C51.2299 39.3541 50.5668 39.2534 49.9033 39.1552C49.382 39.0781 48.8607 39.0011 48.3387 38.9287C47.1545 38.7647 45.9596 38.6528 44.8122 38.2955C44.5939 38.2275 44.0786 38.0059 43.9282 37.9402C43.4153 37.7159 42.9027 37.4908 42.3934 37.2584C41.9001 37.0333 41.4098 36.8017 40.9206 36.5678C40.8792 36.548 40.3776 36.3149 40.2594 36.2205C40.1786 36.156 40.1147 36.0728 40.04 36.0012C39.7498 35.723 39.4298 35.3788 39.0677 35.1892C38.9727 35.1394 38.6257 35.0642 38.6045 35.0588C38.4146 35.0104 38.2258 34.9575 38.0368 34.9058C37.4787 34.7531 36.9214 34.597 36.3629 34.4457C35.8933 34.3184 35.1378 34.1197 34.6515 34.0117C34.5491 33.9889 34.0099 33.8701 33.7723 33.8659C33.7479 33.8655 33.7234 33.866 33.6988 33.8676L33.6988 33.8676ZM26.5409 41.4L31.6425 42.1262L32.266 37.7448L27.1619 37.0208L26.5409 41.4L26.5409 41.4ZM33.685 35.7835L33.6865 35.7566C33.6862 35.7657 33.6857 35.7746 33.685 35.7835ZM33.8125 34.7413C34.0213 34.759 34.3874 34.8464 34.4624 34.8632C34.7992 34.9379 35.2678 35.0573 35.6757 35.1648C35.6704 35.1708 35.6642 35.1764 35.6566 35.1816C35.5236 35.2735 35.384 35.3944 35.23 35.5054C35.0776 35.6153 34.9091 35.7248 34.6951 35.7171C34.3932 35.7064 33.9639 35.5514 33.6818 35.4412C33.6857 35.2982 33.6988 35.1171 33.7359 34.967C33.7559 34.8861 33.7729 34.8017 33.8125 34.7413ZM33.0852 35.341C33.0982 35.3359 33.1111 35.3315 33.1239 35.3277C33.1102 35.3325 33.0971 35.3379 33.0844 35.3439L33.0846 35.3434L33.0852 35.341ZM33.267 35.3077C33.2832 35.3081 33.2995 35.3094 33.3158 35.3118C33.3322 35.3142 33.3487 35.3177 33.3652 35.3223C33.3305 35.3137 33.2978 35.309 33.267 35.3077Z" fill="white"/>
</svg>
