<svg width="32" height="45" viewBox="0 0 32 45" fill="none" xmlns="http://www.w3.org/2000/svg">
<path fill-rule="evenodd" clip-rule="evenodd" d="M11.911 0.913086C11.0386 0.913086 10.202 1.25673 9.58521 1.86842C8.5791 2.86614 7.47319 4.17478 6.05625 4.17478H4.23637C3.36405 4.17478 2.52745 4.51843 1.91062 5.13011C1.2938 5.7418 0.947266 6.57143 0.947266 7.43648V41.1407C0.947266 42.0058 1.2938 42.8354 1.91062 43.4471C2.52745 44.0588 3.36405 44.4024 4.23637 44.4024H28.3565C29.2288 44.4024 30.0654 44.0588 30.6822 43.4471C31.2991 42.8354 31.6456 42.0058 31.6456 41.1407V7.43648C31.6456 6.57143 31.2991 5.7418 30.6822 5.13011C30.0654 4.51843 29.2288 4.17478 28.3565 4.17478H26.5366C25.1197 4.17478 24.0138 2.86614 23.0077 1.86842C22.3908 1.25673 21.5542 0.913086 20.6819 0.913086H11.911ZM10.8146 4.17478C10.8146 3.88643 10.9301 3.60989 11.1357 3.40599C11.3413 3.2021 11.6202 3.08755 11.911 3.08755H20.6819C20.9727 3.08755 21.2516 3.2021 21.4572 3.40599C21.6628 3.60989 21.7783 3.88643 21.7783 4.17478V6.34925C21.7783 6.6376 21.6628 6.91414 21.4572 7.11804C21.2516 7.32194 20.9727 7.43648 20.6819 7.43648H11.911C11.6202 7.43648 11.3413 7.32194 11.1357 7.11804C10.9301 6.91414 10.8146 6.6376 10.8146 6.34925V4.17478ZM7.52548 18.3088C7.23471 18.3088 6.95584 18.4234 6.75023 18.6273C6.54462 18.8312 6.42911 19.1077 6.42911 19.396C6.42911 19.6844 6.54462 19.9609 6.75023 20.1648C6.95584 20.3687 7.23471 20.4833 7.52548 20.4833H15.2001C15.4908 20.4833 15.7697 20.3687 15.9753 20.1648C16.1809 19.9609 16.2964 19.6844 16.2964 19.396C16.2964 19.1077 16.1809 18.8312 15.9753 18.6273C15.7697 18.4234 15.4908 18.3088 15.2001 18.3088H7.52548ZM6.42911 13.9599C6.42911 13.6715 6.54462 13.395 6.75023 13.1911C6.95584 12.9872 7.23471 12.8726 7.52548 12.8726H24.5192C24.81 12.8726 25.0888 12.9872 25.2945 13.1911C25.5001 13.395 25.6156 13.6715 25.6156 13.9599C25.6156 14.2482 25.5001 14.5248 25.2945 14.7287C25.0888 14.9326 24.81 15.0471 24.5192 15.0471H7.52548C7.23471 15.0471 6.95584 14.9326 6.75023 14.7287C6.54462 14.5248 6.42911 14.2482 6.42911 13.9599ZM6.42911 27.0067C6.42911 26.7183 6.54462 26.4418 6.75023 26.2379C6.95584 26.034 7.23471 25.9194 7.52548 25.9194H11.911C12.2017 25.9194 12.4806 26.034 12.6862 26.2379C12.8918 26.4418 13.0073 26.7183 13.0073 27.0067V31.3556C13.0073 31.644 12.8918 31.9205 12.6862 32.1244C12.4806 32.3283 12.2017 32.4428 11.911 32.4428H7.52548C7.23471 32.4428 6.95584 32.3283 6.75023 32.1244C6.54462 31.9205 6.42911 31.644 6.42911 31.3556V27.0067ZM20.6819 31.3556C21.5542 31.3556 22.3908 31.012 23.0077 30.4003C23.6245 29.7886 23.971 28.959 23.971 28.0939C23.971 27.2288 23.6245 26.3992 23.0077 25.7875C22.3908 25.1759 21.5542 24.8322 20.6819 24.8322C19.8096 24.8322 18.973 25.1759 18.3562 25.7875C17.7393 26.3992 17.3928 27.2288 17.3928 28.0939C17.3928 28.959 17.7393 29.7886 18.3562 30.4003C18.973 31.012 19.8096 31.3556 20.6819 31.3556ZM14.1037 36.2482C14.1037 33.9476 18.4859 32.7886 20.6819 32.7886C22.8779 32.7886 27.2601 33.9476 27.2601 36.2482C27.2601 37.7493 26.0432 38.9662 24.542 38.9662H16.8218C15.3206 38.9662 14.1037 37.7493 14.1037 36.2482Z" fill="white"/>
</svg>
