<svg width="35" height="35" viewBox="0 0 35 35" fill="none" xmlns="http://www.w3.org/2000/svg">
<path fill-rule="evenodd" clip-rule="evenodd" d="M18.6449 33.8512C18.6387 33.848 18.6314 33.8487 18.6246 33.8499C18.6188 33.851 18.6133 33.8528 18.6081 33.8554L18.5044 33.9065C18.4971 33.9101 18.4893 33.9127 18.4812 33.9144L18.4768 33.9152C18.465 33.9176 18.4528 33.9171 18.4412 33.9138C18.4368 33.9126 18.4326 33.9109 18.4285 33.9089L18.326 33.8584C18.3167 33.8538 18.3071 33.849 18.2967 33.8486C18.2889 33.8484 18.2823 33.8502 18.2768 33.8542C18.2721 33.8575 18.2695 33.8628 18.2674 33.8681C18.2649 33.8743 18.2635 33.8808 18.2633 33.8874L18.2349 34.602C18.2345 34.6116 18.2355 34.6212 18.2378 34.6305L18.239 34.635C18.2416 34.6455 18.2464 34.6554 18.253 34.6641C18.2578 34.6703 18.2635 34.6758 18.2699 34.6803L18.4316 34.7954C18.437 34.7992 18.4431 34.8021 18.4496 34.8038L18.4516 34.8044C18.4608 34.8068 18.4705 34.8065 18.4795 34.8035C18.4841 34.802 18.4884 34.7998 18.4924 34.797L18.654 34.682C18.662 34.6763 18.669 34.6695 18.6749 34.6617L18.6758 34.6604C18.683 34.6508 18.6882 34.6398 18.6909 34.628C18.6927 34.6204 18.6935 34.6125 18.6932 34.6046L18.665 33.8965C18.6645 33.8849 18.6639 33.8729 18.6578 33.8631C18.6544 33.8577 18.6501 33.8537 18.6449 33.8512ZM19.1044 33.6579C19.0971 33.6535 19.0882 33.6536 19.0797 33.6549C19.0733 33.6559 19.0671 33.6578 19.0614 33.6607L18.7589 33.8128C18.7534 33.8156 18.7484 33.8192 18.7441 33.8235L18.7421 33.8254C18.7364 33.8312 18.7322 33.8384 18.7301 33.8462C18.7288 33.8509 18.7283 33.8557 18.7285 33.8605L18.7589 34.586C18.7591 34.5924 18.7605 34.5988 18.763 34.6047L18.7635 34.606C18.7664 34.6129 18.7708 34.619 18.7764 34.6239C18.7799 34.627 18.7839 34.6295 18.7881 34.6315L19.1129 34.7818C19.1235 34.7867 19.1344 34.7916 19.1461 34.7915C19.155 34.7915 19.1627 34.7892 19.1693 34.7846C19.1765 34.7795 19.1801 34.771 19.1825 34.7625C19.1847 34.755 19.1856 34.7472 19.1851 34.7394L19.1281 33.7093C19.1274 33.6971 19.1263 33.6845 19.1201 33.674C19.116 33.6671 19.1108 33.6617 19.1044 33.6579ZM17.8579 33.6564C17.8503 33.6518 17.8412 33.6503 17.8325 33.6522C17.8268 33.6535 17.8215 33.6562 17.8172 33.66C17.8127 33.6639 17.8101 33.6695 17.8077 33.675C17.8032 33.6855 17.8006 33.6967 17.7999 33.7082L17.7422 34.7511C17.743 34.7657 17.7481 34.7769 17.7574 34.7846C17.7657 34.7914 17.7771 34.7919 17.7877 34.7904C17.7942 34.7896 17.8005 34.7877 17.8064 34.785L18.1385 34.6313C18.1425 34.6295 18.1463 34.6271 18.1497 34.6244L18.1516 34.6228C18.1583 34.6175 18.1633 34.6105 18.1662 34.6025C18.1679 34.598 18.1688 34.5933 18.169 34.5885L18.1978 33.8605C18.198 33.8557 18.1975 33.8508 18.1963 33.8462C18.1941 33.8372 18.1894 33.8291 18.1829 33.8225L18.182 33.8216C18.1778 33.8174 18.1729 33.8139 18.1675 33.8112L17.8579 33.6564Z" fill="#1D1D1D"/>
<path fill-rule="evenodd" clip-rule="evenodd" d="M29.699 12.6812C30.7482 12.6812 31.7725 12.9998 32.6367 13.5948C33.5008 14.1897 34.1639 15.033 34.5382 16.0131C34.9126 16.9931 34.9805 18.0638 34.7331 19.0833C34.2644 21.0147 33.1526 22.8586 33.1526 24.8461V30.2788C33.1526 30.4261 33.1149 30.5709 33.0432 30.6994C32.9715 30.828 32.8681 30.9361 32.7428 31.0135C32.6175 31.0908 32.4745 31.1348 32.3274 31.1414C32.1804 31.1479 32.034 31.1167 31.9024 31.0507C30.5154 30.3572 28.8827 30.3572 27.4957 31.0507C27.364 31.1167 27.2177 31.1479 27.0706 31.1414C26.9235 31.1348 26.7806 31.0908 26.6553 31.0135C26.53 30.9361 26.4266 30.828 26.3549 30.6994C26.2831 30.5709 26.2455 30.4261 26.2455 30.2788V24.8461C26.2455 22.8586 25.1337 21.0147 24.665 19.0833C24.4175 18.0638 24.4855 16.9931 24.8598 16.0131C25.2342 15.033 25.8973 14.1897 26.7614 13.5948C27.6255 12.9998 28.6499 12.6812 29.699 12.6812ZM31.4258 0.59375C32.3418 0.59375 33.2202 0.957606 33.8679 1.60527C34.5155 2.25294 34.8794 3.13137 34.8794 4.04731V4.78607C34.8794 7.32758 31.6221 9.06921 29.087 9.24938C27.0139 9.39671 25.0635 10.2869 23.5939 11.7565C22.1244 13.2261 21.2342 15.1764 21.0868 17.2495C20.9703 18.8894 21.3248 20.5191 22.0953 21.9515C22.4935 22.6919 22.7919 23.4963 22.7919 24.337C22.7919 26.4828 21.0524 28.2223 18.9067 28.2223H3.79731C2.88137 28.2223 2.00294 27.8584 1.35528 27.2107C0.707606 26.5631 0.34375 25.6846 0.34375 24.7687V4.04731C0.34375 3.13137 0.707606 2.25294 1.35528 1.60527C2.00294 0.957606 2.88137 0.59375 3.79731 0.59375H31.4258ZM10.7044 16.1348H7.25088C6.7929 16.1348 6.35369 16.3167 6.02986 16.6405C5.70602 16.9644 5.52409 17.4036 5.52409 17.8616C5.52409 18.3195 5.70602 18.7587 6.02986 19.0826C6.35369 19.4064 6.7929 19.5883 7.25088 19.5883H10.7044C11.1624 19.5883 11.6016 19.4064 11.9255 19.0826C12.2493 18.7587 12.4312 18.3195 12.4312 17.8616C12.4312 17.4036 12.2493 16.9644 11.9255 16.6405C11.6016 16.3167 11.1624 16.1348 10.7044 16.1348ZM17.6116 9.22766H7.25088C6.81075 9.22814 6.38743 9.39667 6.06739 9.69881C5.74736 10.0009 5.55477 10.4139 5.52898 10.8532C5.50318 11.2926 5.64613 11.7252 5.92862 12.0627C6.2111 12.4002 6.6118 12.6171 7.04884 12.6691L7.25088 12.6812H17.6116C18.0517 12.6807 18.475 12.5122 18.795 12.2101C19.1151 11.9079 19.3077 11.495 19.3335 11.0556C19.3593 10.6163 19.2163 10.1836 18.9338 9.84613C18.6513 9.50863 18.2506 9.29173 17.8136 9.23974L17.6116 9.22766Z" fill="#1D1D1D"/>
</svg>
