<svg width="24" height="22" viewBox="0 0 24 22" fill="none" xmlns="http://www.w3.org/2000/svg">
<path d="M5.056 0.151855V1.96915C5.79538 2.47348 6.27042 3.42215 6.27042 4.46258C6.27042 5.11922 6.08094 5.73898 5.75564 6.23398C5.92395 6.29864 6.1008 6.37048 6.24866 6.4338L12.1916 5.3426L12.4791 7.96928L7.05118 9.08136C7.00931 9.86018 6.93218 10.6266 6.79428 11.5511H23.1253V0.151855H5.056ZM3.84177 2.45083C3.03571 2.45083 2.28734 3.30083 2.28734 4.46262C2.28734 5.62442 3.03571 6.47432 3.84177 6.47432C4.64784 6.47432 5.3962 5.62442 5.3962 4.46262C5.3962 3.30083 4.64784 2.45083 3.84177 2.45083ZM11.4238 6.36047L6.14918 7.32892C5.4575 7.06061 5.90845 7.18356 5.10637 6.92099C4.74324 7.18293 4.31317 7.33634 3.84177 7.33634C3.42405 7.33634 3.03886 7.2155 2.70381 7.00586C2.28657 7.17656 1.84625 7.39334 1.45373 7.61193C0.822676 7.96339 0.301489 8.24468 0.101562 8.37984V14.6164H1.07321V9.29995H1.94733V21.8965H3.40471V13.8021H4.27883V21.8965H5.54192V13.6662L5.5494 13.6267C6.01153 11.2013 6.16084 9.92039 6.20324 8.37471L11.5249 7.28433L11.4238 6.36047ZM6.65623 12.4132C6.60999 12.6854 6.55952 12.9707 6.50342 13.2752H22.3966V12.4132H6.65623ZM9.28194 14.712C8.47587 14.712 7.72751 15.562 7.72751 16.7238C7.72751 17.5954 8.14864 18.2914 8.69945 18.5848C8.87427 18.5052 9.06287 18.4552 9.26678 18.4482C9.49182 18.4406 9.70297 18.485 9.90076 18.5641C10.4335 18.2599 10.8364 17.5761 10.8364 16.7238C10.8364 15.562 10.088 14.712 9.28194 14.712ZM14.7221 14.712C13.916 14.712 13.1677 15.562 13.1677 16.7238C13.1677 17.5954 13.5888 18.2914 14.1396 18.5848C14.3144 18.5052 14.503 18.4552 14.7069 18.4482C14.932 18.4406 15.1431 18.485 15.3409 18.5641C15.8737 18.2599 16.2765 17.5761 16.2765 16.7238C16.2765 15.562 15.5282 14.712 14.7221 14.712ZM20.1623 14.712C19.3562 14.712 18.6078 15.562 18.6078 16.7238C18.6078 17.5954 19.029 18.2914 19.5798 18.5848C19.7546 18.5052 19.9432 18.4552 20.1471 18.4482C20.3722 18.4406 20.5833 18.485 20.7811 18.5641C21.3138 18.2599 21.7167 17.5761 21.7167 16.7238C21.7167 15.562 20.9683 14.712 20.1623 14.712ZM9.29709 19.3098C9.11038 19.3162 8.86445 19.4501 8.6025 19.7305C8.34055 20.011 8.08296 20.413 7.86784 20.8206C7.66257 21.2095 7.49824 21.5946 7.37919 21.8965H11.5244C11.3767 21.5883 11.1776 21.1997 10.935 20.8088C10.6777 20.3941 10.3759 19.9879 10.0768 19.7092C9.77777 19.4305 9.50367 19.3027 9.29709 19.3098ZM14.7373 19.3098C14.5505 19.3162 14.3046 19.4501 14.0427 19.7305C13.7807 20.011 13.5231 20.413 13.308 20.8206C13.1027 21.2095 12.9384 21.5946 12.8194 21.8965H16.9645C16.8169 21.5883 16.6178 21.1997 16.3752 20.8088C16.1178 20.3941 15.8161 19.9879 15.517 19.7092C15.2179 19.4305 14.9438 19.3027 14.7373 19.3098ZM20.1774 19.3098C19.9907 19.3162 19.7448 19.4501 19.4828 19.7305C19.2209 20.011 18.9633 20.413 18.7482 20.8206C18.5429 21.2095 18.3786 21.5946 18.2595 21.8965H22.4047C22.257 21.5883 22.058 21.1997 21.8154 20.8088C21.558 20.3941 21.2562 19.9879 20.9572 19.7092C20.6581 19.4305 20.384 19.3027 20.1774 19.3098Z" fill="white"/>
</svg>
