<svg width="34" height="34" viewBox="0 0 34 34" fill="none" xmlns="http://www.w3.org/2000/svg">
<path d="M17.2109 0.59375C8.02614 0.59375 0.584565 8.03729 0.582031 17.2214C0.584565 26.4029 8.02614 33.8452 17.2109 33.8503C26.3957 33.8452 33.8373 26.4017 33.8386 17.2214C33.8386 8.03729 26.3945 0.595017 17.2109 0.59375ZM17.2109 30.0462C10.1291 30.0322 4.39657 24.3026 4.3839 17.2214C4.38859 13.821 5.74147 10.5613 8.14596 8.15673C10.5504 5.75219 13.8103 4.39909 17.2109 4.39406C20.6111 4.39942 23.8705 5.7525 26.2746 8.15672C28.6788 10.561 30.0317 13.8202 30.0367 17.2201C30.024 24.3014 24.294 30.0335 17.2109 30.0436V30.0462ZM8.50122 17.2214C8.50122 16.8854 8.36774 16.5632 8.13016 16.3256C7.89258 16.0881 7.57035 15.9546 7.23435 15.9546C6.89836 15.9546 6.57612 16.0881 6.33854 16.3256C6.10096 16.5632 5.96748 16.8854 5.96748 17.2214C5.96748 17.5574 6.10096 17.8796 6.33854 18.1171C6.57612 18.3547 6.89836 18.4882 7.23435 18.4882C7.57035 18.4882 7.89258 18.3547 8.13016 18.1171C8.36774 17.8796 8.50122 17.5574 8.50122 17.2214ZM7.9362 21.1129C7.71912 21.2383 7.54411 21.4252 7.43333 21.65C7.32255 21.8749 7.28096 22.1276 7.31385 22.3761C7.34673 22.6245 7.45261 22.8577 7.61806 23.046C7.78352 23.2343 8.00113 23.3693 8.24334 23.4339C8.48556 23.4985 8.74149 23.4897 8.97875 23.4088C9.216 23.3279 9.42392 23.1784 9.57618 22.9793C9.72843 22.7802 9.81819 22.5404 9.83409 22.2902C9.84998 22.04 9.7913 21.7908 9.66547 21.574C9.4963 21.284 9.21929 21.0726 8.89486 20.986C8.57043 20.8993 8.22491 20.9445 7.93366 21.1116L7.9362 21.1129ZM9.20306 11.1358C9.05874 11.0463 8.89791 10.9868 8.73011 10.9607C8.56232 10.9346 8.39099 10.9425 8.22631 10.9839C8.06164 11.0254 7.90697 11.0995 7.7715 11.2019C7.63604 11.3043 7.52255 11.4328 7.43777 11.58C7.35299 11.7271 7.29865 11.8898 7.27799 12.0583C7.25733 12.2268 7.27077 12.3978 7.3175 12.561C7.36423 12.7243 7.44331 12.8765 7.55003 13.0085C7.65675 13.1406 7.78893 13.2499 7.93873 13.3299C8.22865 13.4819 8.56619 13.5158 8.88057 13.4245C9.19496 13.3332 9.46178 13.1237 9.6251 12.84C9.78843 12.5563 9.83558 12.2204 9.75666 11.9027C9.67775 11.585 9.48016 11.3101 9.20306 11.1358ZM26.4857 13.3299C26.6374 13.251 26.7716 13.1422 26.8802 13.0101C26.9888 12.878 27.0695 12.7252 27.1175 12.5611C27.1654 12.3969 27.1797 12.2248 27.1593 12.055C27.1389 11.8852 27.0844 11.7213 26.999 11.5731C26.9135 11.425 26.799 11.2956 26.6623 11.1929C26.5255 11.0902 26.3694 11.0163 26.2033 10.9755C26.0372 10.9348 25.8645 10.9281 25.6958 10.9559C25.527 10.9836 25.3656 11.0453 25.2213 11.1371C24.9459 11.3123 24.7488 11.587 24.6711 11.904C24.5933 12.221 24.6409 12.5558 24.8039 12.8386C24.967 13.1213 25.2329 13.3302 25.5462 13.4218C25.8595 13.5133 26.196 13.4804 26.4857 13.3299ZM12.8542 24.765C12.5644 24.6147 12.2279 24.582 11.9146 24.6736C11.6013 24.7651 11.3353 24.974 11.1721 25.2566C11.0089 25.5393 10.961 25.874 11.0383 26.1911C11.1157 26.5082 11.3123 26.7832 11.5873 26.959C11.8781 27.1244 12.2225 27.168 12.5454 27.0803C12.8682 26.9927 13.1433 26.7809 13.3106 26.4912C13.4779 26.2015 13.5238 25.8574 13.4382 25.534C13.3527 25.2106 13.1428 24.9342 12.8542 24.765ZM12.8542 9.67776C13.1451 9.50977 13.3575 9.23309 13.4444 8.90858C13.5314 8.58407 13.4858 8.2383 13.3178 7.94735C13.1928 7.73046 13.0063 7.55552 12.7818 7.44466C12.5574 7.33379 12.3051 7.29199 12.0568 7.32452C11.8086 7.35706 11.5756 7.46249 11.3873 7.62746C11.199 7.79243 11.0639 8.00954 10.999 8.25132C10.9341 8.4931 10.9424 8.7487 11.0228 8.98577C11.1032 9.22284 11.2521 9.43074 11.4507 9.58316C11.6493 9.73559 11.8887 9.82569 12.1385 9.84208C12.3883 9.85847 12.6374 9.8004 12.8542 9.67523V9.67776ZM26.4857 21.1129C26.1946 20.9458 25.8493 20.9007 25.5251 20.9873C25.2008 21.0739 24.9241 21.2853 24.7551 21.5753C24.5995 21.8654 24.5629 22.2047 24.653 22.5213C24.743 22.838 24.9527 23.1072 25.2377 23.2721C25.5227 23.437 25.8606 23.4845 26.1801 23.4047C26.4995 23.325 26.7754 23.1241 26.9493 22.8446C27.1172 22.5533 27.1628 22.2074 27.0761 21.8826C26.9895 21.5578 26.7776 21.2806 26.4869 21.1116L26.4857 21.1129ZM22.8358 7.48245C22.5458 7.33072 22.2083 7.29703 21.8939 7.38841C21.5796 7.47979 21.3128 7.68917 21.1493 7.97274C20.9858 8.25632 20.9384 8.59212 21.0168 8.9099C21.0953 9.22768 21.2936 9.50282 21.5702 9.67776C21.7145 9.76341 21.8743 9.81956 22.0405 9.84293C22.2066 9.8663 22.3758 9.85644 22.5381 9.81392C22.7004 9.77139 22.8526 9.69705 22.986 9.59522C23.1193 9.49338 23.2311 9.36607 23.3148 9.22068C23.3986 9.0753 23.4526 8.91473 23.4737 8.7483C23.4949 8.58186 23.4828 8.41289 23.4381 8.25117C23.3934 8.08946 23.3171 7.93823 23.2135 7.80627C23.1098 7.6743 22.9811 7.56423 22.8346 7.48245H22.8358ZM27.1938 15.9546C26.8578 15.9546 26.5356 16.0881 26.298 16.3256C26.0605 16.5632 25.927 16.8854 25.927 17.2214C25.927 17.5574 26.0605 17.8796 26.298 18.1171C26.5356 18.3547 26.8578 18.4882 27.1938 18.4882C27.5298 18.4882 27.8521 18.3547 28.0897 18.1171C28.3272 17.8796 28.4607 17.5574 28.4607 17.2214C28.4607 16.8854 28.3272 16.5632 28.0897 16.3256C27.8521 16.0881 27.5298 15.9546 27.1938 15.9546ZM17.2109 5.97753C16.5142 5.97753 15.9441 6.54504 15.9441 7.2443L15.355 16.5462L11.5493 19.0291C11.2583 19.1972 11.0461 19.4741 10.9592 19.7987C10.8724 20.1233 10.9181 20.4692 11.0863 20.7601C11.2544 21.0511 11.5313 21.2633 11.8559 21.3501C12.1806 21.437 12.5265 21.3913 12.8174 21.2231L17.0057 19.0987C17.0741 19.1076 17.1425 19.1203 17.2147 19.1203C18.2662 19.1203 19.115 18.2715 19.115 17.2201L18.4816 7.24303C18.4816 6.90706 18.3481 6.58485 18.1105 6.34729C17.873 6.10972 17.5507 5.97626 17.2147 5.97626L17.2109 5.97753ZM17.2109 25.933C16.5142 25.933 15.9441 26.4992 15.9441 27.1997C15.9441 27.9003 16.5142 28.4665 17.2109 28.4665C17.9077 28.4665 18.4778 27.9003 18.4778 27.1997C18.4778 26.4992 17.9115 25.933 17.2109 25.933ZM21.569 24.765C21.3516 24.8899 21.1761 25.0764 21.0648 25.301C20.9535 25.5256 20.9113 25.7782 20.9436 26.0268C20.9759 26.2753 21.0813 26.5088 21.2463 26.6974C21.4114 26.8861 21.6287 27.0216 21.8708 27.0867C22.1129 27.1519 22.3688 27.1437 22.6063 27.0633C22.8437 26.9829 23.052 26.8339 23.2047 26.6351C23.3574 26.4363 23.4476 26.1966 23.4641 25.9465C23.4805 25.6964 23.4223 25.447 23.297 25.2299C23.2139 25.0857 23.1032 24.9594 22.9713 24.858C22.8393 24.7566 22.6887 24.6822 22.528 24.639C22.3673 24.5958 22.1997 24.5847 22.0347 24.6063C21.8697 24.628 21.7106 24.6819 21.5664 24.765H21.569Z" fill="#1D1D1D"/>
</svg>
